<svg viewBox="0 0 1200 900" fill="none" xmlns="http://www.w3.org/2000/svg"><path fill-rule="evenodd" clip-rule="evenodd" d="M574 166.6V733c0 7.511-6.094 13.6-13.61 13.6H81.61C74.095 746.6 68 740.511 68 733V166.6c0-7.511 6.094-13.6 13.61-13.6h478.78c7.515 0 13.61 6.089 13.61 13.6z" fill="#D2D2D2"></path><path fill-rule="evenodd" clip-rule="evenodd" d="M154.8 719.4h399.6v10.44H154.8V719.4zm0-16.8h399.6v10.44H154.8V702.6zm0-16h399.6v10.44H154.8V686.6zM87.2 171.4h467.2v10.4H87.2v-10.4z" fill="#A3A3A3"></path><path fill-rule="evenodd" clip-rule="evenodd" d="M92.66 200.232h456.68a5.432 5.432 0 013.85 1.594 5.447 5.447 0 011.595 3.849v456.628a5.443 5.443 0 01-5.444 5.444H92.659a5.444 5.444 0 01-5.444-5.444V205.675a5.444 5.444 0 015.444-5.443h.001z" fill="#EFFFBD"></path><path d="M112.675 683.719a3.42 3.42 0 00-1.318.35l-17.846 8.509a3.38 3.38 0 00-1.84 2.293l-4.37 19.104a3.301 3.301 0 00.48 2.605c.062.093.126.182.193.269l12.33 15.328c.651.8 1.63 1.26 2.661 1.256h19.776a3.471 3.471 0 002.664-1.27l12.324-15.332c.646-.8.888-1.857.64-2.86l-4.397-19.118a3.395 3.395 0 00-1.84-2.293l-17.819-8.49a3.429 3.429 0 00-1.654-.35l.016-.001z" fill="#4A4A4A"></path><path d="M112.838 690.229c-.614.043-1.08.57-1.048 1.185v.3c.028.342.08.68.147 1.014.098.64.134 1.29.106 1.938a1.167 1.167 0 01-.35.552l-.023.452c-.649.054-1.293.153-1.927.297a13.712 13.712 0 00-6.972 3.979l-.384-.272a.82.82 0 01-.633-.064 9.93 9.93 0 01-1.436-1.297 8.897 8.897 0 00-.7-.745l-.237-.188a1.282 1.282 0 00-.74-.28 1.022 1.022 0 00-.85.377 1.13 1.13 0 00.261 1.574l.221.176c.285.19.58.362.884.517.57.316 1.107.691 1.598 1.12.127.182.201.395.213.616l.35.32a13.797 13.797 0 00-2.175 9.616l-.449.128a1.458 1.458 0 01-.457.46 9.907 9.907 0 01-1.912.317 9.012 9.012 0 00-1.025.08l-.284.064h-.03a1.072 1.072 0 00-.62 1.812c.285.288.71.39 1.095.264h.02l.29-.032c.326-.098.645-.214.957-.35a9.953 9.953 0 011.86-.543c.221.013.433.088.612.216l.48-.08a13.867 13.867 0 006.15 7.69l-.196.408c.09.188.123.396.096.602a10.31 10.31 0 01-.966 1.749 8.882 8.882 0 00-.573.853l-.136.288a1.07 1.07 0 00.467 1.504c.178.085.376.119.573.099.403-.045.745-.313.886-.692l.133-.272c.122-.32.224-.647.308-.976.283-.7.437-1.451.824-1.915a.867.867 0 01.458-.225l.24-.437a13.801 13.801 0 009.842.024l.213.409a.831.831 0 01.544.328c.301.573.545 1.173.73 1.793.085.332.19.659.311.978l.133.273a1.073 1.073 0 001.9.21c.22-.34.23-.774.026-1.123l-.14-.288a8.83 8.83 0 00-.572-.85 11.344 11.344 0 01-.96-1.693.82.82 0 01.108-.64 3.67 3.67 0 01-.178-.43 13.89 13.89 0 006.122-7.718l.454.08a.851.851 0 01.598-.221c.635.122 1.258.32 1.86.544.313.144.633.266.958.369.077.02.19.038.275.059h.021a1.068 1.068 0 001.375-.779 1.074 1.074 0 00-.028-.584 1.071 1.071 0 00-.87-.714l-.31-.073a9.05 9.05 0 00-1.027-.08 9.824 9.824 0 01-1.912-.316 1.199 1.199 0 01-.46-.461l-.433-.128a13.845 13.845 0 00-2.22-9.595l.378-.35a.845.845 0 01.2-.605 10.035 10.035 0 011.584-1.114c.305-.155.6-.328.884-.517l.234-.19a1.075 1.075 0 00-.507-1.985 1.074 1.074 0 00-.821.319l-.237.19a8.95 8.95 0 00-.7.744c-.422.483-.89.924-1.397 1.317a1.183 1.183 0 01-.647.07l-.405.29a13.987 13.987 0 00-8.863-4.276c0-.16-.02-.4-.024-.475a.84.84 0 01-.35-.532 9.986 9.986 0 01.122-1.931c.07-.337.117-.673.148-1.014v-.32a1.13 1.13 0 00-1.05-1.185l-.014-.008-.001-.001zm-1.335 8.27l-.32 5.594h-.024a.963.963 0 01-.532.807.909.909 0 01-.96-.087l-4.588-3.25a10.986 10.986 0 015.29-2.88c.374-.08.751-.141 1.131-.183h.003v-.001zm2.67 0c2.41.3 4.654 1.383 6.39 3.08l-4.544 3.23a.938.938 0 01-.99.116.944.944 0 01-.538-.839l-.317-5.586-.001-.001zm-10.76 5.168l4.196 3.743v.024a.94.94 0 01.06 1.359.94.94 0 01-.43.257v.016l-5.384 1.548a10.977 10.977 0 011.56-6.95l-.002.003zm18.82 0a11.18 11.18 0 011.605 6.928l-5.392-1.553v-.021a.927.927 0 01-.668-.697.948.948 0 01.298-.92l4.163-3.724-.006-.013zm-10.254 4.035h1.716l1.05 1.332-.382 1.665-1.542.74-1.545-.74-.364-1.665 1.067-1.332zm5.498 4.544a.975.975 0 01.216 0l5.552.936a10.916 10.916 0 01-4.443 5.593l-2.146-5.194a.951.951 0 01.387-1.18.952.952 0 01.428-.131l.006-.024zm-9.324.024a.947.947 0 01.775.429.934.934 0 01.075.88v.02l-2.132 5.153a11.019 11.019 0 01-4.417-5.535l5.504-.933a.963.963 0 01.186 0l.01-.014h-.001zm4.65 2.24c.357-.01.69.18.86.494h.02l2.713 4.895-1.084.32a11.037 11.037 0 01-6.017-.31l2.722-4.895a.947.947 0 01.8-.473l-.014-.03v-.001z" fill="#fff" stroke="#fff" stroke-width=".5"></path><path fill="#8FBE00" d="M110 556h422v92H110zm0-98h422v92H110zm0-98h422v92H110z"></path><path fill-rule="evenodd" clip-rule="evenodd" d="M110 262h6v5.111h-.976V268H110v-6zm0 92h5.024v-5.111H116v-10.222h-6V354zm416 0h6v-6h-5.024v.889H526V354zm6-92h-5.024v5.111H526v10.222h6V262zm-406.928 0v6h10.047v-6h-10.047zm20.095 0v6h10.047v-6h-10.047zm20.095 0v6h10.048v-6h-10.048zm20.095 0v6h10.048v-6h-10.048zm20.095 0v6H215.5v-6h-10.048zm20.096 0v6h10.047v-6h-10.047zm20.095 0v6h10.047v-6h-10.047zm20.095 0v6h10.048v-6h-10.048zm20.095 0v6h10.048v-6h-10.048zm20.095 0v6h10.048v-6h-10.048zm20.096 0v6h10.047v-6h-10.047zm20.095 0v6h10.048v-6h-10.048zm20.095 0v6h10.048v-6h-10.048zm20.095 0v6h10.048v-6h-10.048zm20.096 0v6h10.047v-6h-10.047zm20.095 0v6h10.048v-6H426.5zm20.095 0v6h10.048v-6h-10.048zm20.095 0v6h10.048v-6H466.69zm20.096 0v6h10.047v-6h-10.047zm20.095 0v6h10.048v-6h-10.048zM532 287.556h-6v10.222h6v-10.222zM532 308h-6v10.222h6V308zm0 20.444h-6v10.223h6v-10.223zM516.928 354v-6h-10.047v6h10.047zm-20.095 0v-6h-10.047v6h10.047zm-20.095 0v-6H466.69v6h10.048zm-20.095 0v-6h-10.048v6h10.048zm-20.095 0v-6H426.5v6h10.048zm-20.096 0v-6h-10.047v6h10.047zm-20.095 0v-6H386.31v6h10.047zm-20.095 0v-6h-10.048v6h10.048zm-20.095 0v-6h-10.048v6h10.048zm-20.095 0v-6h-10.048v6h10.048zm-20.096 0v-6h-10.047v6h10.047zm-20.095 0v-6h-10.048v6h10.048zm-20.095 0v-6h-10.048v6h10.048zm-20.095 0v-6h-10.048v6h10.048zm-20.096 0v-6h-10.047v6h10.047zm-20.095 0v-6h-10.048v6H215.5zm-20.095 0v-6h-10.048v6h10.048zm-20.095 0v-6h-10.048v6h10.048zm-20.096 0v-6h-10.047v6h10.047zm-20.095 0v-6h-10.048v6h10.048zM110 328.444h6v-10.222h-6v10.222zM110 308h6v-10.222h-6V308zm0-20.444h6v-10.223h-6v10.223z" fill="#8FBE00"></path><path fill="#8FBE00" d="M667 556h422v92H667z"></path><path d="M739.678 504h11.378v-17.449h9.565c12.378 0 19.578-7.384 19.578-18.132 0-10.695-7.069-18.237-19.288-18.237h-21.233V504zm11.378-26.567v-17.949h7.673c6.57 0 9.75 3.574 9.75 8.935 0 5.335-3.18 9.014-9.697 9.014h-7.726zm51.848 27.355c9.986 0 16.713-4.861 18.29-12.35l-10.354-.684c-1.13 3.075-4.021 4.678-7.752 4.678-5.597 0-9.145-3.705-9.145-9.723v-.026h27.487v-3.075c0-13.717-8.304-20.497-18.973-20.497-11.878 0-19.577 8.435-19.577 20.891 0 12.798 7.594 20.786 20.024 20.786zm-8.961-25.043c.237-4.599 3.732-8.278 8.698-8.278 4.862 0 8.225 3.469 8.252 8.278h-16.95zm43.767.92c.026-5.203 3.127-8.252 7.647-8.252 4.494 0 7.201 2.944 7.174 7.884V504h11.195v-25.7c0-9.408-5.519-15.189-13.928-15.189-5.991 0-10.327 2.943-12.14 7.647h-.473v-7.122h-10.669V504h11.194v-23.335zm47.492 23.992c6.517 0 9.907-3.758 11.458-7.121h.473V504h11.037v-53.818h-11.169v20.234h-.341c-1.498-3.285-4.73-7.305-11.484-7.305-8.856 0-16.345 6.885-16.345 20.76 0 13.507 7.174 20.786 16.371 20.786zm3.548-8.908c-5.492 0-8.488-4.888-8.488-11.931 0-6.99 2.943-11.799 8.488-11.799 5.44 0 8.488 4.599 8.488 11.799 0 7.2-3.101 11.931-8.488 11.931zM915.154 504h11.194v-40.364h-11.194V504zm5.623-45.567c3.338 0 6.071-2.549 6.071-5.676 0-3.101-2.733-5.65-6.071-5.65-3.311 0-6.044 2.549-6.044 5.65 0 3.127 2.733 5.676 6.044 5.676zm23.513 22.232c.027-5.203 3.128-8.252 7.647-8.252 4.494 0 7.201 2.944 7.174 7.884V504h11.195v-25.7c0-9.408-5.518-15.189-13.927-15.189-5.992 0-10.328 2.943-12.141 7.647h-.473v-7.122h-10.669V504h11.194v-23.335zm50.804 39.312c11.536 0 19.736-5.255 19.736-15.583v-40.758h-11.12v6.78h-.42c-1.5-3.285-4.78-7.305-11.534-7.305-8.855 0-16.345 6.885-16.345 20.628 0 13.429 7.279 19.683 16.372 19.683 6.438 0 10.037-3.232 11.507-6.57h.48v7.385c0 5.544-3.55 7.699-8.414 7.699-4.94 0-7.436-2.155-8.356-4.599l-10.354 1.393c1.34 6.359 7.568 11.247 18.448 11.247zm.236-24.964c-5.492 0-8.488-4.362-8.488-11.326 0-6.859 2.943-11.668 8.488-11.668 5.44 0 8.49 4.599 8.49 11.668 0 7.121-3.1 11.326-8.49 11.326z" fill="#000"></path></svg>