<svg viewBox="0 0 1303 1002" xmlns="http://www.w3.org/2000/svg"><style>.sans-serif{font-family:-apple-system,BlinkMacSystemFont,'avenir next', avenir,'helvetica neue',helvetica,ubuntu,roboto,noto,'segoe ui',arial,sans-serif}</style><g fill="none" fill-rule="evenodd"><g transform="translate(747.000000, 135.000000)"><path fill="#F2D694" d="M93.5 192.5H174v44H93.5z"></path><path fill="#86B8B1" d="M94 149h80.5v44H94z"></path><text font-size="18.25" font-weight="bold" letter-spacing=".091" fill="#565656" class="sans-serif"><tspan x="115.568" y="19">CPU</tspan></text><text font-size="18.25" font-weight="bold" letter-spacing=".091" fill="#565656" class="sans-serif"><tspan x="249.159" y="19">Memory</tspan></text><path fill="#F2D694" d="M243 147.5h80.5v90H243z"></path><path fill="#86B8B1" d="M243 58h80.5v90H243z"></path><path fill="#424242" d="M0 236.5h417v2H0z"></path><text font-size="27.35" font-weight="bold" letter-spacing="-.871" fill="#4A4A4A" class="sans-serif"><tspan x="84.01" y="295">Cluster with 2 nodes</tspan></text></g><g transform="translate(747.000000, 569.000000)"><path fill="#D8D8D8" d="M93.5 215H174v22H93.5z"></path><path fill="#F2D694" d="M93.5 193H174v22H93.5z"></path><path fill="#86B8B1" d="M93.5 171H174v22H93.5z"></path><path fill="#F5A623" d="M93.5 149H174v22H93.5z"></path><text font-size="18.25" font-weight="bold" letter-spacing=".091" fill="#565656" class="sans-serif"><tspan x="115.568" y="19">CPU</tspan></text><text font-size="18.25" font-weight="bold" letter-spacing=".091" fill="#565656" class="sans-serif"><tspan x="249.159" y="19">Memory</tspan></text><path fill="#F2D694" d="M243 147h80.5v45H243z"></path><path fill="#D8D8D8" d="M243 192h80.5v45H243z"></path><path fill="#86B8B1" d="M243 102h80.5v45H243z"></path><path fill="#F5A623" d="M243 57h80.5v45H243z"></path><path fill="#424242" d="M0 236.5h417v2H0z"></path><text font-size="27.35" font-weight="bold" letter-spacing="-.871" fill="#4A4A4A" class="sans-serif"><tspan x="84.01" y="292">Cluster with 4 nodes</tspan></text></g><g transform="translate(139.000000, 100.000000)"><g transform="translate(0.000000, 275.099995)"><path d="M245 2.45v24.5a2.45 2.45 0 0 1-2.45 2.45H2.45A2.45 2.45 0 0 1 0 26.95V2.45A2.45 2.45 0 0 1 2.45 0h240.1A2.45 2.45 0 0 1 245 2.45z" fill="#7C7C7C"></path><g transform="translate(7.406977, 6.370000)"><path fill="#D8D8D8" d="M27.349 0h161.814v3.92H27.349z"></path><path fill="#D7D7D7" d="M5.88 0H9.8v3.92H5.88zM0 0h3.92v3.92H0z"></path></g><g transform="translate(7.406977, 12.740000)"><path fill="#D8D8D8" d="M27.349 0h161.814v3.92H27.349z"></path><path fill="#D7D7D7" d="M5.88 0H9.8v3.92H5.88zM0 0h3.92v3.92H0z"></path></g><g transform="translate(7.406977, 19.110000)"><path fill="#D8D8D8" d="M27.349 0h161.814v3.92H27.349z"></path><path fill="#D7D7D7" d="M5.88 0H9.8v3.92H5.88zM0 0h3.92v3.92H0z"></path></g></g><g transform="translate(0.000000, 307.299995)"><path d="M245 2.45v24.5a2.45 2.45 0 0 1-2.45 2.45H2.45A2.45 2.45 0 0 1 0 26.95V2.45A2.45 2.45 0 0 1 2.45 0h240.1A2.45 2.45 0 0 1 245 2.45z" fill="#7C7C7C"></path><g transform="translate(7.406977, 6.370000)"><path fill="#D8D8D8" d="M27.349 0h161.814v3.92H27.349z"></path><path fill="#D7D7D7" d="M5.88 0H9.8v3.92H5.88zM0 0h3.92v3.92H0z"></path></g><g transform="translate(7.406977, 12.740000)"><path fill="#D8D8D8" d="M27.349 0h161.814v3.92H27.349z"></path><path fill="#D7D7D7" d="M5.88 0H9.8v3.92H5.88zM0 0h3.92v3.92H0z"></path></g><g transform="translate(7.406977, 19.110000)"><path fill="#D8D8D8" d="M27.349 0h161.814v3.92H27.349z"></path><path fill="#D7D7D7" d="M5.88 0H9.8v3.92H5.88zM0 0h3.92v3.92H0z"></path></g></g><g transform="translate(0.000000, 340.199994)"><path d="M245 2.45v24.5a2.45 2.45 0 0 1-2.45 2.45H2.45A2.45 2.45 0 0 1 0 26.95V2.45A2.45 2.45 0 0 1 2.45 0h240.1A2.45 2.45 0 0 1 245 2.45z" fill="#7C7C7C"></path><g transform="translate(7.406977, 6.370000)"><path fill="#D8D8D8" d="M27.349 0h161.814v3.92H27.349z"></path><path fill="#D7D7D7" d="M5.88 0H9.8v3.92H5.88zM0 0h3.92v3.92H0z"></path></g><g transform="translate(7.406977, 12.740000)"><path fill="#D8D8D8" d="M27.349 0h161.814v3.92H27.349z"></path><path fill="#D7D7D7" d="M5.88 0H9.8v3.92H5.88zM0 0h3.92v3.92H0z"></path></g><g transform="translate(7.406977, 19.110000)"><path fill="#D8D8D8" d="M27.349 0h161.814v3.92H27.349z"></path><path fill="#D7D7D7" d="M5.88 0H9.8v3.92H5.88zM0 0h3.92v3.92H0z"></path></g></g><path d="M245 2.45v266.56a2.45 2.45 0 0 1-2.45 2.45H2.45A2.45 2.45 0 0 1 0 269.01V2.45A2.45 2.45 0 0 1 2.45 0h240.1A2.45 2.45 0 0 1 245 2.45z" fill="#7C7C7C"></path><path d="M177.927 261.795h3.92v3.92h-3.92zm-5.88 0h3.92v3.92h-3.92zm-5.88 0h3.92v3.92h-3.92zm-5.88 0h3.92v3.92h-3.92zm-5.88 0h3.92v3.92h-3.92zm-5.88 0h3.92v3.92h-3.92zm-5.88 0h3.92v3.92h-3.92zm-5.88 0h3.92v3.92h-3.92zm-5.88 0h3.92v3.92h-3.92zm-5.88 0h3.92v3.92h-3.92zm-5.88 0h3.92v3.92h-3.92zm-5.88 0h3.92v3.92h-3.92zm-5.88 0h3.92v3.92h-3.92zm-5.88 0h3.92v3.92h-3.92zm-5.88 0h3.92v3.92h-3.92zm-5.88 0h3.92v3.92h-3.92zm-5.88 0h3.92v3.92h-3.92zm-5.88 0h3.92v3.92h-3.92zm-5.88 0h3.92v3.92h-3.92zm-5.88 0h3.92v3.92h-3.92zm-5.88 0h3.92v3.92h-3.92zm-5.88 0h3.92v3.92h-3.92zm-5.88 0h3.92v3.92h-3.92zm-5.88 0h3.92v3.92h-3.92zm-5.88 0h3.92v3.92h-3.92zm-5.88 0h3.92v3.92h-3.92zm-5.88 0h3.92v3.92h-3.92zm-5.88 0h3.92v3.92h-3.92zm-5.88 0h3.92v3.92h-3.92zm-5.88 0h3.92v3.92h-3.92zm188.16 0h3.92v3.92h-3.92zm-5.88 0h3.92v3.92h-3.92zm-5.88 0h3.92v3.92h-3.92zm17.64 0h3.92v3.92h-3.92zm5.88 0h3.92v3.92h-3.92zm17.64 0h3.92v3.92h-3.92zm-5.88 0h3.92v3.92h-3.92zm-5.88 0h3.92v3.92h-3.92zm17.64 0h3.92v3.92h-3.92zm-52.92-244.152h3.92v3.92h-3.92zm-5.88 0h3.92v3.92h-3.92zm-5.88 0h3.92v3.92h-3.92zm-5.88 0h3.92v3.92h-3.92zm-5.88 0h3.92v3.92h-3.92zm-5.88 0h3.92v3.92h-3.92zm-5.88 0h3.92v3.92h-3.92zm-5.88 0h3.92v3.92h-3.92zm-5.88 0h3.92v3.92h-3.92zm-5.88 0h3.92v3.92h-3.92zm-5.88 0h3.92v3.92h-3.92zm-5.88 0h3.92v3.92h-3.92zm-5.88 0h3.92v3.92h-3.92zm-5.88 0h3.92v3.92h-3.92zm-5.88 0h3.92v3.92h-3.92zm-5.88 0h3.92v3.92h-3.92zm-5.88 0h3.92v3.92h-3.92zm-5.88 0h3.92v3.92h-3.92zm-5.88 0h3.92v3.92h-3.92zm-5.88 0h3.92v3.92h-3.92zm-5.88 0h3.92v3.92h-3.92zm-5.88 0h3.92v3.92h-3.92zm-5.88 0h3.92v3.92h-3.92zm-5.88 0h3.92v3.92h-3.92zm-5.88 0h3.92v3.92h-3.92zm-5.88 0h3.92v3.92h-3.92zm-5.88 0h3.92v3.92h-3.92zm-5.88 0h3.92v3.92h-3.92zm-5.88 0h3.92v3.92h-3.92zm-5.88 0h3.92v3.92h-3.92zm170.52-5.88h3.92v3.92h-3.92zm-5.88 0h3.92v3.92h-3.92zm-5.88 0h3.92v3.92h-3.92zm-5.88 0h3.92v3.92h-3.92zm-5.88 0h3.92v3.92h-3.92zm-5.88 0h3.92v3.92h-3.92zm-5.88 0h3.92v3.92h-3.92zm-5.88 0h3.92v3.92h-3.92zm-5.88 0h3.92v3.92h-3.92zm-5.88 0h3.92v3.92h-3.92zm-5.88 0h3.92v3.92h-3.92zm-5.88 0h3.92v3.92h-3.92zm-5.88 0h3.92v3.92h-3.92zm-5.88 0h3.92v3.92h-3.92zm-5.88 0h3.92v3.92h-3.92zm-5.88 0h3.92v3.92h-3.92zm-5.88 0h3.92v3.92h-3.92zm-5.88 0h3.92v3.92h-3.92zm-5.88 0h3.92v3.92h-3.92zm-5.88 0h3.92v3.92h-3.92zm-5.88 0h3.92v3.92h-3.92zm-5.88 0h3.92v3.92h-3.92zm-5.88 0h3.92v3.92h-3.92zm-5.88 0h3.92v3.92h-3.92zm-5.88 0h3.92v3.92h-3.92zm-5.88 0h3.92v3.92h-3.92zm-5.88 0h3.92v3.92h-3.92zm-5.88 0h3.92v3.92h-3.92zm-5.88 0h3.92v3.92h-3.92zm-5.88 0h3.92v3.92h-3.92zm170.52-5.88h3.92v3.92h-3.92zm-5.88 0h3.92v3.92h-3.92zm-5.88 0h3.92v3.92h-3.92zm-5.88 0h3.92v3.92h-3.92zm35.28 11.76h3.92v3.92h-3.92zm-5.88 0h3.92v3.92h-3.92zm-5.88 0h3.92v3.92h-3.92zm11.76-5.88h3.92v3.92h-3.92zm-5.88 0h3.92v3.92h-3.92zm-5.88 0h3.92v3.92h-3.92zm11.76-5.88h3.92v3.92h-3.92zm5.88 11.76h3.92v3.92h-3.92zm0-5.88h3.92v3.92h-3.92zm0-5.88h3.92v3.92h-3.92zm6.3 11.76h3.92v3.92h-3.92zm0-5.88h3.92v3.92h-3.92zm0-5.88h3.92v3.92h-3.92zm5.6 11.76h3.92v3.92h-3.92zm0-5.88h3.92v3.92h-3.92zm0-5.88h3.92v3.92h-3.92zm5.6 11.76h3.92v3.92h-3.92zm0-5.88h3.92v3.92h-3.92zm0-5.88h3.92v3.92h-3.92zm5.6 11.76h3.92v3.92h-3.92zm0-5.88h3.92v3.92h-3.92zm0-5.88h3.92v3.92h-3.92zm5.6 11.76h3.92v3.92h-3.92zm0-5.88h3.92v3.92h-3.92zm0-5.88h3.92v3.92h-3.92zm-40.46 0h3.92v3.92h-3.92zm-5.88 0h3.92v3.92h-3.92zm-29.4 0h3.92v3.92h-3.92zm-5.88 0h3.92v3.92h-3.92zm-5.88 0h3.92v3.92h-3.92zm-5.88 0h3.92v3.92h-3.92zm-5.88 0h3.92v3.92h-3.92zm-5.88 0h3.92v3.92h-3.92zm-5.88 0h3.92v3.92h-3.92zm-5.88 0h3.92v3.92h-3.92zm-5.88 0h3.92v3.92h-3.92zm-5.88 0h3.92v3.92h-3.92zm-5.88 0h3.92v3.92h-3.92zm-5.88 0h3.92v3.92h-3.92zm-5.88 0h3.92v3.92h-3.92zm-5.88 0h3.92v3.92h-3.92zm-5.88 0h3.92v3.92h-3.92zm-5.88 0h3.92v3.92h-3.92zm-5.88 0h3.92v3.92h-3.92zm-5.88 0h3.92v3.92h-3.92zm-5.88 0h3.92v3.92h-3.92zm-5.88 0h3.92v3.92h-3.92zm-5.88 0h3.92v3.92h-3.92zm-5.88 0h3.92v3.92h-3.92zm-5.88 0h3.92v3.92h-3.92zm-5.88 0h3.92v3.92h-3.92zm-5.88 0h3.92v3.92h-3.92zm-5.88 0h3.92v3.92h-3.92z" fill="#D7D7D7"></path><rect fill="#FFF" x="7.407" y="27.454" width="230.186" height="227.477" rx=".98"></rect><g transform="translate(216.299996, 281.469995)"><path fill="#00CD00" d="M11.76 0h3.92v3.92h-3.92z"></path><path fill="#D7D400" d="M5.88 0H9.8v3.92H5.88z"></path><path fill="#FF3C00" d="M0 0h3.92v3.92H0z"></path><path fill="#00CD00" d="M17.64 0h3.92v3.92h-3.92zm-5.88 6.37h3.92v3.92h-3.92z"></path><path fill="#D7D400" d="M5.88 6.37H9.8v3.92H5.88z"></path><path fill="#FF3C00" d="M0 6.37h3.92v3.92H0z"></path><path fill="#00CD00" d="M17.64 6.37h3.92v3.92h-3.92zm-5.88 6.37h3.92v3.92h-3.92z"></path><path fill="#D7D400" d="M5.88 12.74H9.8v3.92H5.88z"></path><path fill="#FF3C00" d="M0 12.74h3.92v3.92H0z"></path><path fill="#00CD00" d="M17.64 12.74h3.92v3.92h-3.92zM11.76 32.2h3.92v3.92h-3.92z"></path><path fill="#D7D400" d="M5.88 32.2H9.8v3.92H5.88z"></path><path fill="#FF3C00" d="M0 32.2h3.92v3.92H0z"></path><path fill="#00CD00" d="M17.64 32.2h3.92v3.92h-3.92zm-5.88 6.37h3.92v3.92h-3.92z"></path><path fill="#D7D400" d="M5.88 38.57H9.8v3.92H5.88z"></path><path fill="#FF3C00" d="M0 38.57h3.92v3.92H0z"></path><path fill="#00CD00" d="M17.64 38.57h3.92v3.92h-3.92zm-5.88 6.37h3.92v3.92h-3.92z"></path><path fill="#D7D400" d="M5.88 44.94H9.8v3.92H5.88z"></path><path fill="#FF3C00" d="M0 44.94h3.92v3.92H0z"></path><path fill="#00CD00" d="M17.64 44.94h3.92v3.92h-3.92zM11.76 65.1h3.92v3.92h-3.92z"></path><path fill="#D7D400" d="M5.88 65.1H9.8v3.92H5.88z"></path><path fill="#FF3C00" d="M0 65.1h3.92v3.92H0z"></path><path fill="#00CD00" d="M17.64 65.1h3.92v3.92h-3.92zm-5.88 6.37h3.92v3.92h-3.92z"></path><path fill="#D7D400" d="M5.88 71.47H9.8v3.92H5.88z"></path><path fill="#FF3C00" d="M0 71.47h3.92v3.92H0z"></path><path fill="#00CD00" d="M17.64 71.47h3.92v3.92h-3.92zm-5.88 6.37h3.92v3.92h-3.92z"></path><path fill="#D7D400" d="M5.88 77.84H9.8v3.92H5.88z"></path><path fill="#FF3C00" d="M0 77.84h3.92v3.92H0z"></path><path fill="#00CD00" d="M17.64 77.84h3.92v3.92h-3.92z"></path></g><g transform="translate(255.000000, 0.000000)"><g transform="translate(0.000000, 275.099995)"><path d="M245 2.45v24.5a2.45 2.45 0 0 1-2.45 2.45H2.45A2.45 2.45 0 0 1 0 26.95V2.45A2.45 2.45 0 0 1 2.45 0h240.1A2.45 2.45 0 0 1 245 2.45z" fill="#7C7C7C"></path><g transform="translate(7.406977, 6.370000)"><path fill="#D8D8D8" d="M27.349 0h161.814v3.92H27.349z"></path><path fill="#D7D7D7" d="M5.88 0H9.8v3.92H5.88zM0 0h3.92v3.92H0z"></path></g><g transform="translate(7.406977, 12.740000)"><path fill="#D8D8D8" d="M27.349 0h161.814v3.92H27.349z"></path><path fill="#D7D7D7" d="M5.88 0H9.8v3.92H5.88zM0 0h3.92v3.92H0z"></path></g><g transform="translate(7.406977, 19.110000)"><path fill="#D8D8D8" d="M27.349 0h161.814v3.92H27.349z"></path><path fill="#D7D7D7" d="M5.88 0H9.8v3.92H5.88zM0 0h3.92v3.92H0z"></path></g></g><g transform="translate(0.000000, 307.299995)"><path d="M245 2.45v24.5a2.45 2.45 0 0 1-2.45 2.45H2.45A2.45 2.45 0 0 1 0 26.95V2.45A2.45 2.45 0 0 1 2.45 0h240.1A2.45 2.45 0 0 1 245 2.45z" fill="#7C7C7C"></path><g transform="translate(7.406977, 6.370000)"><path fill="#D8D8D8" d="M27.349 0h161.814v3.92H27.349z"></path><path fill="#D7D7D7" d="M5.88 0H9.8v3.92H5.88zM0 0h3.92v3.92H0z"></path></g><g transform="translate(7.406977, 12.740000)"><path fill="#D8D8D8" d="M27.349 0h161.814v3.92H27.349z"></path><path fill="#D7D7D7" d="M5.88 0H9.8v3.92H5.88zM0 0h3.92v3.92H0z"></path></g><g transform="translate(7.406977, 19.110000)"><path fill="#D8D8D8" d="M27.349 0h161.814v3.92H27.349z"></path><path fill="#D7D7D7" d="M5.88 0H9.8v3.92H5.88zM0 0h3.92v3.92H0z"></path></g></g><g transform="translate(0.000000, 340.199994)"><path d="M245 2.45v24.5a2.45 2.45 0 0 1-2.45 2.45H2.45A2.45 2.45 0 0 1 0 26.95V2.45A2.45 2.45 0 0 1 2.45 0h240.1A2.45 2.45 0 0 1 245 2.45z" fill="#7C7C7C"></path><g transform="translate(7.406977, 6.370000)"><path fill="#D8D8D8" d="M27.349 0h161.814v3.92H27.349z"></path><path fill="#D7D7D7" d="M5.88 0H9.8v3.92H5.88zM0 0h3.92v3.92H0z"></path></g><g transform="translate(7.406977, 12.740000)"><path fill="#D8D8D8" d="M27.349 0h161.814v3.92H27.349z"></path><path fill="#D7D7D7" d="M5.88 0H9.8v3.92H5.88zM0 0h3.92v3.92H0z"></path></g><g transform="translate(7.406977, 19.110000)"><path fill="#D8D8D8" d="M27.349 0h161.814v3.92H27.349z"></path><path fill="#D7D7D7" d="M5.88 0H9.8v3.92H5.88zM0 0h3.92v3.92H0z"></path></g></g><path d="M245 2.45v266.56a2.45 2.45 0 0 1-2.45 2.45H2.45A2.45 2.45 0 0 1 0 269.01V2.45A2.45 2.45 0 0 1 2.45 0h240.1A2.45 2.45 0 0 1 245 2.45z" fill="#7C7C7C"></path><path d="M177.927 261.795h3.92v3.92h-3.92zm-5.88 0h3.92v3.92h-3.92zm-5.88 0h3.92v3.92h-3.92zm-5.88 0h3.92v3.92h-3.92zm-5.88 0h3.92v3.92h-3.92zm-5.88 0h3.92v3.92h-3.92zm-5.88 0h3.92v3.92h-3.92zm-5.88 0h3.92v3.92h-3.92zm-5.88 0h3.92v3.92h-3.92zm-5.88 0h3.92v3.92h-3.92zm-5.88 0h3.92v3.92h-3.92zm-5.88 0h3.92v3.92h-3.92zm-5.88 0h3.92v3.92h-3.92zm-5.88 0h3.92v3.92h-3.92zm-5.88 0h3.92v3.92h-3.92zm-5.88 0h3.92v3.92h-3.92zm-5.88 0h3.92v3.92h-3.92zm-5.88 0h3.92v3.92h-3.92zm-5.88 0h3.92v3.92h-3.92zm-5.88 0h3.92v3.92h-3.92zm-5.88 0h3.92v3.92h-3.92zm-5.88 0h3.92v3.92h-3.92zm-5.88 0h3.92v3.92h-3.92zm-5.88 0h3.92v3.92h-3.92zm-5.88 0h3.92v3.92h-3.92zm-5.88 0h3.92v3.92h-3.92zm-5.88 0h3.92v3.92h-3.92zm-5.88 0h3.92v3.92h-3.92zm-5.88 0h3.92v3.92h-3.92zm-5.88 0h3.92v3.92h-3.92zm188.16 0h3.92v3.92h-3.92zm-5.88 0h3.92v3.92h-3.92zm-5.88 0h3.92v3.92h-3.92zm17.64 0h3.92v3.92h-3.92zm5.88 0h3.92v3.92h-3.92zm17.64 0h3.92v3.92h-3.92zm-5.88 0h3.92v3.92h-3.92zm-5.88 0h3.92v3.92h-3.92zm17.64 0h3.92v3.92h-3.92zm-52.92-244.152h3.92v3.92h-3.92zm-5.88 0h3.92v3.92h-3.92zm-5.88 0h3.92v3.92h-3.92zm-5.88 0h3.92v3.92h-3.92zm-5.88 0h3.92v3.92h-3.92zm-5.88 0h3.92v3.92h-3.92zm-5.88 0h3.92v3.92h-3.92zm-5.88 0h3.92v3.92h-3.92zm-5.88 0h3.92v3.92h-3.92zm-5.88 0h3.92v3.92h-3.92zm-5.88 0h3.92v3.92h-3.92zm-5.88 0h3.92v3.92h-3.92zm-5.88 0h3.92v3.92h-3.92zm-5.88 0h3.92v3.92h-3.92zm-5.88 0h3.92v3.92h-3.92zm-5.88 0h3.92v3.92h-3.92zm-5.88 0h3.92v3.92h-3.92zm-5.88 0h3.92v3.92h-3.92zm-5.88 0h3.92v3.92h-3.92zm-5.88 0h3.92v3.92h-3.92zm-5.88 0h3.92v3.92h-3.92zm-5.88 0h3.92v3.92h-3.92zm-5.88 0h3.92v3.92h-3.92zm-5.88 0h3.92v3.92h-3.92zm-5.88 0h3.92v3.92h-3.92zm-5.88 0h3.92v3.92h-3.92zm-5.88 0h3.92v3.92h-3.92zm-5.88 0h3.92v3.92h-3.92zm-5.88 0h3.92v3.92h-3.92zm-5.88 0h3.92v3.92h-3.92zm170.52-5.88h3.92v3.92h-3.92zm-5.88 0h3.92v3.92h-3.92zm-5.88 0h3.92v3.92h-3.92zm-5.88 0h3.92v3.92h-3.92zm-5.88 0h3.92v3.92h-3.92zm-5.88 0h3.92v3.92h-3.92zm-5.88 0h3.92v3.92h-3.92zm-5.88 0h3.92v3.92h-3.92zm-5.88 0h3.92v3.92h-3.92zm-5.88 0h3.92v3.92h-3.92zm-5.88 0h3.92v3.92h-3.92zm-5.88 0h3.92v3.92h-3.92zm-5.88 0h3.92v3.92h-3.92zm-5.88 0h3.92v3.92h-3.92zm-5.88 0h3.92v3.92h-3.92zm-5.88 0h3.92v3.92h-3.92zm-5.88 0h3.92v3.92h-3.92zm-5.88 0h3.92v3.92h-3.92zm-5.88 0h3.92v3.92h-3.92zm-5.88 0h3.92v3.92h-3.92zm-5.88 0h3.92v3.92h-3.92zm-5.88 0h3.92v3.92h-3.92zm-5.88 0h3.92v3.92h-3.92zm-5.88 0h3.92v3.92h-3.92zm-5.88 0h3.92v3.92h-3.92zm-5.88 0h3.92v3.92h-3.92zm-5.88 0h3.92v3.92h-3.92zm-5.88 0h3.92v3.92h-3.92zm-5.88 0h3.92v3.92h-3.92zm-5.88 0h3.92v3.92h-3.92zm170.52-5.88h3.92v3.92h-3.92zm-5.88 0h3.92v3.92h-3.92zm-5.88 0h3.92v3.92h-3.92zm-5.88 0h3.92v3.92h-3.92zm35.28 11.76h3.92v3.92h-3.92zm-5.88 0h3.92v3.92h-3.92zm-5.88 0h3.92v3.92h-3.92zm11.76-5.88h3.92v3.92h-3.92zm-5.88 0h3.92v3.92h-3.92zm-5.88 0h3.92v3.92h-3.92zm11.76-5.88h3.92v3.92h-3.92zm5.88 11.76h3.92v3.92h-3.92zm0-5.88h3.92v3.92h-3.92zm0-5.88h3.92v3.92h-3.92zm6.3 11.76h3.92v3.92h-3.92zm0-5.88h3.92v3.92h-3.92zm0-5.88h3.92v3.92h-3.92zm5.6 11.76h3.92v3.92h-3.92zm0-5.88h3.92v3.92h-3.92zm0-5.88h3.92v3.92h-3.92zm5.6 11.76h3.92v3.92h-3.92zm0-5.88h3.92v3.92h-3.92zm0-5.88h3.92v3.92h-3.92zm5.6 11.76h3.92v3.92h-3.92zm0-5.88h3.92v3.92h-3.92zm0-5.88h3.92v3.92h-3.92zm5.6 11.76h3.92v3.92h-3.92zm0-5.88h3.92v3.92h-3.92zm0-5.88h3.92v3.92h-3.92zm-40.46 0h3.92v3.92h-3.92zm-5.88 0h3.92v3.92h-3.92zm-29.4 0h3.92v3.92h-3.92zm-5.88 0h3.92v3.92h-3.92zm-5.88 0h3.92v3.92h-3.92zm-5.88 0h3.92v3.92h-3.92zm-5.88 0h3.92v3.92h-3.92zm-5.88 0h3.92v3.92h-3.92zm-5.88 0h3.92v3.92h-3.92zm-5.88 0h3.92v3.92h-3.92zm-5.88 0h3.92v3.92h-3.92zm-5.88 0h3.92v3.92h-3.92zm-5.88 0h3.92v3.92h-3.92zm-5.88 0h3.92v3.92h-3.92zm-5.88 0h3.92v3.92h-3.92zm-5.88 0h3.92v3.92h-3.92zm-5.88 0h3.92v3.92h-3.92zm-5.88 0h3.92v3.92h-3.92zm-5.88 0h3.92v3.92h-3.92zm-5.88 0h3.92v3.92h-3.92zm-5.88 0h3.92v3.92h-3.92zm-5.88 0h3.92v3.92h-3.92zm-5.88 0h3.92v3.92h-3.92zm-5.88 0h3.92v3.92h-3.92zm-5.88 0h3.92v3.92h-3.92zm-5.88 0h3.92v3.92h-3.92zm-5.88 0h3.92v3.92h-3.92zm-5.88 0h3.92v3.92h-3.92z" fill="#D7D7D7"></path><rect fill="#FFF" x="7.407" y="27.454" width="230.186" height="227.477" rx=".98"></rect><g transform="translate(216.299996, 281.469995)"><path fill="#00CD00" d="M11.76 0h3.92v3.92h-3.92z"></path><path fill="#D7D400" d="M5.88 0H9.8v3.92H5.88z"></path><path fill="#FF3C00" d="M0 0h3.92v3.92H0z"></path><path fill="#00CD00" d="M17.64 0h3.92v3.92h-3.92zm-5.88 6.37h3.92v3.92h-3.92z"></path><path fill="#D7D400" d="M5.88 6.37H9.8v3.92H5.88z"></path><path fill="#FF3C00" d="M0 6.37h3.92v3.92H0z"></path><path fill="#00CD00" d="M17.64 6.37h3.92v3.92h-3.92zm-5.88 6.37h3.92v3.92h-3.92z"></path><path fill="#D7D400" d="M5.88 12.74H9.8v3.92H5.88z"></path><path fill="#FF3C00" d="M0 12.74h3.92v3.92H0z"></path><path fill="#00CD00" d="M17.64 12.74h3.92v3.92h-3.92zM11.76 32.2h3.92v3.92h-3.92z"></path><path fill="#D7D400" d="M5.88 32.2H9.8v3.92H5.88z"></path><path fill="#FF3C00" d="M0 32.2h3.92v3.92H0z"></path><path fill="#00CD00" d="M17.64 32.2h3.92v3.92h-3.92zm-5.88 6.37h3.92v3.92h-3.92z"></path><path fill="#D7D400" d="M5.88 38.57H9.8v3.92H5.88z"></path><path fill="#FF3C00" d="M0 38.57h3.92v3.92H0z"></path><path fill="#00CD00" d="M17.64 38.57h3.92v3.92h-3.92zm-5.88 6.37h3.92v3.92h-3.92z"></path><path fill="#D7D400" d="M5.88 44.94H9.8v3.92H5.88z"></path><path fill="#FF3C00" d="M0 44.94h3.92v3.92H0z"></path><path fill="#00CD00" d="M17.64 44.94h3.92v3.92h-3.92zM11.76 65.1h3.92v3.92h-3.92z"></path><path fill="#D7D400" d="M5.88 65.1H9.8v3.92H5.88z"></path><path fill="#FF3C00" d="M0 65.1h3.92v3.92H0z"></path><path fill="#00CD00" d="M17.64 65.1h3.92v3.92h-3.92zm-5.88 6.37h3.92v3.92h-3.92z"></path><path fill="#D7D400" d="M5.88 71.47H9.8v3.92H5.88z"></path><path fill="#FF3C00" d="M0 71.47h3.92v3.92H0z"></path><path fill="#00CD00" d="M17.64 71.47h3.92v3.92h-3.92zm-5.88 6.37h3.92v3.92h-3.92z"></path><path fill="#D7D400" d="M5.88 77.84H9.8v3.92H5.88z"></path><path fill="#FF3C00" d="M0 77.84h3.92v3.92H0z"></path><path fill="#00CD00" d="M17.64 77.84h3.92v3.92h-3.92z"></path></g></g></g><g transform="translate(139.000000, 532.000000)"><g transform="translate(255.000000, 0.000000)"><g transform="translate(0.000000, 274.994160)"><path d="M117.41 2.45v24.5a2.45 2.45 0 0 1-2.45 2.45H2.45A2.45 2.45 0 0 1 0 26.95V2.45A2.45 2.45 0 0 1 2.45 0h112.51a2.45 2.45 0 0 1 2.45 2.45z" fill="#7C7C7C"></path><g transform="translate(6.370000, 6.372414)"><path fill="#D8D8D8" d="M23.52 0h49.959v3.921H23.52z"></path><path fill="#D7D7D7" d="M5.88 0H9.8v3.92H5.88zM0 0h3.92v3.92H0z"></path><path fill="#00CD00" d="M93.8 0h3.92v3.92H93.8z"></path><path fill="#D7D400" d="M88.2 0h3.92v3.92H88.2z"></path><path fill="#FF3C00" d="M82.6 0h3.92v3.92H82.6z"></path><path fill="#00CD00" d="M100.1 0h3.92v3.92h-3.92z"></path></g><g transform="translate(6.370000, 12.744827)"><path fill="#D8D8D8" d="M23.52 0h49.959v3.921H23.52z"></path><path fill="#D7D7D7" d="M5.88 0H9.8v3.92H5.88zM0 0h3.92v3.92H0z"></path><path fill="#00CD00" d="M93.8 0h3.92v3.92H93.8z"></path><path fill="#D7D400" d="M88.2 0h3.92v3.92H88.2z"></path><path fill="#FF3C00" d="M82.6 0h3.92v3.92H82.6z"></path><path fill="#00CD00" d="M100.1 0h3.92v3.92h-3.92z"></path></g><g transform="translate(6.370000, 19.117241)"><path fill="#D8D8D8" d="M23.52 0h49.959v3.921H23.52z"></path><path fill="#D7D7D7" d="M5.88 0H9.8v3.92H5.88zM0 0h3.92v3.92H0z"></path><path fill="#00CD00" d="M93.8 0h3.92v3.92H93.8z"></path><path fill="#D7D400" d="M88.2 0h3.92v3.92H88.2z"></path><path fill="#FF3C00" d="M82.6 0h3.92v3.92H82.6z"></path><path fill="#00CD00" d="M100.1 0h3.92v3.92h-3.92z"></path></g></g><g transform="translate(0.000000, 307.346414)"><path d="M117.41 2.45v24.5a2.45 2.45 0 0 1-2.45 2.45H2.45A2.45 2.45 0 0 1 0 26.95V2.45A2.45 2.45 0 0 1 2.45 0h112.51a2.45 2.45 0 0 1 2.45 2.45z" fill="#7C7C7C"></path><g transform="translate(6.370000, 6.372414)"><path fill="#D8D8D8" d="M23.52 0h49.959v3.921H23.52z"></path><path fill="#D7D7D7" d="M5.88 0H9.8v3.92H5.88zM0 0h3.92v3.92H0z"></path><path fill="#00CD00" d="M93.8 0h3.92v3.92H93.8z"></path><path fill="#D7D400" d="M88.2 0h3.92v3.92H88.2z"></path><path fill="#FF3C00" d="M82.6 0h3.92v3.92H82.6z"></path><path fill="#00CD00" d="M100.1 0h3.92v3.92h-3.92z"></path></g><g transform="translate(6.370000, 12.744827)"><path fill="#D8D8D8" d="M23.52 0h49.959v3.921H23.52z"></path><path fill="#D7D7D7" d="M5.88 0H9.8v3.92H5.88zM0 0h3.92v3.92H0z"></path><path fill="#00CD00" d="M93.8 0h3.92v3.92H93.8z"></path><path fill="#D7D400" d="M88.2 0h3.92v3.92H88.2z"></path><path fill="#FF3C00" d="M82.6 0h3.92v3.92H82.6z"></path><path fill="#00CD00" d="M100.1 0h3.92v3.92h-3.92z"></path></g><g transform="translate(6.370000, 19.117241)"><path fill="#D8D8D8" d="M23.52 0h49.959v3.921H23.52z"></path><path fill="#D7D7D7" d="M5.88 0H9.8v3.92H5.88zM0 0h3.92v3.92H0z"></path><path fill="#00CD00" d="M93.8 0h3.92v3.92H93.8z"></path><path fill="#D7D400" d="M88.2 0h3.92v3.92H88.2z"></path><path fill="#FF3C00" d="M82.6 0h3.92v3.92H82.6z"></path><path fill="#00CD00" d="M100.1 0h3.92v3.92h-3.92z"></path></g></g><g transform="translate(0.000000, 340.188854)"><path d="M117.41 2.45v24.5a2.45 2.45 0 0 1-2.45 2.45H2.45A2.45 2.45 0 0 1 0 26.95V2.45A2.45 2.45 0 0 1 2.45 0h112.51a2.45 2.45 0 0 1 2.45 2.45z" fill="#7C7C7C"></path><g transform="translate(6.370000, 6.372414)"><path fill="#D8D8D8" d="M23.52 0h49.959v3.921H23.52z"></path><path fill="#D7D7D7" d="M5.88 0H9.8v3.92H5.88zM0 0h3.92v3.92H0z"></path><path fill="#00CD00" d="M93.8 0h3.92v3.92H93.8z"></path><path fill="#D7D400" d="M88.2 0h3.92v3.92H88.2z"></path><path fill="#FF3C00" d="M82.6 0h3.92v3.92H82.6z"></path><path fill="#00CD00" d="M100.1 0h3.92v3.92h-3.92z"></path></g><g transform="translate(6.370000, 12.744827)"><path fill="#D8D8D8" d="M23.52 0h49.959v3.921H23.52z"></path><path fill="#D7D7D7" d="M5.88 0H9.8v3.92H5.88zM0 0h3.92v3.92H0z"></path><path fill="#00CD00" d="M93.8 0h3.92v3.92H93.8z"></path><path fill="#D7D400" d="M88.2 0h3.92v3.92H88.2z"></path><path fill="#FF3C00" d="M82.6 0h3.92v3.92H82.6z"></path><path fill="#00CD00" d="M100.1 0h3.92v3.92h-3.92z"></path></g><g transform="translate(6.370000, 19.117241)"><path fill="#D8D8D8" d="M23.52 0h49.959v3.921H23.52z"></path><path fill="#D7D7D7" d="M5.88 0H9.8v3.92H5.88zM0 0h3.92v3.92H0z"></path><path fill="#00CD00" d="M93.8 0h3.92v3.92H93.8z"></path><path fill="#D7D400" d="M88.2 0h3.92v3.92H88.2z"></path><path fill="#FF3C00" d="M82.6 0h3.92v3.92H82.6z"></path><path fill="#00CD00" d="M100.1 0h3.92v3.92h-3.92z"></path></g></g><path d="M116.9 2.45v266.56a2.45 2.45 0 0 1-2.45 2.45h-112A2.45 2.45 0 0 1 0 269.01V2.45A2.45 2.45 0 0 1 2.45 0h112a2.45 2.45 0 0 1 2.45 2.45z" fill="#7C7C7C"></path><path d="M106.33 261.795h3.92v3.92h-3.92zm-5.88 0h3.92v3.92h-3.92zm-5.88 0h3.92v3.92h-3.92zm-5.88 0h3.92v3.92h-3.92zm-5.88 0h3.92v3.92h-3.92zm-5.88 0h3.92v3.92h-3.92zm-5.88 0h3.92v3.92h-3.92zm-5.88 0h3.92v3.92h-3.92zm-5.88 0h3.92v3.92h-3.92zm-5.88 0h3.92v3.92h-3.92zm-5.88 0h3.92v3.92h-3.92zm-5.88 0h3.92v3.92h-3.92zm-5.88 0h3.92v3.92h-3.92zm-5.88 0h3.92v3.92h-3.92zm-5.88 0h3.92v3.92h-3.92zm-5.88 0h3.92v3.92h-3.92zm-5.88 0h3.92v3.92h-3.92zm-5.88 0h3.92v3.92H6.37zm99.96-244.152h3.92v3.92h-3.92zm-5.88 0h3.92v3.92h-3.92zm-5.88 0h3.92v3.92h-3.92zm-5.88 0h3.92v3.92h-3.92zm-5.88 0h3.92v3.92h-3.92zm-5.88 0h3.92v3.92h-3.92zm-5.88 0h3.92v3.92h-3.92zm-5.88 0h3.92v3.92h-3.92zm-5.88 0h3.92v3.92h-3.92zm-5.88 0h3.92v3.92h-3.92zm-5.88 0h3.92v3.92h-3.92zm-5.88 0h3.92v3.92h-3.92zm-5.88 0h3.92v3.92h-3.92zm-5.88 0h3.92v3.92h-3.92zm-5.88 0h3.92v3.92h-3.92zm-5.88 0h3.92v3.92h-3.92zm-5.88 0h3.92v3.92h-3.92zm-5.88 0h3.92v3.92H6.37zm99.96-5.88h3.92v3.92h-3.92zm-5.88 0h3.92v3.92h-3.92zm-5.88 0h3.92v3.92h-3.92zm-5.88 0h3.92v3.92h-3.92zm-5.88 0h3.92v3.92h-3.92zm-5.88 0h3.92v3.92h-3.92zm-5.88 0h3.92v3.92h-3.92zm-5.88 0h3.92v3.92h-3.92zm-5.88 0h3.92v3.92h-3.92zm-5.88 0h3.92v3.92h-3.92zm-5.88 0h3.92v3.92h-3.92zm-5.88 0h3.92v3.92h-3.92zm-5.88 0h3.92v3.92h-3.92zm-5.88 0h3.92v3.92h-3.92zm-5.88 0h3.92v3.92h-3.92zm-5.88 0h3.92v3.92h-3.92zm-5.88 0h3.92v3.92h-3.92zm-5.88 0h3.92v3.92H6.37zm99.96-5.88h3.92v3.92h-3.92zm-5.88 0h3.92v3.92h-3.92zm-5.88 0h3.92v3.92h-3.92zm-5.88 0h3.92v3.92h-3.92zm-5.88 0h3.92v3.92h-3.92zm-5.88 0h3.92v3.92h-3.92zm-5.88 0h3.92v3.92h-3.92zm-5.88 0h3.92v3.92h-3.92zm-5.88 0h3.92v3.92h-3.92zm-5.88 0h3.92v3.92h-3.92zm-5.88 0h3.92v3.92h-3.92zm-5.88 0h3.92v3.92h-3.92zm-5.88 0h3.92v3.92h-3.92zm-5.88 0h3.92v3.92h-3.92zm-5.88 0h3.92v3.92h-3.92zm-5.88 0h3.92v3.92h-3.92zm-5.88 0h3.92v3.92h-3.92zm-5.88 0h3.92v3.92H6.37z" fill="#D7D7D7"></path><rect fill="#FFF" x="6.37" y="27.454" width="104.16" height="227.477" rx=".98"></rect><g transform="translate(2.800000, 279.299995)"><path fill="#7C7C7C" d="M.07.039h24.5v21.7H.07z"></path><path d="M13.306 10.738h1.662V9.227h-1.662v1.511zm-1.965 0h1.663V9.227H11.34v1.511zm-1.964 0h1.662V9.227H9.377v1.511zm-1.965 0h1.663V9.227H7.412v1.511zm-1.964 0H7.11V9.227H5.448v1.511zm1.964-1.813h1.663V7.414H7.412v1.51zm1.965 0h1.662V7.414H9.377v1.51zm1.964 0h1.663V7.414H11.34v1.51zm0-1.814h1.663V5.6H11.34v1.511zm8.623 2.746c-.363-.243-1.197-.332-1.839-.21-.083-.605-.42-1.13-1.033-1.604l-.352-.235-.235.353c-.301.454-.451 1.083-.402 1.686.022.212.092.592.31.926a2.54 2.54 0 0 1-1.218.267H4.262l-.021.126c-.103.607-.1 2.498 1.127 3.952.934 1.105 2.333 1.665 4.16 1.665 3.96 0 6.89-1.823 8.262-5.136.539.01 1.7.003 2.297-1.137.016-.026.052-.095.156-.31l.057-.119-.336-.224z" fill="#D8D8D8"></path></g><g transform="translate(2.800000, 311.499995)"><path fill="#7C7C7C" d="M.07.039h24.5v21.7H.07z"></path><g transform="translate(5.600000, 4.900000)" fill="#D8D8D8"><path d="M5.518 7.424a.238.238 0 0 0-.275-.18l-.002-.004-1.39.236A2.79 2.79 0 0 0 4.97 8.878l.539-1.303-.004-.005a.235.235 0 0 0 .013-.146m-.462-1.002a.238.238 0 0 0 .093-.408l.001-.006-1.058-.947a2.775 2.775 0 0 0-.394 1.757l1.356-.392.002-.004zm.617-1.068a.237.237 0 0 0 .377-.182l.006-.003.08-1.413a2.775 2.775 0 0 0-1.624.778l1.159.821.002-.001zm.41 1.483l.39.188.39-.187.096-.42-.269-.337h-.434l-.27.336zm.81-1.67a.238.238 0 0 0 .378.181l.003.002 1.152-.816a2.799 2.799 0 0 0-1.615-.778l.08 1.41.002.001z"></path><path d="M11.214 7.607c-.033.144-.188.23-.348.197h-.004l-.005-.003-.07-.015c-.092-.024-.159-.061-.242-.093a2.519 2.519 0 0 0-.47-.138c-.073-.006-.11.03-.15.056a4.044 4.044 0 0 0-.116-.02 3.506 3.506 0 0 1-1.553 1.953c.013.032.035.098.045.11-.017.045-.042.088-.02.158.052.136.136.268.238.428.05.074.1.13.145.215l.035.072c.07.148.018.319-.115.383-.134.065-.3-.004-.372-.153-.01-.02-.025-.05-.033-.07-.039-.086-.052-.161-.079-.246a2.486 2.486 0 0 0-.184-.453c-.042-.06-.092-.068-.138-.083L7.72 9.8a3.495 3.495 0 0 1-2.486-.006l-.061.11c-.045.013-.09.025-.116.057-.098.117-.137.305-.209.484-.026.085-.04.16-.077.247l-.034.068c-.072.15-.238.218-.372.154-.133-.064-.184-.235-.115-.383.01-.022.024-.053.035-.073.044-.084.095-.141.144-.215.102-.16.192-.303.244-.438.013-.045-.006-.107-.024-.153l.05-.117a3.506 3.506 0 0 1-1.555-1.94l-.117.02c-.032-.018-.095-.06-.155-.055-.144.02-.291.075-.47.138-.083.032-.15.068-.241.093l-.07.016h-.005l-.004.002c-.16.034-.315-.053-.348-.197-.033-.144.07-.29.228-.328l.004-.001h.002c.023-.006.052-.014.072-.017.094-.018.17-.014.259-.021.188-.02.344-.036.483-.08.044-.018.086-.078.115-.116l.113-.033a3.486 3.486 0 0 1 .55-2.43l-.086-.078c-.006-.034-.013-.111-.054-.155-.106-.1-.24-.182-.401-.282-.077-.045-.147-.074-.224-.13l-.055-.045-.004-.003c-.13-.103-.16-.281-.067-.398a.26.26 0 0 1 .215-.095.32.32 0 0 1 .188.07l.06.049c.072.062.116.124.177.188.133.135.243.247.363.328.064.037.112.022.16.016l.098.07A3.465 3.465 0 0 1 6.177 3.04l.006-.114a.294.294 0 0 0 .088-.14c.012-.145-.007-.3-.03-.488-.013-.088-.033-.161-.037-.257v-.075c0-.166.12-.3.27-.3.148 0 .269.134.269.3v.076c-.003.096-.024.169-.036.257-.023.188-.043.343-.03.488.01.073.052.1.087.135l.007.12a3.53 3.53 0 0 1 2.236 1.08l.102-.072c.035.002.112.012.164-.018.12-.081.23-.194.363-.33.061-.063.106-.125.178-.187l.06-.048c.13-.103.309-.092.402.024.093.117.063.294-.066.398l-.06.047c-.076.057-.147.086-.224.13-.16.1-.294.183-.4.282-.05.054-.047.105-.051.153l-.096.086a3.488 3.488 0 0 1 .562 2.425l.109.03c.02.029.06.096.116.118.138.044.294.06.483.08.088.007.165.002.258.02.023.004.055.013.079.019.158.038.26.184.228.328m1.712.059l-1.112-4.831a.855.855 0 0 0-.466-.58L6.846.105a.867.867 0 0 0-.746 0L1.598 2.258a.855.855 0 0 0-.466.579L.022 7.665a.848.848 0 0 0 .165.723l3.116 3.874a.864.864 0 0 0 .673.32h4.996c.262 0 .51-.118.673-.32l3.115-3.875a.848.848 0 0 0 .166-.722"></path><path d="M8.848 5.062l-1.053.942v.003a.238.238 0 0 0 .093.408l.002.006 1.363.392a2.805 2.805 0 0 0-.405-1.751M6.682 7.935a.236.236 0 0 0-.217-.125.238.238 0 0 0-.201.125h-.001l-.684 1.237a2.786 2.786 0 0 0 1.794.001l-.685-1.238h-.006zM7.7 7.237a.237.237 0 0 0-.146.02.238.238 0 0 0-.114.308l-.002.002.545 1.316a2.778 2.778 0 0 0 1.123-1.411l-1.403-.237-.002.002z"></path></g></g><g transform="translate(127.399998, 0.000000)"><g transform="translate(0.000000, 274.994160)"><path d="M117.41 2.45v24.5a2.45 2.45 0 0 1-2.45 2.45H2.45A2.45 2.45 0 0 1 0 26.95V2.45A2.45 2.45 0 0 1 2.45 0h112.51a2.45 2.45 0 0 1 2.45 2.45z" fill="#7C7C7C"></path><g transform="translate(6.370000, 6.372414)"><path fill="#D8D8D8" d="M23.52 0h49.959v3.921H23.52z"></path><path fill="#D7D7D7" d="M5.88 0H9.8v3.92H5.88zM0 0h3.92v3.92H0z"></path><path fill="#00CD00" d="M93.8 0h3.92v3.92H93.8z"></path><path fill="#D7D400" d="M88.2 0h3.92v3.92H88.2z"></path><path fill="#FF3C00" d="M82.6 0h3.92v3.92H82.6z"></path><path fill="#00CD00" d="M100.1 0h3.92v3.92h-3.92z"></path></g><g transform="translate(6.370000, 12.744827)"><path fill="#D8D8D8" d="M23.52 0h49.959v3.921H23.52z"></path><path fill="#D7D7D7" d="M5.88 0H9.8v3.92H5.88zM0 0h3.92v3.92H0z"></path><path fill="#00CD00" d="M93.8 0h3.92v3.92H93.8z"></path><path fill="#D7D400" d="M88.2 0h3.92v3.92H88.2z"></path><path fill="#FF3C00" d="M82.6 0h3.92v3.92H82.6z"></path><path fill="#00CD00" d="M100.1 0h3.92v3.92h-3.92z"></path></g><g transform="translate(6.370000, 19.117241)"><path fill="#D8D8D8" d="M23.52 0h49.959v3.921H23.52z"></path><path fill="#D7D7D7" d="M5.88 0H9.8v3.92H5.88zM0 0h3.92v3.92H0z"></path><path fill="#00CD00" d="M93.8 0h3.92v3.92H93.8z"></path><path fill="#D7D400" d="M88.2 0h3.92v3.92H88.2z"></path><path fill="#FF3C00" d="M82.6 0h3.92v3.92H82.6z"></path><path fill="#00CD00" d="M100.1 0h3.92v3.92h-3.92z"></path></g></g><g transform="translate(0.000000, 307.346414)"><path d="M117.41 2.45v24.5a2.45 2.45 0 0 1-2.45 2.45H2.45A2.45 2.45 0 0 1 0 26.95V2.45A2.45 2.45 0 0 1 2.45 0h112.51a2.45 2.45 0 0 1 2.45 2.45z" fill="#7C7C7C"></path><g transform="translate(6.370000, 6.372414)"><path fill="#D8D8D8" d="M23.52 0h49.959v3.921H23.52z"></path><path fill="#D7D7D7" d="M5.88 0H9.8v3.92H5.88zM0 0h3.92v3.92H0z"></path><path fill="#00CD00" d="M93.8 0h3.92v3.92H93.8z"></path><path fill="#D7D400" d="M88.2 0h3.92v3.92H88.2z"></path><path fill="#FF3C00" d="M82.6 0h3.92v3.92H82.6z"></path><path fill="#00CD00" d="M100.1 0h3.92v3.92h-3.92z"></path></g><g transform="translate(6.370000, 12.744827)"><path fill="#D8D8D8" d="M23.52 0h49.959v3.921H23.52z"></path><path fill="#D7D7D7" d="M5.88 0H9.8v3.92H5.88zM0 0h3.92v3.92H0z"></path><path fill="#00CD00" d="M93.8 0h3.92v3.92H93.8z"></path><path fill="#D7D400" d="M88.2 0h3.92v3.92H88.2z"></path><path fill="#FF3C00" d="M82.6 0h3.92v3.92H82.6z"></path><path fill="#00CD00" d="M100.1 0h3.92v3.92h-3.92z"></path></g><g transform="translate(6.370000, 19.117241)"><path fill="#D8D8D8" d="M23.52 0h49.959v3.921H23.52z"></path><path fill="#D7D7D7" d="M5.88 0H9.8v3.92H5.88zM0 0h3.92v3.92H0z"></path><path fill="#00CD00" d="M93.8 0h3.92v3.92H93.8z"></path><path fill="#D7D400" d="M88.2 0h3.92v3.92H88.2z"></path><path fill="#FF3C00" d="M82.6 0h3.92v3.92H82.6z"></path><path fill="#00CD00" d="M100.1 0h3.92v3.92h-3.92z"></path></g></g><g transform="translate(0.000000, 340.188854)"><path d="M117.41 2.45v24.5a2.45 2.45 0 0 1-2.45 2.45H2.45A2.45 2.45 0 0 1 0 26.95V2.45A2.45 2.45 0 0 1 2.45 0h112.51a2.45 2.45 0 0 1 2.45 2.45z" fill="#7C7C7C"></path><g transform="translate(6.370000, 6.372414)"><path fill="#D8D8D8" d="M23.52 0h49.959v3.921H23.52z"></path><path fill="#D7D7D7" d="M5.88 0H9.8v3.92H5.88zM0 0h3.92v3.92H0z"></path><path fill="#00CD00" d="M93.8 0h3.92v3.92H93.8z"></path><path fill="#D7D400" d="M88.2 0h3.92v3.92H88.2z"></path><path fill="#FF3C00" d="M82.6 0h3.92v3.92H82.6z"></path><path fill="#00CD00" d="M100.1 0h3.92v3.92h-3.92z"></path></g><g transform="translate(6.370000, 12.744827)"><path fill="#D8D8D8" d="M23.52 0h49.959v3.921H23.52z"></path><path fill="#D7D7D7" d="M5.88 0H9.8v3.92H5.88zM0 0h3.92v3.92H0z"></path><path fill="#00CD00" d="M93.8 0h3.92v3.92H93.8z"></path><path fill="#D7D400" d="M88.2 0h3.92v3.92H88.2z"></path><path fill="#FF3C00" d="M82.6 0h3.92v3.92H82.6z"></path><path fill="#00CD00" d="M100.1 0h3.92v3.92h-3.92z"></path></g><g transform="translate(6.370000, 19.117241)"><path fill="#D8D8D8" d="M23.52 0h49.959v3.921H23.52z"></path><path fill="#D7D7D7" d="M5.88 0H9.8v3.92H5.88zM0 0h3.92v3.92H0z"></path><path fill="#00CD00" d="M93.8 0h3.92v3.92H93.8z"></path><path fill="#D7D400" d="M88.2 0h3.92v3.92H88.2z"></path><path fill="#FF3C00" d="M82.6 0h3.92v3.92H82.6z"></path><path fill="#00CD00" d="M100.1 0h3.92v3.92h-3.92z"></path></g></g><path d="M116.9 2.45v266.56a2.45 2.45 0 0 1-2.45 2.45h-112A2.45 2.45 0 0 1 0 269.01V2.45A2.45 2.45 0 0 1 2.45 0h112a2.45 2.45 0 0 1 2.45 2.45z" fill="#7C7C7C"></path><path d="M106.33 261.795h3.92v3.92h-3.92zm-5.88 0h3.92v3.92h-3.92zm-5.88 0h3.92v3.92h-3.92zm-5.88 0h3.92v3.92h-3.92zm-5.88 0h3.92v3.92h-3.92zm-5.88 0h3.92v3.92h-3.92zm-5.88 0h3.92v3.92h-3.92zm-5.88 0h3.92v3.92h-3.92zm-5.88 0h3.92v3.92h-3.92zm-5.88 0h3.92v3.92h-3.92zm-5.88 0h3.92v3.92h-3.92zm-5.88 0h3.92v3.92h-3.92zm-5.88 0h3.92v3.92h-3.92zm-5.88 0h3.92v3.92h-3.92zm-5.88 0h3.92v3.92h-3.92zm-5.88 0h3.92v3.92h-3.92zm-5.88 0h3.92v3.92h-3.92zm-5.88 0h3.92v3.92H6.37zm99.96-244.152h3.92v3.92h-3.92zm-5.88 0h3.92v3.92h-3.92zm-5.88 0h3.92v3.92h-3.92zm-5.88 0h3.92v3.92h-3.92zm-5.88 0h3.92v3.92h-3.92zm-5.88 0h3.92v3.92h-3.92zm-5.88 0h3.92v3.92h-3.92zm-5.88 0h3.92v3.92h-3.92zm-5.88 0h3.92v3.92h-3.92zm-5.88 0h3.92v3.92h-3.92zm-5.88 0h3.92v3.92h-3.92zm-5.88 0h3.92v3.92h-3.92zm-5.88 0h3.92v3.92h-3.92zm-5.88 0h3.92v3.92h-3.92zm-5.88 0h3.92v3.92h-3.92zm-5.88 0h3.92v3.92h-3.92zm-5.88 0h3.92v3.92h-3.92zm-5.88 0h3.92v3.92H6.37zm99.96-5.88h3.92v3.92h-3.92zm-5.88 0h3.92v3.92h-3.92zm-5.88 0h3.92v3.92h-3.92zm-5.88 0h3.92v3.92h-3.92zm-5.88 0h3.92v3.92h-3.92zm-5.88 0h3.92v3.92h-3.92zm-5.88 0h3.92v3.92h-3.92zm-5.88 0h3.92v3.92h-3.92zm-5.88 0h3.92v3.92h-3.92zm-5.88 0h3.92v3.92h-3.92zm-5.88 0h3.92v3.92h-3.92zm-5.88 0h3.92v3.92h-3.92zm-5.88 0h3.92v3.92h-3.92zm-5.88 0h3.92v3.92h-3.92zm-5.88 0h3.92v3.92h-3.92zm-5.88 0h3.92v3.92h-3.92zm-5.88 0h3.92v3.92h-3.92zm-5.88 0h3.92v3.92H6.37zm99.96-5.88h3.92v3.92h-3.92zm-5.88 0h3.92v3.92h-3.92zm-5.88 0h3.92v3.92h-3.92zm-5.88 0h3.92v3.92h-3.92zm-5.88 0h3.92v3.92h-3.92zm-5.88 0h3.92v3.92h-3.92zm-5.88 0h3.92v3.92h-3.92zm-5.88 0h3.92v3.92h-3.92zm-5.88 0h3.92v3.92h-3.92zm-5.88 0h3.92v3.92h-3.92zm-5.88 0h3.92v3.92h-3.92zm-5.88 0h3.92v3.92h-3.92zm-5.88 0h3.92v3.92h-3.92zm-5.88 0h3.92v3.92h-3.92zm-5.88 0h3.92v3.92h-3.92zm-5.88 0h3.92v3.92h-3.92zm-5.88 0h3.92v3.92h-3.92zm-5.88 0h3.92v3.92H6.37z" fill="#D7D7D7"></path><rect fill="#FFF" x="6.37" y="27.454" width="104.16" height="227.477" rx=".98"></rect><g transform="translate(2.800000, 279.299995)"><path fill="#7C7C7C" d="M.07.039h24.5v21.7H.07z"></path><path d="M13.306 10.738h1.662V9.227h-1.662v1.511zm-1.965 0h1.663V9.227H11.34v1.511zm-1.964 0h1.662V9.227H9.377v1.511zm-1.965 0h1.663V9.227H7.412v1.511zm-1.964 0H7.11V9.227H5.448v1.511zm1.964-1.813h1.663V7.414H7.412v1.51zm1.965 0h1.662V7.414H9.377v1.51zm1.964 0h1.663V7.414H11.34v1.51zm0-1.814h1.663V5.6H11.34v1.511zm8.623 2.746c-.363-.243-1.197-.332-1.839-.21-.083-.605-.42-1.13-1.033-1.604l-.352-.235-.235.353c-.301.454-.451 1.083-.402 1.686.022.212.092.592.31.926a2.54 2.54 0 0 1-1.218.267H4.262l-.021.126c-.103.607-.1 2.498 1.127 3.952.934 1.105 2.333 1.665 4.16 1.665 3.96 0 6.89-1.823 8.262-5.136.539.01 1.7.003 2.297-1.137.016-.026.052-.095.156-.31l.057-.119-.336-.224z" fill="#D8D8D8"></path></g><g transform="translate(2.800000, 311.499995)"><path fill="#7C7C7C" d="M.07.039h24.5v21.7H.07z"></path><g transform="translate(5.600000, 4.900000)" fill="#D8D8D8"><path d="M5.518 7.424a.238.238 0 0 0-.275-.18l-.002-.004-1.39.236A2.79 2.79 0 0 0 4.97 8.878l.539-1.303-.004-.005a.235.235 0 0 0 .013-.146m-.462-1.002a.238.238 0 0 0 .093-.408l.001-.006-1.058-.947a2.775 2.775 0 0 0-.394 1.757l1.356-.392.002-.004zm.617-1.068a.237.237 0 0 0 .377-.182l.006-.003.08-1.413a2.775 2.775 0 0 0-1.624.778l1.159.821.002-.001zm.41 1.483l.39.188.39-.187.096-.42-.269-.337h-.434l-.27.336zm.81-1.67a.238.238 0 0 0 .378.181l.003.002 1.152-.816a2.799 2.799 0 0 0-1.615-.778l.08 1.41.002.001z"></path><path d="M11.214 7.607c-.033.144-.188.23-.348.197h-.004l-.005-.003-.07-.015c-.092-.024-.159-.061-.242-.093a2.519 2.519 0 0 0-.47-.138c-.073-.006-.11.03-.15.056a4.044 4.044 0 0 0-.116-.02 3.506 3.506 0 0 1-1.553 1.953c.013.032.035.098.045.11-.017.045-.042.088-.02.158.052.136.136.268.238.428.05.074.1.13.145.215l.035.072c.07.148.018.319-.115.383-.134.065-.3-.004-.372-.153-.01-.02-.025-.05-.033-.07-.039-.086-.052-.161-.079-.246a2.486 2.486 0 0 0-.184-.453c-.042-.06-.092-.068-.138-.083L7.72 9.8a3.495 3.495 0 0 1-2.486-.006l-.061.11c-.045.013-.09.025-.116.057-.098.117-.137.305-.209.484-.026.085-.04.16-.077.247l-.034.068c-.072.15-.238.218-.372.154-.133-.064-.184-.235-.115-.383.01-.022.024-.053.035-.073.044-.084.095-.141.144-.215.102-.16.192-.303.244-.438.013-.045-.006-.107-.024-.153l.05-.117a3.506 3.506 0 0 1-1.555-1.94l-.117.02c-.032-.018-.095-.06-.155-.055-.144.02-.291.075-.47.138-.083.032-.15.068-.241.093l-.07.016h-.005l-.004.002c-.16.034-.315-.053-.348-.197-.033-.144.07-.29.228-.328l.004-.001h.002c.023-.006.052-.014.072-.017.094-.018.17-.014.259-.021.188-.02.344-.036.483-.08.044-.018.086-.078.115-.116l.113-.033a3.486 3.486 0 0 1 .55-2.43l-.086-.078c-.006-.034-.013-.111-.054-.155-.106-.1-.24-.182-.401-.282-.077-.045-.147-.074-.224-.13l-.055-.045-.004-.003c-.13-.103-.16-.281-.067-.398a.26.26 0 0 1 .215-.095.32.32 0 0 1 .188.07l.06.049c.072.062.116.124.177.188.133.135.243.247.363.328.064.037.112.022.16.016l.098.07A3.465 3.465 0 0 1 6.177 3.04l.006-.114a.294.294 0 0 0 .088-.14c.012-.145-.007-.3-.03-.488-.013-.088-.033-.161-.037-.257v-.075c0-.166.12-.3.27-.3.148 0 .269.134.269.3v.076c-.003.096-.024.169-.036.257-.023.188-.043.343-.03.488.01.073.052.1.087.135l.007.12a3.53 3.53 0 0 1 2.236 1.08l.102-.072c.035.002.112.012.164-.018.12-.081.23-.194.363-.33.061-.063.106-.125.178-.187l.06-.048c.13-.103.309-.092.402.024.093.117.063.294-.066.398l-.06.047c-.076.057-.147.086-.224.13-.16.1-.294.183-.4.282-.05.054-.047.105-.051.153l-.096.086a3.488 3.488 0 0 1 .562 2.425l.109.03c.02.029.06.096.116.118.138.044.294.06.483.08.088.007.165.002.258.02.023.004.055.013.079.019.158.038.26.184.228.328m1.712.059l-1.112-4.831a.855.855 0 0 0-.466-.58L6.846.105a.867.867 0 0 0-.746 0L1.598 2.258a.855.855 0 0 0-.466.579L.022 7.665a.848.848 0 0 0 .165.723l3.116 3.874a.864.864 0 0 0 .673.32h4.996c.262 0 .51-.118.673-.32l3.115-3.875a.848.848 0 0 0 .166-.722"></path><path d="M8.848 5.062l-1.053.942v.003a.238.238 0 0 0 .093.408l.002.006 1.363.392a2.805 2.805 0 0 0-.405-1.751M6.682 7.935a.236.236 0 0 0-.217-.125.238.238 0 0 0-.201.125h-.001l-.684 1.237a2.786 2.786 0 0 0 1.794.001l-.685-1.238h-.006zM7.7 7.237a.237.237 0 0 0-.146.02.238.238 0 0 0-.114.308l-.002.002.545 1.316a2.778 2.778 0 0 0 1.123-1.411l-1.403-.237-.002.002z"></path></g></g></g></g><g transform="translate(0.000000, 274.994160)"><path d="M117.41 2.45v24.5a2.45 2.45 0 0 1-2.45 2.45H2.45A2.45 2.45 0 0 1 0 26.95V2.45A2.45 2.45 0 0 1 2.45 0h112.51a2.45 2.45 0 0 1 2.45 2.45z" fill="#7C7C7C"></path><g transform="translate(6.370000, 6.372414)"><path fill="#D8D8D8" d="M23.52 0h49.959v3.921H23.52z"></path><path fill="#D7D7D7" d="M5.88 0H9.8v3.92H5.88zM0 0h3.92v3.92H0z"></path><path fill="#00CD00" d="M93.8 0h3.92v3.92H93.8z"></path><path fill="#D7D400" d="M88.2 0h3.92v3.92H88.2z"></path><path fill="#FF3C00" d="M82.6 0h3.92v3.92H82.6z"></path><path fill="#00CD00" d="M100.1 0h3.92v3.92h-3.92z"></path></g><g transform="translate(6.370000, 12.744827)"><path fill="#D8D8D8" d="M23.52 0h49.959v3.921H23.52z"></path><path fill="#D7D7D7" d="M5.88 0H9.8v3.92H5.88zM0 0h3.92v3.92H0z"></path><path fill="#00CD00" d="M93.8 0h3.92v3.92H93.8z"></path><path fill="#D7D400" d="M88.2 0h3.92v3.92H88.2z"></path><path fill="#FF3C00" d="M82.6 0h3.92v3.92H82.6z"></path><path fill="#00CD00" d="M100.1 0h3.92v3.92h-3.92z"></path></g><g transform="translate(6.370000, 19.117241)"><path fill="#D8D8D8" d="M23.52 0h49.959v3.921H23.52z"></path><path fill="#D7D7D7" d="M5.88 0H9.8v3.92H5.88zM0 0h3.92v3.92H0z"></path><path fill="#00CD00" d="M93.8 0h3.92v3.92H93.8z"></path><path fill="#D7D400" d="M88.2 0h3.92v3.92H88.2z"></path><path fill="#FF3C00" d="M82.6 0h3.92v3.92H82.6z"></path><path fill="#00CD00" d="M100.1 0h3.92v3.92h-3.92z"></path></g></g><g transform="translate(0.000000, 307.346414)"><path d="M117.41 2.45v24.5a2.45 2.45 0 0 1-2.45 2.45H2.45A2.45 2.45 0 0 1 0 26.95V2.45A2.45 2.45 0 0 1 2.45 0h112.51a2.45 2.45 0 0 1 2.45 2.45z" fill="#7C7C7C"></path><g transform="translate(6.370000, 6.372414)"><path fill="#D8D8D8" d="M23.52 0h49.959v3.921H23.52z"></path><path fill="#D7D7D7" d="M5.88 0H9.8v3.92H5.88zM0 0h3.92v3.92H0z"></path><path fill="#00CD00" d="M93.8 0h3.92v3.92H93.8z"></path><path fill="#D7D400" d="M88.2 0h3.92v3.92H88.2z"></path><path fill="#FF3C00" d="M82.6 0h3.92v3.92H82.6z"></path><path fill="#00CD00" d="M100.1 0h3.92v3.92h-3.92z"></path></g><g transform="translate(6.370000, 12.744827)"><path fill="#D8D8D8" d="M23.52 0h49.959v3.921H23.52z"></path><path fill="#D7D7D7" d="M5.88 0H9.8v3.92H5.88zM0 0h3.92v3.92H0z"></path><path fill="#00CD00" d="M93.8 0h3.92v3.92H93.8z"></path><path fill="#D7D400" d="M88.2 0h3.92v3.92H88.2z"></path><path fill="#FF3C00" d="M82.6 0h3.92v3.92H82.6z"></path><path fill="#00CD00" d="M100.1 0h3.92v3.92h-3.92z"></path></g><g transform="translate(6.370000, 19.117241)"><path fill="#D8D8D8" d="M23.52 0h49.959v3.921H23.52z"></path><path fill="#D7D7D7" d="M5.88 0H9.8v3.92H5.88zM0 0h3.92v3.92H0z"></path><path fill="#00CD00" d="M93.8 0h3.92v3.92H93.8z"></path><path fill="#D7D400" d="M88.2 0h3.92v3.92H88.2z"></path><path fill="#FF3C00" d="M82.6 0h3.92v3.92H82.6z"></path><path fill="#00CD00" d="M100.1 0h3.92v3.92h-3.92z"></path></g></g><g transform="translate(0.000000, 340.188854)"><path d="M117.41 2.45v24.5a2.45 2.45 0 0 1-2.45 2.45H2.45A2.45 2.45 0 0 1 0 26.95V2.45A2.45 2.45 0 0 1 2.45 0h112.51a2.45 2.45 0 0 1 2.45 2.45z" fill="#7C7C7C"></path><g transform="translate(6.370000, 6.372414)"><path fill="#D8D8D8" d="M23.52 0h49.959v3.921H23.52z"></path><path fill="#D7D7D7" d="M5.88 0H9.8v3.92H5.88zM0 0h3.92v3.92H0z"></path><path fill="#00CD00" d="M93.8 0h3.92v3.92H93.8z"></path><path fill="#D7D400" d="M88.2 0h3.92v3.92H88.2z"></path><path fill="#FF3C00" d="M82.6 0h3.92v3.92H82.6z"></path><path fill="#00CD00" d="M100.1 0h3.92v3.92h-3.92z"></path></g><g transform="translate(6.370000, 12.744827)"><path fill="#D8D8D8" d="M23.52 0h49.959v3.921H23.52z"></path><path fill="#D7D7D7" d="M5.88 0H9.8v3.92H5.88zM0 0h3.92v3.92H0z"></path><path fill="#00CD00" d="M93.8 0h3.92v3.92H93.8z"></path><path fill="#D7D400" d="M88.2 0h3.92v3.92H88.2z"></path><path fill="#FF3C00" d="M82.6 0h3.92v3.92H82.6z"></path><path fill="#00CD00" d="M100.1 0h3.92v3.92h-3.92z"></path></g><g transform="translate(6.370000, 19.117241)"><path fill="#D8D8D8" d="M23.52 0h49.959v3.921H23.52z"></path><path fill="#D7D7D7" d="M5.88 0H9.8v3.92H5.88zM0 0h3.92v3.92H0z"></path><path fill="#00CD00" d="M93.8 0h3.92v3.92H93.8z"></path><path fill="#D7D400" d="M88.2 0h3.92v3.92H88.2z"></path><path fill="#FF3C00" d="M82.6 0h3.92v3.92H82.6z"></path><path fill="#00CD00" d="M100.1 0h3.92v3.92h-3.92z"></path></g></g><path d="M116.9 2.45v266.56a2.45 2.45 0 0 1-2.45 2.45h-112A2.45 2.45 0 0 1 0 269.01V2.45A2.45 2.45 0 0 1 2.45 0h112a2.45 2.45 0 0 1 2.45 2.45z" fill="#7C7C7C"></path><path d="M106.33 261.795h3.92v3.92h-3.92zm-5.88 0h3.92v3.92h-3.92zm-5.88 0h3.92v3.92h-3.92zm-5.88 0h3.92v3.92h-3.92zm-5.88 0h3.92v3.92h-3.92zm-5.88 0h3.92v3.92h-3.92zm-5.88 0h3.92v3.92h-3.92zm-5.88 0h3.92v3.92h-3.92zm-5.88 0h3.92v3.92h-3.92zm-5.88 0h3.92v3.92h-3.92zm-5.88 0h3.92v3.92h-3.92zm-5.88 0h3.92v3.92h-3.92zm-5.88 0h3.92v3.92h-3.92zm-5.88 0h3.92v3.92h-3.92zm-5.88 0h3.92v3.92h-3.92zm-5.88 0h3.92v3.92h-3.92zm-5.88 0h3.92v3.92h-3.92zm-5.88 0h3.92v3.92H6.37zm99.96-244.152h3.92v3.92h-3.92zm-5.88 0h3.92v3.92h-3.92zm-5.88 0h3.92v3.92h-3.92zm-5.88 0h3.92v3.92h-3.92zm-5.88 0h3.92v3.92h-3.92zm-5.88 0h3.92v3.92h-3.92zm-5.88 0h3.92v3.92h-3.92zm-5.88 0h3.92v3.92h-3.92zm-5.88 0h3.92v3.92h-3.92zm-5.88 0h3.92v3.92h-3.92zm-5.88 0h3.92v3.92h-3.92zm-5.88 0h3.92v3.92h-3.92zm-5.88 0h3.92v3.92h-3.92zm-5.88 0h3.92v3.92h-3.92zm-5.88 0h3.92v3.92h-3.92zm-5.88 0h3.92v3.92h-3.92zm-5.88 0h3.92v3.92h-3.92zm-5.88 0h3.92v3.92H6.37zm99.96-5.88h3.92v3.92h-3.92zm-5.88 0h3.92v3.92h-3.92zm-5.88 0h3.92v3.92h-3.92zm-5.88 0h3.92v3.92h-3.92zm-5.88 0h3.92v3.92h-3.92zm-5.88 0h3.92v3.92h-3.92zm-5.88 0h3.92v3.92h-3.92zm-5.88 0h3.92v3.92h-3.92zm-5.88 0h3.92v3.92h-3.92zm-5.88 0h3.92v3.92h-3.92zm-5.88 0h3.92v3.92h-3.92zm-5.88 0h3.92v3.92h-3.92zm-5.88 0h3.92v3.92h-3.92zm-5.88 0h3.92v3.92h-3.92zm-5.88 0h3.92v3.92h-3.92zm-5.88 0h3.92v3.92h-3.92zm-5.88 0h3.92v3.92h-3.92zm-5.88 0h3.92v3.92H6.37zm99.96-5.88h3.92v3.92h-3.92zm-5.88 0h3.92v3.92h-3.92zm-5.88 0h3.92v3.92h-3.92zm-5.88 0h3.92v3.92h-3.92zm-5.88 0h3.92v3.92h-3.92zm-5.88 0h3.92v3.92h-3.92zm-5.88 0h3.92v3.92h-3.92zm-5.88 0h3.92v3.92h-3.92zm-5.88 0h3.92v3.92h-3.92zm-5.88 0h3.92v3.92h-3.92zm-5.88 0h3.92v3.92h-3.92zm-5.88 0h3.92v3.92h-3.92zm-5.88 0h3.92v3.92h-3.92zm-5.88 0h3.92v3.92h-3.92zm-5.88 0h3.92v3.92h-3.92zm-5.88 0h3.92v3.92h-3.92zm-5.88 0h3.92v3.92h-3.92zm-5.88 0h3.92v3.92H6.37z" fill="#D7D7D7"></path><rect fill="#FFF" x="6.37" y="27.454" width="104.16" height="227.477" rx=".98"></rect><g transform="translate(2.800000, 279.299995)"><path fill="#7C7C7C" d="M.07.039h24.5v21.7H.07z"></path><path d="M13.306 10.738h1.662V9.227h-1.662v1.511zm-1.965 0h1.663V9.227H11.34v1.511zm-1.964 0h1.662V9.227H9.377v1.511zm-1.965 0h1.663V9.227H7.412v1.511zm-1.964 0H7.11V9.227H5.448v1.511zm1.964-1.813h1.663V7.414H7.412v1.51zm1.965 0h1.662V7.414H9.377v1.51zm1.964 0h1.663V7.414H11.34v1.51zm0-1.814h1.663V5.6H11.34v1.511zm8.623 2.746c-.363-.243-1.197-.332-1.839-.21-.083-.605-.42-1.13-1.033-1.604l-.352-.235-.235.353c-.301.454-.451 1.083-.402 1.686.022.212.092.592.31.926a2.54 2.54 0 0 1-1.218.267H4.262l-.021.126c-.103.607-.1 2.498 1.127 3.952.934 1.105 2.333 1.665 4.16 1.665 3.96 0 6.89-1.823 8.262-5.136.539.01 1.7.003 2.297-1.137.016-.026.052-.095.156-.31l.057-.119-.336-.224z" fill="#D8D8D8"></path></g><g transform="translate(2.800000, 311.499995)"><path fill="#7C7C7C" d="M.07.039h24.5v21.7H.07z"></path><g transform="translate(5.600000, 4.900000)" fill="#D8D8D8"><path d="M5.518 7.424a.238.238 0 0 0-.275-.18l-.002-.004-1.39.236A2.79 2.79 0 0 0 4.97 8.878l.539-1.303-.004-.005a.235.235 0 0 0 .013-.146m-.462-1.002a.238.238 0 0 0 .093-.408l.001-.006-1.058-.947a2.775 2.775 0 0 0-.394 1.757l1.356-.392.002-.004zm.617-1.068a.237.237 0 0 0 .377-.182l.006-.003.08-1.413a2.775 2.775 0 0 0-1.624.778l1.159.821.002-.001zm.41 1.483l.39.188.39-.187.096-.42-.269-.337h-.434l-.27.336zm.81-1.67a.238.238 0 0 0 .378.181l.003.002 1.152-.816a2.799 2.799 0 0 0-1.615-.778l.08 1.41.002.001z"></path><path d="M11.214 7.607c-.033.144-.188.23-.348.197h-.004l-.005-.003-.07-.015c-.092-.024-.159-.061-.242-.093a2.519 2.519 0 0 0-.47-.138c-.073-.006-.11.03-.15.056a4.044 4.044 0 0 0-.116-.02 3.506 3.506 0 0 1-1.553 1.953c.013.032.035.098.045.11-.017.045-.042.088-.02.158.052.136.136.268.238.428.05.074.1.13.145.215l.035.072c.07.148.018.319-.115.383-.134.065-.3-.004-.372-.153-.01-.02-.025-.05-.033-.07-.039-.086-.052-.161-.079-.246a2.486 2.486 0 0 0-.184-.453c-.042-.06-.092-.068-.138-.083L7.72 9.8a3.495 3.495 0 0 1-2.486-.006l-.061.11c-.045.013-.09.025-.116.057-.098.117-.137.305-.209.484-.026.085-.04.16-.077.247l-.034.068c-.072.15-.238.218-.372.154-.133-.064-.184-.235-.115-.383.01-.022.024-.053.035-.073.044-.084.095-.141.144-.215.102-.16.192-.303.244-.438.013-.045-.006-.107-.024-.153l.05-.117a3.506 3.506 0 0 1-1.555-1.94l-.117.02c-.032-.018-.095-.06-.155-.055-.144.02-.291.075-.47.138-.083.032-.15.068-.241.093l-.07.016h-.005l-.004.002c-.16.034-.315-.053-.348-.197-.033-.144.07-.29.228-.328l.004-.001h.002c.023-.006.052-.014.072-.017.094-.018.17-.014.259-.021.188-.02.344-.036.483-.08.044-.018.086-.078.115-.116l.113-.033a3.486 3.486 0 0 1 .55-2.43l-.086-.078c-.006-.034-.013-.111-.054-.155-.106-.1-.24-.182-.401-.282-.077-.045-.147-.074-.224-.13l-.055-.045-.004-.003c-.13-.103-.16-.281-.067-.398a.26.26 0 0 1 .215-.095.32.32 0 0 1 .188.07l.06.049c.072.062.116.124.177.188.133.135.243.247.363.328.064.037.112.022.16.016l.098.07A3.465 3.465 0 0 1 6.177 3.04l.006-.114a.294.294 0 0 0 .088-.14c.012-.145-.007-.3-.03-.488-.013-.088-.033-.161-.037-.257v-.075c0-.166.12-.3.27-.3.148 0 .269.134.269.3v.076c-.003.096-.024.169-.036.257-.023.188-.043.343-.03.488.01.073.052.1.087.135l.007.12a3.53 3.53 0 0 1 2.236 1.08l.102-.072c.035.002.112.012.164-.018.12-.081.23-.194.363-.33.061-.063.106-.125.178-.187l.06-.048c.13-.103.309-.092.402.024.093.117.063.294-.066.398l-.06.047c-.076.057-.147.086-.224.13-.16.1-.294.183-.4.282-.05.054-.047.105-.051.153l-.096.086a3.488 3.488 0 0 1 .562 2.425l.109.03c.02.029.06.096.116.118.138.044.294.06.483.08.088.007.165.002.258.02.023.004.055.013.079.019.158.038.26.184.228.328m1.712.059l-1.112-4.831a.855.855 0 0 0-.466-.58L6.846.105a.867.867 0 0 0-.746 0L1.598 2.258a.855.855 0 0 0-.466.579L.022 7.665a.848.848 0 0 0 .165.723l3.116 3.874a.864.864 0 0 0 .673.32h4.996c.262 0 .51-.118.673-.32l3.115-3.875a.848.848 0 0 0 .166-.722"></path><path d="M8.848 5.062l-1.053.942v.003a.238.238 0 0 0 .093.408l.002.006 1.363.392a2.805 2.805 0 0 0-.405-1.751M6.682 7.935a.236.236 0 0 0-.217-.125.238.238 0 0 0-.201.125h-.001l-.684 1.237a2.786 2.786 0 0 0 1.794.001l-.685-1.238h-.006zM7.7 7.237a.237.237 0 0 0-.146.02.238.238 0 0 0-.114.308l-.002.002.545 1.316a2.778 2.778 0 0 0 1.123-1.411l-1.403-.237-.002.002z"></path></g></g><g transform="translate(127.399998, 0.000000)"><g transform="translate(0.000000, 274.994160)"><path d="M117.41 2.45v24.5a2.45 2.45 0 0 1-2.45 2.45H2.45A2.45 2.45 0 0 1 0 26.95V2.45A2.45 2.45 0 0 1 2.45 0h112.51a2.45 2.45 0 0 1 2.45 2.45z" fill="#7C7C7C"></path><g transform="translate(6.370000, 6.372414)"><path fill="#D8D8D8" d="M23.52 0h49.959v3.921H23.52z"></path><path fill="#D7D7D7" d="M5.88 0H9.8v3.92H5.88zM0 0h3.92v3.92H0z"></path><path fill="#00CD00" d="M93.8 0h3.92v3.92H93.8z"></path><path fill="#D7D400" d="M88.2 0h3.92v3.92H88.2z"></path><path fill="#FF3C00" d="M82.6 0h3.92v3.92H82.6z"></path><path fill="#00CD00" d="M100.1 0h3.92v3.92h-3.92z"></path></g><g transform="translate(6.370000, 12.744827)"><path fill="#D8D8D8" d="M23.52 0h49.959v3.921H23.52z"></path><path fill="#D7D7D7" d="M5.88 0H9.8v3.92H5.88zM0 0h3.92v3.92H0z"></path><path fill="#00CD00" d="M93.8 0h3.92v3.92H93.8z"></path><path fill="#D7D400" d="M88.2 0h3.92v3.92H88.2z"></path><path fill="#FF3C00" d="M82.6 0h3.92v3.92H82.6z"></path><path fill="#00CD00" d="M100.1 0h3.92v3.92h-3.92z"></path></g><g transform="translate(6.370000, 19.117241)"><path fill="#D8D8D8" d="M23.52 0h49.959v3.921H23.52z"></path><path fill="#D7D7D7" d="M5.88 0H9.8v3.92H5.88zM0 0h3.92v3.92H0z"></path><path fill="#00CD00" d="M93.8 0h3.92v3.92H93.8z"></path><path fill="#D7D400" d="M88.2 0h3.92v3.92H88.2z"></path><path fill="#FF3C00" d="M82.6 0h3.92v3.92H82.6z"></path><path fill="#00CD00" d="M100.1 0h3.92v3.92h-3.92z"></path></g></g><g transform="translate(0.000000, 307.346414)"><path d="M117.41 2.45v24.5a2.45 2.45 0 0 1-2.45 2.45H2.45A2.45 2.45 0 0 1 0 26.95V2.45A2.45 2.45 0 0 1 2.45 0h112.51a2.45 2.45 0 0 1 2.45 2.45z" fill="#7C7C7C"></path><g transform="translate(6.370000, 6.372414)"><path fill="#D8D8D8" d="M23.52 0h49.959v3.921H23.52z"></path><path fill="#D7D7D7" d="M5.88 0H9.8v3.92H5.88zM0 0h3.92v3.92H0z"></path><path fill="#00CD00" d="M93.8 0h3.92v3.92H93.8z"></path><path fill="#D7D400" d="M88.2 0h3.92v3.92H88.2z"></path><path fill="#FF3C00" d="M82.6 0h3.92v3.92H82.6z"></path><path fill="#00CD00" d="M100.1 0h3.92v3.92h-3.92z"></path></g><g transform="translate(6.370000, 12.744827)"><path fill="#D8D8D8" d="M23.52 0h49.959v3.921H23.52z"></path><path fill="#D7D7D7" d="M5.88 0H9.8v3.92H5.88zM0 0h3.92v3.92H0z"></path><path fill="#00CD00" d="M93.8 0h3.92v3.92H93.8z"></path><path fill="#D7D400" d="M88.2 0h3.92v3.92H88.2z"></path><path fill="#FF3C00" d="M82.6 0h3.92v3.92H82.6z"></path><path fill="#00CD00" d="M100.1 0h3.92v3.92h-3.92z"></path></g><g transform="translate(6.370000, 19.117241)"><path fill="#D8D8D8" d="M23.52 0h49.959v3.921H23.52z"></path><path fill="#D7D7D7" d="M5.88 0H9.8v3.92H5.88zM0 0h3.92v3.92H0z"></path><path fill="#00CD00" d="M93.8 0h3.92v3.92H93.8z"></path><path fill="#D7D400" d="M88.2 0h3.92v3.92H88.2z"></path><path fill="#FF3C00" d="M82.6 0h3.92v3.92H82.6z"></path><path fill="#00CD00" d="M100.1 0h3.92v3.92h-3.92z"></path></g></g><g transform="translate(0.000000, 340.188854)"><path d="M117.41 2.45v24.5a2.45 2.45 0 0 1-2.45 2.45H2.45A2.45 2.45 0 0 1 0 26.95V2.45A2.45 2.45 0 0 1 2.45 0h112.51a2.45 2.45 0 0 1 2.45 2.45z" fill="#7C7C7C"></path><g transform="translate(6.370000, 6.372414)"><path fill="#D8D8D8" d="M23.52 0h49.959v3.921H23.52z"></path><path fill="#D7D7D7" d="M5.88 0H9.8v3.92H5.88zM0 0h3.92v3.92H0z"></path><path fill="#00CD00" d="M93.8 0h3.92v3.92H93.8z"></path><path fill="#D7D400" d="M88.2 0h3.92v3.92H88.2z"></path><path fill="#FF3C00" d="M82.6 0h3.92v3.92H82.6z"></path><path fill="#00CD00" d="M100.1 0h3.92v3.92h-3.92z"></path></g><g transform="translate(6.370000, 12.744827)"><path fill="#D8D8D8" d="M23.52 0h49.959v3.921H23.52z"></path><path fill="#D7D7D7" d="M5.88 0H9.8v3.92H5.88zM0 0h3.92v3.92H0z"></path><path fill="#00CD00" d="M93.8 0h3.92v3.92H93.8z"></path><path fill="#D7D400" d="M88.2 0h3.92v3.92H88.2z"></path><path fill="#FF3C00" d="M82.6 0h3.92v3.92H82.6z"></path><path fill="#00CD00" d="M100.1 0h3.92v3.92h-3.92z"></path></g><g transform="translate(6.370000, 19.117241)"><path fill="#D8D8D8" d="M23.52 0h49.959v3.921H23.52z"></path><path fill="#D7D7D7" d="M5.88 0H9.8v3.92H5.88zM0 0h3.92v3.92H0z"></path><path fill="#00CD00" d="M93.8 0h3.92v3.92H93.8z"></path><path fill="#D7D400" d="M88.2 0h3.92v3.92H88.2z"></path><path fill="#FF3C00" d="M82.6 0h3.92v3.92H82.6z"></path><path fill="#00CD00" d="M100.1 0h3.92v3.92h-3.92z"></path></g></g><path d="M116.9 2.45v266.56a2.45 2.45 0 0 1-2.45 2.45h-112A2.45 2.45 0 0 1 0 269.01V2.45A2.45 2.45 0 0 1 2.45 0h112a2.45 2.45 0 0 1 2.45 2.45z" fill="#7C7C7C"></path><path d="M106.33 261.795h3.92v3.92h-3.92zm-5.88 0h3.92v3.92h-3.92zm-5.88 0h3.92v3.92h-3.92zm-5.88 0h3.92v3.92h-3.92zm-5.88 0h3.92v3.92h-3.92zm-5.88 0h3.92v3.92h-3.92zm-5.88 0h3.92v3.92h-3.92zm-5.88 0h3.92v3.92h-3.92zm-5.88 0h3.92v3.92h-3.92zm-5.88 0h3.92v3.92h-3.92zm-5.88 0h3.92v3.92h-3.92zm-5.88 0h3.92v3.92h-3.92zm-5.88 0h3.92v3.92h-3.92zm-5.88 0h3.92v3.92h-3.92zm-5.88 0h3.92v3.92h-3.92zm-5.88 0h3.92v3.92h-3.92zm-5.88 0h3.92v3.92h-3.92zm-5.88 0h3.92v3.92H6.37zm99.96-244.152h3.92v3.92h-3.92zm-5.88 0h3.92v3.92h-3.92zm-5.88 0h3.92v3.92h-3.92zm-5.88 0h3.92v3.92h-3.92zm-5.88 0h3.92v3.92h-3.92zm-5.88 0h3.92v3.92h-3.92zm-5.88 0h3.92v3.92h-3.92zm-5.88 0h3.92v3.92h-3.92zm-5.88 0h3.92v3.92h-3.92zm-5.88 0h3.92v3.92h-3.92zm-5.88 0h3.92v3.92h-3.92zm-5.88 0h3.92v3.92h-3.92zm-5.88 0h3.92v3.92h-3.92zm-5.88 0h3.92v3.92h-3.92zm-5.88 0h3.92v3.92h-3.92zm-5.88 0h3.92v3.92h-3.92zm-5.88 0h3.92v3.92h-3.92zm-5.88 0h3.92v3.92H6.37zm99.96-5.88h3.92v3.92h-3.92zm-5.88 0h3.92v3.92h-3.92zm-5.88 0h3.92v3.92h-3.92zm-5.88 0h3.92v3.92h-3.92zm-5.88 0h3.92v3.92h-3.92zm-5.88 0h3.92v3.92h-3.92zm-5.88 0h3.92v3.92h-3.92zm-5.88 0h3.92v3.92h-3.92zm-5.88 0h3.92v3.92h-3.92zm-5.88 0h3.92v3.92h-3.92zm-5.88 0h3.92v3.92h-3.92zm-5.88 0h3.92v3.92h-3.92zm-5.88 0h3.92v3.92h-3.92zm-5.88 0h3.92v3.92h-3.92zm-5.88 0h3.92v3.92h-3.92zm-5.88 0h3.92v3.92h-3.92zm-5.88 0h3.92v3.92h-3.92zm-5.88 0h3.92v3.92H6.37zm99.96-5.88h3.92v3.92h-3.92zm-5.88 0h3.92v3.92h-3.92zm-5.88 0h3.92v3.92h-3.92zm-5.88 0h3.92v3.92h-3.92zm-5.88 0h3.92v3.92h-3.92zm-5.88 0h3.92v3.92h-3.92zm-5.88 0h3.92v3.92h-3.92zm-5.88 0h3.92v3.92h-3.92zm-5.88 0h3.92v3.92h-3.92zm-5.88 0h3.92v3.92h-3.92zm-5.88 0h3.92v3.92h-3.92zm-5.88 0h3.92v3.92h-3.92zm-5.88 0h3.92v3.92h-3.92zm-5.88 0h3.92v3.92h-3.92zm-5.88 0h3.92v3.92h-3.92zm-5.88 0h3.92v3.92h-3.92zm-5.88 0h3.92v3.92h-3.92zm-5.88 0h3.92v3.92H6.37z" fill="#D7D7D7"></path><rect fill="#FFF" x="6.37" y="27.454" width="104.16" height="227.477" rx=".98"></rect><g transform="translate(2.800000, 279.299995)"><path fill="#7C7C7C" d="M.07.039h24.5v21.7H.07z"></path><path d="M13.306 10.738h1.662V9.227h-1.662v1.511zm-1.965 0h1.663V9.227H11.34v1.511zm-1.964 0h1.662V9.227H9.377v1.511zm-1.965 0h1.663V9.227H7.412v1.511zm-1.964 0H7.11V9.227H5.448v1.511zm1.964-1.813h1.663V7.414H7.412v1.51zm1.965 0h1.662V7.414H9.377v1.51zm1.964 0h1.663V7.414H11.34v1.51zm0-1.814h1.663V5.6H11.34v1.511zm8.623 2.746c-.363-.243-1.197-.332-1.839-.21-.083-.605-.42-1.13-1.033-1.604l-.352-.235-.235.353c-.301.454-.451 1.083-.402 1.686.022.212.092.592.31.926a2.54 2.54 0 0 1-1.218.267H4.262l-.021.126c-.103.607-.1 2.498 1.127 3.952.934 1.105 2.333 1.665 4.16 1.665 3.96 0 6.89-1.823 8.262-5.136.539.01 1.7.003 2.297-1.137.016-.026.052-.095.156-.31l.057-.119-.336-.224z" fill="#D8D8D8"></path></g><g transform="translate(2.800000, 311.499995)"><path fill="#7C7C7C" d="M.07.039h24.5v21.7H.07z"></path><g transform="translate(5.600000, 4.900000)" fill="#D8D8D8"><path d="M5.518 7.424a.238.238 0 0 0-.275-.18l-.002-.004-1.39.236A2.79 2.79 0 0 0 4.97 8.878l.539-1.303-.004-.005a.235.235 0 0 0 .013-.146m-.462-1.002a.238.238 0 0 0 .093-.408l.001-.006-1.058-.947a2.775 2.775 0 0 0-.394 1.757l1.356-.392.002-.004zm.617-1.068a.237.237 0 0 0 .377-.182l.006-.003.08-1.413a2.775 2.775 0 0 0-1.624.778l1.159.821.002-.001zm.41 1.483l.39.188.39-.187.096-.42-.269-.337h-.434l-.27.336zm.81-1.67a.238.238 0 0 0 .378.181l.003.002 1.152-.816a2.799 2.799 0 0 0-1.615-.778l.08 1.41.002.001z"></path><path d="M11.214 7.607c-.033.144-.188.23-.348.197h-.004l-.005-.003-.07-.015c-.092-.024-.159-.061-.242-.093a2.519 2.519 0 0 0-.47-.138c-.073-.006-.11.03-.15.056a4.044 4.044 0 0 0-.116-.02 3.506 3.506 0 0 1-1.553 1.953c.013.032.035.098.045.11-.017.045-.042.088-.02.158.052.136.136.268.238.428.05.074.1.13.145.215l.035.072c.07.148.018.319-.115.383-.134.065-.3-.004-.372-.153-.01-.02-.025-.05-.033-.07-.039-.086-.052-.161-.079-.246a2.486 2.486 0 0 0-.184-.453c-.042-.06-.092-.068-.138-.083L7.72 9.8a3.495 3.495 0 0 1-2.486-.006l-.061.11c-.045.013-.09.025-.116.057-.098.117-.137.305-.209.484-.026.085-.04.16-.077.247l-.034.068c-.072.15-.238.218-.372.154-.133-.064-.184-.235-.115-.383.01-.022.024-.053.035-.073.044-.084.095-.141.144-.215.102-.16.192-.303.244-.438.013-.045-.006-.107-.024-.153l.05-.117a3.506 3.506 0 0 1-1.555-1.94l-.117.02c-.032-.018-.095-.06-.155-.055-.144.02-.291.075-.47.138-.083.032-.15.068-.241.093l-.07.016h-.005l-.004.002c-.16.034-.315-.053-.348-.197-.033-.144.07-.29.228-.328l.004-.001h.002c.023-.006.052-.014.072-.017.094-.018.17-.014.259-.021.188-.02.344-.036.483-.08.044-.018.086-.078.115-.116l.113-.033a3.486 3.486 0 0 1 .55-2.43l-.086-.078c-.006-.034-.013-.111-.054-.155-.106-.1-.24-.182-.401-.282-.077-.045-.147-.074-.224-.13l-.055-.045-.004-.003c-.13-.103-.16-.281-.067-.398a.26.26 0 0 1 .215-.095.32.32 0 0 1 .188.07l.06.049c.072.062.116.124.177.188.133.135.243.247.363.328.064.037.112.022.16.016l.098.07A3.465 3.465 0 0 1 6.177 3.04l.006-.114a.294.294 0 0 0 .088-.14c.012-.145-.007-.3-.03-.488-.013-.088-.033-.161-.037-.257v-.075c0-.166.12-.3.27-.3.148 0 .269.134.269.3v.076c-.003.096-.024.169-.036.257-.023.188-.043.343-.03.488.01.073.052.1.087.135l.007.12a3.53 3.53 0 0 1 2.236 1.08l.102-.072c.035.002.112.012.164-.018.12-.081.23-.194.363-.33.061-.063.106-.125.178-.187l.06-.048c.13-.103.309-.092.402.024.093.117.063.294-.066.398l-.06.047c-.076.057-.147.086-.224.13-.16.1-.294.183-.4.282-.05.054-.047.105-.051.153l-.096.086a3.488 3.488 0 0 1 .562 2.425l.109.03c.02.029.06.096.116.118.138.044.294.06.483.08.088.007.165.002.258.02.023.004.055.013.079.019.158.038.26.184.228.328m1.712.059l-1.112-4.831a.855.855 0 0 0-.466-.58L6.846.105a.867.867 0 0 0-.746 0L1.598 2.258a.855.855 0 0 0-.466.579L.022 7.665a.848.848 0 0 0 .165.723l3.116 3.874a.864.864 0 0 0 .673.32h4.996c.262 0 .51-.118.673-.32l3.115-3.875a.848.848 0 0 0 .166-.722"></path><path d="M8.848 5.062l-1.053.942v.003a.238.238 0 0 0 .093.408l.002.006 1.363.392a2.805 2.805 0 0 0-.405-1.751M6.682 7.935a.236.236 0 0 0-.217-.125.238.238 0 0 0-.201.125h-.001l-.684 1.237a2.786 2.786 0 0 0 1.794.001l-.685-1.238h-.006zM7.7 7.237a.237.237 0 0 0-.146.02.238.238 0 0 0-.114.308l-.002.002.545 1.316a2.778 2.778 0 0 0 1.123-1.411l-1.403-.237-.002.002z"></path></g></g></g></g><text font-size="51.35" font-weight="bold" letter-spacing="-1.635" fill="#4A4A4A" class="sans-serif"><tspan x="190" y="238">4 CPU</tspan> <tspan x="193.338" y="299">16 GB</tspan></text><text font-size="27.35" font-weight="bold" letter-spacing="-.871" fill="#4A4A4A" class="sans-serif"><tspan x="158.385" y="666">2 CPU</tspan> <tspan x="167.331" y="699">8 GB</tspan></text><text font-size="27.35" font-weight="bold" letter-spacing="-.871" fill="#4A4A4A" class="sans-serif"><tspan x="285.885" y="666">2 CPU</tspan> <tspan x="294.831" y="699">8 GB</tspan></text><text font-size="27.35" font-weight="bold" letter-spacing="-.871" fill="#4A4A4A" class="sans-serif"><tspan x="413.885" y="666">2 CPU</tspan> <tspan x="422.831" y="699">8 GB</tspan></text><text font-size="27.35" font-weight="bold" letter-spacing="-.871" fill="#4A4A4A" class="sans-serif"><tspan x="541.885" y="666">2 CPU</tspan> <tspan x="550.831" y="699">8 GB</tspan></text><text font-size="51.35" font-weight="bold" letter-spacing="-1.635" fill="#4A4A4A" class="sans-serif"><tspan x="441" y="238">4 CPU</tspan> <tspan x="444.338" y="299">16 GB</tspan></text></g></svg>