<?xml version="1.0" encoding="UTF-8"?>
<svg width="1068px" height="628px" viewBox="0 0 1068 628" version="1.1" xmlns="http://www.w3.org/2000/svg" xmlns:xlink="http://www.w3.org/1999/xlink">
    <!-- Generator: Sketch 54.1 (76490) - https://sketchapp.com -->
    <title>many-nodes-per-cluster</title>
    <desc>Created with Sketch.</desc>
    <defs>
        <linearGradient x1="8.7291495%" y1="0%" x2="85.5876423%" y2="0%" id="linearGradient-1">
            <stop stop-color="#333333" offset="0%"></stop>
            <stop stop-color="#FF0000" offset="100%"></stop>
        </linearGradient>
        <linearGradient x1="8.7291495%" y1="0%" x2="85.5876423%" y2="0%" id="linearGradient-2">
            <stop stop-color="#333333" offset="0%"></stop>
            <stop stop-color="#FF0000" offset="100%"></stop>
        </linearGradient>
        <linearGradient x1="8.7291495%" y1="0%" x2="85.5876423%" y2="0%" id="linearGradient-3">
            <stop stop-color="#333333" offset="0%"></stop>
            <stop stop-color="#FF0000" offset="100%"></stop>
        </linearGradient>
        <linearGradient x1="8.7291495%" y1="0%" x2="85.5876423%" y2="0%" id="linearGradient-4">
            <stop stop-color="#333333" offset="0%"></stop>
            <stop stop-color="#FF0000" offset="100%"></stop>
        </linearGradient>
        <linearGradient x1="8.7291495%" y1="0%" x2="85.5876423%" y2="0%" id="linearGradient-5">
            <stop stop-color="#333333" offset="0%"></stop>
            <stop stop-color="#FF0000" offset="100%"></stop>
        </linearGradient>
    </defs>
    <g id="many-nodes-per-cluster" stroke="none" stroke-width="1" fill="none" fill-rule="evenodd">
        <rect id="Rectangle" stroke="#333333" stroke-width="10" x="26" y="73" width="1017" height="538"></rect>
        <path d="M476,190 L627,369" id="Line" stroke="url(#linearGradient-1)" stroke-width="12" stroke-linecap="square"></path>
        <path d="M476,249 L627,369" id="Line" stroke="url(#linearGradient-2)" stroke-width="12" stroke-linecap="square"></path>
        <path d="M476,309 L627,369" id="Line" stroke="url(#linearGradient-3)" stroke-width="12" stroke-linecap="square"></path>
        <path d="M476,368.5 L627,369" id="Line" stroke="url(#linearGradient-4)" stroke-width="12" stroke-linecap="square"></path>
        <path d="M476,429 L627,369" id="Line" stroke="url(#linearGradient-3)" stroke-width="12" stroke-linecap="square"></path>
        <path d="M475,489 L627,369" id="Line" stroke="url(#linearGradient-5)" stroke-width="12" stroke-linecap="square"></path>
        <path d="M476,548 L627,369" id="Line" stroke="url(#linearGradient-1)" stroke-width="12" stroke-linecap="square"></path>
        <rect id="Rectangle" stroke="#333333" stroke-width="5" fill="#666666" x="128.5" y="166.5" width="45" height="45"></rect>
        <rect id="Rectangle" stroke="#333333" stroke-width="5" fill="#666666" x="188.5" y="166.5" width="45" height="45"></rect>
        <rect id="Rectangle" stroke="#333333" stroke-width="5" fill="#666666" x="248.5" y="166.5" width="45" height="45"></rect>
        <rect id="Rectangle" stroke="#333333" stroke-width="5" fill="#666666" x="308.5" y="166.5" width="45" height="45"></rect>
        <rect id="Rectangle" stroke="#333333" stroke-width="5" fill="#666666" x="368.5" y="166.5" width="45" height="45"></rect>
        <rect id="Rectangle" stroke="#333333" stroke-width="5" fill="#666666" x="428.5" y="166.5" width="45" height="45"></rect>
        <rect id="Rectangle" stroke="#333333" stroke-width="5" fill="#666666" x="127.5" y="226.5" width="45" height="45"></rect>
        <rect id="Rectangle" stroke="#333333" stroke-width="5" fill="#666666" x="187.5" y="226.5" width="45" height="45"></rect>
        <rect id="Rectangle" stroke="#333333" stroke-width="5" fill="#666666" x="247.5" y="226.5" width="45" height="45"></rect>
        <rect id="Rectangle" stroke="#333333" stroke-width="5" fill="#666666" x="307.5" y="226.5" width="45" height="45"></rect>
        <rect id="Rectangle" stroke="#333333" stroke-width="5" fill="#666666" x="367.5" y="226.5" width="45" height="45"></rect>
        <rect id="Rectangle" stroke="#333333" stroke-width="5" fill="#666666" x="427.5" y="226.5" width="45" height="45"></rect>
        <rect id="Rectangle" stroke="#333333" stroke-width="5" fill="#666666" x="128.5" y="286.5" width="45" height="45"></rect>
        <rect id="Rectangle" stroke="#333333" stroke-width="5" fill="#666666" x="188.5" y="286.5" width="45" height="45"></rect>
        <rect id="Rectangle" stroke="#333333" stroke-width="5" fill="#666666" x="248.5" y="286.5" width="45" height="45"></rect>
        <rect id="Rectangle" stroke="#333333" stroke-width="5" fill="#666666" x="308.5" y="286.5" width="45" height="45"></rect>
        <rect id="Rectangle" stroke="#333333" stroke-width="5" fill="#666666" x="368.5" y="286.5" width="45" height="45"></rect>
        <rect id="Rectangle" stroke="#333333" stroke-width="5" fill="#666666" x="428.5" y="286.5" width="45" height="45"></rect>
        <rect id="Rectangle" stroke="#333333" stroke-width="5" fill="#666666" x="128.5" y="346.5" width="45" height="45"></rect>
        <rect id="Rectangle" stroke="#333333" stroke-width="5" fill="#666666" x="188.5" y="346.5" width="45" height="45"></rect>
        <rect id="Rectangle" stroke="#333333" stroke-width="5" fill="#666666" x="248.5" y="346.5" width="45" height="45"></rect>
        <rect id="Rectangle" stroke="#333333" stroke-width="5" fill="#666666" x="308.5" y="346.5" width="45" height="45"></rect>
        <rect id="Rectangle" stroke="#333333" stroke-width="5" fill="#666666" x="368.5" y="346.5" width="45" height="45"></rect>
        <rect id="Rectangle" stroke="#333333" stroke-width="5" fill="#666666" x="428.5" y="346.5" width="45" height="45"></rect>
        <rect id="Rectangle" stroke="#333333" stroke-width="5" fill="#666666" x="128.5" y="406.5" width="45" height="45"></rect>
        <rect id="Rectangle" stroke="#333333" stroke-width="5" fill="#666666" x="188.5" y="406.5" width="45" height="45"></rect>
        <rect id="Rectangle" stroke="#333333" stroke-width="5" fill="#666666" x="248.5" y="406.5" width="45" height="45"></rect>
        <rect id="Rectangle" stroke="#333333" stroke-width="5" fill="#666666" x="308.5" y="406.5" width="45" height="45"></rect>
        <rect id="Rectangle" stroke="#333333" stroke-width="5" fill="#666666" x="368.5" y="406.5" width="45" height="45"></rect>
        <rect id="Rectangle" stroke="#333333" stroke-width="5" fill="#666666" x="428.5" y="406.5" width="45" height="45"></rect>
        <rect id="Rectangle" stroke="#333333" stroke-width="5" fill="#666666" x="127.5" y="466.5" width="45" height="45"></rect>
        <rect id="Rectangle" stroke="#333333" stroke-width="5" fill="#666666" x="187.5" y="466.5" width="45" height="45"></rect>
        <rect id="Rectangle" stroke="#333333" stroke-width="5" fill="#666666" x="247.5" y="466.5" width="45" height="45"></rect>
        <rect id="Rectangle" stroke="#333333" stroke-width="5" fill="#666666" x="307.5" y="466.5" width="45" height="45"></rect>
        <rect id="Rectangle" stroke="#333333" stroke-width="5" fill="#666666" x="367.5" y="466.5" width="45" height="45"></rect>
        <rect id="Rectangle" stroke="#333333" stroke-width="5" fill="#666666" x="427.5" y="466.5" width="45" height="45"></rect>
        <rect id="Rectangle" stroke="#333333" stroke-width="5" fill="#666666" x="128.5" y="526.5" width="45" height="45"></rect>
        <rect id="Rectangle" stroke="#333333" stroke-width="5" fill="#666666" x="68.5" y="166.5" width="45" height="45"></rect>
        <rect id="Rectangle" stroke="#333333" stroke-width="5" fill="#666666" x="67.5" y="226.5" width="45" height="45"></rect>
        <rect id="Rectangle" stroke="#333333" stroke-width="5" fill="#666666" x="68.5" y="286.5" width="45" height="45"></rect>
        <rect id="Rectangle" stroke="#333333" stroke-width="5" fill="#666666" x="68.5" y="346.5" width="45" height="45"></rect>
        <rect id="Rectangle" stroke="#333333" stroke-width="5" fill="#666666" x="68.5" y="406.5" width="45" height="45"></rect>
        <rect id="Rectangle" stroke="#333333" stroke-width="5" fill="#666666" x="67.5" y="466.5" width="45" height="45"></rect>
        <rect id="Rectangle" stroke="#333333" stroke-width="5" fill="#666666" x="68.5" y="526.5" width="45" height="45"></rect>
        <rect id="Rectangle" stroke="#333333" stroke-width="5" fill="#666666" x="188.5" y="526.5" width="45" height="45"></rect>
        <rect id="Rectangle" stroke="#333333" stroke-width="5" fill="#666666" x="248.5" y="526.5" width="45" height="45"></rect>
        <rect id="Rectangle" stroke="#333333" stroke-width="5" fill="#666666" x="308.5" y="526.5" width="45" height="45"></rect>
        <rect id="Rectangle" stroke="#333333" stroke-width="5" fill="#666666" x="368.5" y="526.5" width="45" height="45"></rect>
        <rect id="Rectangle" stroke="#333333" stroke-width="5" fill="#666666" x="428.5" y="526.5" width="45" height="45"></rect>
        <text id="Worker-Nodes" font-family="HelveticaNeue-Bold, Helvetica Neue" font-size="30" font-weight="bold" letter-spacing="-0.8571428" fill="#333333">
            <tspan x="152.077857" y="137">WORKER NODES</tspan>
        </text>
        <g id="Group-5" transform="translate(636.000000, 184.000000)">
            <g id="Group-3" transform="translate(0.000000, 100.000000)">
                <rect id="Rectangle" fill="#FF0000" x="0" y="0" width="170" height="170"></rect>
                <text id="master-node" font-family="HelveticaNeue-Bold, Helvetica Neue" font-size="25" font-weight="bold" letter-spacing="-0.7142855" fill="#FFFFFF">
                    <tspan x="34.3678565" y="80">MASTER</tspan>
                    <tspan x="50.078571" y="109">NODE</tspan>
                </text>
            </g>
            <g id="Group-2" transform="translate(200.000000, 0.000000)">
                <rect id="Rectangle" fill="#FF0000" x="0" y="0" width="170" height="170"></rect>
                <text id="master-node" font-family="HelveticaNeue-Bold, Helvetica Neue" font-size="25" font-weight="bold" letter-spacing="-0.7142855" fill="#FFFFFF">
                    <tspan x="34.3678565" y="80">MASTER</tspan>
                    <tspan x="50.078571" y="109">NODE</tspan>
                </text>
            </g>
            <g id="Group-4" transform="translate(200.000000, 200.000000)">
                <g id="Rectangle-2" fill="#FF0000">
                    <rect id="Rectangle" x="0" y="0" width="170" height="170"></rect>
                </g>
                <text id="master-node" font-family="HelveticaNeue-Bold, Helvetica Neue" font-size="25" font-weight="bold" letter-spacing="-0.7142855" fill="#FFFFFF">
                    <tspan x="34.3678565" y="80">MASTER</tspan>
                    <tspan x="50.078571" y="109">NODE</tspan>
                </text>
            </g>
            <path d="M170,132.5 L200,132.5" id="Line-2" stroke="#FF0000" stroke-width="8" stroke-linecap="square"></path>
            <path d="M170,238.5 L200,238.5" id="Line-2" stroke="#FF0000" stroke-width="8" stroke-linecap="square"></path>
            <path d="M237.5,170.5 L237.5,216.5" id="Line-2" stroke="#FF0000" stroke-width="8" stroke-linecap="square"></path>
        </g>
        <g id="Group-8" transform="translate(686.000000, 103.000000)">
            <g id="Group-7">
                <circle id="Oval" fill="#FF0000" cx="27.5" cy="27.5" r="27.5"></circle>
                <g id="Group-6" transform="translate(10.000000, 9.000000)" stroke="#FFFFFF">
                    <path d="M26.5,0.5 L12.5,18.5" id="Line-4" stroke-width="5" stroke-linecap="round"></path>
                    <path d="M12.5,18.5 L26.5,13.5" id="Line" stroke-width="5" stroke-linecap="round"></path>
                    <path d="M26.5,13.5 L12.5,28.5" id="Line-5" stroke-width="5" stroke-linecap="round"></path>
                    <polygon id="Triangle" fill="#FFFFFF" transform="translate(9.994675, 32.503524) rotate(-145.000000) translate(-9.994675, -32.503524) " points="9.99467497 26.5035238 17.994675 38.5035238 1.99467497 38.5035238"></polygon>
                </g>
            </g>
            <text id="overload" font-family="HelveticaNeue-Bold, Helvetica Neue" font-size="38" font-weight="bold" letter-spacing="-1.085714" fill="#FF0000">
                <tspan x="67.417856" y="42">OVERLOAD</tspan>
            </text>
        </g>
        <text id="Cluster" font-family="HelveticaNeue-Bold, Helvetica Neue" font-size="38" font-weight="bold" letter-spacing="-1.085714" fill="#333333">
            <tspan x="449.404999" y="50">CLUSTER</tspan>
        </text>
    </g>
</svg>