<?xml version="1.0" encoding="UTF-8"?>
<svg width="1068px" height="628px" viewBox="0 0 1068 628" version="1.1" xmlns="http://www.w3.org/2000/svg" xmlns:xlink="http://www.w3.org/1999/xlink">
    <!-- Generator: Sketch 54.1 (76490) - https://sketchapp.com -->
    <title>many-pods-per-node</title>
    <desc>Created with Sketch.</desc>
    <defs>
        <linearGradient x1="8.7291495%" y1="0%" x2="85.5876423%" y2="0%" id="linearGradient-1">
            <stop stop-color="#333333" offset="0%"></stop>
            <stop stop-color="#FF0000" offset="100%"></stop>
        </linearGradient>
        <linearGradient x1="8.7291495%" y1="0%" x2="85.5876423%" y2="0%" id="linearGradient-2">
            <stop stop-color="#333333" offset="0%"></stop>
            <stop stop-color="#FF0000" offset="100%"></stop>
        </linearGradient>
        <linearGradient x1="8.7291495%" y1="0%" x2="85.5876423%" y2="0%" id="linearGradient-3">
            <stop stop-color="#333333" offset="0%"></stop>
            <stop stop-color="#FF0000" offset="100%"></stop>
        </linearGradient>
        <linearGradient x1="8.7291495%" y1="0%" x2="85.5876423%" y2="0%" id="linearGradient-4">
            <stop stop-color="#333333" offset="0%"></stop>
            <stop stop-color="#FF0000" offset="100%"></stop>
        </linearGradient>
        <linearGradient x1="8.7291495%" y1="0%" x2="85.5876423%" y2="0%" id="linearGradient-5">
            <stop stop-color="#333333" offset="0%"></stop>
            <stop stop-color="#FF0000" offset="100%"></stop>
        </linearGradient>
    </defs>
    <g id="many-pods-per-node" stroke="none" stroke-width="1" fill="none" fill-rule="evenodd">
        <rect id="Rectangle" stroke="#333333" stroke-width="10" x="115" y="73" width="838" height="538"></rect>
        <path d="M565,190 L716,369" id="Line" stroke="url(#linearGradient-1)" stroke-width="12" stroke-linecap="square"></path>
        <path d="M565,249 L716,369" id="Line" stroke="url(#linearGradient-2)" stroke-width="12" stroke-linecap="square"></path>
        <path d="M565,309 L716,369" id="Line" stroke="url(#linearGradient-3)" stroke-width="12" stroke-linecap="square"></path>
        <path d="M565,368.5 L716,369" id="Line" stroke="url(#linearGradient-4)" stroke-width="12" stroke-linecap="square"></path>
        <path d="M565,429 L716,369" id="Line" stroke="url(#linearGradient-3)" stroke-width="12" stroke-linecap="square"></path>
        <path d="M564,489 L716,369" id="Line" stroke="url(#linearGradient-5)" stroke-width="12" stroke-linecap="square"></path>
        <path d="M565,548 L716,369" id="Line" stroke="url(#linearGradient-1)" stroke-width="12" stroke-linecap="square"></path>
        <g id="Group-3" transform="translate(725.000000, 190.000000)">
            <g id="Group">
                <rect id="Rectangle" stroke="#FF0000" stroke-width="5" fill="#FF0000" x="2.5" y="2.5" width="165" height="165"></rect>
                <text id="kubelet" font-family="HelveticaNeue-Bold, Helvetica Neue" font-size="25" font-weight="bold" letter-spacing="-0.7142857" fill="#FFFFFF">
                    <tspan x="29.1625" y="95">KUBELET</tspan>
                </text>
            </g>
            <g id="Group">
                <rect id="Rectangle" stroke="#FF0000" stroke-width="5" fill="#FF0000" x="2.5" y="2.5" width="165" height="165"></rect>
                <text id="kubelet" font-family="HelveticaNeue-Bold, Helvetica Neue" font-size="25" font-weight="bold" letter-spacing="-0.7142857" fill="#FFFFFF">
                    <tspan x="29.1625" y="95">KUBELET</tspan>
                </text>
            </g>
            <g id="Group-2" transform="translate(0.000000, 188.000000)">
                <rect id="Rectangle" stroke="#FF0000" stroke-width="5" fill="#FF0000" x="2.5" y="2.5" width="165" height="165"></rect>
                <text id="container-runtime" font-family="HelveticaNeue-Bold, Helvetica Neue" font-size="25" font-weight="bold" letter-spacing="-0.7142857" fill="#FFFFFF">
                    <tspan x="15.3392857" y="80">CONTAINER</tspan>
                    <tspan x="29.6875" y="109">RUNTIME</tspan>
                </text>
            </g>
        </g>
        <rect id="Rectangle" stroke="#333333" stroke-width="5" fill="#666666" x="217.5" y="166.5" width="45" height="45"></rect>
        <rect id="Rectangle" stroke="#333333" stroke-width="5" fill="#666666" x="277.5" y="166.5" width="45" height="45"></rect>
        <rect id="Rectangle" stroke="#333333" stroke-width="5" fill="#666666" x="337.5" y="166.5" width="45" height="45"></rect>
        <rect id="Rectangle" stroke="#333333" stroke-width="5" fill="#666666" x="397.5" y="166.5" width="45" height="45"></rect>
        <rect id="Rectangle" stroke="#333333" stroke-width="5" fill="#666666" x="457.5" y="166.5" width="45" height="45"></rect>
        <rect id="Rectangle" stroke="#333333" stroke-width="5" fill="#666666" x="517.5" y="166.5" width="45" height="45"></rect>
        <rect id="Rectangle" stroke="#333333" stroke-width="5" fill="#666666" x="216.5" y="226.5" width="45" height="45"></rect>
        <rect id="Rectangle" stroke="#333333" stroke-width="5" fill="#666666" x="276.5" y="226.5" width="45" height="45"></rect>
        <rect id="Rectangle" stroke="#333333" stroke-width="5" fill="#666666" x="336.5" y="226.5" width="45" height="45"></rect>
        <rect id="Rectangle" stroke="#333333" stroke-width="5" fill="#666666" x="396.5" y="226.5" width="45" height="45"></rect>
        <rect id="Rectangle" stroke="#333333" stroke-width="5" fill="#666666" x="456.5" y="226.5" width="45" height="45"></rect>
        <rect id="Rectangle" stroke="#333333" stroke-width="5" fill="#666666" x="516.5" y="226.5" width="45" height="45"></rect>
        <rect id="Rectangle" stroke="#333333" stroke-width="5" fill="#666666" x="217.5" y="286.5" width="45" height="45"></rect>
        <rect id="Rectangle" stroke="#333333" stroke-width="5" fill="#666666" x="277.5" y="286.5" width="45" height="45"></rect>
        <rect id="Rectangle" stroke="#333333" stroke-width="5" fill="#666666" x="337.5" y="286.5" width="45" height="45"></rect>
        <rect id="Rectangle" stroke="#333333" stroke-width="5" fill="#666666" x="397.5" y="286.5" width="45" height="45"></rect>
        <rect id="Rectangle" stroke="#333333" stroke-width="5" fill="#666666" x="457.5" y="286.5" width="45" height="45"></rect>
        <rect id="Rectangle" stroke="#333333" stroke-width="5" fill="#666666" x="517.5" y="286.5" width="45" height="45"></rect>
        <rect id="Rectangle" stroke="#333333" stroke-width="5" fill="#666666" x="217.5" y="346.5" width="45" height="45"></rect>
        <rect id="Rectangle" stroke="#333333" stroke-width="5" fill="#666666" x="277.5" y="346.5" width="45" height="45"></rect>
        <rect id="Rectangle" stroke="#333333" stroke-width="5" fill="#666666" x="337.5" y="346.5" width="45" height="45"></rect>
        <rect id="Rectangle" stroke="#333333" stroke-width="5" fill="#666666" x="397.5" y="346.5" width="45" height="45"></rect>
        <rect id="Rectangle" stroke="#333333" stroke-width="5" fill="#666666" x="457.5" y="346.5" width="45" height="45"></rect>
        <rect id="Rectangle" stroke="#333333" stroke-width="5" fill="#666666" x="517.5" y="346.5" width="45" height="45"></rect>
        <rect id="Rectangle" stroke="#333333" stroke-width="5" fill="#666666" x="217.5" y="406.5" width="45" height="45"></rect>
        <rect id="Rectangle" stroke="#333333" stroke-width="5" fill="#666666" x="277.5" y="406.5" width="45" height="45"></rect>
        <rect id="Rectangle" stroke="#333333" stroke-width="5" fill="#666666" x="337.5" y="406.5" width="45" height="45"></rect>
        <rect id="Rectangle" stroke="#333333" stroke-width="5" fill="#666666" x="397.5" y="406.5" width="45" height="45"></rect>
        <rect id="Rectangle" stroke="#333333" stroke-width="5" fill="#666666" x="457.5" y="406.5" width="45" height="45"></rect>
        <rect id="Rectangle" stroke="#333333" stroke-width="5" fill="#666666" x="517.5" y="406.5" width="45" height="45"></rect>
        <rect id="Rectangle" stroke="#333333" stroke-width="5" fill="#666666" x="216.5" y="466.5" width="45" height="45"></rect>
        <rect id="Rectangle" stroke="#333333" stroke-width="5" fill="#666666" x="276.5" y="466.5" width="45" height="45"></rect>
        <rect id="Rectangle" stroke="#333333" stroke-width="5" fill="#666666" x="336.5" y="466.5" width="45" height="45"></rect>
        <rect id="Rectangle" stroke="#333333" stroke-width="5" fill="#666666" x="396.5" y="466.5" width="45" height="45"></rect>
        <rect id="Rectangle" stroke="#333333" stroke-width="5" fill="#666666" x="456.5" y="466.5" width="45" height="45"></rect>
        <rect id="Rectangle" stroke="#333333" stroke-width="5" fill="#666666" x="516.5" y="466.5" width="45" height="45"></rect>
        <rect id="Rectangle" stroke="#333333" stroke-width="5" fill="#666666" x="217.5" y="526.5" width="45" height="45"></rect>
        <rect id="Rectangle" stroke="#333333" stroke-width="5" fill="#666666" x="157.5" y="166.5" width="45" height="45"></rect>
        <rect id="Rectangle" stroke="#333333" stroke-width="5" fill="#666666" x="156.5" y="226.5" width="45" height="45"></rect>
        <rect id="Rectangle" stroke="#333333" stroke-width="5" fill="#666666" x="157.5" y="286.5" width="45" height="45"></rect>
        <rect id="Rectangle" stroke="#333333" stroke-width="5" fill="#666666" x="157.5" y="346.5" width="45" height="45"></rect>
        <rect id="Rectangle" stroke="#333333" stroke-width="5" fill="#666666" x="157.5" y="406.5" width="45" height="45"></rect>
        <rect id="Rectangle" stroke="#333333" stroke-width="5" fill="#666666" x="156.5" y="466.5" width="45" height="45"></rect>
        <rect id="Rectangle" stroke="#333333" stroke-width="5" fill="#666666" x="157.5" y="526.5" width="45" height="45"></rect>
        <rect id="Rectangle" stroke="#333333" stroke-width="5" fill="#666666" x="277.5" y="526.5" width="45" height="45"></rect>
        <rect id="Rectangle" stroke="#333333" stroke-width="5" fill="#666666" x="337.5" y="526.5" width="45" height="45"></rect>
        <rect id="Rectangle" stroke="#333333" stroke-width="5" fill="#666666" x="397.5" y="526.5" width="45" height="45"></rect>
        <rect id="Rectangle" stroke="#333333" stroke-width="5" fill="#666666" x="457.5" y="526.5" width="45" height="45"></rect>
        <rect id="Rectangle" stroke="#333333" stroke-width="5" fill="#666666" x="517.5" y="526.5" width="45" height="45"></rect>
        <text id="pods-(containers)" font-family="HelveticaNeue-Bold, Helvetica Neue" font-size="30" font-weight="bold" letter-spacing="-0.8571428" fill="#333333">
            <tspan x="215.425714" y="137">PODS (CONTAINERS)</tspan>
        </text>
        <text id="node" font-family="HelveticaNeue-Bold, Helvetica Neue" font-size="38" font-weight="bold" letter-spacing="-1.085714" fill="#333333">
            <tspan x="481.419428" y="50">NODE</tspan>
        </text>
        <g id="Group-8" transform="translate(660.000000, 105.000000)">
            <g id="Group-7">
                <circle id="Oval" fill="#FF0000" cx="27.5" cy="27.5" r="27.5"></circle>
                <g id="Group-6" transform="translate(10.000000, 9.000000)" stroke="#FFFFFF">
                    <path d="M26.5,0.5 L12.5,18.5" id="Line-4" stroke-width="5" stroke-linecap="round"></path>
                    <path d="M12.5,18.5 L26.5,13.5" id="Line" stroke-width="5" stroke-linecap="round"></path>
                    <path d="M26.5,13.5 L12.5,28.5" id="Line-5" stroke-width="5" stroke-linecap="round"></path>
                    <polygon id="Triangle" fill="#FFFFFF" transform="translate(9.994675, 32.503524) rotate(-145.000000) translate(-9.994675, -32.503524) " points="9.99467497 26.5035238 17.994675 38.5035238 1.99467497 38.5035238"></polygon>
                </g>
            </g>
            <text id="overload" font-family="HelveticaNeue-Bold, Helvetica Neue" font-size="38" font-weight="bold" letter-spacing="-1.085714" fill="#FF0000">
                <tspan x="67.417856" y="42">OVERLOAD</tspan>
            </text>
        </g>
    </g>
</svg>