<svg xmlns="http://www.w3.org/2000/svg" xmlns:xlink="http://www.w3.org/1999/xlink" width="1328" height="1206" contentScriptType="application/ecmascript" contentStyleType="text/css" style="width:1328px;height:1206px" preserveAspectRatio="none" version="1.1" viewBox="0 0 1328 1206" zoomAndPan="magnify"><g><rect style="stroke:#383838;stroke-width:1" width="10" height="29.133" x="341.5" y="108.563" fill="#FFF"/><rect style="stroke:#383838;stroke-width:1" width="10" height="29.133" x="341.5" y="209.961" fill="#FFF"/><rect style="stroke:#383838;stroke-width:1" width="10" height="110.965" x="341.5" y="321.926" fill="#FFF"/><rect style="stroke:#383838;stroke-width:1" width="10" height="68.832" x="341.5" y="515.723" fill="#FFF"/><rect style="stroke:#383838;stroke-width:1" width="10" height="483.426" x="341.5" y="665.059" fill="#FFF"/><rect style="stroke:#383838;stroke-width:1" width="10" height="406.594" x="346.5" y="741.891" fill="#FFF"/><line style="stroke:#383838;stroke-width:1" x1="70" x2="70" y1="34.297" y2="592.555"/><line style="stroke:#383838;stroke-width:1;stroke-dasharray:1,4" x1="70" x2="70" y1="592.555" y2="633.359"/><line style="stroke:#383838;stroke-width:1" x1="70" x2="70" y1="633.359" y2="1166.484"/><line style="stroke:#383838;stroke-width:1" x1="208" x2="208" y1="34.297" y2="592.555"/><line style="stroke:#383838;stroke-width:1;stroke-dasharray:1,4" x1="208" x2="208" y1="592.555" y2="633.359"/><line style="stroke:#383838;stroke-width:1" x1="208" x2="208" y1="633.359" y2="1166.484"/><line style="stroke:#383838;stroke-width:1" x1="346" x2="346" y1="34.297" y2="592.555"/><line style="stroke:#383838;stroke-width:1;stroke-dasharray:1,4" x1="346" x2="346" y1="592.555" y2="633.359"/><line style="stroke:#383838;stroke-width:1" x1="346" x2="346" y1="633.359" y2="1166.484"/><line style="stroke:#383838;stroke-width:1" x1="665.5" x2="665.5" y1="34.297" y2="592.555"/><line style="stroke:#383838;stroke-width:1;stroke-dasharray:1,4" x1="665.5" x2="665.5" y1="592.555" y2="633.359"/><line style="stroke:#383838;stroke-width:1" x1="665.5" x2="665.5" y1="633.359" y2="1166.484"/><line style="stroke:#383838;stroke-width:1" x1="782.5" x2="782.5" y1="34.297" y2="592.555"/><line style="stroke:#383838;stroke-width:1;stroke-dasharray:1,4" x1="782.5" x2="782.5" y1="592.555" y2="633.359"/><line style="stroke:#383838;stroke-width:1" x1="782.5" x2="782.5" y1="633.359" y2="1166.484"/><line style="stroke:#383838;stroke-width:1" x1="954.5" x2="954.5" y1="34.297" y2="592.555"/><line style="stroke:#383838;stroke-width:1;stroke-dasharray:1,4" x1="954.5" x2="954.5" y1="592.555" y2="633.359"/><line style="stroke:#383838;stroke-width:1" x1="954.5" x2="954.5" y1="633.359" y2="1166.484"/><line style="stroke:#383838;stroke-width:1" x1="1135.5" x2="1135.5" y1="34.297" y2="592.555"/><line style="stroke:#383838;stroke-width:1;stroke-dasharray:1,4" x1="1135.5" x2="1135.5" y1="592.555" y2="633.359"/><line style="stroke:#383838;stroke-width:1" x1="1135.5" x2="1135.5" y1="633.359" y2="1166.484"/><line style="stroke:#383838;stroke-width:1" x1="1283" x2="1283" y1="34.297" y2="592.555"/><line style="stroke:#383838;stroke-width:1;stroke-dasharray:1,4" x1="1283" x2="1283" y1="592.555" y2="633.359"/><line style="stroke:#383838;stroke-width:1" x1="1283" x2="1283" y1="633.359" y2="1166.484"/><rect style="stroke:#383838;stroke-width:1.5" width="125" height="30.297" x="8" y="3" fill="#F8F8F8"/><text x="15" y="22.995" fill="#000" font-family="FG Virgil" font-size="14" lengthAdjust="spacingAndGlyphs" textLength="111">ConfigController</text><rect style="stroke:#383838;stroke-width:1.5" width="125" height="30.297" x="8" y="1165.484" fill="#F8F8F8"/><text x="15" y="1185.479" fill="#000" font-family="FG Virgil" font-size="14" lengthAdjust="spacingAndGlyphs" textLength="111">ConfigController</text><rect style="stroke:#383838;stroke-width:1.5" width="131" height="30.297" x="143" y="3" fill="#F8F8F8"/><text x="150" y="22.995" fill="#000" font-family="FG Virgil" font-size="14" lengthAdjust="spacingAndGlyphs" textLength="117">ServiceController</text><rect style="stroke:#383838;stroke-width:1.5" width="131" height="30.297" x="143" y="1165.484" fill="#F8F8F8"/><text x="150" y="1185.479" fill="#000" font-family="FG Virgil" font-size="14" lengthAdjust="spacingAndGlyphs" textLength="117">ServiceController</text><rect style="stroke:#383838;stroke-width:1.5" width="125" height="30.297" x="284" y="3" fill="#F8F8F8"/><text x="291" y="22.995" fill="#000" font-family="FG Virgil" font-size="14" lengthAdjust="spacingAndGlyphs" textLength="111">DiscoveryServer</text><rect style="stroke:#383838;stroke-width:1.5" width="125" height="30.297" x="284" y="1165.484" fill="#F8F8F8"/><text x="291" y="1185.479" fill="#000" font-family="FG Virgil" font-size="14" lengthAdjust="spacingAndGlyphs" textLength="111">DiscoveryServer</text><path fill="#F8F8F8" d="M614.5,8 L716.5,8 C721.5,8 721.5,21.1484 721.5,21.1484 C721.5,21.1484 721.5,34.2969 716.5,34.2969 L614.5,34.2969 C609.5,34.2969 609.5,21.1484 609.5,21.1484 C609.5,21.1484 609.5,8 614.5,8" style="stroke:#383838;stroke-width:2"/><path fill="none" d="M716.5,8 C711.5,8 711.5,21.1484 711.5,21.1484 C711.5,34.2969 716.5,34.2969 716.5,34.2969" style="stroke:#383838;stroke-width:2"/><text x="614.5" y="25.995" fill="#000" font-family="FG Virgil" font-size="14" lengthAdjust="spacingAndGlyphs" textLength="92">PushChannel</text><path fill="#F8F8F8" d="M614.5,1165.4844 L716.5,1165.4844 C721.5,1165.4844 721.5,1178.6328 721.5,1178.6328 C721.5,1178.6328 721.5,1191.7813 716.5,1191.7813 L614.5,1191.7813 C609.5,1191.7813 609.5,1178.6328 609.5,1178.6328 C609.5,1178.6328 609.5,1165.4844 614.5,1165.4844" style="stroke:#383838;stroke-width:2"/><path fill="none" d="M716.5,1165.4844 C711.5,1165.4844 711.5,1178.6328 711.5,1178.6328 C711.5,1191.7813 716.5,1191.7813 716.5,1191.7813" style="stroke:#383838;stroke-width:2"/><text x="614.5" y="1183.479" fill="#000" font-family="FG Virgil" font-size="14" lengthAdjust="spacingAndGlyphs" textLength="92">PushChannel</text><path fill="#F8F8F8" d="M736.5,8 L828.5,8 C833.5,8 833.5,21.1484 833.5,21.1484 C833.5,21.1484 833.5,34.2969 828.5,34.2969 L736.5,34.2969 C731.5,34.2969 731.5,21.1484 731.5,21.1484 C731.5,21.1484 731.5,8 736.5,8" style="stroke:#383838;stroke-width:2"/><path fill="none" d="M828.5,8 C823.5,8 823.5,21.1484 823.5,21.1484 C823.5,34.2969 828.5,34.2969 828.5,34.2969" style="stroke:#383838;stroke-width:2"/><text x="736.5" y="25.995" fill="#000" font-family="FG Virgil" font-size="14" lengthAdjust="spacingAndGlyphs" textLength="82">PushQueue</text><path fill="#F8F8F8" d="M736.5,1165.4844 L828.5,1165.4844 C833.5,1165.4844 833.5,1178.6328 833.5,1178.6328 C833.5,1178.6328 833.5,1191.7813 828.5,1191.7813 L736.5,1191.7813 C731.5,1191.7813 731.5,1178.6328 731.5,1178.6328 C731.5,1178.6328 731.5,1165.4844 736.5,1165.4844" style="stroke:#383838;stroke-width:2"/><path fill="none" d="M828.5,1165.4844 C823.5,1165.4844 823.5,1178.6328 823.5,1178.6328 C823.5,1191.7813 828.5,1191.7813 828.5,1191.7813" style="stroke:#383838;stroke-width:2"/><text x="736.5" y="1183.479" fill="#000" font-family="FG Virgil" font-size="14" lengthAdjust="spacingAndGlyphs" textLength="82">PushQueue</text><path fill="#F8F8F8" d="M848.5,8 L1060.5,8 C1065.5,8 1065.5,21.1484 1065.5,21.1484 C1065.5,21.1484 1065.5,34.2969 1060.5,34.2969 L848.5,34.2969 C843.5,34.2969 843.5,21.1484 843.5,21.1484 C843.5,21.1484 843.5,8 848.5,8" style="stroke:#383838;stroke-width:2"/><path fill="none" d="M1060.5,8 C1055.5,8 1055.5,21.1484 1055.5,21.1484 C1055.5,34.2969 1060.5,34.2969 1060.5,34.2969" style="stroke:#383838;stroke-width:2"/><text x="848.5" y="25.995" fill="#000" font-family="FG Virgil" font-size="14" lengthAdjust="spacingAndGlyphs" textLength="202">XdsConnection.pushChannel</text><path fill="#F8F8F8" d="M848.5,1165.4844 L1060.5,1165.4844 C1065.5,1165.4844 1065.5,1178.6328 1065.5,1178.6328 C1065.5,1178.6328 1065.5,1191.7813 1060.5,1191.7813 L848.5,1191.7813 C843.5,1191.7813 843.5,1178.6328 843.5,1178.6328 C843.5,1178.6328 843.5,1165.4844 848.5,1165.4844" style="stroke:#383838;stroke-width:2"/><path fill="none" d="M1060.5,1165.4844 C1055.5,1165.4844 1055.5,1178.6328 1055.5,1178.6328 C1055.5,1191.7813 1060.5,1191.7813 1060.5,1191.7813" style="stroke:#383838;stroke-width:2"/><text x="848.5" y="1183.479" fill="#000" font-family="FG Virgil" font-size="14" lengthAdjust="spacingAndGlyphs" textLength="202">XdsConnection.pushChannel</text><rect style="stroke:#383838;stroke-width:1.5" width="120" height="30.297" x="1075.5" y="3" fill="#F8F8F8"/><text x="1082.5" y="22.995" fill="#000" font-family="FG Virgil" font-size="14" lengthAdjust="spacingAndGlyphs" textLength="106">XdsConnection</text><rect style="stroke:#383838;stroke-width:1.5" width="120" height="30.297" x="1075.5" y="1165.484" fill="#F8F8F8"/><text x="1082.5" y="1185.479" fill="#000" font-family="FG Virgil" font-size="14" lengthAdjust="spacingAndGlyphs" textLength="106">XdsConnection</text><rect style="stroke:#383838;stroke-width:1.5" width="55" height="30.297" x="1256" y="3" fill="#F8F8F8"/><text x="1263" y="22.995" fill="#000" font-family="FG Virgil" font-size="14" lengthAdjust="spacingAndGlyphs" textLength="41">Envoy</text><rect style="stroke:#383838;stroke-width:1.5" width="55" height="30.297" x="1256" y="1165.484" fill="#F8F8F8"/><text x="1263" y="1185.479" fill="#000" font-family="FG Virgil" font-size="14" lengthAdjust="spacingAndGlyphs" textLength="41">Envoy</text><rect style="stroke:#383838;stroke-width:1" width="10" height="29.133" x="341.5" y="108.563" fill="#FFF"/><rect style="stroke:#383838;stroke-width:1" width="10" height="29.133" x="341.5" y="209.961" fill="#FFF"/><rect style="stroke:#383838;stroke-width:1" width="10" height="110.965" x="341.5" y="321.926" fill="#FFF"/><rect style="stroke:#383838;stroke-width:1" width="10" height="68.832" x="341.5" y="515.723" fill="#FFF"/><rect style="stroke:#383838;stroke-width:1" width="10" height="483.426" x="341.5" y="665.059" fill="#FFF"/><rect style="stroke:#383838;stroke-width:1" width="10" height="406.594" x="346.5" y="741.891" fill="#FFF"/><rect style="stroke:#eee;stroke-width:1" width="1313" height="3" x="3" y="64.863" fill="#EEE"/><line style="stroke:#000;stroke-width:1" x1="3" x2="1316" y1="64.863" y2="64.863"/><line style="stroke:#000;stroke-width:1" x1="3" x2="1316" y1="67.863" y2="67.863"/><rect style="stroke:#000;stroke-width:2" width="133" height="23.133" x="593" y="54.297" fill="#EEE"/><text x="599" y="70.364" fill="#000" font-family="FG Virgil" font-size="13" font-weight="bold" lengthAdjust="spacingAndGlyphs" textLength="114">Service Change</text><polygon fill="#383838" points="329.5 104.563 339.5 108.563 329.5 112.563 333.5 108.563" style="stroke:#383838;stroke-width:1"/><line style="stroke:#383838;stroke-width:1;stroke-dasharray:2,2" x1="208.5" x2="335.5" y1="108.563" y2="108.563"/><text x="215.5" y="103.497" fill="#000" font-family="FG Virgil" font-size="13" lengthAdjust="spacingAndGlyphs" textLength="87">ConfigUpdate</text><polygon fill="#383838" points="653.5 133.695 663.5 137.695 653.5 141.695 657.5 137.695" style="stroke:#383838;stroke-width:1"/><line style="stroke:#383838;stroke-width:1" x1="346.5" x2="659.5" y1="137.695" y2="137.695"/><text x="353.5" y="132.629" fill="#000" font-family="FG Virgil" font-size="13" lengthAdjust="spacingAndGlyphs" textLength="173">PushRequest(ServiceEntry)</text><rect style="stroke:#eee;stroke-width:1" width="1313" height="3" x="3" y="166.262" fill="#EEE"/><line style="stroke:#000;stroke-width:1" x1="3" x2="1316" y1="166.262" y2="166.262"/><line style="stroke:#000;stroke-width:1" x1="3" x2="1316" y1="169.262" y2="169.262"/><rect style="stroke:#000;stroke-width:2" width="128" height="23.133" x="595.5" y="155.695" fill="#EEE"/><text x="601.5" y="171.762" fill="#000" font-family="FG Virgil" font-size="13" font-weight="bold" lengthAdjust="spacingAndGlyphs" textLength="109">Config Change</text><polygon fill="#383838" points="329.5 205.961 339.5 209.961 329.5 213.961 333.5 209.961" style="stroke:#383838;stroke-width:1"/><line style="stroke:#383838;stroke-width:1;stroke-dasharray:2,2" x1="70.5" x2="335.5" y1="209.961" y2="209.961"/><text x="77.5" y="204.895" fill="#000" font-family="FG Virgil" font-size="13" lengthAdjust="spacingAndGlyphs" textLength="87">ConfigUpdate</text><polygon fill="#383838" points="653.5 235.094 663.5 239.094 653.5 243.094 657.5 239.094" style="stroke:#383838;stroke-width:1"/><line style="stroke:#383838;stroke-width:1" x1="346.5" x2="659.5" y1="239.094" y2="239.094"/><text x="353.5" y="234.028" fill="#000" font-family="FG Virgil" font-size="13" lengthAdjust="spacingAndGlyphs" textLength="211">PushRequest(Routing Rules, etc.)</text><rect style="stroke:#eee;stroke-width:1" width="1313" height="3" x="3" y="267.66" fill="#EEE"/><line style="stroke:#000;stroke-width:1" x1="3" x2="1316" y1="267.66" y2="267.66"/><line style="stroke:#000;stroke-width:1" x1="3" x2="1316" y1="270.66" y2="270.66"/><rect style="stroke:#000;stroke-width:2" width="97" height="23.133" x="611" y="257.094" fill="#EEE"/><text x="617" y="273.161" fill="#000" font-family="FG Virgil" font-size="13" font-weight="bold" lengthAdjust="spacingAndGlyphs" textLength="73">debounce</text><polygon fill="#383838" points="653.5 317.926 663.5 321.926 653.5 325.926 657.5 321.926" style="stroke:#383838;stroke-width:1"/><line style="stroke:#383838;stroke-width:1" x1="351.5" x2="659.5" y1="321.926" y2="321.926"/><text x="358.5" y="316.86" fill="#000" font-family="FG Virgil" font-size="13" lengthAdjust="spacingAndGlyphs" textLength="106">GetPushRequest</text><path fill="#ECECEC" d="M77,295.2266 L77,335.2266 L336,335.2266 L336,305.2266 L326,295.2266 L77,295.2266" style="stroke:#383838;stroke-width:1"/><path fill="#ECECEC" d="M326,295.2266 L326,305.2266 L336,305.2266 L326,295.2266" style="stroke:#383838;stroke-width:1"/><text x="83" y="312.293" fill="#000" font-family="FG Virgil" font-size="13" lengthAdjust="spacingAndGlyphs" textLength="238">pilot/pkg/proxy/envoy/v2/discovery.go</text><text x="83" y="327.426" fill="#000" font-family="FG Virgil" font-size="13" lengthAdjust="spacingAndGlyphs" textLength="171">DiscoveryServer.debounce</text><polygon fill="#383838" points="362.5 357.625 352.5 361.625 362.5 365.625 358.5 361.625" style="stroke:#383838;stroke-width:1"/><line style="stroke:#383838;stroke-width:1;stroke-dasharray:2,2" x1="356.5" x2="664.5" y1="361.625" y2="361.625"/><text x="368.5" y="356.559" fill="#000" font-family="FG Virgil" font-size="13" lengthAdjust="spacingAndGlyphs" textLength="83">PushRequest</text><line style="stroke:#383838;stroke-width:1" x1="351.5" x2="393.5" y1="390.758" y2="390.758"/><line style="stroke:#383838;stroke-width:1" x1="393.5" x2="393.5" y1="390.758" y2="403.758"/><line style="stroke:#383838;stroke-width:1" x1="352.5" x2="393.5" y1="403.758" y2="403.758"/><polygon fill="#383838" points="362.5 399.758 352.5 403.758 362.5 407.758 358.5 403.758" style="stroke:#383838;stroke-width:1"/><text x="358.5" y="385.692" fill="#000" font-family="FG Virgil" font-size="13" lengthAdjust="spacingAndGlyphs" textLength="123">MergePushRequest</text><polygon fill="#383838" points="770.5 428.891 780.5 432.891 770.5 436.891 774.5 432.891" style="stroke:#383838;stroke-width:1"/><line style="stroke:#383838;stroke-width:1" x1="346.5" x2="776.5" y1="432.891" y2="432.891"/><text x="353.5" y="427.825" fill="#000" font-family="FG Virgil" font-size="13" lengthAdjust="spacingAndGlyphs" textLength="248">Enqueue(XdsConnection,PushRequest)</text><rect style="stroke:#eee;stroke-width:1" width="1313" height="3" x="3" y="461.457" fill="#EEE"/><line style="stroke:#000;stroke-width:1" x1="3" x2="1316" y1="461.457" y2="461.457"/><line style="stroke:#000;stroke-width:1" x1="3" x2="1316" y1="464.457" y2="464.457"/><rect style="stroke:#000;stroke-width:2" width="113" height="23.133" x="603" y="450.891" fill="#EEE"/><text x="609" y="466.957" fill="#000" font-family="FG Virgil" font-size="13" font-weight="bold" lengthAdjust="spacingAndGlyphs" textLength="89">sendPushes</text><polygon fill="#383838" points="770.5 511.723 780.5 515.723 770.5 519.723 774.5 515.723" style="stroke:#383838;stroke-width:1"/><line style="stroke:#383838;stroke-width:1" x1="351.5" x2="776.5" y1="515.723" y2="515.723"/><text x="358.5" y="510.657" fill="#000" font-family="FG Virgil" font-size="13" lengthAdjust="spacingAndGlyphs" textLength="58">Dequeue</text><path fill="#ECECEC" d="M77,489.0234 L77,529.0234 L336,529.0234 L336,499.0234 L326,489.0234 L77,489.0234" style="stroke:#383838;stroke-width:1"/><path fill="#ECECEC" d="M326,489.0234 L326,499.0234 L336,499.0234 L326,489.0234" style="stroke:#383838;stroke-width:1"/><text x="83" y="506.09" fill="#000" font-family="FG Virgil" font-size="13" lengthAdjust="spacingAndGlyphs" textLength="238">pilot/pkg/proxy/envoy/v2/discovery.go</text><text x="83" y="521.223" fill="#000" font-family="FG Virgil" font-size="13" lengthAdjust="spacingAndGlyphs" textLength="185">DiscoveryServer.sendPushes</text><polygon fill="#383838" points="362.5 551.422 352.5 555.422 362.5 559.422 358.5 555.422" style="stroke:#383838;stroke-width:1"/><line style="stroke:#383838;stroke-width:1;stroke-dasharray:2,2" x1="356.5" x2="781.5" y1="555.422" y2="555.422"/><text x="368.5" y="550.356" fill="#000" font-family="FG Virgil" font-size="13" lengthAdjust="spacingAndGlyphs" textLength="182">XdsConnection,PushRequest</text><polygon fill="#383838" points="942.5 580.555 952.5 584.555 942.5 588.555 946.5 584.555" style="stroke:#383838;stroke-width:1"/><line style="stroke:#383838;stroke-width:1" x1="346.5" x2="948.5" y1="584.555" y2="584.555"/><text x="353.5" y="579.489" fill="#000" font-family="FG Virgil" font-size="13" lengthAdjust="spacingAndGlyphs" textLength="59">XdsEvent</text><polygon fill="#383838" points="942.5 661.059 952.5 665.059 942.5 669.059 946.5 665.059" style="stroke:#383838;stroke-width:1"/><line style="stroke:#383838;stroke-width:1" x1="351.5" x2="948.5" y1="665.059" y2="665.059"/><text x="358.5" y="659.993" fill="#000" font-family="FG Virgil" font-size="13" lengthAdjust="spacingAndGlyphs" textLength="90">GetPushEvent</text><path fill="#ECECEC" d="M18,638.3594 L18,678.3594 L336,678.3594 L336,648.3594 L326,638.3594 L18,638.3594" style="stroke:#383838;stroke-width:1"/><path fill="#ECECEC" d="M326,638.3594 L326,648.3594 L336,648.3594 L326,638.3594" style="stroke:#383838;stroke-width:1"/><text x="24" y="655.426" fill="#000" font-family="FG Virgil" font-size="13" lengthAdjust="spacingAndGlyphs" textLength="201">pilot/pkg/proxy/envoy/v2/ads.go</text><text x="24" y="670.559" fill="#000" font-family="FG Virgil" font-size="13" lengthAdjust="spacingAndGlyphs" textLength="297">DiscoveryServer.StreamAggregatedResources</text><polygon fill="#383838" points="362.5 700.758 352.5 704.758 362.5 708.758 358.5 704.758" style="stroke:#383838;stroke-width:1"/><line style="stroke:#383838;stroke-width:1;stroke-dasharray:2,2" x1="356.5" x2="953.5" y1="704.758" y2="704.758"/><text x="368.5" y="699.692" fill="#000" font-family="FG Virgil" font-size="13" lengthAdjust="spacingAndGlyphs" textLength="67">PushEvent</text><line style="stroke:#383838;stroke-width:1" x1="351.5" x2="398.5" y1="728.891" y2="728.891"/><line style="stroke:#383838;stroke-width:1" x1="398.5" x2="398.5" y1="728.891" y2="741.891"/><line style="stroke:#383838;stroke-width:1" x1="357.5" x2="398.5" y1="741.891" y2="741.891"/><polygon fill="#383838" points="367.5 737.891 357.5 741.891 367.5 745.891 363.5 741.891" style="stroke:#383838;stroke-width:1"/><text x="363.5" y="723.825" fill="#000" font-family="FG Virgil" font-size="13" lengthAdjust="spacingAndGlyphs" textLength="295">pushConnection(XdsConnection,PushRequest)</text><line style="stroke:#383838;stroke-width:1" x1="356.5" x2="398.5" y1="776.023" y2="776.023"/><line style="stroke:#383838;stroke-width:1" x1="398.5" x2="398.5" y1="776.023" y2="789.023"/><line style="stroke:#383838;stroke-width:1" x1="357.5" x2="398.5" y1="789.023" y2="789.023"/><polygon fill="#383838" points="367.5 785.023 357.5 789.023 367.5 793.023 363.5 789.023" style="stroke:#383838;stroke-width:1"/><text x="363.5" y="770.957" fill="#000" font-family="FG Virgil" font-size="13" lengthAdjust="spacingAndGlyphs" textLength="59">pushCDS</text><polygon fill="#383838" points="1123.5 814.156 1133.5 818.156 1123.5 822.156 1127.5 818.156" style="stroke:#383838;stroke-width:1"/><line style="stroke:#383838;stroke-width:1" x1="356.5" x2="1129.5" y1="818.156" y2="818.156"/><text x="363.5" y="813.09" fill="#000" font-family="FG Virgil" font-size="13" lengthAdjust="spacingAndGlyphs" textLength="165">send(DiscoveryResponse)</text><polygon fill="#383838" points="1271.5 843.289 1281.5 847.289 1271.5 851.289 1275.5 847.289" style="stroke:#383838;stroke-width:1"/><line style="stroke:#383838;stroke-width:1" x1="1135.5" x2="1277.5" y1="847.289" y2="847.289"/><text x="1142.5" y="842.223" fill="#000" font-family="FG Virgil" font-size="13" lengthAdjust="spacingAndGlyphs" textLength="124">DiscoveryResponse</text><line style="stroke:#383838;stroke-width:1" x1="356.5" x2="398.5" y1="876.422" y2="876.422"/><line style="stroke:#383838;stroke-width:1" x1="398.5" x2="398.5" y1="876.422" y2="889.422"/><line style="stroke:#383838;stroke-width:1" x1="357.5" x2="398.5" y1="889.422" y2="889.422"/><polygon fill="#383838" points="367.5 885.422 357.5 889.422 367.5 893.422 363.5 889.422" style="stroke:#383838;stroke-width:1"/><text x="363.5" y="871.356" fill="#000" font-family="FG Virgil" font-size="13" lengthAdjust="spacingAndGlyphs" textLength="58">pushEDS</text><polygon fill="#383838" points="1123.5 914.555 1133.5 918.555 1123.5 922.555 1127.5 918.555" style="stroke:#383838;stroke-width:1"/><line style="stroke:#383838;stroke-width:1" x1="356.5" x2="1129.5" y1="918.555" y2="918.555"/><text x="363.5" y="913.489" fill="#000" font-family="FG Virgil" font-size="13" lengthAdjust="spacingAndGlyphs" textLength="165">send(DiscoveryResponse)</text><polygon fill="#383838" points="1271.5 943.688 1281.5 947.688 1271.5 951.688 1275.5 947.688" style="stroke:#383838;stroke-width:1"/><line style="stroke:#383838;stroke-width:1" x1="1135.5" x2="1277.5" y1="947.688" y2="947.688"/><text x="1142.5" y="942.622" fill="#000" font-family="FG Virgil" font-size="13" lengthAdjust="spacingAndGlyphs" textLength="124">DiscoveryResponse</text><line style="stroke:#383838;stroke-width:1" x1="356.5" x2="398.5" y1="976.82" y2="976.82"/><line style="stroke:#383838;stroke-width:1" x1="398.5" x2="398.5" y1="976.82" y2="989.82"/><line style="stroke:#383838;stroke-width:1" x1="357.5" x2="398.5" y1="989.82" y2="989.82"/><polygon fill="#383838" points="367.5 985.82 357.5 989.82 367.5 993.82 363.5 989.82" style="stroke:#383838;stroke-width:1"/><text x="363.5" y="971.754" fill="#000" font-family="FG Virgil" font-size="13" lengthAdjust="spacingAndGlyphs" textLength="57">pushLDS</text><polygon fill="#383838" points="1123.5 1014.953 1133.5 1018.953 1123.5 1022.953 1127.5 1018.953" style="stroke:#383838;stroke-width:1"/><line style="stroke:#383838;stroke-width:1" x1="356.5" x2="1129.5" y1="1018.953" y2="1018.953"/><text x="363.5" y="1013.887" fill="#000" font-family="FG Virgil" font-size="13" lengthAdjust="spacingAndGlyphs" textLength="165">send(DiscoveryResponse)</text><polygon fill="#383838" points="1271.5 1044.086 1281.5 1048.086 1271.5 1052.086 1275.5 1048.086" style="stroke:#383838;stroke-width:1"/><line style="stroke:#383838;stroke-width:1" x1="1135.5" x2="1277.5" y1="1048.086" y2="1048.086"/><text x="1142.5" y="1043.02" fill="#000" font-family="FG Virgil" font-size="13" lengthAdjust="spacingAndGlyphs" textLength="124">DiscoveryResponse</text><line style="stroke:#383838;stroke-width:1" x1="356.5" x2="398.5" y1="1077.219" y2="1077.219"/><line style="stroke:#383838;stroke-width:1" x1="398.5" x2="398.5" y1="1077.219" y2="1090.219"/><line style="stroke:#383838;stroke-width:1" x1="357.5" x2="398.5" y1="1090.219" y2="1090.219"/><polygon fill="#383838" points="367.5 1086.219 357.5 1090.219 367.5 1094.219 363.5 1090.219" style="stroke:#383838;stroke-width:1"/><text x="363.5" y="1072.153" fill="#000" font-family="FG Virgil" font-size="13" lengthAdjust="spacingAndGlyphs" textLength="68">pushRoute</text><polygon fill="#383838" points="1123.5 1115.352 1133.5 1119.352 1123.5 1123.352 1127.5 1119.352" style="stroke:#383838;stroke-width:1"/><line style="stroke:#383838;stroke-width:1" x1="356.5" x2="1129.5" y1="1119.352" y2="1119.352"/><text x="363.5" y="1114.286" fill="#000" font-family="FG Virgil" font-size="13" lengthAdjust="spacingAndGlyphs" textLength="165">send(DiscoveryResponse)</text><polygon fill="#383838" points="1271.5 1144.484 1281.5 1148.484 1271.5 1152.484 1275.5 1148.484" style="stroke:#383838;stroke-width:1"/><line style="stroke:#383838;stroke-width:1" x1="1135.5" x2="1277.5" y1="1148.484" y2="1148.484"/><text x="1142.5" y="1143.418" fill="#000" font-family="FG Virgil" font-size="13" lengthAdjust="spacingAndGlyphs" textLength="124">DiscoveryResponse</text></g></svg>