<svg xmlns="http://www.w3.org/2000/svg" xmlns:xlink="http://www.w3.org/1999/xlink" width="562" height="347" contentScriptType="application/ecmascript" contentStyleType="text/css" style="width:562px;height:347px" preserveAspectRatio="none" version="1.1" viewBox="0 0 562 347" zoomAndPan="magnify"><g><line style="stroke:#383838;stroke-width:1;stroke-dasharray:5,5" x1="51" x2="51" y1="34.297" y2="307.359"/><line style="stroke:#383838;stroke-width:1;stroke-dasharray:5,5" x1="167" x2="167" y1="34.297" y2="307.359"/><line style="stroke:#383838;stroke-width:1;stroke-dasharray:5,5" x1="305" x2="305" y1="34.297" y2="307.359"/><line style="stroke:#383838;stroke-width:1;stroke-dasharray:5,5" x1="482" x2="482" y1="34.297" y2="307.359"/><rect style="stroke:#383838;stroke-width:1.5" width="87" height="30.297" x="8" y="3" fill="#F8F8F8"/><text x="15" y="22.995" fill="#000" font-family="FG Virgil" font-size="14" lengthAdjust="spacingAndGlyphs" textLength="73">PilotServer</text><rect style="stroke:#383838;stroke-width:1.5" width="87" height="30.297" x="8" y="306.359" fill="#F8F8F8"/><text x="15" y="326.354" fill="#000" font-family="FG Virgil" font-size="14" lengthAdjust="spacingAndGlyphs" textLength="73">PilotServer</text><rect style="stroke:#383838;stroke-width:1.5" width="125" height="30.297" x="105" y="3" fill="#F8F8F8"/><text x="112" y="22.995" fill="#000" font-family="FG Virgil" font-size="14" lengthAdjust="spacingAndGlyphs" textLength="111">ConfigController</text><rect style="stroke:#383838;stroke-width:1.5" width="125" height="30.297" x="105" y="306.359" fill="#F8F8F8"/><text x="112" y="326.354" fill="#000" font-family="FG Virgil" font-size="14" lengthAdjust="spacingAndGlyphs" textLength="111">ConfigController</text><rect style="stroke:#383838;stroke-width:1.5" width="131" height="30.297" x="240" y="3" fill="#F8F8F8"/><text x="247" y="22.995" fill="#000" font-family="FG Virgil" font-size="14" lengthAdjust="spacingAndGlyphs" textLength="117">ServiceController</text><rect style="stroke:#383838;stroke-width:1.5" width="131" height="30.297" x="240" y="306.359" fill="#F8F8F8"/><text x="247" y="326.354" fill="#000" font-family="FG Virgil" font-size="14" lengthAdjust="spacingAndGlyphs" textLength="117">ServiceController</text><rect style="stroke:#383838;stroke-width:1.5" width="125" height="30.297" x="420" y="3" fill="#F8F8F8"/><text x="427" y="22.995" fill="#000" font-family="FG Virgil" font-size="14" lengthAdjust="spacingAndGlyphs" textLength="111">DiscoveryServer</text><rect style="stroke:#383838;stroke-width:1.5" width="125" height="30.297" x="420" y="306.359" fill="#F8F8F8"/><text x="427" y="326.354" fill="#000" font-family="FG Virgil" font-size="14" lengthAdjust="spacingAndGlyphs" textLength="111">DiscoveryServer</text><rect style="stroke:#eee;stroke-width:1" width="547" height="3" x="3" y="64.863" fill="#EEE"/><line style="stroke:#000;stroke-width:1" x1="3" x2="550" y1="64.863" y2="64.863"/><line style="stroke:#000;stroke-width:1" x1="3" x2="550" y1="67.863" y2="67.863"/><rect style="stroke:#000;stroke-width:2" width="108" height="23.133" x="222.5" y="54.297" fill="#EEE"/><text x="228.5" y="70.364" fill="#000" font-family="FG Virgil" font-size="13" font-weight="bold" lengthAdjust="spacingAndGlyphs" textLength="89">Initialization</text><path fill="#ECECEC" d="M56,92.4297 L56,117.4297 L261,117.4297 L261,102.4297 L251,92.4297 L56,92.4297" style="stroke:#383838;stroke-width:1"/><path fill="#ECECEC" d="M251,92.4297 L251,102.4297 L261,102.4297 L251,92.4297" style="stroke:#383838;stroke-width:1"/><text x="62" y="109.497" fill="#000" font-family="FG Virgil" font-size="13" lengthAdjust="spacingAndGlyphs" textLength="184">pilot/pkg/bootstrap/server.go</text><polygon fill="#383838" points="155.5 139.695 165.5 143.695 155.5 147.695 159.5 143.695" style="stroke:#383838;stroke-width:1"/><line style="stroke:#383838;stroke-width:1" x1="51.5" x2="161.5" y1="143.695" y2="143.695"/><text x="58.5" y="138.629" fill="#000" font-family="FG Virgil" font-size="13" lengthAdjust="spacingAndGlyphs" textLength="43">Create</text><polygon fill="#383838" points="293.5 168.828 303.5 172.828 293.5 176.828 297.5 172.828" style="stroke:#383838;stroke-width:1"/><line style="stroke:#383838;stroke-width:1" x1="51.5" x2="299.5" y1="172.828" y2="172.828"/><text x="58.5" y="167.762" fill="#000" font-family="FG Virgil" font-size="13" lengthAdjust="spacingAndGlyphs" textLength="43">Create</text><polygon fill="#383838" points="470.5 197.961 480.5 201.961 470.5 205.961 474.5 201.961" style="stroke:#383838;stroke-width:1"/><line style="stroke:#383838;stroke-width:1" x1="51.5" x2="476.5" y1="201.961" y2="201.961"/><text x="58.5" y="196.895" fill="#000" font-family="FG Virgil" font-size="13" lengthAdjust="spacingAndGlyphs" textLength="43">Create</text><polygon fill="#383838" points="178.5 227.094 168.5 231.094 178.5 235.094 174.5 231.094" style="stroke:#383838;stroke-width:1"/><line style="stroke:#383838;stroke-width:1" x1="172.5" x2="481.5" y1="231.094" y2="231.094"/><text x="184.5" y="226.028" fill="#000" font-family="FG Virgil" font-size="13" lengthAdjust="spacingAndGlyphs" textLength="138">RegisterEventHandler</text><polygon fill="#383838" points="316.5 256.227 306.5 260.227 316.5 264.227 312.5 260.227" style="stroke:#383838;stroke-width:1"/><line style="stroke:#383838;stroke-width:1" x1="310.5" x2="481.5" y1="260.227" y2="260.227"/><text x="322.5" y="255.161" fill="#000" font-family="FG Virgil" font-size="13" lengthAdjust="spacingAndGlyphs" textLength="146">AppendServiceHandler</text><polygon fill="#383838" points="316.5 285.359 306.5 289.359 316.5 293.359 312.5 289.359" style="stroke:#383838;stroke-width:1"/><line style="stroke:#383838;stroke-width:1" x1="310.5" x2="481.5" y1="289.359" y2="289.359"/><text x="322.5" y="284.293" fill="#000" font-family="FG Virgil" font-size="13" lengthAdjust="spacingAndGlyphs" textLength="153">AppendInstanceHandler</text></g></svg>