<?xml version="1.0" encoding="UTF-8" standalone="no"?>
<svg xmlns:inkscape="http://www.inkscape.org/namespaces/inkscape" xmlns:sodipodi="http://sodipodi.sourceforge.net/DTD/sodipodi-0.dtd" xmlns="http://www.w3.org/2000/svg" xmlns:svg="http://www.w3.org/2000/svg" width="1000" height="298" viewBox="0 0 1000 298" fill="none" version="1.1" id="svg19" sodipodi:docname="Gcore_logo.svg" inkscape:version="1.1.1 (3bf5ae0d25, 2021-09-20)">
  <g clip-path="url(#clip0_4_46)" id="g12">
    <path fill-rule="evenodd" clip-rule="evenodd" d="m 255.631,148.787 c 0,82.168 -66.62,148.786 -148.791,148.786 -33.1936,0 -63.8559,-10.874 -88.6028,-29.24 4.2365,2.376 8.602,4.52 13.0968,6.457 17.0231,7.336 35.3637,11.134 53.9109,11.134 34.5371,0 67.7821,-13.071 93.0981,-36.525 25.315,-23.455 40.866,-55.615 43.5,-90.047 0.362,-3.255 0.569,-6.51 0.62,-9.765 0,-4.158 -0.335,-8.963 -0.775,-13.354 -0.025,-0.413 -0.051,-0.853 -0.077,-1.266 0,-0.491 -0.026,-0.981 -0.078,-1.446 l -0.129,0.129 c -0.62,-5.709 -1.266,-10.1 -1.266,-10.1 H 112.187 l -8.395,15.705 -19.2704,36.422 h 81.5764 c -3.022,9.015 -7.542,17.487 -13.355,25.03 -7.93,10.384 -18.134,18.779 -29.861,24.565 -11.702,5.787 -24.5921,8.809 -37.6629,8.783 -9.9969,0 -19.9163,-1.808 -29.2933,-5.27 C 39.5226,222.793 25.3668,211.918 15.3699,197.607 5.37301,183.271 0,166.248 0,148.787 0,137.602 2.1957,126.495 6.48378,116.162 10.7719,105.83 17.049,96.4272 24.9535,88.4971 32.858,80.5928 42.2608,74.29 52.6193,70.0279 62.9779,65.7658 74.0597,63.5443 85.2449,63.5443 103.301,63.5185 120.919,69.253 135.488,79.9212 L 146.673,58.9722 160.002,33.787 C 137.761,19.2958 111.774,11.5981 85.2191,11.624 61.738,11.624 38.8768,17.6684 18.6505,28.8791 43.3716,10.7457 73.8531,0 106.84,0 189.011,0 255.631,66.6182 255.631,148.787 Z" fill="#ff4c00" id="path2"></path>
    <path d="m 459.78,181.644 c -5.321,6.38 -11.986,11.469 -19.555,14.904 -6.768,2.971 -14.052,4.469 -21.44,4.417 -9.429,0.155 -18.754,-2.118 -27.02,-6.638 -0.31,-0.155 -0.543,-0.388 -0.853,-0.543 -7.413,-4.262 -13.535,-10.487 -17.669,-17.978 -4.52,-8.292 -6.793,-17.591 -6.638,-27.019 -0.155,-9.429 2.118,-18.754 6.638,-27.02 4.159,-7.491 10.256,-13.69 17.669,-17.978 0.31,-0.181 0.543,-0.387 0.853,-0.542 8.292,-4.5208 17.591,-6.794 27.02,-6.639 7.388,-0.0516 14.698,1.4207 21.466,4.365 l 15.344,-28.8786 c 0,0 -0.232,-0.1292 -0.361,-0.1808 -12.116,-5.1146 -25.161,-7.646 -38.309,-7.4394 -14.517,-0.155 -28.88,3.0223 -41.977,9.2992 -1.085,0.5425 -2.247,0.9299 -3.332,1.524 -13.122,6.9227 -24.075,17.3068 -31.67,30.0676 -7.775,13.148 -11.779,28.181 -11.521,43.448 -0.232,15.266 3.746,30.299 11.521,43.447 7.595,12.735 18.573,23.119 31.67,30.042 1.085,0.568 2.247,0.981 3.332,1.524 13.02,6.251 27.305,9.454 41.745,9.299 13.2,0.181 26.27,-2.351 38.437,-7.465 0.155,-0.078 0.31,-0.155 0.465,-0.233 11.056,-4.778 20.795,-12.114 28.415,-21.439 l -24.23,-22.37 z" fill="#ff4c00" id="path4"></path>
    <path d="m 539.084,222.173 c -13.201,-6.923 -24.257,-17.359 -31.929,-30.171 -7.749,-13.07 -11.753,-28.027 -11.521,-43.215 -0.206,-15.189 3.772,-30.145 11.521,-43.216 7.672,-12.786 18.703,-23.2217 31.929,-30.1702 14.104,-7.4135 29.835,-11.1849 45.773,-10.9524 15.887,-0.2583 31.619,3.513 45.671,10.9524 13.174,6.9743 24.204,17.4101 31.902,30.1702 7.827,13.045 11.857,28.001 11.65,43.216 0.207,15.214 -3.823,30.17 -11.65,43.215 -7.698,12.761 -18.728,23.196 -31.902,30.171 -14.052,7.439 -29.758,11.21 -45.671,10.952 -15.938,0.232 -31.669,-3.513 -45.773,-10.952 z m 71.864,-27.846 c 7.697,-4.366 14.026,-10.772 18.288,-18.521 4.521,-8.292 6.794,-17.591 6.639,-27.019 0.155,-9.429 -2.118,-18.754 -6.639,-27.02 -4.262,-7.749 -10.591,-14.155 -18.288,-18.52 -7.957,-4.4692 -16.972,-6.7681 -26.091,-6.639 -9.118,-0.1291 -18.133,2.1698 -26.09,6.639 -7.698,4.365 -14.026,10.771 -18.289,18.52 -4.52,8.292 -6.793,17.591 -6.638,27.02 -0.181,9.428 2.118,18.753 6.638,27.019 4.263,7.749 10.591,14.155 18.289,18.521 7.957,4.469 16.972,6.768 26.09,6.638 9.145,0.13 18.134,-2.169 26.091,-6.638 z" fill="#ff4c00" id="path6"></path>
    <path d="m 806.417,230.309 -31.438,-45.411 h -34.717 v 45.411 H 702.521 V 67.2381 h 70.573 c 12.916,-0.3099 25.754,2.1699 37.637,7.2327 10.022,4.288 18.547,11.4173 24.566,20.5099 5.915,9.4023 8.912,20.3553 8.627,31.4363 0.285,11.082 -2.738,22.008 -8.731,31.333 -6.122,9.015 -14.75,16.015 -24.798,20.148 l 36.578,52.411 h -40.53 z m -9.558,-124.97 c -7.491,-5.3729 -16.636,-7.9819 -25.858,-7.3361 h -30.739 v 56.8281 h 30.739 c 9.222,0.646 18.393,-1.989 25.858,-7.465 2.971,-2.583 5.321,-5.812 6.845,-9.454 1.524,-3.642 2.222,-7.569 1.989,-11.495 0.233,-3.952 -0.439,-7.93 -1.963,-11.572 -1.55,-3.668 -3.9,-6.897 -6.897,-9.506 z" fill="#ff4c00" id="path8"></path>
    <path d="m 1000,200.035 v 30.274 H 873.734 V 67.2382 h 123.244 v 30.2997 h -85.736 v 35.4141 h 75.713 v 29.344 h -75.713 v 37.739 z" fill="#ff4c00" id="path10"></path>
  </g>
  <defs id="defs17">
    <clipPath id="clip0_4_46">
      <rect width="1000" height="297.573" fill="white" id="rect14"></rect>
    </clipPath>
  </defs>
</svg>
