<svg xmlns="http://www.w3.org/2000/svg" xmlns:xlink="http://www.w3.org/1999/xlink" fill="none" stroke="none" stroke-linecap="square" stroke-miterlimit="10" version="1.1" viewBox="0 0 805.654 492.06"><clipPath id="p.0"><path d="m0 0l805.65356 0l0 492.06036l-805.65356 0l0 -492.06036z" clip-rule="nonzero"/></clipPath><g clip-path="url(#p.0)"><path fill="#000" fill-opacity="0" fill-rule="evenodd" d="m0 0l805.65356 0l0 492.06036l-805.65356 0z"/><path fill="#cfe2f3" fill-rule="evenodd" d="m68.10499 267.4147l131.74802 0l0 42.4252l-131.74802 0z"/><path fill-rule="evenodd" stroke="#000" stroke-linecap="butt" stroke-linejoin="round" stroke-width="1" d="m68.10499 267.4147l131.74802 0l0 42.4252l-131.74802 0z"/><path fill="#000" fill-rule="nonzero" d="m89.26324 295.5473l0 -13.359375l4.609375 0q1.546875 0 2.375 0.203125q1.140625 0.25 1.953125 0.953125q1.0625 0.890625 1.578125 2.28125q0.53125 1.390625 0.53125 3.171875q0 1.515625 -0.359375 2.703125q-0.359375 1.171875 -0.921875 1.9375q-0.546875 0.765625 -1.203125 1.21875q-0.65625 0.4375 -1.59375 0.671875q-0.9375 0.21875 -2.140625 0.21875l-4.828125 0zm1.765625 -1.578125l2.859375 0q1.3125 0 2.0625 -0.234375q0.75 -0.25 1.203125 -0.703125q0.625 -0.625 0.96875 -1.6875q0.359375 -1.0625 0.359375 -2.578125q0 -2.09375 -0.6875 -3.21875q-0.6875 -1.125 -1.671875 -1.5q-0.703125 -0.28125 -2.28125 -0.28125l-2.8125 0l0 10.203125zm17.816696 0.390625q-0.921875 0.765625 -1.765625 1.09375q-0.828125 0.3125 -1.796875 0.3125q-1.59375 0 -2.453125 -0.78125q-0.859375 -0.78125 -0.859375 -1.984375q0 -0.71875 0.328125 -1.296875q0.328125 -0.59375 0.84375 -0.9375q0.53125 -0.359375 1.1875 -0.546875q0.46875 -0.125 1.453125 -0.25q1.984375 -0.234375 2.921875 -0.5625q0.015625 -0.34375 0.015625 -0.421875q0 -1.0 -0.46875 -1.421875q-0.625 -0.546875 -1.875 -0.546875q-1.15625 0 -1.703125 0.40625q-0.546875 0.40625 -0.8125 1.421875l-1.609375 -0.21875q0.21875 -1.015625 0.71875 -1.640625q0.5 -0.640625 1.453125 -0.984375q0.953125 -0.34375 2.1875 -0.34375q1.25 0 2.015625 0.296875q0.78125 0.28125 1.140625 0.734375q0.375 0.4375 0.515625 1.109375q0.078125 0.421875 0.078125 1.515625l0 2.1875q0 2.28125 0.109375 2.890625q0.109375 0.59375 0.40625 1.15625l-1.703125 0q-0.265625 -0.515625 -0.328125 -1.1875zm-0.140625 -3.671875q-0.890625 0.375 -2.671875 0.625q-1.015625 0.140625 -1.4375 0.328125q-0.421875 0.1875 -0.65625 0.53125q-0.21875 0.34375 -0.21875 0.78125q0 0.65625 0.5 1.09375q0.5 0.4375 1.453125 0.4375q0.9375 0 1.671875 -0.40625q0.75 -0.421875 1.09375 -1.140625q0.265625 -0.5625 0.265625 -1.640625l0 -0.609375zm7.781967 3.390625l0.234375 1.453125q-0.6875 0.140625 -1.234375 0.140625q-0.890625 0 -1.390625 -0.28125q-0.484375 -0.28125 -0.6875 -0.734375q-0.203125 -0.46875 -0.203125 -1.9375l0 -5.578125l-1.203125 0l0 -1.265625l1.203125 0l0 -2.390625l1.625 -0.984375l0 3.375l1.65625 0l0 1.265625l-1.65625 0l0 5.671875q0 0.6875 0.078125 0.890625q0.09375 0.203125 0.28125 0.328125q0.203125 0.109375 0.578125 0.109375q0.265625 0 0.71875 -0.0625zm7.917679 0.28125q-0.921875 0.765625 -1.765625 1.09375q-0.828125 0.3125 -1.796875 0.3125q-1.59375 0 -2.453125 -0.78125q-0.859375 -0.78125 -0.859375 -1.984375q0 -0.71875 0.328125 -1.296875q0.328125 -0.59375 0.84375 -0.9375q0.53125 -0.359375 1.1875 -0.546875q0.46875 -0.125 1.453125 -0.25q1.984375 -0.234375 2.921875 -0.5625q0.015625 -0.34375 0.015625 -0.421875q0 -1.0 -0.46875 -1.421875q-0.625 -0.546875 -1.875 -0.546875q-1.15625 0 -1.703125 0.40625q-0.546875 0.40625 -0.8125 1.421875l-1.609375 -0.21875q0.21875 -1.015625 0.71875 -1.640625q0.5 -0.640625 1.453125 -0.984375q0.953125 -0.34375 2.1875 -0.34375q1.25 0 2.015625 0.296875q0.78125 0.28125 1.140625 0.734375q0.375 0.4375 0.515625 1.109375q0.078125 0.421875 0.078125 1.515625l0 2.1875q0 2.28125 0.109375 2.890625q0.109375 0.59375 0.40625 1.15625l-1.703125 0q-0.265625 -0.515625 -0.328125 -1.1875zm-0.140625 -3.671875q-0.890625 0.375 -2.671875 0.625q-1.015625 0.140625 -1.4375 0.328125q-0.421875 0.1875 -0.65625 0.53125q-0.21875 0.34375 -0.21875 0.78125q0 0.65625 0.5 1.09375q0.5 0.4375 1.453125 0.4375q0.9375 0 1.671875 -0.40625q0.75 -0.421875 1.09375 -1.140625q0.265625 -0.5625 0.265625 -1.640625l0 -0.609375zm9.590263 4.859375l0 -13.359375l5.046875 0q1.328125 0 2.03125 0.125q0.96875 0.171875 1.640625 0.640625q0.671875 0.453125 1.078125 1.28125q0.40625 0.828125 0.40625 1.828125q0 1.703125 -1.09375 2.890625q-1.078125 1.171875 -3.921875 1.171875l-3.421875 0l0 5.421875l-1.765625 0zm1.765625 -7.0l3.453125 0q1.71875 0 2.4375 -0.640625q0.71875 -0.640625 0.71875 -1.796875q0 -0.84375 -0.421875 -1.4375q-0.421875 -0.59375 -1.125 -0.78125q-0.4375 -0.125 -1.640625 -0.125l-3.421875 0l0 4.78125zm10.427948 7.0l0 -13.359375l1.640625 0l0 13.359375l-1.640625 0zm10.504196 -1.1875q-0.921875 0.765625 -1.765625 1.09375q-0.828125 0.3125 -1.796875 0.3125q-1.59375 0 -2.453125 -0.78125q-0.859375 -0.78125 -0.859375 -1.984375q0 -0.71875 0.328125 -1.296875q0.328125 -0.59375 0.84375 -0.9375q0.53125 -0.359375 1.1875 -0.546875q0.46875 -0.125 1.453125 -0.25q1.984375 -0.234375 2.921875 -0.5625q0.015625 -0.34375 0.015625 -0.421875q0 -1.0 -0.46875 -1.421875q-0.625 -0.546875 -1.875 -0.546875q-1.15625 0 -1.703125 0.40625q-0.546875 0.40625 -0.8125 1.421875l-1.609375 -0.21875q0.21875 -1.015625 0.71875 -1.640625q0.5 -0.640625 1.453125 -0.984375q0.953125 -0.34375 2.1875 -0.34375q1.25 0 2.015625 0.296875q0.78125 0.28125 1.140625 0.734375q0.375 0.4375 0.515625 1.109375q0.078125 0.421875 0.078125 1.515625l0 2.1875q0 2.28125 0.109375 2.890625q0.109375 0.59375 0.40625 1.15625l-1.703125 0q-0.265625 -0.515625 -0.328125 -1.1875zm-0.140625 -3.671875q-0.890625 0.375 -2.671875 0.625q-1.015625 0.140625 -1.4375 0.328125q-0.421875 0.1875 -0.65625 0.53125q-0.21875 0.34375 -0.21875 0.78125q0 0.65625 0.5 1.09375q0.5 0.4375 1.453125 0.4375q0.9375 0 1.671875 -0.40625q0.75 -0.421875 1.09375 -1.140625q0.265625 -0.5625 0.265625 -1.640625l0 -0.609375zm4.203842 4.859375l0 -9.671875l1.46875 0l0 1.375q1.0625 -1.59375 3.078125 -1.59375q0.875 0 1.609375 0.3125q0.734375 0.3125 1.09375 0.828125q0.375 0.5 0.515625 1.203125q0.09375 0.453125 0.09375 1.59375l0 5.953125l-1.640625 0l0 -5.890625q0 -1.0 -0.203125 -1.484375q-0.1875 -0.5 -0.671875 -0.796875q-0.484375 -0.296875 -1.140625 -0.296875q-1.046875 0 -1.8125 0.671875q-0.75 0.65625 -0.75 2.515625l0 5.28125l-1.640625 0zm17.000717 -3.109375l1.6875 0.203125q-0.40625 1.484375 -1.484375 2.3125q-1.078125 0.8125 -2.765625 0.8125q-2.125 0 -3.375 -1.296875q-1.234375 -1.3125 -1.234375 -3.671875q0 -2.453125 1.25 -3.796875q1.265625 -1.34375 3.265625 -1.34375q1.9375 0 3.15625 1.328125q1.234375 1.3125 1.234375 3.703125q0 0.15625 0 0.4375l-7.21875 0q0.09375 1.59375 0.90625 2.453125q0.8125 0.84375 2.015625 0.84375q0.90625 0 1.546875 -0.46875q0.640625 -0.484375 1.015625 -1.515625zm-5.390625 -2.65625l5.40625 0q-0.109375 -1.21875 -0.625 -1.828125q-0.78125 -0.953125 -2.03125 -0.953125q-1.125 0 -1.90625 0.765625q-0.765625 0.75 -0.84375 2.015625z"/><path fill="#cfe2f3" fill-rule="evenodd" d="m68.10499 223.46982l131.74802 0l0 42.4252l-131.74802 0z"/><path fill-rule="evenodd" stroke="#000" stroke-linecap="butt" stroke-linejoin="round" stroke-width="1" d="m68.10499 223.46982l131.74802 0l0 42.4252l-131.74802 0z"/><path fill="#000" fill-rule="nonzero" d="m88.42788 246.91492l1.765625 0.453125q-0.5625 2.171875 -2.0 3.328125q-1.4375 1.140625 -3.53125 1.140625q-2.15625 0 -3.515625 -0.875q-1.34375 -0.890625 -2.0625 -2.546875q-0.703125 -1.671875 -0.703125 -3.59375q0 -2.078125 0.796875 -3.625q0.796875 -1.5625 2.265625 -2.359375q1.484375 -0.8125 3.25 -0.8125q2.0 0 3.359375 1.015625q1.375 1.015625 1.90625 2.875l-1.734375 0.40625q-0.46875 -1.453125 -1.359375 -2.109375q-0.875 -0.671875 -2.203125 -0.671875q-1.546875 0 -2.578125 0.734375q-1.03125 0.734375 -1.453125 1.984375q-0.421875 1.234375 -0.421875 2.5625q0 1.703125 0.5 2.96875q0.5 1.265625 1.546875 1.90625q1.046875 0.625 2.265625 0.625q1.484375 0 2.515625 -0.859375q1.03125 -0.859375 1.390625 -2.546875zm3.1291962 -0.15625q0 -2.6875 1.484375 -3.96875q1.25 -1.078125 3.046875 -1.078125q2.0 0 3.265625 1.3125q1.265625 1.296875 1.265625 3.609375q0 1.859375 -0.5625 2.9375q-0.5625 1.0625 -1.640625 1.65625q-1.0625 0.59375 -2.328125 0.59375q-2.03125 0 -3.28125 -1.296875q-1.25 -1.3125 -1.25 -3.765625zm1.6875 0q0 1.859375 0.796875 2.796875q0.8125 0.921875 2.046875 0.921875q1.21875 0 2.03125 -0.921875q0.8125 -0.9375 0.8125 -2.84375q0 -1.796875 -0.8125 -2.71875q-0.8125 -0.921875 -2.03125 -0.921875q-1.234375 0 -2.046875 0.921875q-0.796875 0.90625 -0.796875 2.765625zm9.297592 4.84375l0 -9.671875l1.46875 0l0 1.375q1.0625 -1.59375 3.078125 -1.59375q0.875 0 1.609375 0.3125q0.734375 0.3125 1.09375 0.828125q0.375 0.5 0.515625 1.203125q0.09375 0.453125 0.09375 1.59375l0 5.953125l-1.640625 0l0 -5.890625q0 -1.0 -0.203125 -1.484375q-0.1875 -0.5 -0.671875 -0.796875q-0.484375 -0.296875 -1.140625 -0.296875q-1.046875 0 -1.8125 0.671875q-0.75 0.65625 -0.75 2.515625l0 5.28125l-1.640625 0zm13.953842 -1.46875l0.234375 1.453125q-0.6875 0.140625 -1.234375 0.140625q-0.890625 0 -1.390625 -0.28125q-0.484375 -0.28125 -0.6875 -0.734375q-0.203125 -0.46875 -0.203125 -1.9375l0 -5.578125l-1.203125 0l0 -1.265625l1.203125 0l0 -2.390625l1.625 -0.984375l0 3.375l1.65625 0l0 1.265625l-1.65625 0l0 5.671875q0 0.6875 0.078125 0.890625q0.09375 0.203125 0.28125 0.328125q0.203125 0.109375 0.578125 0.109375q0.265625 0 0.71875 -0.0625zm1.5895538 1.46875l0 -9.671875l1.46875 0l0 1.46875q0.5625 -1.03125 1.03125 -1.359375q0.484375 -0.328125 1.0625 -0.328125q0.828125 0 1.6875 0.53125l-0.5625 1.515625q-0.609375 -0.359375 -1.203125 -0.359375q-0.546875 0 -0.96875 0.328125q-0.421875 0.328125 -0.609375 0.890625q-0.28125 0.875 -0.28125 1.921875l0 5.0625l-1.625 0zm5.618927 -4.84375q0 -2.6875 1.484375 -3.96875q1.25 -1.078125 3.0468674 -1.078125q2.0 0 3.265625 1.3125q1.265625 1.296875 1.265625 3.609375q0 1.859375 -0.5625 2.9375q-0.5625 1.0625 -1.640625 1.65625q-1.0625 0.59375 -2.328125 0.59375q-2.0312424 0 -3.2812424 -1.296875q-1.25 -1.3125 -1.25 -3.765625zm1.6875 0q0 1.859375 0.796875 2.796875q0.8125 0.921875 2.0468674 0.921875q1.21875 0 2.03125 -0.921875q0.8125 -0.9375 0.8125 -2.84375q0 -1.796875 -0.8125 -2.71875q-0.8125 -0.921875 -2.03125 -0.921875q-1.2343674 0 -2.0468674 0.921875q-0.796875 0.90625 -0.796875 2.765625zm9.25071 4.84375l0 -13.359375l1.640625 0l0 13.359375l-1.640625 0zm9.578125 0l0 -13.359375l5.046875 0q1.328125 0 2.03125 0.125q0.96875 0.171875 1.640625 0.640625q0.671875 0.453125 1.078125 1.28125q0.40625 0.828125 0.40625 1.828125q0 1.703125 -1.09375 2.890625q-1.078125 1.171875 -3.921875 1.171875l-3.421875 0l0 5.421875l-1.765625 0zm1.765625 -7.0l3.453125 0q1.71875 0 2.4375 -0.640625q0.71875 -0.640625 0.71875 -1.796875q0 -0.84375 -0.421875 -1.4375q-0.421875 -0.59375 -1.125 -0.78125q-0.4375 -0.125 -1.640625 -0.125l-3.421875 0l0 4.78125zm10.427948 7.0l0 -13.359375l1.640625 0l0 13.359375l-1.640625 0zm10.504196 -1.1875q-0.921875 0.765625 -1.765625 1.09375q-0.828125 0.3125 -1.796875 0.3125q-1.59375 0 -2.453125 -0.78125q-0.859375 -0.78125 -0.859375 -1.984375q0 -0.71875 0.328125 -1.296875q0.328125 -0.59375 0.84375 -0.9375q0.53125 -0.359375 1.1875 -0.546875q0.46875 -0.125 1.453125 -0.25q1.984375 -0.234375 2.921875 -0.5625q0.015625 -0.34375 0.015625 -0.421875q0 -1.0 -0.46875 -1.421875q-0.625 -0.546875 -1.875 -0.546875q-1.15625 0 -1.703125 0.40625q-0.546875 0.40625 -0.8125 1.421875l-1.609375 -0.21875q0.21875 -1.015625 0.71875 -1.640625q0.5 -0.640625 1.453125 -0.984375q0.953125 -0.34375 2.1875 -0.34375q1.25 0 2.015625 0.296875q0.78125 0.28125 1.140625 0.734375q0.375 0.4375 0.515625 1.109375q0.078125 0.421875 0.078125 1.515625l0 2.1875q0 2.28125 0.109375 2.890625q0.109375 0.59375 0.40625 1.15625l-1.703125 0q-0.265625 -0.515625 -0.328125 -1.1875zm-0.140625 -3.671875q-0.890625 0.375 -2.671875 0.625q-1.015625 0.140625 -1.4375 0.328125q-0.421875 0.1875 -0.65625 0.53125q-0.21875 0.34375 -0.21875 0.78125q0 0.65625 0.5 1.09375q0.5 0.4375 1.453125 0.4375q0.9375 0 1.671875 -0.40625q0.75 -0.421875 1.09375 -1.140625q0.265625 -0.5625 0.265625 -1.640625l0 -0.609375zm4.203842 4.859375l0 -9.671875l1.46875 0l0 1.375q1.0625 -1.59375 3.078125 -1.59375q0.875 0 1.609375 0.3125q0.734375 0.3125 1.09375 0.828125q0.375 0.5 0.515625 1.203125q0.09375 0.453125 0.09375 1.59375l0 5.953125l-1.640625 0l0 -5.890625q0 -1.0 -0.203125 -1.484375q-0.1875 -0.5 -0.671875 -0.796875q-0.484375 -0.296875 -1.140625 -0.296875q-1.046875 0 -1.8125 0.671875q-0.75 0.65625 -0.75 2.515625l0 5.28125l-1.640625 0zm17.000717 -3.109375l1.6875 0.203125q-0.40625 1.484375 -1.484375 2.3125q-1.078125 0.8125 -2.765625 0.8125q-2.125 0 -3.375 -1.296875q-1.234375 -1.3125 -1.234375 -3.671875q0 -2.453125 1.25 -3.796875q1.265625 -1.34375 3.265625 -1.34375q1.9375 0 3.15625 1.328125q1.234375 1.3125 1.234375 3.703125q0 0.15625 0 0.4375l-7.21875 0q0.09375 1.59375 0.90625 2.453125q0.8125 0.84375 2.015625 0.84375q0.90625 0 1.546875 -0.46875q0.640625 -0.484375 1.015625 -1.515625zm-5.390625 -2.65625l5.40625 0q-0.109375 -1.21875 -0.625 -1.828125q-0.78125 -0.953125 -2.03125 -0.953125q-1.125 0 -1.90625 0.765625q-0.765625 0.75 -0.84375 2.015625z"/><path fill="#cfe2f3" fill-rule="evenodd" d="m359.32285 138.44095l131.74802 0l0 42.425186l-131.74802 0z"/><path fill-rule="evenodd" stroke="#000" stroke-linecap="butt" stroke-linejoin="round" stroke-width="1" d="m359.32285 138.44095l131.74802 0l0 42.425186l-131.74802 0z"/><path fill="#000" fill-rule="nonzero" d="m380.48108 166.57355l0 -13.359375l4.609375 0q1.546875 0 2.375 0.203125q1.140625 0.25 1.953125 0.953125q1.0625 0.890625 1.578125 2.28125q0.53125 1.390625 0.53125 3.171875q0 1.515625 -0.359375 2.703125q-0.359375 1.171875 -0.921875 1.9375q-0.546875 0.765625 -1.203125 1.21875q-0.65625 0.4375 -1.59375 0.671875q-0.9375 0.21875 -2.140625 0.21875l-4.828125 0zm1.765625 -1.578125l2.859375 0q1.3125 0 2.0625 -0.234375q0.75 -0.25 1.203125 -0.703125q0.625 -0.625 0.96875 -1.6875q0.359375 -1.0625 0.359375 -2.578125q0 -2.09375 -0.6875 -3.21875q-0.6875 -1.125 -1.671875 -1.5q-0.703125 -0.28125 -2.28125 -0.28125l-2.8125 0l0 10.203125zm17.816711 0.390625q-0.921875 0.765625 -1.765625 1.09375q-0.828125 0.3125 -1.796875 0.3125q-1.59375 0 -2.453125 -0.78125q-0.859375 -0.78125 -0.859375 -1.984375q0 -0.71875 0.328125 -1.296875q0.328125 -0.59375 0.84375 -0.9375q0.53125 -0.359375 1.1875 -0.546875q0.46875 -0.125 1.453125 -0.25q1.984375 -0.234375 2.921875 -0.5625q0.015625 -0.34375 0.015625 -0.421875q0 -1.0 -0.46875 -1.421875q-0.625 -0.546875 -1.875 -0.546875q-1.15625 0 -1.703125 0.40625q-0.546875 0.40625 -0.8125 1.421875l-1.609375 -0.21875q0.21875 -1.015625 0.71875 -1.640625q0.5 -0.640625 1.453125 -0.984375q0.953125 -0.34375 2.1875 -0.34375q1.25 0 2.015625 0.296875q0.78125 0.28125 1.140625 0.734375q0.375 0.4375 0.515625 1.109375q0.078125 0.421875 0.078125 1.515625l0 2.1875q0 2.28125 0.109375 2.890625q0.109375 0.59375 0.40625 1.15625l-1.703125 0q-0.265625 -0.515625 -0.328125 -1.1875zm-0.140625 -3.671875q-0.890625 0.375 -2.671875 0.625q-1.015625 0.140625 -1.4375 0.328125q-0.421875 0.1875 -0.65625 0.53125q-0.21875 0.34375 -0.21875 0.78125q0 0.65625 0.5 1.09375q0.5 0.4375 1.453125 0.4375q0.9375 0 1.671875 -0.40625q0.75 -0.421875 1.09375 -1.140625q0.265625 -0.5625 0.265625 -1.640625l0 -0.609375zm7.781952 3.390625l0.234375 1.453125q-0.6875 0.140625 -1.234375 0.140625q-0.890625 0 -1.390625 -0.28125q-0.484375 -0.28125 -0.6875 -0.734375q-0.203125 -0.46875 -0.203125 -1.9375l0 -5.578125l-1.203125 0l0 -1.265625l1.203125 0l0 -2.390625l1.625 -0.984375l0 3.375l1.65625 0l0 1.265625l-1.65625 0l0 5.671875q0 0.6875 0.078125 0.890625q0.09375 0.203125 0.28125 0.328125q0.203125 0.109375 0.578125 0.109375q0.265625 0 0.71875 -0.0625zm7.917694 0.28125q-0.921875 0.765625 -1.765625 1.09375q-0.828125 0.3125 -1.796875 0.3125q-1.59375 0 -2.453125 -0.78125q-0.859375 -0.78125 -0.859375 -1.984375q0 -0.71875 0.328125 -1.296875q0.328125 -0.59375 0.84375 -0.9375q0.53125 -0.359375 1.1875 -0.546875q0.46875 -0.125 1.453125 -0.25q1.984375 -0.234375 2.921875 -0.5625q0.015625 -0.34375 0.015625 -0.421875q0 -1.0 -0.46875 -1.421875q-0.625 -0.546875 -1.875 -0.546875q-1.15625 0 -1.703125 0.40625q-0.546875 0.40625 -0.8125 1.421875l-1.609375 -0.21875q0.21875 -1.015625 0.71875 -1.640625q0.5 -0.640625 1.453125 -0.984375q0.953125 -0.34375 2.1875 -0.34375q1.25 0 2.015625 0.296875q0.78125 0.28125 1.140625 0.734375q0.375 0.4375 0.515625 1.109375q0.078125 0.421875 0.078125 1.515625l0 2.1875q0 2.28125 0.109375 2.890625q0.109375 0.59375 0.40625 1.15625l-1.703125 0q-0.265625 -0.515625 -0.328125 -1.1875zm-0.140625 -3.671875q-0.890625 0.375 -2.671875 0.625q-1.015625 0.140625 -1.4375 0.328125q-0.421875 0.1875 -0.65625 0.53125q-0.21875 0.34375 -0.21875 0.78125q0 0.65625 0.5 1.09375q0.5 0.4375 1.453125 0.4375q0.9375 0 1.671875 -0.40625q0.75 -0.421875 1.09375 -1.140625q0.265625 -0.5625 0.265625 -1.640625l0 -0.609375zm9.590271 4.859375l0 -13.359375l5.046875 0q1.328125 0 2.03125 0.125q0.96875 0.171875 1.640625 0.640625q0.671875 0.453125 1.078125 1.28125q0.40625 0.828125 0.40625 1.828125q0 1.703125 -1.09375 2.890625q-1.078125 1.171875 -3.921875 1.171875l-3.421875 0l0 5.421875l-1.765625 0zm1.765625 -7.0l3.453125 0q1.71875 0 2.4375 -0.640625q0.71875 -0.640625 0.71875 -1.796875q0 -0.84375 -0.421875 -1.4375q-0.421875 -0.59375 -1.125 -0.78125q-0.4375 -0.125 -1.640625 -0.125l-3.421875 0l0 4.78125zm10.427948 7.0l0 -13.359375l1.640625 0l0 13.359375l-1.640625 0zm10.504181 -1.1875q-0.921875 0.765625 -1.765625 1.09375q-0.828125 0.3125 -1.796875 0.3125q-1.59375 0 -2.453125 -0.78125q-0.859375 -0.78125 -0.859375 -1.984375q0 -0.71875 0.328125 -1.296875q0.328125 -0.59375 0.84375 -0.9375q0.53125 -0.359375 1.1875 -0.546875q0.46875 -0.125 1.453125 -0.25q1.984375 -0.234375 2.921875 -0.5625q0.015625 -0.34375 0.015625 -0.421875q0 -1.0 -0.46875 -1.421875q-0.625 -0.546875 -1.875 -0.546875q-1.15625 0 -1.703125 0.40625q-0.546875 0.40625 -0.8125 1.421875l-1.609375 -0.21875q0.21875 -1.015625 0.71875 -1.640625q0.5 -0.640625 1.453125 -0.984375q0.953125 -0.34375 2.1875 -0.34375q1.25 0 2.015625 0.296875q0.78125 0.28125 1.140625 0.734375q0.375 0.4375 0.515625 1.109375q0.078125 0.421875 0.078125 1.515625l0 2.1875q0 2.28125 0.109375 2.890625q0.109375 0.59375 0.40625 1.15625l-1.703125 0q-0.265625 -0.515625 -0.328125 -1.1875zm-0.140625 -3.671875q-0.890625 0.375 -2.671875 0.625q-1.015625 0.140625 -1.4375 0.328125q-0.421875 0.1875 -0.65625 0.53125q-0.21875 0.34375 -0.21875 0.78125q0 0.65625 0.5 1.09375q0.5 0.4375 1.453125 0.4375q0.9375 0 1.671875 -0.40625q0.75 -0.421875 1.09375 -1.140625q0.265625 -0.5625 0.265625 -1.640625l0 -0.609375zm4.2038574 4.859375l0 -9.671875l1.46875 0l0 1.375q1.0625 -1.59375 3.078125 -1.59375q0.875 0 1.609375 0.3125q0.734375 0.3125 1.09375 0.828125q0.375 0.5 0.515625 1.203125q0.09375 0.453125 0.09375 1.59375l0 5.953125l-1.640625 0l0 -5.890625q0 -1.0 -0.203125 -1.484375q-0.1875 -0.5 -0.671875 -0.796875q-0.484375 -0.296875 -1.140625 -0.296875q-1.046875 0 -1.8125 0.671875q-0.75 0.65625 -0.75 2.515625l0 5.28125l-1.640625 0zm17.000702 -3.109375l1.6875 0.203125q-0.40625 1.484375 -1.484375 2.3125q-1.078125 0.8125 -2.765625 0.8125q-2.125 0 -3.375 -1.296875q-1.234375 -1.3125 -1.234375 -3.671875q0 -2.453125 1.25 -3.796875q1.265625 -1.34375 3.265625 -1.34375q1.9375 0 3.15625 1.328125q1.234375 1.3125 1.234375 3.703125q0 0.15625 0 0.4375l-7.21875 0q0.09375 1.59375 0.90625 2.453125q0.8125 0.84375 2.015625 0.84375q0.90625 0 1.546875 -0.46875q0.640625 -0.484375 1.015625 -1.515625zm-5.390625 -2.65625l5.40625 0q-0.109375 -1.21875 -0.625 -1.828125q-0.78125 -0.953125 -2.03125 -0.953125q-1.125 0 -1.90625 0.765625q-0.765625 0.75 -0.84375 2.015625z"/><path fill="#cfe2f3" fill-rule="evenodd" d="m359.32285 94.49606l131.74802 0l0 42.4252l-131.74802 0z"/><path fill-rule="evenodd" stroke="#000" stroke-linecap="butt" stroke-linejoin="round" stroke-width="1" d="m359.32285 94.49606l131.74802 0l0 42.4252l-131.74802 0z"/><path fill="#000" fill-rule="nonzero" d="m379.64572 117.94116l1.765625 0.453125q-0.5625 2.171875 -2.0 3.328125q-1.4375 1.140625 -3.53125 1.140625q-2.15625 0 -3.515625 -0.875q-1.34375 -0.890625 -2.0625 -2.546875q-0.703125 -1.671875 -0.703125 -3.59375q0 -2.078125 0.796875 -3.625q0.796875 -1.5625 2.265625 -2.359375q1.484375 -0.8125 3.25 -0.8125q2.0 0 3.359375 1.015625q1.375 1.015625 1.90625 2.875l-1.734375 0.40625q-0.46875 -1.453125 -1.359375 -2.109375q-0.875 -0.671875 -2.203125 -0.671875q-1.546875 0 -2.578125 0.734375q-1.03125 0.734375 -1.453125 1.984375q-0.421875 1.234375 -0.421875 2.5625q0 1.703125 0.5 2.96875q0.5 1.265625 1.546875 1.90625q1.046875 0.625 2.265625 0.625q1.484375 0 2.515625 -0.859375q1.03125 -0.859375 1.390625 -2.546875zm3.1292114 -0.15625q0 -2.6875 1.484375 -3.96875q1.25 -1.078125 3.046875 -1.078125q2.0 0 3.265625 1.3125q1.265625 1.296875 1.265625 3.609375q0 1.859375 -0.5625 2.9375q-0.5625 1.0625 -1.640625 1.65625q-1.0625 0.59375 -2.328125 0.59375q-2.03125 0 -3.28125 -1.296875q-1.25 -1.3125 -1.25 -3.765625zm1.6875 0q0 1.859375 0.796875 2.796875q0.8125 0.921875 2.046875 0.921875q1.21875 0 2.03125 -0.921875q0.8125 -0.9375 0.8125 -2.84375q0 -1.796875 -0.8125 -2.71875q-0.8125 -0.921875 -2.03125 -0.921875q-1.234375 0 -2.046875 0.921875q-0.796875 0.90625 -0.796875 2.765625zm9.297577 4.84375l0 -9.671875l1.46875 0l0 1.375q1.0625 -1.59375 3.078125 -1.59375q0.875 0 1.609375 0.3125q0.734375 0.3125 1.09375 0.828125q0.375 0.5 0.515625 1.203125q0.09375 0.453125 0.09375 1.59375l0 5.953125l-1.640625 0l0 -5.890625q0 -1.0 -0.203125 -1.484375q-0.1875 -0.5 -0.671875 -0.796875q-0.484375 -0.296875 -1.140625 -0.296875q-1.046875 0 -1.8125 0.671875q-0.75 0.65625 -0.75 2.515625l0 5.28125l-1.640625 0zm13.953857 -1.46875l0.234375 1.453125q-0.6875 0.140625 -1.234375 0.140625q-0.890625 0 -1.390625 -0.28125q-0.484375 -0.28125 -0.6875 -0.734375q-0.203125 -0.46875 -0.203125 -1.9375l0 -5.578125l-1.203125 0l0 -1.265625l1.203125 0l0 -2.390625l1.625 -0.984375l0 3.375l1.65625 0l0 1.265625l-1.65625 0l0 5.671875q0 0.6875 0.078125 0.890625q0.09375 0.203125 0.28125 0.328125q0.203125 0.109375 0.578125 0.109375q0.265625 0 0.71875 -0.0625zm1.5895386 1.46875l0 -9.671875l1.46875 0l0 1.46875q0.5625 -1.03125 1.03125 -1.359375q0.484375 -0.328125 1.0625 -0.328125q0.828125 0 1.6875 0.53125l-0.5625 1.515625q-0.609375 -0.359375 -1.203125 -0.359375q-0.546875 0 -0.96875 0.328125q-0.421875 0.328125 -0.609375 0.890625q-0.28125 0.875 -0.28125 1.921875l0 5.0625l-1.625 0zm5.618927 -4.84375q0 -2.6875 1.484375 -3.96875q1.25 -1.078125 3.046875 -1.078125q2.0 0 3.265625 1.3125q1.265625 1.296875 1.265625 3.609375q0 1.859375 -0.5625 2.9375q-0.5625 1.0625 -1.640625 1.65625q-1.0625 0.59375 -2.328125 0.59375q-2.03125 0 -3.28125 -1.296875q-1.25 -1.3125 -1.25 -3.765625zm1.6875 0q0 1.859375 0.796875 2.796875q0.8125 0.921875 2.046875 0.921875q1.21875 0 2.03125 -0.921875q0.8125 -0.9375 0.8125 -2.84375q0 -1.796875 -0.8125 -2.71875q-0.8125 -0.921875 -2.03125 -0.921875q-1.234375 0 -2.046875 0.921875q-0.796875 0.90625 -0.796875 2.765625zm9.250732 4.84375l0 -13.359375l1.640625 0l0 13.359375l-1.640625 0zm9.578125 0l0 -13.359375l5.046875 0q1.328125 0 2.03125 0.125q0.96875 0.171875 1.640625 0.640625q0.671875 0.453125 1.078125 1.28125q0.40625 0.828125 0.40625 1.828125q0 1.703125 -1.09375 2.890625q-1.078125 1.171875 -3.921875 1.171875l-3.421875 0l0 5.421875l-1.765625 0zm1.765625 -7.0l3.453125 0q1.71875 0 2.4375 -0.640625q0.71875 -0.640625 0.71875 -1.796875q0 -0.84375 -0.421875 -1.4375q-0.421875 -0.59375 -1.125 -0.78125q-0.4375 -0.125 -1.640625 -0.125l-3.421875 0l0 4.78125zm10.427948 7.0l0 -13.359375l1.640625 0l0 13.359375l-1.640625 0zm10.504181 -1.1875q-0.921875 0.765625 -1.765625 1.09375q-0.828125 0.3125 -1.796875 0.3125q-1.59375 0 -2.453125 -0.78125q-0.859375 -0.78125 -0.859375 -1.984375q0 -0.71875 0.328125 -1.296875q0.328125 -0.59375 0.84375 -0.9375q0.53125 -0.359375 1.1875 -0.546875q0.46875 -0.125 1.453125 -0.25q1.984375 -0.234375 2.921875 -0.5625q0.015625 -0.34375 0.015625 -0.421875q0 -1.0 -0.46875 -1.421875q-0.625 -0.546875 -1.875 -0.546875q-1.15625 0 -1.703125 0.40625q-0.546875 0.40625 -0.8125 1.421875l-1.609375 -0.21875q0.21875 -1.015625 0.71875 -1.640625q0.5 -0.640625 1.453125 -0.984375q0.953125 -0.34375 2.1875 -0.34375q1.25 0 2.015625 0.296875q0.78125 0.28125 1.140625 0.734375q0.375 0.4375 0.515625 1.109375q0.078125 0.421875 0.078125 1.515625l0 2.1875q0 2.28125 0.109375 2.890625q0.109375 0.59375 0.40625 1.15625l-1.703125 0q-0.265625 -0.515625 -0.328125 -1.1875zm-0.140625 -3.671875q-0.890625 0.375 -2.671875 0.625q-1.015625 0.140625 -1.4375 0.328125q-0.421875 0.1875 -0.65625 0.53125q-0.21875 0.34375 -0.21875 0.78125q0 0.65625 0.5 1.09375q0.5 0.4375 1.453125 0.4375q0.9375 0 1.671875 -0.40625q0.75 -0.421875 1.09375 -1.140625q0.265625 -0.5625 0.265625 -1.640625l0 -0.609375zm4.2038574 4.859375l0 -9.671875l1.46875 0l0 1.375q1.0625 -1.59375 3.078125 -1.59375q0.875 0 1.609375 0.3125q0.734375 0.3125 1.09375 0.828125q0.375 0.5 0.515625 1.203125q0.09375 0.453125 0.09375 1.59375l0 5.953125l-1.640625 0l0 -5.890625q0 -1.0 -0.203125 -1.484375q-0.1875 -0.5 -0.671875 -0.796875q-0.484375 -0.296875 -1.140625 -0.296875q-1.046875 0 -1.8125 0.671875q-0.75 0.65625 -0.75 2.515625l0 5.28125l-1.640625 0zm17.000702 -3.109375l1.6875 0.203125q-0.40625 1.484375 -1.484375 2.3125q-1.078125 0.8125 -2.765625 0.8125q-2.125 0 -3.375 -1.296875q-1.234375 -1.3125 -1.234375 -3.671875q0 -2.453125 1.25 -3.796875q1.265625 -1.34375 3.265625 -1.34375q1.9375 0 3.15625 1.328125q1.234375 1.3125 1.234375 3.703125q0 0.15625 0 0.4375l-7.21875 0q0.09375 1.59375 0.90625 2.453125q0.8125 0.84375 2.015625 0.84375q0.90625 0 1.546875 -0.46875q0.640625 -0.484375 1.015625 -1.515625zm-5.390625 -2.65625l5.40625 0q-0.109375 -1.21875 -0.625 -1.828125q-0.78125 -0.953125 -2.03125 -0.953125q-1.125 0 -1.90625 0.765625q-0.765625 0.75 -0.84375 2.015625z"/><path fill="#cfe2f3" fill-rule="evenodd" d="m656.3963 267.4147l131.74805 0l0 42.4252l-131.74805 0z"/><path fill-rule="evenodd" stroke="#000" stroke-linecap="butt" stroke-linejoin="round" stroke-width="1" d="m656.3963 267.4147l131.74805 0l0 42.4252l-131.74805 0z"/><path fill="#000" fill-rule="nonzero" d="m677.55457 295.5473l0 -13.359375l4.609375 0q1.546875 0 2.375 0.203125q1.140625 0.25 1.953125 0.953125q1.0625 0.890625 1.578125 2.28125q0.53125 1.390625 0.53125 3.171875q0 1.515625 -0.359375 2.703125q-0.359375 1.171875 -0.921875 1.9375q-0.546875 0.765625 -1.203125 1.21875q-0.65625 0.4375 -1.59375 0.671875q-0.9375 0.21875 -2.140625 0.21875l-4.828125 0zm1.765625 -1.578125l2.859375 0q1.3125 0 2.0625 -0.234375q0.75 -0.25 1.203125 -0.703125q0.625 -0.625 0.96875 -1.6875q0.359375 -1.0625 0.359375 -2.578125q0 -2.09375 -0.6875 -3.21875q-0.6875 -1.125 -1.671875 -1.5q-0.703125 -0.28125 -2.28125 -0.28125l-2.8125 0l0 10.203125zm17.816711 0.390625q-0.921875 0.765625 -1.765625 1.09375q-0.828125 0.3125 -1.796875 0.3125q-1.59375 0 -2.453125 -0.78125q-0.859375 -0.78125 -0.859375 -1.984375q0 -0.71875 0.328125 -1.296875q0.328125 -0.59375 0.84375 -0.9375q0.53125 -0.359375 1.1875 -0.546875q0.46875 -0.125 1.453125 -0.25q1.984375 -0.234375 2.921875 -0.5625q0.015625 -0.34375 0.015625 -0.421875q0 -1.0 -0.46875 -1.421875q-0.625 -0.546875 -1.875 -0.546875q-1.15625 0 -1.703125 0.40625q-0.546875 0.40625 -0.8125 1.421875l-1.609375 -0.21875q0.21875 -1.015625 0.71875 -1.640625q0.5 -0.640625 1.453125 -0.984375q0.953125 -0.34375 2.1875 -0.34375q1.25 0 2.015625 0.296875q0.78125 0.28125 1.140625 0.734375q0.375 0.4375 0.515625 1.109375q0.078125 0.421875 0.078125 1.515625l0 2.1875q0 2.28125 0.109375 2.890625q0.109375 0.59375 0.40625 1.15625l-1.703125 0q-0.265625 -0.515625 -0.328125 -1.1875zm-0.140625 -3.671875q-0.890625 0.375 -2.671875 0.625q-1.015625 0.140625 -1.4375 0.328125q-0.421875 0.1875 -0.65625 0.53125q-0.21875 0.34375 -0.21875 0.78125q0 0.65625 0.5 1.09375q0.5 0.4375 1.453125 0.4375q0.9375 0 1.671875 -0.40625q0.75 -0.421875 1.09375 -1.140625q0.265625 -0.5625 0.265625 -1.640625l0 -0.609375zm7.7819824 3.390625l0.234375 1.453125q-0.6875 0.140625 -1.234375 0.140625q-0.890625 0 -1.390625 -0.28125q-0.484375 -0.28125 -0.6875 -0.734375q-0.203125 -0.46875 -0.203125 -1.9375l0 -5.578125l-1.203125 0l0 -1.265625l1.203125 0l0 -2.390625l1.625 -0.984375l0 3.375l1.65625 0l0 1.265625l-1.65625 0l0 5.671875q0 0.6875 0.078125 0.890625q0.09375 0.203125 0.28125 0.328125q0.203125 0.109375 0.578125 0.109375q0.265625 0 0.71875 -0.0625zm7.9176636 0.28125q-0.921875 0.765625 -1.765625 1.09375q-0.828125 0.3125 -1.796875 0.3125q-1.59375 0 -2.453125 -0.78125q-0.859375 -0.78125 -0.859375 -1.984375q0 -0.71875 0.328125 -1.296875q0.328125 -0.59375 0.84375 -0.9375q0.53125 -0.359375 1.1875 -0.546875q0.46875 -0.125 1.453125 -0.25q1.984375 -0.234375 2.921875 -0.5625q0.015625 -0.34375 0.015625 -0.421875q0 -1.0 -0.46875 -1.421875q-0.625 -0.546875 -1.875 -0.546875q-1.15625 0 -1.703125 0.40625q-0.546875 0.40625 -0.8125 1.421875l-1.609375 -0.21875q0.21875 -1.015625 0.71875 -1.640625q0.5 -0.640625 1.453125 -0.984375q0.953125 -0.34375 2.1875 -0.34375q1.25 0 2.015625 0.296875q0.78125 0.28125 1.140625 0.734375q0.375 0.4375 0.515625 1.109375q0.078125 0.421875 0.078125 1.515625l0 2.1875q0 2.28125 0.109375 2.890625q0.109375 0.59375 0.40625 1.15625l-1.703125 0q-0.265625 -0.515625 -0.328125 -1.1875zm-0.140625 -3.671875q-0.890625 0.375 -2.671875 0.625q-1.015625 0.140625 -1.4375 0.328125q-0.421875 0.1875 -0.65625 0.53125q-0.21875 0.34375 -0.21875 0.78125q0 0.65625 0.5 1.09375q0.5 0.4375 1.453125 0.4375q0.9375 0 1.671875 -0.40625q0.75 -0.421875 1.09375 -1.140625q0.265625 -0.5625 0.265625 -1.640625l0 -0.609375zm9.590271 4.859375l0 -13.359375l5.046875 0q1.328125 0 2.03125 0.125q0.96875 0.171875 1.640625 0.640625q0.671875 0.453125 1.078125 1.28125q0.40625 0.828125 0.40625 1.828125q0 1.703125 -1.09375 2.890625q-1.078125 1.171875 -3.921875 1.171875l-3.421875 0l0 5.421875l-1.765625 0zm1.765625 -7.0l3.453125 0q1.71875 0 2.4375 -0.640625q0.71875 -0.640625 0.71875 -1.796875q0 -0.84375 -0.421875 -1.4375q-0.421875 -0.59375 -1.125 -0.78125q-0.4375 -0.125 -1.640625 -0.125l-3.421875 0l0 4.78125zm10.4279175 7.0l0 -13.359375l1.640625 0l0 13.359375l-1.640625 0zm10.504211 -1.1875q-0.921875 0.765625 -1.765625 1.09375q-0.828125 0.3125 -1.796875 0.3125q-1.59375 0 -2.453125 -0.78125q-0.859375 -0.78125 -0.859375 -1.984375q0 -0.71875 0.328125 -1.296875q0.328125 -0.59375 0.84375 -0.9375q0.53125 -0.359375 1.1875 -0.546875q0.46875 -0.125 1.453125 -0.25q1.984375 -0.234375 2.921875 -0.5625q0.015625 -0.34375 0.015625 -0.421875q0 -1.0 -0.46875 -1.421875q-0.625 -0.546875 -1.875 -0.546875q-1.15625 0 -1.703125 0.40625q-0.546875 0.40625 -0.8125 1.421875l-1.609375 -0.21875q0.21875 -1.015625 0.71875 -1.640625q0.5 -0.640625 1.453125 -0.984375q0.953125 -0.34375 2.1875 -0.34375q1.25 0 2.015625 0.296875q0.78125 0.28125 1.140625 0.734375q0.375 0.4375 0.515625 1.109375q0.078125 0.421875 0.078125 1.515625l0 2.1875q0 2.28125 0.109375 2.890625q0.109375 0.59375 0.40625 1.15625l-1.703125 0q-0.265625 -0.515625 -0.328125 -1.1875zm-0.140625 -3.671875q-0.890625 0.375 -2.671875 0.625q-1.015625 0.140625 -1.4375 0.328125q-0.421875 0.1875 -0.65625 0.53125q-0.21875 0.34375 -0.21875 0.78125q0 0.65625 0.5 1.09375q0.5 0.4375 1.453125 0.4375q0.9375 0 1.671875 -0.40625q0.75 -0.421875 1.09375 -1.140625q0.265625 -0.5625 0.265625 -1.640625l0 -0.609375zm4.2038574 4.859375l0 -9.671875l1.46875 0l0 1.375q1.0625 -1.59375 3.078125 -1.59375q0.875 0 1.609375 0.3125q0.734375 0.3125 1.09375 0.828125q0.375 0.5 0.515625 1.203125q0.09375 0.453125 0.09375 1.59375l0 5.953125l-1.640625 0l0 -5.890625q0 -1.0 -0.203125 -1.484375q-0.1875 -0.5 -0.671875 -0.796875q-0.484375 -0.296875 -1.140625 -0.296875q-1.046875 0 -1.8125 0.671875q-0.75 0.65625 -0.75 2.515625l0 5.28125l-1.640625 0zm17.000732 -3.109375l1.6875 0.203125q-0.40625 1.484375 -1.484375 2.3125q-1.078125 0.8125 -2.765625 0.8125q-2.125 0 -3.375 -1.296875q-1.234375 -1.3125 -1.234375 -3.671875q0 -2.453125 1.25 -3.796875q1.265625 -1.34375 3.265625 -1.34375q1.9375 0 3.15625 1.328125q1.234375 1.3125 1.234375 3.703125q0 0.15625 0 0.4375l-7.21875 0q0.09375 1.59375 0.90625 2.453125q0.8125 0.84375 2.015625 0.84375q0.90625 0 1.546875 -0.46875q0.640625 -0.484375 1.015625 -1.515625zm-5.390625 -2.65625l5.40625 0q-0.109375 -1.21875 -0.625 -1.828125q-0.78125 -0.953125 -2.03125 -0.953125q-1.125 0 -1.90625 0.765625q-0.765625 0.75 -0.84375 2.015625z"/><path fill="#cfe2f3" fill-rule="evenodd" d="m656.3963 223.46982l131.74805 0l0 42.4252l-131.74805 0z"/><path fill-rule="evenodd" stroke="#000" stroke-linecap="butt" stroke-linejoin="round" stroke-width="1" d="m656.3963 223.46982l131.74805 0l0 42.4252l-131.74805 0z"/><path fill="#000" fill-rule="nonzero" d="m676.71924 246.91492l1.765625 0.453125q-0.5625 2.171875 -2.0 3.328125q-1.4375 1.140625 -3.53125 1.140625q-2.15625 0 -3.515625 -0.875q-1.34375 -0.890625 -2.0625 -2.546875q-0.703125 -1.671875 -0.703125 -3.59375q0 -2.078125 0.796875 -3.625q0.796875 -1.5625 2.265625 -2.359375q1.484375 -0.8125 3.25 -0.8125q2.0 0 3.359375 1.015625q1.375 1.015625 1.90625 2.875l-1.734375 0.40625q-0.46875 -1.453125 -1.359375 -2.109375q-0.875 -0.671875 -2.203125 -0.671875q-1.546875 0 -2.578125 0.734375q-1.03125 0.734375 -1.453125 1.984375q-0.421875 1.234375 -0.421875 2.5625q0 1.703125 0.5 2.96875q0.5 1.265625 1.546875 1.90625q1.046875 0.625 2.265625 0.625q1.484375 0 2.515625 -0.859375q1.03125 -0.859375 1.390625 -2.546875zm3.1291504 -0.15625q0 -2.6875 1.484375 -3.96875q1.25 -1.078125 3.046875 -1.078125q2.0 0 3.265625 1.3125q1.265625 1.296875 1.265625 3.609375q0 1.859375 -0.5625 2.9375q-0.5625 1.0625 -1.640625 1.65625q-1.0625 0.59375 -2.328125 0.59375q-2.03125 0 -3.28125 -1.296875q-1.25 -1.3125 -1.25 -3.765625zm1.6875 0q0 1.859375 0.796875 2.796875q0.8125 0.921875 2.046875 0.921875q1.21875 0 2.03125 -0.921875q0.8125 -0.9375 0.8125 -2.84375q0 -1.796875 -0.8125 -2.71875q-0.8125 -0.921875 -2.03125 -0.921875q-1.234375 0 -2.046875 0.921875q-0.796875 0.90625 -0.796875 2.765625zm9.297607 4.84375l0 -9.671875l1.46875 0l0 1.375q1.0625 -1.59375 3.078125 -1.59375q0.875 0 1.609375 0.3125q0.734375 0.3125 1.09375 0.828125q0.375 0.5 0.515625 1.203125q0.09375 0.453125 0.09375 1.59375l0 5.953125l-1.640625 0l0 -5.890625q0 -1.0 -0.203125 -1.484375q-0.1875 -0.5 -0.671875 -0.796875q-0.484375 -0.296875 -1.140625 -0.296875q-1.046875 0 -1.8125 0.671875q-0.75 0.65625 -0.75 2.515625l0 5.28125l-1.640625 0zm13.953857 -1.46875l0.234375 1.453125q-0.6875 0.140625 -1.234375 0.140625q-0.890625 0 -1.390625 -0.28125q-0.484375 -0.28125 -0.6875 -0.734375q-0.203125 -0.46875 -0.203125 -1.9375l0 -5.578125l-1.203125 0l0 -1.265625l1.203125 0l0 -2.390625l1.625 -0.984375l0 3.375l1.65625 0l0 1.265625l-1.65625 0l0 5.671875q0 0.6875 0.078125 0.890625q0.09375 0.203125 0.28125 0.328125q0.203125 0.109375 0.578125 0.109375q0.265625 0 0.71875 -0.0625zm1.5895386 1.46875l0 -9.671875l1.46875 0l0 1.46875q0.5625 -1.03125 1.03125 -1.359375q0.484375 -0.328125 1.0625 -0.328125q0.828125 0 1.6875 0.53125l-0.5625 1.515625q-0.609375 -0.359375 -1.203125 -0.359375q-0.546875 0 -0.96875 0.328125q-0.421875 0.328125 -0.609375 0.890625q-0.28125 0.875 -0.28125 1.921875l0 5.0625l-1.625 0zm5.6189575 -4.84375q0 -2.6875 1.484375 -3.96875q1.25 -1.078125 3.046875 -1.078125q2.0 0 3.265625 1.3125q1.265625 1.296875 1.265625 3.609375q0 1.859375 -0.5625 2.9375q-0.5625 1.0625 -1.640625 1.65625q-1.0625 0.59375 -2.328125 0.59375q-2.03125 0 -3.28125 -1.296875q-1.25 -1.3125 -1.25 -3.765625zm1.6875 0q0 1.859375 0.796875 2.796875q0.8125 0.921875 2.046875 0.921875q1.21875 0 2.03125 -0.921875q0.8125 -0.9375 0.8125 -2.84375q0 -1.796875 -0.8125 -2.71875q-0.8125 -0.921875 -2.03125 -0.921875q-1.234375 0 -2.046875 0.921875q-0.796875 0.90625 -0.796875 2.765625zm9.250671 4.84375l0 -13.359375l1.640625 0l0 13.359375l-1.640625 0zm9.578125 0l0 -13.359375l5.046875 0q1.328125 0 2.03125 0.125q0.96875 0.171875 1.640625 0.640625q0.671875 0.453125 1.078125 1.28125q0.40625 0.828125 0.40625 1.828125q0 1.703125 -1.09375 2.890625q-1.078125 1.171875 -3.921875 1.171875l-3.421875 0l0 5.421875l-1.765625 0zm1.765625 -7.0l3.453125 0q1.71875 0 2.4375 -0.640625q0.71875 -0.640625 0.71875 -1.796875q0 -0.84375 -0.421875 -1.4375q-0.421875 -0.59375 -1.125 -0.78125q-0.4375 -0.125 -1.640625 -0.125l-3.421875 0l0 4.78125zm10.4279785 7.0l0 -13.359375l1.640625 0l0 13.359375l-1.640625 0zm10.504211 -1.1875q-0.921875 0.765625 -1.765625 1.09375q-0.828125 0.3125 -1.796875 0.3125q-1.59375 0 -2.453125 -0.78125q-0.859375 -0.78125 -0.859375 -1.984375q0 -0.71875 0.328125 -1.296875q0.328125 -0.59375 0.84375 -0.9375q0.53125 -0.359375 1.1875 -0.546875q0.46875 -0.125 1.453125 -0.25q1.984375 -0.234375 2.921875 -0.5625q0.015625 -0.34375 0.015625 -0.421875q0 -1.0 -0.46875 -1.421875q-0.625 -0.546875 -1.875 -0.546875q-1.15625 0 -1.703125 0.40625q-0.546875 0.40625 -0.8125 1.421875l-1.609375 -0.21875q0.21875 -1.015625 0.71875 -1.640625q0.5 -0.640625 1.453125 -0.984375q0.953125 -0.34375 2.1875 -0.34375q1.25 0 2.015625 0.296875q0.78125 0.28125 1.140625 0.734375q0.375 0.4375 0.515625 1.109375q0.078125 0.421875 0.078125 1.515625l0 2.1875q0 2.28125 0.109375 2.890625q0.109375 0.59375 0.40625 1.15625l-1.703125 0q-0.265625 -0.515625 -0.328125 -1.1875zm-0.140625 -3.671875q-0.890625 0.375 -2.671875 0.625q-1.015625 0.140625 -1.4375 0.328125q-0.421875 0.1875 -0.65625 0.53125q-0.21875 0.34375 -0.21875 0.78125q0 0.65625 0.5 1.09375q0.5 0.4375 1.453125 0.4375q0.9375 0 1.671875 -0.40625q0.75 -0.421875 1.09375 -1.140625q0.265625 -0.5625 0.265625 -1.640625l0 -0.609375zm4.2037964 4.859375l0 -9.671875l1.46875 0l0 1.375q1.0625 -1.59375 3.078125 -1.59375q0.875 0 1.609375 0.3125q0.734375 0.3125 1.09375 0.828125q0.375 0.5 0.515625 1.203125q0.09375 0.453125 0.09375 1.59375l0 5.953125l-1.640625 0l0 -5.890625q0 -1.0 -0.203125 -1.484375q-0.1875 -0.5 -0.671875 -0.796875q-0.484375 -0.296875 -1.140625 -0.296875q-1.046875 0 -1.8125 0.671875q-0.75 0.65625 -0.75 2.515625l0 5.28125l-1.640625 0zm17.000732 -3.109375l1.6875 0.203125q-0.40625 1.484375 -1.484375 2.3125q-1.078125 0.8125 -2.765625 0.8125q-2.125 0 -3.375 -1.296875q-1.234375 -1.3125 -1.234375 -3.671875q0 -2.453125 1.25 -3.796875q1.265625 -1.34375 3.265625 -1.34375q1.9375 0 3.15625 1.328125q1.234375 1.3125 1.234375 3.703125q0 0.15625 0 0.4375l-7.21875 0q0.09375 1.59375 0.90625 2.453125q0.8125 0.84375 2.015625 0.84375q0.90625 0 1.546875 -0.46875q0.640625 -0.484375 1.015625 -1.515625zm-5.390625 -2.65625l5.40625 0q-0.109375 -1.21875 -0.625 -1.828125q-0.78125 -0.953125 -2.03125 -0.953125q-1.125 0 -1.90625 0.765625q-0.765625 0.75 -0.84375 2.015625z"/><path fill="#cfe2f3" fill-rule="evenodd" d="m359.32285 410.8294l131.74802 0l0 42.4252l-131.74802 0z"/><path fill-rule="evenodd" stroke="#000" stroke-linecap="butt" stroke-linejoin="round" stroke-width="1" d="m359.32285 410.8294l131.74802 0l0 42.4252l-131.74802 0z"/><path fill="#000" fill-rule="nonzero" d="m380.48108 438.962l0 -13.359375l4.609375 0q1.546875 0 2.375 0.203125q1.140625 0.25 1.953125 0.953125q1.0625 0.890625 1.578125 2.28125q0.53125 1.390625 0.53125 3.171875q0 1.515625 -0.359375 2.703125q-0.359375 1.171875 -0.921875 1.9375q-0.546875 0.765625 -1.203125 1.21875q-0.65625 0.4375 -1.59375 0.671875q-0.9375 0.21875 -2.140625 0.21875l-4.828125 0zm1.765625 -1.578125l2.859375 0q1.3125 0 2.0625 -0.234375q0.75 -0.25 1.203125 -0.703125q0.625 -0.625 0.96875 -1.6875q0.359375 -1.0625 0.359375 -2.578125q0 -2.09375 -0.6875 -3.21875q-0.6875 -1.125 -1.671875 -1.5q-0.703125 -0.28125 -2.28125 -0.28125l-2.8125 0l0 10.203125zm17.816711 0.390625q-0.921875 0.765625 -1.765625 1.09375q-0.828125 0.3125 -1.796875 0.3125q-1.59375 0 -2.453125 -0.78125q-0.859375 -0.78125 -0.859375 -1.984375q0 -0.71875 0.328125 -1.296875q0.328125 -0.59375 0.84375 -0.9375q0.53125 -0.359375 1.1875 -0.546875q0.46875 -0.125 1.453125 -0.25q1.984375 -0.234375 2.921875 -0.5625q0.015625 -0.34375 0.015625 -0.421875q0 -1.0 -0.46875 -1.421875q-0.625 -0.546875 -1.875 -0.546875q-1.15625 0 -1.703125 0.40625q-0.546875 0.40625 -0.8125 1.421875l-1.609375 -0.21875q0.21875 -1.015625 0.71875 -1.640625q0.5 -0.640625 1.453125 -0.984375q0.953125 -0.34375 2.1875 -0.34375q1.25 0 2.015625 0.296875q0.78125 0.28125 1.140625 0.734375q0.375 0.4375 0.515625 1.109375q0.078125 0.421875 0.078125 1.515625l0 2.1875q0 2.28125 0.109375 2.890625q0.109375 0.59375 0.40625 1.15625l-1.703125 0q-0.265625 -0.515625 -0.328125 -1.1875zm-0.140625 -3.671875q-0.890625 0.375 -2.671875 0.625q-1.015625 0.140625 -1.4375 0.328125q-0.421875 0.1875 -0.65625 0.53125q-0.21875 0.34375 -0.21875 0.78125q0 0.65625 0.5 1.09375q0.5 0.4375 1.453125 0.4375q0.9375 0 1.671875 -0.40625q0.75 -0.421875 1.09375 -1.140625q0.265625 -0.5625 0.265625 -1.640625l0 -0.609375zm7.781952 3.390625l0.234375 1.453125q-0.6875 0.140625 -1.234375 0.140625q-0.890625 0 -1.390625 -0.28125q-0.484375 -0.28125 -0.6875 -0.734375q-0.203125 -0.46875 -0.203125 -1.9375l0 -5.578125l-1.203125 0l0 -1.265625l1.203125 0l0 -2.390625l1.625 -0.984375l0 3.375l1.65625 0l0 1.265625l-1.65625 0l0 5.671875q0 0.6875 0.078125 0.890625q0.09375 0.203125 0.28125 0.328125q0.203125 0.109375 0.578125 0.109375q0.265625 0 0.71875 -0.0625zm7.917694 0.28125q-0.921875 0.765625 -1.765625 1.09375q-0.828125 0.3125 -1.796875 0.3125q-1.59375 0 -2.453125 -0.78125q-0.859375 -0.78125 -0.859375 -1.984375q0 -0.71875 0.328125 -1.296875q0.328125 -0.59375 0.84375 -0.9375q0.53125 -0.359375 1.1875 -0.546875q0.46875 -0.125 1.453125 -0.25q1.984375 -0.234375 2.921875 -0.5625q0.015625 -0.34375 0.015625 -0.421875q0 -1.0 -0.46875 -1.421875q-0.625 -0.546875 -1.875 -0.546875q-1.15625 0 -1.703125 0.40625q-0.546875 0.40625 -0.8125 1.421875l-1.609375 -0.21875q0.21875 -1.015625 0.71875 -1.640625q0.5 -0.640625 1.453125 -0.984375q0.953125 -0.34375 2.1875 -0.34375q1.25 0 2.015625 0.296875q0.78125 0.28125 1.140625 0.734375q0.375 0.4375 0.515625 1.109375q0.078125 0.421875 0.078125 1.515625l0 2.1875q0 2.28125 0.109375 2.890625q0.109375 0.59375 0.40625 1.15625l-1.703125 0q-0.265625 -0.515625 -0.328125 -1.1875zm-0.140625 -3.671875q-0.890625 0.375 -2.671875 0.625q-1.015625 0.140625 -1.4375 0.328125q-0.421875 0.1875 -0.65625 0.53125q-0.21875 0.34375 -0.21875 0.78125q0 0.65625 0.5 1.09375q0.5 0.4375 1.453125 0.4375q0.9375 0 1.671875 -0.40625q0.75 -0.421875 1.09375 -1.140625q0.265625 -0.5625 0.265625 -1.640625l0 -0.609375zm9.590271 4.859375l0 -13.359375l5.046875 0q1.328125 0 2.03125 0.125q0.96875 0.171875 1.640625 0.640625q0.671875 0.453125 1.078125 1.28125q0.40625 0.828125 0.40625 1.828125q0 1.703125 -1.09375 2.890625q-1.078125 1.171875 -3.921875 1.171875l-3.421875 0l0 5.421875l-1.765625 0zm1.765625 -7.0l3.453125 0q1.71875 0 2.4375 -0.640625q0.71875 -0.640625 0.71875 -1.796875q0 -0.84375 -0.421875 -1.4375q-0.421875 -0.59375 -1.125 -0.78125q-0.4375 -0.125 -1.640625 -0.125l-3.421875 0l0 4.78125zm10.427948 7.0l0 -13.359375l1.640625 0l0 13.359375l-1.640625 0zm10.504181 -1.1875q-0.921875 0.765625 -1.765625 1.09375q-0.828125 0.3125 -1.796875 0.3125q-1.59375 0 -2.453125 -0.78125q-0.859375 -0.78125 -0.859375 -1.984375q0 -0.71875 0.328125 -1.296875q0.328125 -0.59375 0.84375 -0.9375q0.53125 -0.359375 1.1875 -0.546875q0.46875 -0.125 1.453125 -0.25q1.984375 -0.234375 2.921875 -0.5625q0.015625 -0.34375 0.015625 -0.421875q0 -1.0 -0.46875 -1.421875q-0.625 -0.546875 -1.875 -0.546875q-1.15625 0 -1.703125 0.40625q-0.546875 0.40625 -0.8125 1.421875l-1.609375 -0.21875q0.21875 -1.015625 0.71875 -1.640625q0.5 -0.640625 1.453125 -0.984375q0.953125 -0.34375 2.1875 -0.34375q1.25 0 2.015625 0.296875q0.78125 0.28125 1.140625 0.734375q0.375 0.4375 0.515625 1.109375q0.078125 0.421875 0.078125 1.515625l0 2.1875q0 2.28125 0.109375 2.890625q0.109375 0.59375 0.40625 1.15625l-1.703125 0q-0.265625 -0.515625 -0.328125 -1.1875zm-0.140625 -3.671875q-0.890625 0.375 -2.671875 0.625q-1.015625 0.140625 -1.4375 0.328125q-0.421875 0.1875 -0.65625 0.53125q-0.21875 0.34375 -0.21875 0.78125q0 0.65625 0.5 1.09375q0.5 0.4375 1.453125 0.4375q0.9375 0 1.671875 -0.40625q0.75 -0.421875 1.09375 -1.140625q0.265625 -0.5625 0.265625 -1.640625l0 -0.609375zm4.2038574 4.859375l0 -9.671875l1.46875 0l0 1.375q1.0625 -1.59375 3.078125 -1.59375q0.875 0 1.609375 0.3125q0.734375 0.3125 1.09375 0.828125q0.375 0.5 0.515625 1.203125q0.09375 0.453125 0.09375 1.59375l0 5.953125l-1.640625 0l0 -5.890625q0 -1.0 -0.203125 -1.484375q-0.1875 -0.5 -0.671875 -0.796875q-0.484375 -0.296875 -1.140625 -0.296875q-1.046875 0 -1.8125 0.671875q-0.75 0.65625 -0.75 2.515625l0 5.28125l-1.640625 0zm17.000702 -3.109375l1.6875 0.203125q-0.40625 1.484375 -1.484375 2.3125q-1.078125 0.8125 -2.765625 0.8125q-2.125 0 -3.375 -1.296875q-1.234375 -1.3125 -1.234375 -3.671875q0 -2.453125 1.25 -3.796875q1.265625 -1.34375 3.265625 -1.34375q1.9375 0 3.15625 1.328125q1.234375 1.3125 1.234375 3.703125q0 0.15625 0 0.4375l-7.21875 0q0.09375 1.59375 0.90625 2.453125q0.8125 0.84375 2.015625 0.84375q0.90625 0 1.546875 -0.46875q0.640625 -0.484375 1.015625 -1.515625zm-5.390625 -2.65625l5.40625 0q-0.109375 -1.21875 -0.625 -1.828125q-0.78125 -0.953125 -2.03125 -0.953125q-1.125 0 -1.90625 0.765625q-0.765625 0.75 -0.84375 2.015625z"/><path fill="#cfe2f3" fill-rule="evenodd" d="m359.32285 366.88452l131.74802 0l0 42.4252l-131.74802 0z"/><path fill-rule="evenodd" stroke="#000" stroke-linecap="butt" stroke-linejoin="round" stroke-width="1" d="m359.32285 366.88452l131.74802 0l0 42.4252l-131.74802 0z"/><path fill="#000" fill-rule="nonzero" d="m379.64572 390.32962l1.765625 0.453125q-0.5625 2.171875 -2.0 3.328125q-1.4375 1.140625 -3.53125 1.140625q-2.15625 0 -3.515625 -0.875q-1.34375 -0.890625 -2.0625 -2.546875q-0.703125 -1.671875 -0.703125 -3.59375q0 -2.078125 0.796875 -3.625q0.796875 -1.5625 2.265625 -2.359375q1.484375 -0.8125 3.25 -0.8125q2.0 0 3.359375 1.015625q1.375 1.015625 1.90625 2.875l-1.734375 0.40625q-0.46875 -1.453125 -1.359375 -2.109375q-0.875 -0.671875 -2.203125 -0.671875q-1.546875 0 -2.578125 0.734375q-1.03125 0.734375 -1.453125 1.984375q-0.421875 1.234375 -0.421875 2.5625q0 1.703125 0.5 2.96875q0.5 1.265625 1.546875 1.90625q1.046875 0.625 2.265625 0.625q1.484375 0 2.515625 -0.859375q1.03125 -0.859375 1.390625 -2.546875zm3.1292114 -0.15625q0 -2.6875 1.484375 -3.96875q1.25 -1.078125 3.046875 -1.078125q2.0 0 3.265625 1.3125q1.265625 1.296875 1.265625 3.609375q0 1.859375 -0.5625 2.9375q-0.5625 1.0625 -1.640625 1.65625q-1.0625 0.59375 -2.328125 0.59375q-2.03125 0 -3.28125 -1.296875q-1.25 -1.3125 -1.25 -3.765625zm1.6875 0q0 1.859375 0.796875 2.796875q0.8125 0.921875 2.046875 0.921875q1.21875 0 2.03125 -0.921875q0.8125 -0.9375 0.8125 -2.84375q0 -1.796875 -0.8125 -2.71875q-0.8125 -0.921875 -2.03125 -0.921875q-1.234375 0 -2.046875 0.921875q-0.796875 0.90625 -0.796875 2.765625zm9.297577 4.84375l0 -9.671875l1.46875 0l0 1.375q1.0625 -1.59375 3.078125 -1.59375q0.875 0 1.609375 0.3125q0.734375 0.3125 1.09375 0.828125q0.375 0.5 0.515625 1.203125q0.09375 0.453125 0.09375 1.59375l0 5.953125l-1.640625 0l0 -5.890625q0 -1.0 -0.203125 -1.484375q-0.1875 -0.5 -0.671875 -0.796875q-0.484375 -0.296875 -1.140625 -0.296875q-1.046875 0 -1.8125 0.671875q-0.75 0.65625 -0.75 2.515625l0 5.28125l-1.640625 0zm13.953857 -1.46875l0.234375 1.453125q-0.6875 0.140625 -1.234375 0.140625q-0.890625 0 -1.390625 -0.28125q-0.484375 -0.28125 -0.6875 -0.734375q-0.203125 -0.46875 -0.203125 -1.9375l0 -5.578125l-1.203125 0l0 -1.265625l1.203125 0l0 -2.390625l1.625 -0.984375l0 3.375l1.65625 0l0 1.265625l-1.65625 0l0 5.671875q0 0.6875 0.078125 0.890625q0.09375 0.203125 0.28125 0.328125q0.203125 0.109375 0.578125 0.109375q0.265625 0 0.71875 -0.0625zm1.5895386 1.46875l0 -9.671875l1.46875 0l0 1.46875q0.5625 -1.03125 1.03125 -1.359375q0.484375 -0.328125 1.0625 -0.328125q0.828125 0 1.6875 0.53125l-0.5625 1.515625q-0.609375 -0.359375 -1.203125 -0.359375q-0.546875 0 -0.96875 0.328125q-0.421875 0.328125 -0.609375 0.890625q-0.28125 0.875 -0.28125 1.921875l0 5.0625l-1.625 0zm5.618927 -4.84375q0 -2.6875 1.484375 -3.96875q1.25 -1.078125 3.046875 -1.078125q2.0 0 3.265625 1.3125q1.265625 1.296875 1.265625 3.609375q0 1.859375 -0.5625 2.9375q-0.5625 1.0625 -1.640625 1.65625q-1.0625 0.59375 -2.328125 0.59375q-2.03125 0 -3.28125 -1.296875q-1.25 -1.3125 -1.25 -3.765625zm1.6875 0q0 1.859375 0.796875 2.796875q0.8125 0.921875 2.046875 0.921875q1.21875 0 2.03125 -0.921875q0.8125 -0.9375 0.8125 -2.84375q0 -1.796875 -0.8125 -2.71875q-0.8125 -0.921875 -2.03125 -0.921875q-1.234375 0 -2.046875 0.921875q-0.796875 0.90625 -0.796875 2.765625zm9.250732 4.84375l0 -13.359375l1.640625 0l0 13.359375l-1.640625 0zm9.578125 0l0 -13.359375l5.046875 0q1.328125 0 2.03125 0.125q0.96875 0.171875 1.640625 0.640625q0.671875 0.453125 1.078125 1.28125q0.40625 0.828125 0.40625 1.828125q0 1.703125 -1.09375 2.890625q-1.078125 1.171875 -3.921875 1.171875l-3.421875 0l0 5.421875l-1.765625 0zm1.765625 -7.0l3.453125 0q1.71875 0 2.4375 -0.640625q0.71875 -0.640625 0.71875 -1.796875q0 -0.84375 -0.421875 -1.4375q-0.421875 -0.59375 -1.125 -0.78125q-0.4375 -0.125 -1.640625 -0.125l-3.421875 0l0 4.78125zm10.427948 7.0l0 -13.359375l1.640625 0l0 13.359375l-1.640625 0zm10.504181 -1.1875q-0.921875 0.765625 -1.765625 1.09375q-0.828125 0.3125 -1.796875 0.3125q-1.59375 0 -2.453125 -0.78125q-0.859375 -0.78125 -0.859375 -1.984375q0 -0.71875 0.328125 -1.296875q0.328125 -0.59375 0.84375 -0.9375q0.53125 -0.359375 1.1875 -0.546875q0.46875 -0.125 1.453125 -0.25q1.984375 -0.234375 2.921875 -0.5625q0.015625 -0.34375 0.015625 -0.421875q0 -1.0 -0.46875 -1.421875q-0.625 -0.546875 -1.875 -0.546875q-1.15625 0 -1.703125 0.40625q-0.546875 0.40625 -0.8125 1.421875l-1.609375 -0.21875q0.21875 -1.015625 0.71875 -1.640625q0.5 -0.640625 1.453125 -0.984375q0.953125 -0.34375 2.1875 -0.34375q1.25 0 2.015625 0.296875q0.78125 0.28125 1.140625 0.734375q0.375 0.4375 0.515625 1.109375q0.078125 0.421875 0.078125 1.515625l0 2.1875q0 2.28125 0.109375 2.890625q0.109375 0.59375 0.40625 1.15625l-1.703125 0q-0.265625 -0.515625 -0.328125 -1.1875zm-0.140625 -3.671875q-0.890625 0.375 -2.671875 0.625q-1.015625 0.140625 -1.4375 0.328125q-0.421875 0.1875 -0.65625 0.53125q-0.21875 0.34375 -0.21875 0.78125q0 0.65625 0.5 1.09375q0.5 0.4375 1.453125 0.4375q0.9375 0 1.671875 -0.40625q0.75 -0.421875 1.09375 -1.140625q0.265625 -0.5625 0.265625 -1.640625l0 -0.609375zm4.2038574 4.859375l0 -9.671875l1.46875 0l0 1.375q1.0625 -1.59375 3.078125 -1.59375q0.875 0 1.609375 0.3125q0.734375 0.3125 1.09375 0.828125q0.375 0.5 0.515625 1.203125q0.09375 0.453125 0.09375 1.59375l0 5.953125l-1.640625 0l0 -5.890625q0 -1.0 -0.203125 -1.484375q-0.1875 -0.5 -0.671875 -0.796875q-0.484375 -0.296875 -1.140625 -0.296875q-1.046875 0 -1.8125 0.671875q-0.75 0.65625 -0.75 2.515625l0 5.28125l-1.640625 0zm17.000702 -3.109375l1.6875 0.203125q-0.40625 1.484375 -1.484375 2.3125q-1.078125 0.8125 -2.765625 0.8125q-2.125 0 -3.375 -1.296875q-1.234375 -1.3125 -1.234375 -3.671875q0 -2.453125 1.25 -3.796875q1.265625 -1.34375 3.265625 -1.34375q1.9375 0 3.15625 1.328125q1.234375 1.3125 1.234375 3.703125q0 0.15625 0 0.4375l-7.21875 0q0.09375 1.59375 0.90625 2.453125q0.8125 0.84375 2.015625 0.84375q0.90625 0 1.546875 -0.46875q0.640625 -0.484375 1.015625 -1.515625zm-5.390625 -2.65625l5.40625 0q-0.109375 -1.21875 -0.625 -1.828125q-0.78125 -0.953125 -2.03125 -0.953125q-1.125 0 -1.90625 0.765625q-0.765625 0.75 -0.84375 2.015625z"/><path fill="#000" fill-opacity="0" fill-rule="evenodd" d="m133.979 223.46982l222.4567 -78.14174"/><path fill-rule="evenodd" stroke="#000" stroke-dasharray="4 3" stroke-linecap="butt" stroke-linejoin="round" stroke-width="1" d="m133.979 223.46982l222.4567 -78.14174"/><path fill="#000" fill-opacity="0" fill-rule="evenodd" d="m495.4672 146.8084l226.80313 76.66142"/><path fill-rule="evenodd" stroke="#000" stroke-dasharray="4 3" stroke-linecap="butt" stroke-linejoin="round" stroke-width="1" d="m495.4672 146.8084l226.80313 76.66142"/><path fill="#000" fill-opacity="0" fill-rule="evenodd" d="m722.2703 309.8399l-226.80313 107.68503"/><path fill-rule="evenodd" stroke="#000" stroke-dasharray="4 3" stroke-linecap="butt" stroke-linejoin="round" stroke-width="1" d="m722.2703 309.8399l-226.80313 107.68503"/><path fill="#000" fill-opacity="0" fill-rule="evenodd" d="m352.05774 417.52493l-218.07874 -107.68503"/><path fill-rule="evenodd" stroke="#000" stroke-dasharray="4 3" stroke-linecap="butt" stroke-linejoin="round" stroke-width="1" d="m352.05774 417.52493l-218.07874 -107.68503"/><path fill="#000" fill-opacity="0" fill-rule="evenodd" d="m133.979 223.46982l0.1889801 -173.70079"/><path fill-rule="evenodd" stroke="#000" stroke-dasharray="16 6" stroke-linecap="butt" stroke-linejoin="round" stroke-width="2" d="m133.979 223.46982l0.18151855 -166.84662"/><path fill="#000" fill-rule="evenodd" stroke="#000" stroke-linecap="butt" stroke-width="2" d="m134.16052 56.6232l2.2467194 2.2516098l-2.242447 -6.1819763l-2.25589 6.177082z"/><path fill="#000" fill-opacity="0" fill-rule="evenodd" d="m6.8372703 0l254.64568 0l0 49.76378l-254.64568 0z"/><path fill="#000" fill-rule="nonzero" d="m33.27477 14.451248l-12.828123 0l0 6.96875q0 3.859375 -2.3125 6.6875l-1.25 -1.1875q1.84375 -2.53125 1.84375 -5.796875l0 -8.3125l14.546873 0l0 1.640625zm11.359375 3.78125l-1.40625 0q-0.078125 3.1875 -4.15625 4.015625l-0.453125 -1.421875q2.96875 -0.65625 3.046875 -2.59375l-3.1875 0l0 10.328125l-1.484375 0l0 -11.734375l4.0 0l-0.890625 -1.9375l-4.15625 0l0 -1.40625l7.421875 0l0 -1.921875l1.640625 0q0.59375 0.0625 0.078125 0.4375l0 1.484375l7.34375 0l0 1.40625l-3.78125 0l-1.34375 1.9375l4.3125 0l0 10.546875q0 1.03125 -0.96875 1.03125l-1.9375 0l-0.296875 -1.40625l1.421875 0q0.296875 0 0.296875 -0.296875l0 -8.46875l-4.015625 0l0 1.109375q0 0.59375 0.515625 0.59375l1.34375 0q0.296875 0 0.4375 -0.890625l1.421875 0.453125q-0.15625 1.859375 -1.1875 1.859375l-2.75 0q-1.265625 0 -1.265625 -1.265625l0 -1.859375zm2.078125 -3.34375l-4.890625 0l0.953125 1.9375l2.671875 0l1.265625 -1.9375zm-6.078125 7.359375l7.265625 0l0 4.15625l-6.015625 0l0 0.671875l-1.25 0l0 -4.828125zm1.25 1.1875l0 1.78125l4.75 0l0 -1.78125l-4.75 0zm26.281254 -5.5l0 -2.453125l-9.359379 0l0 2.453125l9.359379 0zm0 1.40625l-9.359379 0l0 2.53125l9.359379 0l0 -2.53125zm0 6.6875l0 -2.75l-9.359379 0l0 2.75l9.359379 0zm-6.234379 -11.953125l0.671875 -2.59375l1.7812538 0.375q0.296875 0.296875 -0.234375 0.359375l-0.8125038 1.859375l6.312504 0l0 14.03125l-1.484375 0l0 -0.671875l-9.359379 0l0 0.890625l-1.484375 0l0 -14.25l4.609375 0zm12.171879 13.21875q3.640625 -2.234375 3.5625 -7.125l1.703125 0.296875q0.21875 0.21875 -0.140625 0.4375l-0.375 2.671875q1.109375 1.34375 2.890625 2.296875l0 -7.1875l-5.046875 0l0 -1.421875l11.203125 0l0 1.421875l-4.671875 0l0 2.734375l5.203125 0l0 1.421875l-5.203125 0l0 3.5625q1.109375 0.296875 2.234375 0.296875l4.890625 0l-0.296875 1.40625l-4.59375 0q-4.3125 0 -7.0625 -3.125q-1.109375 2.453125 -3.109375 3.71875l-1.1875 -1.40625zm9.046875 -13.59375l6.828125 0l0 3.9375l-1.484375 0l0 -2.515625l-12.3125 0l0 2.671875l-1.484375 0l0 -4.09375l6.75 0l0 -2.140625l1.640625 0q0.734375 0.140625 0.0625 0.59375l0 1.546875z"/><path fill="#000" fill-rule="nonzero" d="m102.18102 23.498123q2.625 2.328125 7.21875 3.5q-0.734375 0.796875 -1.015625 1.75q-4.078125 -1.3125 -7.4375 -4.15625q-2.546875 2.328125 -7.140625 4.15625q-0.4375 -0.875 -0.953125 -1.53125q4.078125 -1.03125 7.078125 -3.65625q-2.625 -2.984375 -4.734375 -9.328125q0.5 0 1.375 -0.578125q1.890625 5.984375 4.515625 8.75q2.703125 -3.140625 4.375 -9.109375q1.09375 0.5 1.671875 0.65625q-0.5 1.234375 -1.78125 4.265625q-1.265625 3.015625 -3.171875 5.28125zm-1.671875 -11.65625q1.3125 2.390625 2.046875 4.4375q-0.875 0.296875 -1.46875 0.578125q-0.71875 -2.109375 -1.890625 -4.359375q0.65625 -0.21875 1.3125 -0.65625z"/><path fill="#000" fill-rule="nonzero" d="m121.69665 15.935623q0.59375 0.078125 0.078125 0.4375l-0.140625 1.125q-0.375 2.59375 -3.859375 3.40625l-0.453125 -1.5625q2.671875 -0.359375 2.890625 -2.21875l0.15625 -1.34375l1.328125 0.15625zm4.15625 3.046875q0.53125 0 0.59375 -0.53125l0.15625 -0.953125l1.4843674 0.359375l-0.21874237 1.34375q-0.234375 1.1875 -1.265625 1.1875l-1.9375 0q-1.484375 0 -1.484375 -1.34375l0 -3.328125l1.421875 0q0.59375 0.0625 0.0625 0.4375l0 2.234375q0 0.59375 0.53125 0.59375l0.65625 0zm-13.28125 9.5l-0.21875 -1.40625l1.109375 0q0.296875 0 0.296875 -0.3125l0 -4.75l-1.484375 0.53125q-0.21875 0.734375 -0.4375 0.0625l-0.53125 -1.484375l2.453125 -0.59375l0 -3.78125l-2.0 0l0 -1.40625l2.0 0l0 -3.78125l1.40625 0q0.59375 0.0625 0.078125 0.4375l0 3.34375l1.484375 0l0 1.40625l-1.484375 0l0 3.421875l1.484375 -0.453125l0.21875 1.265625l-1.703125 0.59375l0 5.796875q0 1.109375 -1.03125 1.109375l-1.640625 0zm5.5 -5.34375l0 -1.421875l9.125 0l0 1.421875l-3.859375 0l0 3.328125l5.2656174 0l0 1.421875l-11.953117 0l0 -1.421875l5.203125 0l0 -3.328125l-3.78125 0zm5.265625 -9.5l5.0468674 0l0 3.40625l-1.4843674 0l0 -2.0l-8.234375 0l0 2.515625l-1.484375 0l0 -3.921875l4.671875 0l0 -2.15625l1.40625 0q0.59375 0.078125 0.078125 0.4375l0 1.71875zm21.515617 13.359375q0.296875 0 0.296875 -0.296875l0 -14.484375l1.421875 0q0.59375 0.078125 0.0625 0.453125l0 14.703125q0 1.03125 -1.03125 1.03125l-1.703125 0l-0.375 -1.40625l1.328125 0zm-11.34375 -12.703125l1.703125 0l0 -2.59375l1.40625 0q0.59375 0.078125 0.078125 0.453125l0 2.140625l3.34375 0l0 1.421875l-3.34375 0l0 1.921875l4.59375 0l0 1.40625l-4.59375 0l0 1.421875l3.484375 0l0 5.484375q0 1.046875 -1.03125 1.046875l-1.125 0l-0.296875 -1.421875l0.671875 0q0.296875 0 0.296875 -0.296875l0 -3.40625l-2.0 0l0 6.609375l-1.484375 0l0 -6.609375l-1.78125 0l0 5.125l-1.484375 0l0 -6.53125l3.265625 0l0 -1.421875l-4.671875 0l0 -1.40625l4.671875 0l0 -1.921875l-2.296875 0q-0.453125 0.8125 -0.96875 1.546875l-1.1875 -0.8125q1.109375 -1.5625 2.15625 -4.078125l1.328125 0.4375q0.296875 0.296875 -0.21875 0.375l-0.515625 1.109375zm8.453125 10.328125l0 -11.0625l1.40625 0q0.59375 0.078125 0.078125 0.4375l0 10.625l-1.484375 0z"/><path fill="#000" fill-rule="nonzero" d="m158.61852 15.763748q0 -2.328125 -0.0625 -3.859375q0.796875 0.21875 1.75 0.296875q-0.296875 1.15625 -0.21875 3.5625l3.921875 0q-0.140625 0.65625 -0.28125 2.1875l-0.515625 8.09375q-0.140625 1.171875 -0.875 1.421875q-0.71875 0.25 -2.03125 0.546875q-0.296875 -0.953125 -0.65625 -1.609375q1.53125 -0.0625 1.859375 -0.140625q0.328125 -0.078125 0.390625 -1.015625l0.515625 -8.3125l-2.40625 0q-0.078125 3.28125 -1.03125 6.203125q-0.9375 2.90625 -3.265625 5.234375q-0.4375 -0.578125 -1.75 -1.015625q1.671875 -0.875 3.046875 -3.5625q1.390625 -2.703125 1.546875 -6.859375q-1.390625 0 -2.78125 0.078125l0 -1.3125q1.390625 0.0625 2.84375 0.0625zm-7.140625 1.03125q0 -3.5 -0.0625 -4.671875l1.59375 0q-0.0625 1.171875 -0.0625 4.671875q1.375 0 2.328125 -0.078125l0 1.3125q-0.953125 -0.078125 -2.328125 -0.078125l0 8.015625q0 1.03125 0.0625 2.625l-1.59375 0q0.0625 -1.59375 0.0625 -2.625l0 -8.015625q-1.453125 0 -2.328125 0.078125l0 -1.3125q0.875 0.078125 2.328125 0.078125zm5.6875 2.84375q-0.4375 0.578125 -1.390625 3.703125q-0.71875 -0.28125 -1.375 -0.359375q1.015625 -2.6875 1.15625 -3.71875q0.59375 0.21875 1.609375 0.375zm8.015625 -0.515625q1.09375 2.328125 1.390625 3.421875q-0.8125 0.140625 -1.390625 0.515625q-0.4375 -1.53125 -1.234375 -3.359375q0.65625 -0.21875 1.234375 -0.578125zm10.421875 -4.8125q0.140625 1.671875 0.4375 2.953125q0.296875 1.28125 0.875 2.59375q0.578125 1.3125 1.828125 2.984375q0.9375 -1.828125 1.34375 -3.3125q0.40625 -1.5 0.6875 -2.953125q0.296875 -1.46875 0.515625 -3.359375q0.796875 0.21875 1.890625 0.359375q-0.4375 0.65625 -0.59375 1.28125q-0.140625 0.625 -0.359375 1.796875q-0.21875 1.15625 -0.65625 2.984375q-0.421875 1.8125 -1.734375 4.359375q1.15625 1.171875 2.3125 1.796875q1.171875 0.609375 2.859375 1.046875q-0.8125 0.59375 -1.3125 1.75q-1.90625 -1.09375 -2.78125 -1.640625q-0.859375 -0.546875 -2.109375 -1.859375q-1.3125 1.46875 -2.328125 2.234375q-1.015625 0.765625 -2.1875 1.5625q-0.65625 -0.515625 -1.609375 -1.3125q1.53125 -0.578125 2.875 -1.484375q1.359375 -0.921875 2.15625 -2.09375q-1.375 -1.8125 -2.03125 -3.40625q-0.65625 -1.609375 -0.984375 -2.953125q-0.328125 -1.359375 -0.625 -3.03125q0.734375 -0.078125 1.53125 -0.296875zm-4.953125 14.21875q-0.515625 -0.65625 -1.234375 -1.46875q1.015625 -0.65625 1.015625 -1.75l0 -6.484375l-0.953125 0q-0.71875 0 -1.59375 0.078125l0 -1.453125q0.875 0.140625 1.59375 0.140625l2.40625 0q-0.0625 1.234375 -0.0625 2.84375l0 4.59375q0.796875 -0.875 2.109375 -2.40625q0.28125 0.359375 0.9375 1.15625q-1.09375 1.09375 -2.1875 2.234375q-1.078125 1.125 -2.03125 2.515625zm7.578125 -16.984375q0.796875 3.5 1.234375 5.75q-0.875 0.078125 -1.453125 0.296875q-0.4375 -2.625 -1.234375 -5.609375q0.65625 -0.21875 1.453125 -0.4375zm-7.4375 0.296875q1.171875 1.953125 1.75 3.125q-0.65625 0.296875 -1.375 0.734375q-1.171875 -2.484375 -1.609375 -3.140625q0.65625 -0.28125 1.234375 -0.71875z"/><path fill="#000" fill-rule="nonzero" d="m185.80602 27.154373l3.875 -13.8125l1.3125 0l-3.859375 13.8125l-1.328125 0z"/><path fill="#000" fill-rule="nonzero" d="m191.95807 17.123123q5.421875 -1.78125 7.796875 -5.640625l1.78125 0.21875q0.296875 0.296875 -0.234375 0.375l-0.0625 0.140625q3.1875 3.34375 7.640625 4.390625l-0.8125 1.625q-2.078125 -0.59375 -3.859375 -1.78125l0 1.265625l-7.578125 0l0 -1.109375q-1.859375 1.25 -3.9375 2.0l-0.734375 -1.484375zm8.390625 -3.9375q-1.265625 1.703125 -3.265625 3.125l6.75 0q-1.484375 -0.96875 -3.484375 -3.125zm3.703125 12.09375l1.5625 0q0.21875 0 0.21875 -0.21875l0 -4.53125l-3.1875 0l0 8.171875l-1.484375 0l0 -9.578125l6.15625 0l0 6.3125q0 1.265625 -1.265625 1.265625l-1.78125 0l-0.21875 -1.421875zm-10.46875 -6.078125l5.9375 0l0 7.34375l-1.484375 0l0 -0.671875l-2.96875 0l0 1.125l-1.484375 0l0 -7.796875zm4.453125 1.40625l-2.96875 0l0 3.859375l2.96875 0l0 -3.859375zm22.421875 -8.6875q0.296875 0.296875 -0.21875 0.375q2.8125 3.421875 7.71875 4.96875l-0.671875 1.640625q-5.046875 -1.78125 -7.9375 -5.5625q-2.375 3.78125 -7.5 5.9375l-0.8125 -1.640625q5.265625 -1.78125 7.5625 -6.078125l1.859375 0.359375zm-4.671875 5.34375l7.484375 0l0 1.421875l-7.484375 0l0 -1.421875zm9.5 8.6875q0 1.046875 -0.96875 1.046875l-2.375 0l-0.21875 -1.421875l1.78125 0q0.296875 0 0.296875 -0.296875l0 -3.625l-4.6875 0l0 6.96875l-1.484375 0l0 -6.96875l-4.75 0l0 -1.421875l12.40625 0l0 5.71875zm10.390625 -12.6875q-2.3125 2.8125 -4.234375 3.9375l-0.890625 -1.34375q2.078125 -1.1875 4.15625 -3.9375l1.109375 0.96875q0.375 0.453125 -0.140625 0.375zm-1.046875 15.21875l-1.484375 0l0 -7.875q-0.734375 0.8125 -2.21875 1.78125l-0.96875 -1.484375q3.1875 -1.921875 5.421875 -5.421875l1.1875 0.96875q0.359375 0.453125 -0.15625 0.375q-0.890625 1.1875 -1.78125 2.296875l0 9.359375zm10.84375 -15.59375l0 1.40625l-8.015625 0l0 -1.40625l8.015625 0zm-8.84375 6.15625l0 -1.40625l10.328125 0l0 1.40625l-3.125 0l0 7.578125q0 1.5625 -1.265625 1.5625l-2.0 0l-0.296875 -1.421875l1.78125 0q0.296875 0 0.296875 -0.296875l0 -7.421875l-5.71875 0z"/><path fill="#000" fill-opacity="0" fill-rule="evenodd" d="m375.32285 183.25853l294.1417 0l0 49.76378l-294.1417 0z"/><path fill="#000" fill-rule="nonzero" d="m391.36972 205.05353q-0.890625 2.296875 -2.671875 4.3125l-0.8125 -1.125q1.703125 -2.078125 2.59375 -4.375q-1.109375 -1.625 -2.296875 -3.1875l0.75 -0.75q1.03125 1.1875 1.84375 2.3125q0.296875 -1.78125 0.453125 -3.640625l1.265625 0.296875q0.59375 0.21875 -0.078125 0.4375q-0.21875 1.78125 -0.59375 4.09375q1.03125 1.40625 1.921875 2.734375l-0.734375 1.265625q-0.8125 -1.1875 -1.640625 -2.375zm-3.859375 -7.5625l0 13.734375l-1.484375 0l0 -15.15625l15.375 0l0 13.8125q0 1.1875 -1.125 1.1875l-1.84375 0l-0.296875 -1.40625l1.546875 0q0.234375 0 0.234375 -0.234375l0 -11.9375l-12.40625 0zm8.765625 5.1875q0.4375 -2.21875 0.59375 -4.15625l1.1875 0.15625q0.734375 0.21875 0 0.515625q-0.21875 2.078125 -0.8125 4.59375q1.109375 1.5625 1.921875 2.96875l-0.734375 1.1875q-0.890625 -1.484375 -1.71875 -2.734375q-1.109375 2.890625 -2.59375 4.453125l-0.8125 -1.1875q1.484375 -1.5625 2.453125 -4.390625q-1.125 -1.78125 -2.234375 -3.109375l0.75 -0.8125q0.890625 1.03125 2.0 2.515625z"/><path fill="#000" fill-rule="nonzero" d="m410.32285 201.14728q0.796875 -0.875 1.296875 -1.75q0.515625 -0.875 0.984375 -1.9375q0.484375 -1.0625 0.78125 -2.4375q0.796875 0.359375 1.75 0.515625q-0.4375 0.640625 -0.953125 1.671875l5.90625 0q-1.09375 2.1875 -1.828125 3.28125q-0.734375 1.09375 -1.53125 1.96875q0.953125 0.65625 2.265625 1.09375q1.3125 0.4375 2.40625 0.65625q-0.375 0.578125 -0.734375 1.515625q-0.734375 -0.21875 -1.3125 -0.421875q-0.140625 1.015625 -0.140625 1.890625l0 2.625q0 1.09375 0.0625 2.25l-1.375 0l0 -1.375l-4.375 0l0 1.53125l-1.390625 0q0.078125 -1.09375 0.078125 -2.046875l0 -2.921875q0 -0.578125 -0.078125 -1.953125q-0.4375 0.203125 -1.234375 0.5q-0.296875 -0.796875 -0.796875 -1.375q1.09375 -0.296875 2.4375 -0.84375q1.34375 -0.546875 2.15625 -1.203125q-0.953125 -1.234375 -1.609375 -2.765625q-0.796875 1.234375 -1.609375 2.328125q-0.4375 -0.4375 -1.15625 -0.796875zm-1.6875 -4.75q-0.5 0.65625 -1.15625 2.015625q-0.65625 1.34375 -1.53125 2.875l2.046875 0q0.796875 -1.53125 1.15625 -2.703125q0.734375 0.59375 1.453125 0.953125q-0.4375 0.515625 -1.3125 2.078125q-0.875 1.5625 -2.390625 4.109375q2.171875 -0.359375 3.125 -0.5q-0.078125 0.9375 0 1.375q-1.75 0.21875 -2.703125 0.40625q-0.9375 0.1875 -2.171875 0.46875q-0.21875 -0.796875 -0.515625 -1.375q0.734375 -0.296875 1.421875 -1.3125q0.6875 -1.015625 1.421875 -2.484375q-1.96875 0.078125 -2.984375 0.515625q-0.21875 -0.65625 -0.515625 -1.453125q0.875 -0.4375 1.75 -2.21875q0.875 -1.796875 1.3125 -3.546875q0.796875 0.515625 1.59375 0.796875zm9.265625 13.125l0 -3.140625l-4.375 0l0 3.140625l4.375 0zm-7.65625 -1.390625q0.140625 0.734375 0.140625 1.3125q-0.796875 0.15625 -2.296875 0.671875q-1.484375 0.5 -2.875 1.078125q-0.28125 -0.875 -0.65625 -1.59375q1.828125 -0.375 3.03125 -0.65625q1.203125 -0.296875 2.65625 -0.8125zm5.546875 -6.625q0.4375 -0.4375 1.046875 -1.3125q0.625 -0.875 1.0625 -1.828125l-3.9375 0q0.734375 1.828125 1.828125 3.140625zm3.484375 3.71875q-1.015625 -0.4375 -1.921875 -0.875q-0.90625 -0.4375 -1.71875 -1.015625q-0.875 0.578125 -1.640625 1.015625q-0.765625 0.4375 -1.703125 0.875l6.984375 0zm9.328125 -2.40625q1.171875 0.078125 2.625 0.078125l6.5625 0q-0.4375 1.3125 -1.203125 2.875q-0.765625 1.5625 -2.078125 3.09375q2.328125 1.53125 5.390625 1.609375q-0.578125 0.65625 -0.875 1.53125q-3.125 -0.65625 -5.609375 -2.265625q-0.9375 0.578125 -2.25 1.265625q-1.3125 0.703125 -2.84375 1.140625q-0.296875 -0.578125 -1.09375 -1.09375q1.59375 -0.296875 3.015625 -0.953125q1.421875 -0.65625 2.15625 -1.3125q-1.609375 -1.671875 -2.625 -4.734375l-1.171875 0l0 -1.234375zm7.4375 -0.734375q-1.234375 0 -1.3125 -1.015625l0 -4.078125l-3.203125 0q0 2.03125 -0.484375 3.203125q-0.46875 1.171875 -2.0 2.40625q-0.28125 -0.515625 -1.15625 -0.875q1.8125 -1.234375 2.0625 -2.84375q0.265625 -1.609375 0.1875 -3.0625l6.125 0q-0.078125 0.875 -0.078125 2.1875l0 1.96875q0 0.578125 0.40625 0.6875q0.40625 0.109375 1.125 0.078125q0.734375 -0.03125 1.6875 -0.109375q-0.15625 0.734375 0 1.453125l-3.359375 0zm-9.25 -1.3125q-0.078125 1.3125 -0.078125 2.921875l0 4.4375q0.953125 -0.875 1.609375 -1.75q0.21875 0.734375 0.71875 1.53125q-0.9375 0.875 -1.75 1.6875q-0.796875 0.796875 -1.453125 1.75q-0.5 -0.8125 -1.09375 -1.25q0.59375 -0.578125 0.59375 -1.671875l0 -6.40625q-1.53125 0 -2.5625 0.0625l0 -1.375q0.953125 0.0625 1.96875 0.0625l2.046875 0zm6.703125 7.078125q1.453125 -1.46875 2.265625 -3.796875l-4.53125 0q0.515625 2.265625 2.265625 3.796875zm-8.53125 -12.75q1.171875 0.9375 2.84375 2.984375q-0.578125 0.359375 -1.15625 0.9375q-1.25 -1.671875 -2.625 -2.984375q0.4375 -0.28125 0.9375 -0.9375zm30.53125 9.171875q-0.0625 1.3125 -0.0625 3.859375q0 2.484375 0.0625 3.875l-1.375 0l0 -0.953125l-8.234375 0l0 0.953125l-1.390625 0q0.078125 -1.390625 0.078125 -3.875q0 -2.546875 -0.078125 -3.859375l11.0 0zm-13.328125 0.4375q-0.140625 -0.65625 -0.796875 -1.375q1.8125 -0.15625 3.953125 -0.59375q2.15625 -0.4375 3.46875 -1.15625q-1.671875 -1.390625 -2.765625 -2.484375q-0.875 0.875 -2.03125 1.890625q-0.65625 -0.578125 -1.171875 -0.796875q2.84375 -2.1875 4.4375 -5.46875q0.734375 0.4375 1.53125 0.734375l-0.578125 0.578125q-0.21875 0.21875 -0.734375 0.875l8.09375 0q-0.65625 1.234375 -1.71875 2.4375q-1.046875 1.203125 -2.5 2.296875q1.15625 0.59375 3.375 0.953125q2.234375 0.359375 3.90625 0.21875q-0.4375 0.734375 -0.65625 1.53125q-2.625 -0.296875 -4.375 -0.625q-1.75 -0.328125 -3.5625 -1.265625q-2.046875 0.9375 -4.265625 1.453125q-2.21875 0.515625 -3.609375 0.796875zm4.59375 -6.5625q1.53125 1.46875 3.421875 2.78125q1.53125 -0.953125 3.203125 -3.0l-6.40625 0l-0.21875 0.21875zm7.359375 8.96875l0 -1.75l-3.5 0l0 1.75l3.5 0zm-4.8125 0l0 -1.75l-3.421875 0l0 1.75l3.421875 0zm4.8125 2.765625l0 -1.671875l-3.5 0l0 1.671875l3.5 0zm-4.8125 0l0 -1.671875l-3.421875 0l0 1.671875l3.421875 0z"/><path fill="#000" fill-opacity="0" fill-rule="evenodd" d="m680.3963 317.12073l115.62207 0l0 49.763794l-115.62207 0z"/><path fill="#000" fill-rule="nonzero" d="m696.4432 338.91574q-0.890625 2.296875 -2.671875 4.3125l-0.8125 -1.125q1.703125 -2.078125 2.59375 -4.375q-1.109375 -1.625 -2.296875 -3.1875l0.75 -0.75q1.03125 1.1875 1.84375 2.3125q0.296875 -1.78125 0.453125 -3.640625l1.265625 0.296875q0.59375 0.21875 -0.078125 0.4375q-0.21875 1.78125 -0.59375 4.09375q1.03125 1.40625 1.921875 2.734375l-0.734375 1.265625q-0.8125 -1.1875 -1.640625 -2.375zm-3.859375 -7.5625l0 13.734375l-1.484375 0l0 -15.15625l15.375 0l0 13.8125q0 1.1875 -1.125 1.1875l-1.84375 0l-0.296875 -1.40625l1.546875 0q0.234375 0 0.234375 -0.234375l0 -11.9375l-12.40625 0zm8.765625 5.1875q0.4375 -2.21875 0.59375 -4.15625l1.1875 0.15625q0.734375 0.21875 0 0.515625q-0.21875 2.078125 -0.8125 4.59375q1.109375 1.5625 1.921875 2.96875l-0.734375 1.1875q-0.890625 -1.484375 -1.71875 -2.734375q-1.109375 2.890625 -2.59375 4.453125l-0.8125 -1.1875q1.484375 -1.5625 2.453125 -4.390625q-1.125 -1.78125 -2.234375 -3.109375l0.75 -0.8125q0.890625 1.03125 2.0 2.515625z"/><path fill="#000" fill-rule="nonzero" d="m715.3963 335.0095q0.796875 -0.875 1.296875 -1.75q0.515625 -0.875 0.984375 -1.9375q0.484375 -1.0625 0.78125 -2.4375q0.796875 0.359375 1.75 0.515625q-0.4375 0.640625 -0.953125 1.671875l5.90625 0q-1.09375 2.1875 -1.828125 3.28125q-0.734375 1.09375 -1.53125 1.96875q0.953125 0.65625 2.265625 1.09375q1.3125 0.4375 2.40625 0.65625q-0.375 0.578125 -0.734375 1.515625q-0.734375 -0.21875 -1.3125 -0.421875q-0.140625 1.015625 -0.140625 1.890625l0 2.625q0 1.09375 0.0625 2.25l-1.375 0l0 -1.375l-4.375 0l0 1.53125l-1.390625 0q0.078125 -1.09375 0.078125 -2.046875l0 -2.921875q0 -0.578125 -0.078125 -1.953125q-0.4375 0.203125 -1.234375 0.5q-0.296875 -0.796875 -0.796875 -1.375q1.09375 -0.296875 2.4375 -0.84375q1.34375 -0.546875 2.15625 -1.203125q-0.953125 -1.234375 -1.609375 -2.765625q-0.796875 1.234375 -1.609375 2.328125q-0.4375 -0.4375 -1.15625 -0.796875zm-1.6875 -4.75q-0.5 0.65625 -1.15625 2.015625q-0.65625 1.34375 -1.53125 2.875l2.046875 0q0.796875 -1.53125 1.15625 -2.703125q0.734375 0.59375 1.453125 0.953125q-0.4375 0.515625 -1.3125 2.078125q-0.875 1.5625 -2.390625 4.109375q2.171875 -0.359375 3.125 -0.5q-0.078125 0.9375 0 1.375q-1.75 0.21875 -2.703125 0.40625q-0.9375 0.1875 -2.171875 0.46875q-0.21875 -0.796875 -0.515625 -1.375q0.734375 -0.296875 1.421875 -1.3125q0.6875 -1.015625 1.421875 -2.484375q-1.96875 0.078125 -2.984375 0.515625q-0.21875 -0.65625 -0.515625 -1.453125q0.875 -0.4375 1.75 -2.21875q0.875 -1.796875 1.3125 -3.546875q0.796875 0.515625 1.59375 0.796875zm9.265625 13.125l0 -3.140625l-4.375 0l0 3.140625l4.375 0zm-7.65625 -1.390625q0.140625 0.734375 0.140625 1.3125q-0.796875 0.15625 -2.296875 0.671875q-1.484375 0.5 -2.875 1.078125q-0.28125 -0.875 -0.65625 -1.59375q1.828125 -0.375 3.03125 -0.65625q1.203125 -0.296875 2.65625 -0.8125zm5.546875 -6.625q0.4375 -0.4375 1.046875 -1.3125q0.625 -0.875 1.0625 -1.828125l-3.9375 0q0.734375 1.828125 1.828125 3.140625zm3.484375 3.71875q-1.015625 -0.4375 -1.921875 -0.875q-0.90625 -0.4375 -1.71875 -1.015625q-0.875 0.578125 -1.640625 1.015625q-0.765625 0.4375 -1.703125 0.875l6.984375 0zm9.328125 -2.40625q1.171875 0.078125 2.625 0.078125l6.5625 0q-0.4375 1.3125 -1.203125 2.875q-0.765625 1.5625 -2.078125 3.09375q2.328125 1.53125 5.390625 1.609375q-0.578125 0.65625 -0.875 1.53125q-3.125 -0.65625 -5.609375 -2.265625q-0.9375 0.578125 -2.25 1.265625q-1.3125 0.703125 -2.84375 1.140625q-0.296875 -0.578125 -1.09375 -1.09375q1.59375 -0.296875 3.015625 -0.953125q1.421875 -0.65625 2.15625 -1.3125q-1.609375 -1.671875 -2.625 -4.734375l-1.171875 0l0 -1.234375zm7.4375 -0.734375q-1.234375 0 -1.3125 -1.015625l0 -4.078125l-3.203125 0q0 2.03125 -0.484375 3.203125q-0.46875 1.171875 -2.0 2.40625q-0.28125 -0.515625 -1.15625 -0.875q1.8125 -1.234375 2.0625 -2.84375q0.265625 -1.609375 0.1875 -3.0625l6.125 0q-0.078125 0.875 -0.078125 2.1875l0 1.96875q0 0.578125 0.40625 0.6875q0.40625 0.109375 1.125 0.078125q0.734375 -0.03125 1.6875 -0.109375q-0.15625 0.734375 0 1.453125l-3.359375 0zm-9.25 -1.3125q-0.078125 1.3125 -0.078125 2.921875l0 4.4375q0.953125 -0.875 1.609375 -1.75q0.21875 0.734375 0.71875 1.53125q-0.9375 0.875 -1.75 1.6875q-0.796875 0.796875 -1.453125 1.75q-0.5 -0.8125 -1.09375 -1.25q0.59375 -0.578125 0.59375 -1.671875l0 -6.40625q-1.53125 0 -2.5625 0.0625l0 -1.375q0.953125 0.0625 1.96875 0.0625l2.046875 0zm6.703125 7.078125q1.453125 -1.46875 2.265625 -3.796875l-4.53125 0q0.515625 2.265625 2.265625 3.796875zm-8.53125 -12.75q1.171875 0.9375 2.84375 2.984375q-0.578125 0.359375 -1.15625 0.9375q-1.25 -1.671875 -2.625 -2.984375q0.4375 -0.28125 0.9375 -0.9375zm30.53125 9.171875q-0.0625 1.3125 -0.0625 3.859375q0 2.484375 0.0625 3.875l-1.375 0l0 -0.953125l-8.234375 0l0 0.953125l-1.390625 0q0.078125 -1.390625 0.078125 -3.875q0 -2.546875 -0.078125 -3.859375l11.0 0zm-13.328125 0.4375q-0.140625 -0.65625 -0.796875 -1.375q1.8125 -0.15625 3.953125 -0.59375q2.15625 -0.4375 3.46875 -1.15625q-1.671875 -1.390625 -2.765625 -2.484375q-0.875 0.875 -2.03125 1.890625q-0.65625 -0.578125 -1.171875 -0.796875q2.84375 -2.1875 4.4375 -5.46875q0.734375 0.4375 1.53125 0.734375l-0.578125 0.578125q-0.21875 0.21875 -0.734375 0.875l8.09375 0q-0.65625 1.234375 -1.71875 2.4375q-1.046875 1.203125 -2.5 2.296875q1.15625 0.59375 3.375 0.953125q2.234375 0.359375 3.90625 0.21875q-0.4375 0.734375 -0.65625 1.53125q-2.625 -0.296875 -4.375 -0.625q-1.75 -0.328125 -3.5625 -1.265625q-2.046875 0.9375 -4.265625 1.453125q-2.21875 0.515625 -3.609375 0.796875zm4.59375 -6.5625q1.53125 1.46875 3.421875 2.78125q1.53125 -0.953125 3.203125 -3.0l-6.40625 0l-0.21875 0.21875zm7.359375 8.96875l0 -1.75l-3.5 0l0 1.75l3.5 0zm-4.8125 0l0 -1.75l-3.421875 0l0 1.75l3.421875 0zm4.8125 2.765625l0 -1.671875l-3.5 0l0 1.671875l3.5 0zm-4.8125 0l0 -1.671875l-3.421875 0l0 1.671875l3.421875 0z"/><path fill="#000" fill-opacity="0" fill-rule="evenodd" d="m367.38583 453.2546l115.62204 0l0 49.763763l-115.62204 0z"/><path fill="#000" fill-rule="nonzero" d="m383.4327 475.0496q-0.890625 2.296875 -2.671875 4.3125l-0.8125 -1.125q1.703125 -2.078125 2.59375 -4.375q-1.109375 -1.625 -2.296875 -3.1875l0.75 -0.75q1.03125 1.1875 1.84375 2.3125q0.296875 -1.78125 0.453125 -3.640625l1.265625 0.296875q0.59375 0.21875 -0.078125 0.4375q-0.21875 1.78125 -0.59375 4.09375q1.03125 1.40625 1.921875 2.734375l-0.734375 1.265625q-0.8125 -1.1875 -1.640625 -2.375zm-3.859375 -7.5625l0 13.734375l-1.484375 0l0 -15.15625l15.375 0l0 13.8125q0 1.1875 -1.125 1.1875l-1.84375 0l-0.296875 -1.40625l1.546875 0q0.234375 0 0.234375 -0.234375l0 -11.9375l-12.40625 0zm8.765625 5.1875q0.4375 -2.21875 0.59375 -4.15625l1.1875 0.15625q0.734375 0.21875 0 0.515625q-0.21875 2.078125 -0.8125 4.59375q1.109375 1.5625 1.921875 2.96875l-0.734375 1.1875q-0.890625 -1.484375 -1.71875 -2.734375q-1.109375 2.890625 -2.59375 4.453125l-0.8125 -1.1875q1.484375 -1.5625 2.453125 -4.390625q-1.125 -1.78125 -2.234375 -3.109375l0.75 -0.8125q0.890625 1.03125 2.0 2.515625z"/><path fill="#000" fill-rule="nonzero" d="m402.38583 471.14334q0.796875 -0.875 1.296875 -1.75q0.515625 -0.875 0.984375 -1.9375q0.484375 -1.0625 0.78125 -2.4375q0.796875 0.359375 1.75 0.515625q-0.4375 0.640625 -0.953125 1.671875l5.90625 0q-1.09375 2.1875 -1.828125 3.28125q-0.734375 1.09375 -1.53125 1.96875q0.953125 0.65625 2.265625 1.09375q1.3125 0.4375 2.40625 0.65625q-0.375 0.578125 -0.734375 1.515625q-0.734375 -0.21875 -1.3125 -0.421875q-0.140625 1.015625 -0.140625 1.890625l0 2.625q0 1.09375 0.0625 2.25l-1.375 0l0 -1.375l-4.375 0l0 1.53125l-1.390625 0q0.078125 -1.09375 0.078125 -2.046875l0 -2.921875q0 -0.578125 -0.078125 -1.953125q-0.4375 0.203125 -1.234375 0.5q-0.296875 -0.796875 -0.796875 -1.375q1.09375 -0.296875 2.4375 -0.84375q1.34375 -0.546875 2.15625 -1.203125q-0.953125 -1.234375 -1.609375 -2.765625q-0.796875 1.234375 -1.609375 2.328125q-0.4375 -0.4375 -1.15625 -0.796875zm-1.6875 -4.75q-0.5 0.65625 -1.15625 2.015625q-0.65625 1.34375 -1.53125 2.875l2.046875 0q0.796875 -1.53125 1.15625 -2.703125q0.734375 0.59375 1.453125 0.953125q-0.4375 0.515625 -1.3125 2.078125q-0.875 1.5625 -2.390625 4.109375q2.171875 -0.359375 3.125 -0.5q-0.078125 0.9375 0 1.375q-1.75 0.21875 -2.703125 0.40625q-0.9375 0.1875 -2.171875 0.46875q-0.21875 -0.796875 -0.515625 -1.375q0.734375 -0.296875 1.421875 -1.3125q0.6875 -1.015625 1.421875 -2.484375q-1.96875 0.078125 -2.984375 0.515625q-0.21875 -0.65625 -0.515625 -1.453125q0.875 -0.4375 1.75 -2.21875q0.875 -1.796875 1.3125 -3.546875q0.796875 0.515625 1.59375 0.796875zm9.265625 13.125l0 -3.140625l-4.375 0l0 3.140625l4.375 0zm-7.65625 -1.390625q0.140625 0.734375 0.140625 1.3125q-0.796875 0.15625 -2.296875 0.671875q-1.484375 0.5 -2.875 1.078125q-0.28125 -0.875 -0.65625 -1.59375q1.828125 -0.375 3.03125 -0.65625q1.203125 -0.296875 2.65625 -0.8125zm5.546875 -6.625q0.4375 -0.4375 1.046875 -1.3125q0.625 -0.875 1.0625 -1.828125l-3.9375 0q0.734375 1.828125 1.828125 3.140625zm3.484375 3.71875q-1.015625 -0.4375 -1.921875 -0.875q-0.90625 -0.4375 -1.71875 -1.015625q-0.875 0.578125 -1.640625 1.015625q-0.765625 0.4375 -1.703125 0.875l6.984375 0zm9.328125 -2.40625q1.171875 0.078125 2.625 0.078125l6.5625 0q-0.4375 1.3125 -1.203125 2.875q-0.765625 1.5625 -2.078125 3.09375q2.328125 1.53125 5.390625 1.609375q-0.578125 0.65625 -0.875 1.53125q-3.125 -0.65625 -5.609375 -2.265625q-0.9375 0.578125 -2.25 1.265625q-1.3125 0.703125 -2.84375 1.140625q-0.296875 -0.578125 -1.09375 -1.09375q1.59375 -0.296875 3.015625 -0.953125q1.421875 -0.65625 2.15625 -1.3125q-1.609375 -1.671875 -2.625 -4.734375l-1.171875 0l0 -1.234375zm7.4375 -0.734375q-1.234375 0 -1.3125 -1.015625l0 -4.078125l-3.203125 0q0 2.03125 -0.484375 3.203125q-0.46875 1.171875 -2.0 2.40625q-0.28125 -0.515625 -1.15625 -0.875q1.8125 -1.234375 2.0625 -2.84375q0.265625 -1.609375 0.1875 -3.0625l6.125 0q-0.078125 0.875 -0.078125 2.1875l0 1.96875q0 0.578125 0.40625 0.6875q0.40625 0.109375 1.125 0.078125q0.734375 -0.03125 1.6875 -0.109375q-0.15625 0.734375 0 1.453125l-3.359375 0zm-9.25 -1.3125q-0.078125 1.3125 -0.078125 2.921875l0 4.4375q0.953125 -0.875 1.609375 -1.75q0.21875 0.734375 0.71875 1.53125q-0.9375 0.875 -1.75 1.6875q-0.796875 0.796875 -1.453125 1.75q-0.5 -0.8125 -1.09375 -1.25q0.59375 -0.578125 0.59375 -1.671875l0 -6.40625q-1.53125 0 -2.5625 0.0625l0 -1.375q0.953125 0.0625 1.96875 0.0625l2.046875 0zm6.703125 7.078125q1.453125 -1.46875 2.265625 -3.796875l-4.53125 0q0.515625 2.265625 2.265625 3.796875zm-8.53125 -12.75q1.171875 0.9375 2.84375 2.984375q-0.578125 0.359375 -1.15625 0.9375q-1.25 -1.671875 -2.625 -2.984375q0.4375 -0.28125 0.9375 -0.9375zm30.53125 9.171875q-0.0625 1.3125 -0.0625 3.859375q0 2.484375 0.0625 3.875l-1.375 0l0 -0.953125l-8.234375 0l0 0.953125l-1.390625 0q0.078125 -1.390625 0.078125 -3.875q0 -2.546875 -0.078125 -3.859375l11.0 0zm-13.328125 0.4375q-0.140625 -0.65625 -0.796875 -1.375q1.8125 -0.15625 3.953125 -0.59375q2.15625 -0.4375 3.46875 -1.15625q-1.671875 -1.390625 -2.765625 -2.484375q-0.875 0.875 -2.03125 1.890625q-0.65625 -0.578125 -1.171875 -0.796875q2.84375 -2.1875 4.4375 -5.46875q0.734375 0.4375 1.53125 0.734375l-0.578125 0.578125q-0.21875 0.21875 -0.734375 0.875l8.09375 0q-0.65625 1.234375 -1.71875 2.4375q-1.046875 1.203125 -2.5 2.296875q1.15625 0.59375 3.375 0.953125q2.234375 0.359375 3.90625 0.21875q-0.4375 0.734375 -0.65625 1.53125q-2.625 -0.296875 -4.375 -0.625q-1.75 -0.328125 -3.5625 -1.265625q-2.046875 0.9375 -4.265625 1.453125q-2.21875 0.515625 -3.609375 0.796875zm4.59375 -6.5625q1.53125 1.46875 3.421875 2.78125q1.53125 -0.953125 3.203125 -3.0l-6.40625 0l-0.21875 0.21875zm7.359375 8.96875l0 -1.75l-3.5 0l0 1.75l3.5 0zm-4.8125 0l0 -1.75l-3.421875 0l0 1.75l3.421875 0zm4.8125 2.765625l0 -1.671875l-3.5 0l0 1.671875l3.5 0zm-4.8125 0l0 -1.671875l-3.421875 0l0 1.671875l3.421875 0z"/><path fill="#000" fill-opacity="0" fill-rule="evenodd" d="m76.16798 316.47244l115.62205 0l0 49.763763l-115.62205 0z"/><path fill="#000" fill-rule="nonzero" d="m92.21485 338.26743q-0.890625 2.296875 -2.671875 4.3125l-0.8125 -1.125q1.703125 -2.078125 2.59375 -4.375q-1.109375 -1.625 -2.296875 -3.1875l0.75 -0.75q1.03125 1.1875 1.84375 2.3125q0.296875 -1.78125 0.453125 -3.640625l1.265625 0.296875q0.59375 0.21875 -0.078125 0.4375q-0.21875 1.78125 -0.59375 4.09375q1.03125 1.40625 1.921875 2.734375l-0.734375 1.265625q-0.8125 -1.1875 -1.640625 -2.375zm-3.859375 -7.5625l0 13.734375l-1.484375 0l0 -15.15625l15.375 0l0 13.8125q0 1.1875 -1.125 1.1875l-1.84375 0l-0.296875 -1.40625l1.546875 0q0.234375 0 0.234375 -0.234375l0 -11.9375l-12.40625 0zm8.765625 5.1875q0.4375 -2.21875 0.59375 -4.15625l1.1875 0.15625q0.734375 0.21875 0 0.515625q-0.21875 2.078125 -0.8125 4.59375q1.109375 1.5625 1.921875 2.96875l-0.734375 1.1875q-0.890625 -1.484375 -1.71875 -2.734375q-1.109375 2.890625 -2.59375 4.453125l-0.8125 -1.1875q1.484375 -1.5625 2.453125 -4.390625q-1.125 -1.78125 -2.234375 -3.109375l0.75 -0.8125q0.890625 1.03125 2.0 2.515625z"/><path fill="#000" fill-rule="nonzero" d="m111.16798 334.36118q0.796875 -0.875 1.296875 -1.75q0.515625 -0.875 0.984375 -1.9375q0.484375 -1.0625 0.78125 -2.4375q0.796875 0.359375 1.75 0.515625q-0.4375 0.640625 -0.953125 1.671875l5.90625 0q-1.09375 2.1875 -1.828125 3.28125q-0.734375 1.09375 -1.53125 1.96875q0.953125 0.65625 2.265625 1.09375q1.3125 0.4375 2.40625 0.65625q-0.375 0.578125 -0.734375 1.515625q-0.734375 -0.21875 -1.3125 -0.421875q-0.140625 1.015625 -0.140625 1.890625l0 2.625q0 1.09375 0.0625 2.25l-1.375 0l0 -1.375l-4.375 0l0 1.53125l-1.390625 0q0.078125 -1.09375 0.078125 -2.046875l0 -2.921875q0 -0.578125 -0.078125 -1.953125q-0.4375 0.203125 -1.234375 0.5q-0.296875 -0.796875 -0.796875 -1.375q1.09375 -0.296875 2.4375 -0.84375q1.34375 -0.546875 2.15625 -1.203125q-0.953125 -1.234375 -1.609375 -2.765625q-0.796875 1.234375 -1.609375 2.328125q-0.4375 -0.4375 -1.15625 -0.796875zm-1.6875 -4.75q-0.5 0.65625 -1.15625 2.015625q-0.65625 1.34375 -1.53125 2.875l2.046875 0q0.796875 -1.53125 1.15625 -2.703125q0.734375 0.59375 1.453125 0.953125q-0.4375 0.515625 -1.3125 2.078125q-0.875 1.5625 -2.390625 4.109375q2.171875 -0.359375 3.125 -0.5q-0.078125 0.9375 0 1.375q-1.75 0.21875 -2.703125 0.40625q-0.9375 0.1875 -2.171875 0.46875q-0.21875 -0.796875 -0.515625 -1.375q0.734375 -0.296875 1.421875 -1.3125q0.6875 -1.015625 1.421875 -2.484375q-1.96875 0.078125 -2.984375 0.515625q-0.21875 -0.65625 -0.515625 -1.453125q0.875 -0.4375 1.75 -2.21875q0.875 -1.796875 1.3125 -3.546875q0.796875 0.515625 1.59375 0.796875zm9.265625 13.125l0 -3.140625l-4.375 0l0 3.140625l4.375 0zm-7.65625 -1.390625q0.140625 0.734375 0.140625 1.3125q-0.796875 0.15625 -2.296875 0.671875q-1.484375 0.5 -2.875 1.078125q-0.28125 -0.875 -0.65625 -1.59375q1.828125 -0.375 3.03125 -0.65625q1.203125 -0.296875 2.65625 -0.8125zm5.546875 -6.625q0.4375 -0.4375 1.046875 -1.3125q0.625 -0.875 1.0625 -1.828125l-3.9375 0q0.734375 1.828125 1.828125 3.140625zm3.484375 3.71875q-1.015625 -0.4375 -1.921875 -0.875q-0.90625 -0.4375 -1.71875 -1.015625q-0.875 0.578125 -1.640625 1.015625q-0.765625 0.4375 -1.703125 0.875l6.984375 0zm9.328133 -2.40625q1.171875 0.078125 2.625 0.078125l6.5625 0q-0.4375 1.3125 -1.203125 2.875q-0.765625 1.5625 -2.078125 3.09375q2.328125 1.53125 5.390625 1.609375q-0.578125 0.65625 -0.875 1.53125q-3.125 -0.65625 -5.609375 -2.265625q-0.9375 0.578125 -2.25 1.265625q-1.3125 0.703125 -2.84375 1.140625q-0.296875 -0.578125 -1.09375 -1.09375q1.59375 -0.296875 3.015625 -0.953125q1.421875 -0.65625 2.15625 -1.3125q-1.609375 -1.671875 -2.625 -4.734375l-1.171875 0l0 -1.234375zm7.4375 -0.734375q-1.234375 0 -1.3125 -1.015625l0 -4.078125l-3.203125 0q0 2.03125 -0.484375 3.203125q-0.46875 1.171875 -2.0 2.40625q-0.28125 -0.515625 -1.15625 -0.875q1.8125 -1.234375 2.0625 -2.84375q0.265625 -1.609375 0.1875 -3.0625l6.125 0q-0.078125 0.875 -0.078125 2.1875l0 1.96875q0 0.578125 0.40625 0.6875q0.40625 0.109375 1.125 0.078125q0.734375 -0.03125 1.6875 -0.109375q-0.15625 0.734375 0 1.453125l-3.359375 0zm-9.250008 -1.3125q-0.078125 1.3125 -0.078125 2.921875l0 4.4375q0.9531326 -0.875 1.6093826 -1.75q0.21875 0.734375 0.71875 1.53125q-0.9375 0.875 -1.75 1.6875q-0.7968826 0.796875 -1.4531326 1.75q-0.5 -0.8125 -1.09375 -1.25q0.59375 -0.578125 0.59375 -1.671875l0 -6.40625q-1.53125 0 -2.5625 0.0625l0 -1.375q0.953125 0.0625 1.96875 0.0625l2.046875 0zm6.7031326 7.078125q1.453125 -1.46875 2.265625 -3.796875l-4.53125 0q0.515625 2.265625 2.265625 3.796875zm-8.531258 -12.75q1.171875 0.9375 2.8437576 2.984375q-0.578125 0.359375 -1.1562576 0.9375q-1.25 -1.671875 -2.625 -2.984375q0.4375 -0.28125 0.9375 -0.9375zm30.531258 9.171875q-0.0625 1.3125 -0.0625 3.859375q0 2.484375 0.0625 3.875l-1.375 0l0 -0.953125l-8.234375 0l0 0.953125l-1.390625 0q0.078125 -1.390625 0.078125 -3.875q0 -2.546875 -0.078125 -3.859375l11.0 0zm-13.328125 0.4375q-0.140625 -0.65625 -0.796875 -1.375q1.8125 -0.15625 3.953125 -0.59375q2.15625 -0.4375 3.46875 -1.15625q-1.671875 -1.390625 -2.765625 -2.484375q-0.875 0.875 -2.03125 1.890625q-0.65625 -0.578125 -1.171875 -0.796875q2.84375 -2.1875 4.4375 -5.46875q0.734375 0.4375 1.53125 0.734375l-0.578125 0.578125q-0.21875 0.21875 -0.734375 0.875l8.09375 0q-0.65625 1.234375 -1.71875 2.4375q-1.046875 1.203125 -2.5 2.296875q1.15625 0.59375 3.375 0.953125q2.234375 0.359375 3.90625 0.21875q-0.4375 0.734375 -0.65625 1.53125q-2.625 -0.296875 -4.375 -0.625q-1.75 -0.328125 -3.5625 -1.265625q-2.046875 0.9375 -4.265625 1.453125q-2.21875 0.515625 -3.609375 0.796875zm4.59375 -6.5625q1.53125 1.46875 3.421875 2.78125q1.53125 -0.953125 3.203125 -3.0l-6.40625 0l-0.21875 0.21875zm7.359375 8.96875l0 -1.75l-3.5 0l0 1.75l3.5 0zm-4.8125 0l0 -1.75l-3.421875 0l0 1.75l3.421875 0zm4.8125 2.765625l0 -1.671875l-3.5 0l0 1.671875l3.5 0zm-4.8125 0l0 -1.671875l-3.421875 0l0 1.671875l3.421875 0z"/><path fill="#000" fill-opacity="0" fill-rule="evenodd" d="m359.32285 115.708664l-97.82678 -90.83465"/><path fill-rule="evenodd" stroke="#000" stroke-dasharray="16 6" stroke-linecap="butt" stroke-linejoin="round" stroke-width="2" d="m359.32285 115.708664l-92.803986 -86.17084"/><path fill="#000" fill-rule="evenodd" stroke="#000" stroke-linecap="butt" stroke-width="2" d="m266.51886 29.53782l3.1786194 -0.11780548l-6.0588074 -2.5565472l2.9980164 5.852974z"/></g></svg>