<svg xmlns="http://www.w3.org/2000/svg" xmlns:xlink="http://www.w3.org/1999/xlink" width="1068" height="628" version="1.1" viewBox="0 0 1068 628"><title>many-nodes-per-cluster</title><desc>Created with Sketch.</desc><defs><linearGradient id="linearGradient-1" x1="8.729%" x2="85.588%" y1="0%" y2="0%"><stop offset="0%" stop-color="#333"/><stop offset="100%" stop-color="red"/></linearGradient><linearGradient id="linearGradient-2" x1="8.729%" x2="85.588%" y1="0%" y2="0%"><stop offset="0%" stop-color="#333"/><stop offset="100%" stop-color="red"/></linearGradient><linearGradient id="linearGradient-3" x1="8.729%" x2="85.588%" y1="0%" y2="0%"><stop offset="0%" stop-color="#333"/><stop offset="100%" stop-color="red"/></linearGradient><linearGradient id="linearGradient-4" x1="8.729%" x2="85.588%" y1="0%" y2="0%"><stop offset="0%" stop-color="#333"/><stop offset="100%" stop-color="red"/></linearGradient><linearGradient id="linearGradient-5" x1="8.729%" x2="85.588%" y1="0%" y2="0%"><stop offset="0%" stop-color="#333"/><stop offset="100%" stop-color="red"/></linearGradient></defs><g id="many-nodes-per-cluster" fill="none" fill-rule="evenodd" stroke="none" stroke-width="1"><rect id="Rectangle" width="1017" height="538" x="26" y="73" stroke="#333" stroke-width="10"/><path id="Line" stroke="url(#linearGradient-1)" stroke-linecap="square" stroke-width="12" d="M476,190 L627,369"/><path id="Line" stroke="url(#linearGradient-2)" stroke-linecap="square" stroke-width="12" d="M476,249 L627,369"/><path id="Line" stroke="url(#linearGradient-3)" stroke-linecap="square" stroke-width="12" d="M476,309 L627,369"/><path id="Line" stroke="url(#linearGradient-4)" stroke-linecap="square" stroke-width="12" d="M476,368.5 L627,369"/><path id="Line" stroke="url(#linearGradient-3)" stroke-linecap="square" stroke-width="12" d="M476,429 L627,369"/><path id="Line" stroke="url(#linearGradient-5)" stroke-linecap="square" stroke-width="12" d="M475,489 L627,369"/><path id="Line" stroke="url(#linearGradient-1)" stroke-linecap="square" stroke-width="12" d="M476,548 L627,369"/><rect id="Rectangle" width="45" height="45" x="128.5" y="166.5" fill="#666" stroke="#333" stroke-width="5"/><rect id="Rectangle" width="45" height="45" x="188.5" y="166.5" fill="#666" stroke="#333" stroke-width="5"/><rect id="Rectangle" width="45" height="45" x="248.5" y="166.5" fill="#666" stroke="#333" stroke-width="5"/><rect id="Rectangle" width="45" height="45" x="308.5" y="166.5" fill="#666" stroke="#333" stroke-width="5"/><rect id="Rectangle" width="45" height="45" x="368.5" y="166.5" fill="#666" stroke="#333" stroke-width="5"/><rect id="Rectangle" width="45" height="45" x="428.5" y="166.5" fill="#666" stroke="#333" stroke-width="5"/><rect id="Rectangle" width="45" height="45" x="127.5" y="226.5" fill="#666" stroke="#333" stroke-width="5"/><rect id="Rectangle" width="45" height="45" x="187.5" y="226.5" fill="#666" stroke="#333" stroke-width="5"/><rect id="Rectangle" width="45" height="45" x="247.5" y="226.5" fill="#666" stroke="#333" stroke-width="5"/><rect id="Rectangle" width="45" height="45" x="307.5" y="226.5" fill="#666" stroke="#333" stroke-width="5"/><rect id="Rectangle" width="45" height="45" x="367.5" y="226.5" fill="#666" stroke="#333" stroke-width="5"/><rect id="Rectangle" width="45" height="45" x="427.5" y="226.5" fill="#666" stroke="#333" stroke-width="5"/><rect id="Rectangle" width="45" height="45" x="128.5" y="286.5" fill="#666" stroke="#333" stroke-width="5"/><rect id="Rectangle" width="45" height="45" x="188.5" y="286.5" fill="#666" stroke="#333" stroke-width="5"/><rect id="Rectangle" width="45" height="45" x="248.5" y="286.5" fill="#666" stroke="#333" stroke-width="5"/><rect id="Rectangle" width="45" height="45" x="308.5" y="286.5" fill="#666" stroke="#333" stroke-width="5"/><rect id="Rectangle" width="45" height="45" x="368.5" y="286.5" fill="#666" stroke="#333" stroke-width="5"/><rect id="Rectangle" width="45" height="45" x="428.5" y="286.5" fill="#666" stroke="#333" stroke-width="5"/><rect id="Rectangle" width="45" height="45" x="128.5" y="346.5" fill="#666" stroke="#333" stroke-width="5"/><rect id="Rectangle" width="45" height="45" x="188.5" y="346.5" fill="#666" stroke="#333" stroke-width="5"/><rect id="Rectangle" width="45" height="45" x="248.5" y="346.5" fill="#666" stroke="#333" stroke-width="5"/><rect id="Rectangle" width="45" height="45" x="308.5" y="346.5" fill="#666" stroke="#333" stroke-width="5"/><rect id="Rectangle" width="45" height="45" x="368.5" y="346.5" fill="#666" stroke="#333" stroke-width="5"/><rect id="Rectangle" width="45" height="45" x="428.5" y="346.5" fill="#666" stroke="#333" stroke-width="5"/><rect id="Rectangle" width="45" height="45" x="128.5" y="406.5" fill="#666" stroke="#333" stroke-width="5"/><rect id="Rectangle" width="45" height="45" x="188.5" y="406.5" fill="#666" stroke="#333" stroke-width="5"/><rect id="Rectangle" width="45" height="45" x="248.5" y="406.5" fill="#666" stroke="#333" stroke-width="5"/><rect id="Rectangle" width="45" height="45" x="308.5" y="406.5" fill="#666" stroke="#333" stroke-width="5"/><rect id="Rectangle" width="45" height="45" x="368.5" y="406.5" fill="#666" stroke="#333" stroke-width="5"/><rect id="Rectangle" width="45" height="45" x="428.5" y="406.5" fill="#666" stroke="#333" stroke-width="5"/><rect id="Rectangle" width="45" height="45" x="127.5" y="466.5" fill="#666" stroke="#333" stroke-width="5"/><rect id="Rectangle" width="45" height="45" x="187.5" y="466.5" fill="#666" stroke="#333" stroke-width="5"/><rect id="Rectangle" width="45" height="45" x="247.5" y="466.5" fill="#666" stroke="#333" stroke-width="5"/><rect id="Rectangle" width="45" height="45" x="307.5" y="466.5" fill="#666" stroke="#333" stroke-width="5"/><rect id="Rectangle" width="45" height="45" x="367.5" y="466.5" fill="#666" stroke="#333" stroke-width="5"/><rect id="Rectangle" width="45" height="45" x="427.5" y="466.5" fill="#666" stroke="#333" stroke-width="5"/><rect id="Rectangle" width="45" height="45" x="128.5" y="526.5" fill="#666" stroke="#333" stroke-width="5"/><rect id="Rectangle" width="45" height="45" x="68.5" y="166.5" fill="#666" stroke="#333" stroke-width="5"/><rect id="Rectangle" width="45" height="45" x="67.5" y="226.5" fill="#666" stroke="#333" stroke-width="5"/><rect id="Rectangle" width="45" height="45" x="68.5" y="286.5" fill="#666" stroke="#333" stroke-width="5"/><rect id="Rectangle" width="45" height="45" x="68.5" y="346.5" fill="#666" stroke="#333" stroke-width="5"/><rect id="Rectangle" width="45" height="45" x="68.5" y="406.5" fill="#666" stroke="#333" stroke-width="5"/><rect id="Rectangle" width="45" height="45" x="67.5" y="466.5" fill="#666" stroke="#333" stroke-width="5"/><rect id="Rectangle" width="45" height="45" x="68.5" y="526.5" fill="#666" stroke="#333" stroke-width="5"/><rect id="Rectangle" width="45" height="45" x="188.5" y="526.5" fill="#666" stroke="#333" stroke-width="5"/><rect id="Rectangle" width="45" height="45" x="248.5" y="526.5" fill="#666" stroke="#333" stroke-width="5"/><rect id="Rectangle" width="45" height="45" x="308.5" y="526.5" fill="#666" stroke="#333" stroke-width="5"/><rect id="Rectangle" width="45" height="45" x="368.5" y="526.5" fill="#666" stroke="#333" stroke-width="5"/><rect id="Rectangle" width="45" height="45" x="428.5" y="526.5" fill="#666" stroke="#333" stroke-width="5"/><text id="Worker-Nodes" fill="#333" font-family="HelveticaNeue-Bold, Helvetica Neue" font-size="30" font-weight="bold" letter-spacing="-.857"><tspan x="152.078" y="137">WORKER NODES</tspan></text><g id="Group-5" transform="translate(636.000000, 184.000000)"><g id="Group-3" transform="translate(0.000000, 100.000000)"><rect id="Rectangle" width="170" height="170" x="0" y="0" fill="red"/><text id="master-node" fill="#FFF" font-family="HelveticaNeue-Bold, Helvetica Neue" font-size="25" font-weight="bold" letter-spacing="-.714"><tspan x="34.368" y="80">MASTER</tspan> <tspan x="50.079" y="109">NODE</tspan></text></g><g id="Group-2" transform="translate(200.000000, 0.000000)"><rect id="Rectangle" width="170" height="170" x="0" y="0" fill="red"/><text id="master-node" fill="#FFF" font-family="HelveticaNeue-Bold, Helvetica Neue" font-size="25" font-weight="bold" letter-spacing="-.714"><tspan x="34.368" y="80">MASTER</tspan> <tspan x="50.079" y="109">NODE</tspan></text></g><g id="Group-4" transform="translate(200.000000, 200.000000)"><g id="Rectangle-2" fill="red"><rect id="Rectangle" width="170" height="170" x="0" y="0"/></g><text id="master-node" fill="#FFF" font-family="HelveticaNeue-Bold, Helvetica Neue" font-size="25" font-weight="bold" letter-spacing="-.714"><tspan x="34.368" y="80">MASTER</tspan> <tspan x="50.079" y="109">NODE</tspan></text></g><path id="Line-2" stroke="red" stroke-linecap="square" stroke-width="8" d="M170,132.5 L200,132.5"/><path id="Line-2" stroke="red" stroke-linecap="square" stroke-width="8" d="M170,238.5 L200,238.5"/><path id="Line-2" stroke="red" stroke-linecap="square" stroke-width="8" d="M237.5,170.5 L237.5,216.5"/></g><g id="Group-8" transform="translate(686.000000, 103.000000)"><g id="Group-7"><circle id="Oval" cx="27.5" cy="27.5" r="27.5" fill="red"/><g id="Group-6" stroke="#FFF" transform="translate(10.000000, 9.000000)"><path id="Line-4" stroke-linecap="round" stroke-width="5" d="M26.5,0.5 L12.5,18.5"/><path id="Line" stroke-linecap="round" stroke-width="5" d="M12.5,18.5 L26.5,13.5"/><path id="Line-5" stroke-linecap="round" stroke-width="5" d="M26.5,13.5 L12.5,28.5"/><polygon id="Triangle" fill="#FFF" points="9.995 26.504 17.995 38.504 1.995 38.504" transform="translate(9.994675, 32.503524) rotate(-145.000000) translate(-9.994675, -32.503524)"/></g></g><text id="overload" fill="red" font-family="HelveticaNeue-Bold, Helvetica Neue" font-size="38" font-weight="bold" letter-spacing="-1.086"><tspan x="67.418" y="42">OVERLOAD</tspan></text></g><text id="Cluster" fill="#333" font-family="HelveticaNeue-Bold, Helvetica Neue" font-size="38" font-weight="bold" letter-spacing="-1.086"><tspan x="449.405" y="50">CLUSTER</tspan></text></g></svg>