<svg xmlns="http://www.w3.org/2000/svg" xmlns:xlink="http://www.w3.org/1999/xlink" width="1068" height="628" version="1.1" viewBox="0 0 1068 628"><title>many-pods-per-node</title><desc>Created with Sketch.</desc><defs><linearGradient id="linearGradient-1" x1="8.729%" x2="85.588%" y1="0%" y2="0%"><stop offset="0%" stop-color="#333"/><stop offset="100%" stop-color="red"/></linearGradient><linearGradient id="linearGradient-2" x1="8.729%" x2="85.588%" y1="0%" y2="0%"><stop offset="0%" stop-color="#333"/><stop offset="100%" stop-color="red"/></linearGradient><linearGradient id="linearGradient-3" x1="8.729%" x2="85.588%" y1="0%" y2="0%"><stop offset="0%" stop-color="#333"/><stop offset="100%" stop-color="red"/></linearGradient><linearGradient id="linearGradient-4" x1="8.729%" x2="85.588%" y1="0%" y2="0%"><stop offset="0%" stop-color="#333"/><stop offset="100%" stop-color="red"/></linearGradient><linearGradient id="linearGradient-5" x1="8.729%" x2="85.588%" y1="0%" y2="0%"><stop offset="0%" stop-color="#333"/><stop offset="100%" stop-color="red"/></linearGradient></defs><g id="many-pods-per-node" fill="none" fill-rule="evenodd" stroke="none" stroke-width="1"><rect id="Rectangle" width="838" height="538" x="115" y="73" stroke="#333" stroke-width="10"/><path id="Line" stroke="url(#linearGradient-1)" stroke-linecap="square" stroke-width="12" d="M565,190 L716,369"/><path id="Line" stroke="url(#linearGradient-2)" stroke-linecap="square" stroke-width="12" d="M565,249 L716,369"/><path id="Line" stroke="url(#linearGradient-3)" stroke-linecap="square" stroke-width="12" d="M565,309 L716,369"/><path id="Line" stroke="url(#linearGradient-4)" stroke-linecap="square" stroke-width="12" d="M565,368.5 L716,369"/><path id="Line" stroke="url(#linearGradient-3)" stroke-linecap="square" stroke-width="12" d="M565,429 L716,369"/><path id="Line" stroke="url(#linearGradient-5)" stroke-linecap="square" stroke-width="12" d="M564,489 L716,369"/><path id="Line" stroke="url(#linearGradient-1)" stroke-linecap="square" stroke-width="12" d="M565,548 L716,369"/><g id="Group-3" transform="translate(725.000000, 190.000000)"><g id="Group"><rect id="Rectangle" width="165" height="165" x="2.5" y="2.5" fill="red" stroke="red" stroke-width="5"/><text id="kubelet" fill="#FFF" font-family="HelveticaNeue-Bold, Helvetica Neue" font-size="25" font-weight="bold" letter-spacing="-.714"><tspan x="29.163" y="95">KUBELET</tspan></text></g><g id="Group"><rect id="Rectangle" width="165" height="165" x="2.5" y="2.5" fill="red" stroke="red" stroke-width="5"/><text id="kubelet" fill="#FFF" font-family="HelveticaNeue-Bold, Helvetica Neue" font-size="25" font-weight="bold" letter-spacing="-.714"><tspan x="29.163" y="95">KUBELET</tspan></text></g><g id="Group-2" transform="translate(0.000000, 188.000000)"><rect id="Rectangle" width="165" height="165" x="2.5" y="2.5" fill="red" stroke="red" stroke-width="5"/><text id="container-runtime" fill="#FFF" font-family="HelveticaNeue-Bold, Helvetica Neue" font-size="25" font-weight="bold" letter-spacing="-.714"><tspan x="15.339" y="80">CONTAINER</tspan> <tspan x="29.688" y="109">RUNTIME</tspan></text></g></g><rect id="Rectangle" width="45" height="45" x="217.5" y="166.5" fill="#666" stroke="#333" stroke-width="5"/><rect id="Rectangle" width="45" height="45" x="277.5" y="166.5" fill="#666" stroke="#333" stroke-width="5"/><rect id="Rectangle" width="45" height="45" x="337.5" y="166.5" fill="#666" stroke="#333" stroke-width="5"/><rect id="Rectangle" width="45" height="45" x="397.5" y="166.5" fill="#666" stroke="#333" stroke-width="5"/><rect id="Rectangle" width="45" height="45" x="457.5" y="166.5" fill="#666" stroke="#333" stroke-width="5"/><rect id="Rectangle" width="45" height="45" x="517.5" y="166.5" fill="#666" stroke="#333" stroke-width="5"/><rect id="Rectangle" width="45" height="45" x="216.5" y="226.5" fill="#666" stroke="#333" stroke-width="5"/><rect id="Rectangle" width="45" height="45" x="276.5" y="226.5" fill="#666" stroke="#333" stroke-width="5"/><rect id="Rectangle" width="45" height="45" x="336.5" y="226.5" fill="#666" stroke="#333" stroke-width="5"/><rect id="Rectangle" width="45" height="45" x="396.5" y="226.5" fill="#666" stroke="#333" stroke-width="5"/><rect id="Rectangle" width="45" height="45" x="456.5" y="226.5" fill="#666" stroke="#333" stroke-width="5"/><rect id="Rectangle" width="45" height="45" x="516.5" y="226.5" fill="#666" stroke="#333" stroke-width="5"/><rect id="Rectangle" width="45" height="45" x="217.5" y="286.5" fill="#666" stroke="#333" stroke-width="5"/><rect id="Rectangle" width="45" height="45" x="277.5" y="286.5" fill="#666" stroke="#333" stroke-width="5"/><rect id="Rectangle" width="45" height="45" x="337.5" y="286.5" fill="#666" stroke="#333" stroke-width="5"/><rect id="Rectangle" width="45" height="45" x="397.5" y="286.5" fill="#666" stroke="#333" stroke-width="5"/><rect id="Rectangle" width="45" height="45" x="457.5" y="286.5" fill="#666" stroke="#333" stroke-width="5"/><rect id="Rectangle" width="45" height="45" x="517.5" y="286.5" fill="#666" stroke="#333" stroke-width="5"/><rect id="Rectangle" width="45" height="45" x="217.5" y="346.5" fill="#666" stroke="#333" stroke-width="5"/><rect id="Rectangle" width="45" height="45" x="277.5" y="346.5" fill="#666" stroke="#333" stroke-width="5"/><rect id="Rectangle" width="45" height="45" x="337.5" y="346.5" fill="#666" stroke="#333" stroke-width="5"/><rect id="Rectangle" width="45" height="45" x="397.5" y="346.5" fill="#666" stroke="#333" stroke-width="5"/><rect id="Rectangle" width="45" height="45" x="457.5" y="346.5" fill="#666" stroke="#333" stroke-width="5"/><rect id="Rectangle" width="45" height="45" x="517.5" y="346.5" fill="#666" stroke="#333" stroke-width="5"/><rect id="Rectangle" width="45" height="45" x="217.5" y="406.5" fill="#666" stroke="#333" stroke-width="5"/><rect id="Rectangle" width="45" height="45" x="277.5" y="406.5" fill="#666" stroke="#333" stroke-width="5"/><rect id="Rectangle" width="45" height="45" x="337.5" y="406.5" fill="#666" stroke="#333" stroke-width="5"/><rect id="Rectangle" width="45" height="45" x="397.5" y="406.5" fill="#666" stroke="#333" stroke-width="5"/><rect id="Rectangle" width="45" height="45" x="457.5" y="406.5" fill="#666" stroke="#333" stroke-width="5"/><rect id="Rectangle" width="45" height="45" x="517.5" y="406.5" fill="#666" stroke="#333" stroke-width="5"/><rect id="Rectangle" width="45" height="45" x="216.5" y="466.5" fill="#666" stroke="#333" stroke-width="5"/><rect id="Rectangle" width="45" height="45" x="276.5" y="466.5" fill="#666" stroke="#333" stroke-width="5"/><rect id="Rectangle" width="45" height="45" x="336.5" y="466.5" fill="#666" stroke="#333" stroke-width="5"/><rect id="Rectangle" width="45" height="45" x="396.5" y="466.5" fill="#666" stroke="#333" stroke-width="5"/><rect id="Rectangle" width="45" height="45" x="456.5" y="466.5" fill="#666" stroke="#333" stroke-width="5"/><rect id="Rectangle" width="45" height="45" x="516.5" y="466.5" fill="#666" stroke="#333" stroke-width="5"/><rect id="Rectangle" width="45" height="45" x="217.5" y="526.5" fill="#666" stroke="#333" stroke-width="5"/><rect id="Rectangle" width="45" height="45" x="157.5" y="166.5" fill="#666" stroke="#333" stroke-width="5"/><rect id="Rectangle" width="45" height="45" x="156.5" y="226.5" fill="#666" stroke="#333" stroke-width="5"/><rect id="Rectangle" width="45" height="45" x="157.5" y="286.5" fill="#666" stroke="#333" stroke-width="5"/><rect id="Rectangle" width="45" height="45" x="157.5" y="346.5" fill="#666" stroke="#333" stroke-width="5"/><rect id="Rectangle" width="45" height="45" x="157.5" y="406.5" fill="#666" stroke="#333" stroke-width="5"/><rect id="Rectangle" width="45" height="45" x="156.5" y="466.5" fill="#666" stroke="#333" stroke-width="5"/><rect id="Rectangle" width="45" height="45" x="157.5" y="526.5" fill="#666" stroke="#333" stroke-width="5"/><rect id="Rectangle" width="45" height="45" x="277.5" y="526.5" fill="#666" stroke="#333" stroke-width="5"/><rect id="Rectangle" width="45" height="45" x="337.5" y="526.5" fill="#666" stroke="#333" stroke-width="5"/><rect id="Rectangle" width="45" height="45" x="397.5" y="526.5" fill="#666" stroke="#333" stroke-width="5"/><rect id="Rectangle" width="45" height="45" x="457.5" y="526.5" fill="#666" stroke="#333" stroke-width="5"/><rect id="Rectangle" width="45" height="45" x="517.5" y="526.5" fill="#666" stroke="#333" stroke-width="5"/><text id="pods-(containers)" fill="#333" font-family="HelveticaNeue-Bold, Helvetica Neue" font-size="30" font-weight="bold" letter-spacing="-.857"><tspan x="215.426" y="137">PODS (CONTAINERS)</tspan></text><text id="node" fill="#333" font-family="HelveticaNeue-Bold, Helvetica Neue" font-size="38" font-weight="bold" letter-spacing="-1.086"><tspan x="481.419" y="50">NODE</tspan></text><g id="Group-8" transform="translate(660.000000, 105.000000)"><g id="Group-7"><circle id="Oval" cx="27.5" cy="27.5" r="27.5" fill="red"/><g id="Group-6" stroke="#FFF" transform="translate(10.000000, 9.000000)"><path id="Line-4" stroke-linecap="round" stroke-width="5" d="M26.5,0.5 L12.5,18.5"/><path id="Line" stroke-linecap="round" stroke-width="5" d="M12.5,18.5 L26.5,13.5"/><path id="Line-5" stroke-linecap="round" stroke-width="5" d="M26.5,13.5 L12.5,28.5"/><polygon id="Triangle" fill="#FFF" points="9.995 26.504 17.995 38.504 1.995 38.504" transform="translate(9.994675, 32.503524) rotate(-145.000000) translate(-9.994675, -32.503524)"/></g></g><text id="overload" fill="red" font-family="HelveticaNeue-Bold, Helvetica Neue" font-size="38" font-weight="bold" letter-spacing="-1.086"><tspan x="67.418" y="42">OVERLOAD</tspan></text></g></g></svg>