<svg xmlns="http://www.w3.org/2000/svg" xmlns:xlink="http://www.w3.org/1999/xlink" width="720.666" height="464.355" viewBox="0 0 720.666 464.355"><defs><linearGradient id="linear-gradient" x1=".5" x2=".5" y2="1" gradientUnits="objectBoundingBox"><stop offset="0" stop-color="#22a3f1"/><stop offset="1" stop-color="#294364"/><stop offset="1" stop-color="#13354e"/></linearGradient></defs><g id="组_6006" data-name="组 6006" opacity=".1" transform="matrix(0.995, -0.105, 0.105, 0.995, -5.606, 73.179)"><path id="路径_17812" fill="url(#linear-gradient)" d="M918.2,553.468A200.254,200.254,0,0,1,747.387,659.954,200.363,200.363,0,0,1,918.193,553.467Z" data-name="路径 17812" transform="translate(-536.595 -244.467)"/><path id="路径_17813" fill="url(#linear-gradient)" d="M898.638,652.569a11.725,11.725,0,0,1-1.444,0A123.826,123.826,0,0,1,776.044,554.36,201.1,201.1,0,0,1,898.638,652.569Z" data-name="路径 17813" transform="translate(-334.157 -238.172)"/><circle id="椭圆_21" cx="76.556" cy="76.556" r="76.556" fill="url(#linear-gradient)" data-name="椭圆 21" transform="translate(407.171 -14.694)"/><path id="路径_17815" fill="url(#linear-gradient)" d="M1021.563,659.721a123.866,123.866,0,0,1-98.24,121.162A280.96,280.96,0,0,0,775.977,636.9a123.858,123.858,0,0,1,245.6,22.835Z" data-name="路径 17815" transform="translate(-334.587 -369.086)"/><path id="路径_17817" fill="url(#linear-gradient)" d="M1122.587,717.351a203.61,203.61,0,0,1-3.8,39.138,280.429,280.429,0,0,0-308.2,127.394A200.415,200.415,0,1,1,1122.6,717.351Z" data-name="路径 17817" transform="translate(-717.673 -502.184)"/></g></svg>