<svg xmlns="http://www.w3.org/2000/svg" xmlns:xlink="http://www.w3.org/1999/xlink" width="602.786" height="602.786" viewBox="0 0 602.786 602.786">
  <defs>
    <linearGradient id="linear-gradient" x1="0.359" y1="0.021" x2="0.618" y2="0.732" gradientUnits="objectBoundingBox">
      <stop offset="0" stop-color="#294364" stop-opacity="0"/>
      <stop offset="1" stop-color="#294364" stop-opacity="0.31"/>
    </linearGradient>
    <clipPath id="clip-path">
      <ellipse id="Ellipse_6" data-name="Ellipse 6" cx="301.393" cy="301.393" rx="301.393" ry="301.393" fill="none" stroke="#fff" stroke-miterlimit="10" stroke-width="1"/>
    </clipPath>
  </defs>
  <g id="Group_22" data-name="Group 22" transform="translate(43.393 -5119)">
    <g id="Ellipse_20" data-name="Ellipse 20" transform="translate(333 5216)" fill="none" stroke="#def1fd" stroke-width="1" opacity="0.83">
      <circle cx="10.5" cy="10.5" r="10.5" stroke="none"/>
      <circle cx="10.5" cy="10.5" r="10" fill="none"/>
    </g>
    <g id="Group_21" data-name="Group 21">
      <g id="globe-01" transform="translate(-43.393 5119)" opacity="0.83">
        <path id="Path_23" data-name="Path 23" d="M301.393,0C467.848,0,602.786,134.938,602.786,301.393S467.848,602.786,301.393,602.786,0,467.848,0,301.393,134.938,0,301.393,0Z" transform="translate(0 0)" opacity="0.6" fill="url(#linear-gradient)"/>
        <g id="Group_1" data-name="Group 1" transform="translate(0 0)" opacity="0.6" clip-path="url(#clip-path)">
          <path id="Path_17" data-name="Path 17" d="M313.1,442.179l1.309,23.829,4.975,17.413,13.747,8.772,4.975,12.569,10.081,7.463,14.926,2.488,20.032,4.975,15.057-7.463,6.154-11.26,10.081-4.975,8.772-21.341h12.438l13.747-8.641,16.235,16.235,11.26,3.666,23.7,11.26,12.569,15.057,4.975,12.438,31.291,13.747,13.747,11.26,21.21,3.8,6.284,6.285,11.26-11.26,9.95-20.032-1.178-28.8-7.594-7.463,3.8-11.26-13.747-8.772,2.488-29.982-9.951-14.926-26.316-16.366L554.4,383.393l3.8-23.7-15.057-34.957L530.7,347.257l-17.544-2.618-21.21,1.309-7.594-4.975-9.95-2.488-4.975-4.975-33.779-8.772,7.463-2.488,20.032,2.488,16.235,6.154,21.21,1.309,16.366,8.772L529.4,323.429l3.8-21.21,3.666-8.772-1.178-11.26L516.957,268.44v4.975l-7.594-2.488-2.488,15.057-7.463-2.488-3.8,3.666L473.1,282.187l11.26-6.284,16.235-1.178,6.284-8.772,2.488-7.463-4.258-3.539-24.415-20.29L452.706,225.1l-63.271-21.6-66.249,6.154-23.829,8.772L288.1,227.2l-14.926,15.057-2.488,32.47-6.284,23.7,11.26,8.772,8.772-11.26,13.747,3.8,3.666-6.284-2.488-15.057,1.309-3.666-8.772-1.309-2.488-2.488,1.178-8.772,1.309-13.747,4.975,4.975v10.081l7.594,2.488L318.211,252.2l3.666-1.309-3.666,8.772-6.284,6.284,7.463,2.488-7.463,4.975,6.284,6.285-1.309,6.284-6.284,6.154-3.666,8.772-3.8,1.309-4.975,4.975-3.8-1.309-3.8-6.154-7.463,2.488,2.488,7.463,7.594,4.975-2.619,4.975-2.488,5.106v22.519l-9.95,14.926,13.747,1.309,6.284,11.26-7.594,7.463-9.95,7.463,2.488,4.975L298.179,412.2l11.26-8.772,7.463-7.463,1.309-11.26-6.284-8.772,3.666-11.26L313.1,359.7l7.594-9.95,3.666-8.772,16.235,1.178,3.8,6.285,6.284-3.8,4.975-4.975-6.284-11.26v-4.975l11.26,3.8,7.463,2.488,6.284-3.8,1.309,6.284h7.463V319.632l-8.772-3.666,6.284-11.26-1.309-3.8-8.641-11.26,3.666-13.747,10.081,5.106,2.488-7.594-3.8-3.666,3.8-8.772,7.463,9.95,17.544-4.975,4.975,7.463-25.007,15.057-10.081,22.519,13.747,6.154,8.772-8.641,6.284-3.8,3.8-3.8,3.666-6.154,12.569,12.438L425.7,319.632l-17.544,17.544-16.235,6.284-3.8,6.285,2.488,9.95-8.772,3.8-13.747,1.178-8.641,3.8-11.26-8.772-21.341,26.316-4.975,17.413-11.26,3.8Z" transform="translate(-49.942 -217.64)" fill="rgba(41,67,100,0.15)"/>
          <path id="Path_18" data-name="Path 18" d="M256.388,313.918,253.9,326.357l9.95,7.463,2.488-7.463v-9.95l-7.463-5.106-2.488,2.618" transform="translate(-53.19 -184.301)" fill="rgba(41,67,100,0.15)"/>
          <path id="Path_19" data-name="Path 19" d="M146,361.143l6.284,1.309-1.309,3.8,23.829,3.666,1.178,11.26-2.488,4.975,13.747,16.235,15.057-7.463L199.811,372.4l8.641-16.235,3.8-18.723L224.818,319.9l-1.309-3.666-3.8,3.666-3.666-6.154,8.772-3.8v-2.488l-8.772-1.309,4.975-12.438,1.178-11.26-4.975-4.975,2.488-10.081-13.747,6.284-19.9,22.519L169.7,322.389l-18.722,18.853Z" transform="translate(-86.559 -197.878)" fill="rgba(41,67,100,0.15)"/>
          <path id="Path_20" data-name="Path 20" d="M153.049,620.16,164.308,589l13.747-6.284,6.284-28.8-3.8-31.16,3.8-26.316,6.284-18.723,9.95-7.463,2.488-10.081-18.723-6.284,18.723-36.136-11.26-3.8L174.259,404l-4.975,14.926-12.438-2.488-8.772,11.26,3.8,23.7,2.488,27.495-12.569-4.975-25.007,12.569,1.309-23.829,7.463-19.9,2.488-10.081,3.8-6.284-4.975-9.95-8.772,1.309-1.309-3.8-6.154,16.235,2.488,7.463L98.06,455.192,86.8,488.971l37.576,89.947Z" transform="translate(-104.868 -155.632)" fill="rgba(41,67,100,0.15)"/>
          <path id="Path_21" data-name="Path 21" d="M434.236,683.88h-7.594l4.975-4.975-7.463-7.463,8.772-11.26-4.975-4.975H415.383l12.569-7.594-1.309-18.722-4.975-9.95-7.463-7.594-2.488-2.488,3.666-13.747,6.284-3.666-11.26-28.8-9.95-9.951L389.2,521.4l-12.569,4.975-16.235,1.309-11.26,13.747-7.463-2.488L332.9,545.1l-6.284,1.309-3.666,3.8L309.2,538.944l-23.829,13.747-18.722-1.309-3.666-3.8-7.594,10.081-21.21,11.26v9.95l-4.975-4.975-4.19,24.876L200.4,612.656l-16.235-16.235-13.747,11.26-8.772-18.723L147.9,602.705l26.316,18.722,25.007-2.487,26.447-13.878,9.819,7.594,2.488,25.007h7.463l1.178,8.772,46.348,8.772,7.463,2.488,20.032-5.106,13.747,3.8,52.5,40.063,34.957,9.951,20.032-7.463Z" transform="translate(-85.972 -119.324)" fill="rgba(41,67,100,0.15)"/>
          <path id="Path_22" data-name="Path 22" d="M116.4,401.307l1.309,11.26,13.747-11.26,2.488-7.594,16.235,1.309-6.284,13.747,4.975,2.488,8.772,1.309,4.975-5.106-6.154-3.666,4.975-2.488,2.488-2.488-7.463-7.594,8.641-8.772-3.666-6.154-10.081,2.488h-7.463l-6.284,1.178v5.106l-8.641,1.178-5.106,9.95-3.666-1.178Z" transform="translate(-95.714 -164.199)" fill="rgba(41,67,100,0.15)"/>
        </g>
      </g>
      <g id="Group_20" data-name="Group 20">
        <circle id="Ellipse_10" data-name="Ellipse 10" cx="4.5" cy="4.5" r="4.5" transform="translate(229 5362)" fill="#def1fd" opacity="0.83"/>
        <g id="Group_19" data-name="Group 19">
          <circle id="Ellipse_21" data-name="Ellipse 21" cx="4.5" cy="4.5" r="4.5" transform="translate(339 5222)" fill="#def1fd" opacity="0.83"/>
          <g id="Ellipse_22" data-name="Ellipse 22" transform="translate(243 5119)" fill="none" stroke="#def1fd" stroke-width="1" opacity="0.83">
            <ellipse cx="10.5" cy="9" rx="10.5" ry="9" stroke="none"/>
            <ellipse cx="10.5" cy="9" rx="10" ry="8.5" fill="none"/>
          </g>
          <circle id="Ellipse_23" data-name="Ellipse 23" cx="4.5" cy="4.5" r="4.5" transform="translate(249 5123)" fill="#def1fd" opacity="0.83"/>
          <g id="Ellipse_24" data-name="Ellipse 24" transform="translate(41 5219)" fill="none" stroke="#def1fd" stroke-width="1" opacity="0.83">
            <circle cx="9.5" cy="9.5" r="9.5" stroke="none"/>
            <circle cx="9.5" cy="9.5" r="9" fill="none"/>
          </g>
          <circle id="Ellipse_25" data-name="Ellipse 25" cx="4.5" cy="4.5" r="4.5" transform="translate(46 5224)" fill="#def1fd" opacity="0.83"/>
        </g>
      </g>
    </g>
  </g>
</svg>
