<?xml version="1.0" encoding="UTF-8"?>
<svg width="1022px" height="568px" viewBox="0 0 1022 568" version="1.1" xmlns="http://www.w3.org/2000/svg" xmlns:xlink="http://www.w3.org/1999/xlink">
    <title>hero</title>
    <defs>
        <linearGradient x1="-0.00990170585%" y1="50.0013722%" x2="99.9951184%" y2="50.0013722%" id="linearGradient-1">
            <stop stop-color="#FFFFFF" offset="0%"></stop>
            <stop stop-color="#EEF7FF" offset="1%"></stop>
        </linearGradient>
        <linearGradient x1="-0.0038173859%" y1="49.9873681%" x2="100%" y2="49.9873681%" id="linearGradient-2">
            <stop stop-color="#FFFFFF" offset="0%"></stop>
            <stop stop-color="#EEF7FF" offset="1%"></stop>
        </linearGradient>
    </defs>
    <g id="Page-1" stroke="none" stroke-width="1" fill="none" fill-rule="evenodd">
        <g id="hero" transform="translate(0.130243, 0.000000)">
            <path d="M818.904096,299.003073 C818.917223,266.374275 804.582571,235.390157 779.705778,214.276564 C754.828985,193.16297 721.926727,184.055872 689.734087,189.373073 C672.054087,107.233073 599.044087,45.6530711 511.614087,45.6530711 C443.017561,45.6421396 380.231762,84.1701406 349.174087,145.333073 C345.094087,144.953073 340.974087,144.733073 336.794087,144.733073 C264.980583,144.761123 206.223842,201.921093 204.217693,273.706576 C202.211544,345.492059 257.684235,405.844335 329.384087,409.883073 L329.384087,410.103073 L715.234087,410.103073 L715.234087,409.823073 C773.565948,405.913281 818.88763,357.465815 818.904096,299.003073 Z" id="Path" fill="url(#linearGradient-1)" fill-rule="nonzero"></path>
            <path d="M624.504087,261.653073 C650.872659,242.28432 687.251964,244.242792 711.388736,266.33049 C735.525508,288.418189 740.695273,324.481507 723.735679,352.46047 C706.776084,380.439432 672.412053,392.539134 641.664106,381.358173 C610.916158,370.177212 592.350634,338.83059 597.324087,306.493073" id="Path" stroke="#BCE0FD" stroke-width="15"></path>
            <path d="M626.664087,260.343073 C608.093629,273.941031 582.820002,273.814358 564.386781,260.030936 C545.95356,246.247514 538.685487,222.041164 546.47736,200.383531 C554.269233,178.725898 575.292949,164.698224 598.282366,165.817628 C621.271783,166.937032 640.8332,182.940884 646.484087,205.253073" id="Path" stroke="#BCE0FD" stroke-width="15"></path>
            <path d="M874.434087,200.353073 C874.434087,200.353073 846.924087,164.353073 863.064087,148.243073 C882.484087,128.823073 901.904087,146.353073 938.854087,138.773073 C975.804087,131.193073 1002.56409,187.583073 995.464087,201.313073 C988.364087,215.043073 995.464087,235.513073 944.064087,265.253073" id="Path" fill="#7C2B06" fill-rule="nonzero"></path>
            <path d="M876.904087,191.503073 C876.904087,191.503073 876.904087,177.353073 877.984087,174.713073 C879.764087,170.383073 882.074087,190.833073 939.984087,189.713073 C997.894087,188.593073 1003.37409,194.313073 999.724087,215.483073 C996.074087,236.653073 979.634087,276.043073 979.634087,276.043073 C979.634087,276.043073 955.374087,285.953073 953.804087,285.173073 C952.234087,284.393073 889.174087,231.933073 889.904087,229.333073 C890.634087,226.733073 876.904087,191.503073 876.904087,191.503073 Z" id="Path" fill="#662A12" fill-rule="nonzero"></path>
            <line x1="426.734087" y1="217.283073" x2="426.734087" y2="126.433073" id="Path" stroke="#FD8015" stroke-width="2" stroke-linecap="round"></line>
            <line x1="257.654087" y1="204.123073" x2="307.334087" y2="204.123073" id="Path" stroke="#FD8015" stroke-width="2" stroke-linecap="round"></line>
            <line x1="450.464087" y1="250.203073" x2="500.144087" y2="250.203073" id="Path" stroke="#FD8015" stroke-width="2" stroke-linecap="round"></line>
            <line x1="367.804087" y1="206.703073" x2="404.394087" y2="252.593073" id="Path" stroke="#FD8015" stroke-width="2" stroke-linecap="round"></line>
            <path d="M419.074087,524.653073 L118.214087,524.653073 L84.6240874,316.023073 C83.4638339,308.82336 85.5194372,301.477007 90.2477849,295.924999 C94.9761326,290.372991 101.901484,287.173072 109.194087,287.173072 L351.454087,287.173072 C363.319628,287.169791 373.539102,295.539548 375.874087,307.173072 L419.074087,524.653073 Z" id="Path" fill="#BCE0FD" fill-rule="nonzero"></path>
            <path d="M436.444087,524.653073 L135.584087,524.653073 L101.994087,316.023073 C100.833834,308.82336 102.889437,301.477007 107.617785,295.924999 C112.346133,290.372991 119.271484,287.17307 126.564087,287.17307 L368.824087,287.17307 C380.688661,287.166741 390.906954,295.53896 393.234087,307.17307 L436.444087,524.653073 Z" id="Path" fill="url(#linearGradient-2)" fill-rule="nonzero"></path>
            <polygon id="Path" fill="#FFFFFF" fill-rule="nonzero" points="425.344087 544.943073 155.414087 544.943073 117.184087 307.523073 378.154087 307.523073"></polygon>
            <path d="M125.304087,514.833073 L560.484087,514.833073 C566.212764,514.833073 571.706808,517.108781 575.757594,521.159567 C579.80838,525.210353 582.084087,530.704397 582.084087,536.433073 L582.084087,543.273073 L125.304087,543.273073 C121.211657,543.273073 117.894087,539.955503 117.894087,535.863073 L117.894087,522.243073 C117.894087,518.150643 121.211657,514.833073 125.304087,514.833073 L125.304087,514.833073 Z" id="Path" fill="#BCE0FD" fill-rule="nonzero" transform="translate(349.989087, 529.053073) rotate(-180.000000) translate(-349.989087, -529.053073) "></path>
            <polygon id="Path" fill="#154375" fill-rule="nonzero" points="658.874087 347.043073 629.604087 335.233073 629.604087 299.933073 658.874087 311.743073"></polygon>
            <polygon id="Path" fill="#086AD4" fill-rule="nonzero" points="658.874087 311.743073 629.604087 299.933073 658.874087 288.133073 688.134087 299.933073"></polygon>
            <polygon id="Path" fill="#0A55A7" fill-rule="nonzero" points="688.134087 335.233073 658.874087 347.043073 658.874087 311.743073 688.134087 299.933073"></polygon>
            <polygon id="Path" fill="#0A55A7" fill-rule="nonzero" points="594.514087 243.373073 570.954087 229.393073 575.604087 199.093073 599.154087 213.083073"></polygon>
            <polygon id="Path" fill="#0A55A7" fill-rule="nonzero" points="599.154087 213.083073 575.604087 199.093073 602.264087 192.813073 625.824087 206.803073"></polygon>
            <polygon id="Path" fill="#164880" fill-rule="nonzero" points="621.184087 237.093073 594.514087 243.373073 599.154087 213.083073 625.824087 206.803073"></polygon>
            <polygon id="Path" fill="#0A55A7" fill-rule="nonzero" points="345.304087 156.263073 328.614087 162.993073 328.614087 162.993073 328.614087 183.123073 345.304087 189.863073 361.994087 183.123073 361.994087 162.993073"></polygon>
            <line x1="344.844087" y1="325.413073" x2="344.844087" y2="234.563073" id="Path" stroke="#FD8015" stroke-width="2" stroke-linecap="round"></line>
            <polygon id="Path" fill="#0A55A7" fill-rule="nonzero" points="345.554087 221.043073 328.864087 227.773073 328.864087 227.773073 328.864087 247.903073 345.554087 254.643073 362.244087 247.903073 362.244087 227.773073"></polygon>
            <polygon id="Path" fill="#0A55A7" fill-rule="nonzero" points="344.844087 316.923073 327.844087 323.783073 327.844087 323.783073 327.844087 344.283073 344.844087 351.143073 361.834087 344.283073 361.834087 323.783073"></polygon>
            <polygon id="Path" fill="#0A55A7" fill-rule="nonzero" points="426.734087 121.833073 409.734087 128.693073 409.734087 128.693073 409.734087 149.193073 426.734087 156.053073 443.724087 149.193073 443.724087 128.693073"></polygon>
            <polygon id="Path" fill="#0A55A7" fill-rule="nonzero" points="322.814087 188.403073 305.814087 195.263073 305.814087 195.263073 305.814087 215.763073 322.814087 222.623073 339.804087 215.763073 339.804087 195.263073"></polygon>
            <polygon id="Path" fill="#0A55A7" fill-rule="nonzero" points="367.794087 188.713073 351.104087 195.443073 351.104087 195.443073 351.104087 215.573073 367.794087 222.313073 384.484087 215.573073 384.484087 195.443073"></polygon>
            <polygon id="Path" fill="#0A55A7" fill-rule="nonzero" points="426.884087 200.953073 410.194087 207.683073 410.194087 207.683073 410.194087 227.813073 426.884087 234.553073 443.574087 227.813073 443.574087 207.683073"></polygon>
            <polygon id="Path" fill="#0A55A7" fill-rule="nonzero" points="427.134087 265.733073 410.444087 272.463073 410.444087 272.463073 410.444087 292.593073 427.134087 299.333073 443.824087 292.593073 443.824087 272.463073"></polygon>
            <polygon id="Path" fill="#0A55A7" fill-rule="nonzero" points="404.394087 233.093073 387.394087 239.953073 387.394087 239.953073 387.394087 260.453073 404.394087 267.313073 421.384087 260.453073 421.384087 239.953073"></polygon>
            <polygon id="Path" fill="#0A55A7" fill-rule="nonzero" points="449.374087 233.403073 432.684087 240.133073 432.684087 240.133073 432.684087 260.263073 449.374087 267.003073 466.064087 260.263073 466.064087 240.133073"></polygon>
            <path d="M958.764087,297.283073 C958.764087,297.283073 1015.53409,319.833073 1018.47409,339.433073 C1021.41409,359.033073 1020.81409,422.153073 1020.81409,422.153073 C1020.81409,422.153073 1012.28409,408.743073 991.694087,409.723073 C971.104087,410.703073 963.514087,412.953073 963.514087,412.953073 L966.174087,424.073073 L1011.80409,477.463073 L1013.19409,566.403073 L835.904087,567.033073 L834.634087,395.553073 L829.374087,378.153073 L812.704087,361.493073 C812.704087,361.493073 838.194087,302.193073 857.304087,297.283073 C876.414087,292.373073 889.004087,291.403073 889.004087,291.403073" id="Path" fill="#0A55A7" fill-rule="nonzero"></path>
            <path d="M872.904087,183.383073 C872.904087,183.383073 867.614087,207.623073 870.064087,229.183073 C872.514087,250.743073 871.724087,267.553073 889.424087,270.183073 C897.004087,271.293073 899.224087,270.183073 899.224087,270.183073 L898.224087,287.833073 L884.904087,293.653073 C884.904087,293.653073 894.754087,321.323073 920.244087,317.293073 C945.734087,313.263073 957.984087,298.063073 957.984087,298.063073 L946.704087,290.223073 L950.134087,244.153073 C950.134087,244.153073 969.284087,237.803073 968.304087,225.063073 C967.324087,212.323073 953.904087,199.303073 942.304087,216.313073 C934.024087,228.443073 941.874087,233.603073 932.214087,234.313073 L931.724087,226.963073 L931.614087,215.913073 C931.614087,215.913073 923.214087,204.813073 921.444087,201.703073 C918.014087,195.703073 923.914087,191.413073 902.844087,190.923073 C881.774087,190.433073 872.904087,183.383073 872.904087,183.383073 Z" id="Path" fill="#FFAD94" fill-rule="nonzero"></path>
            <path d="M814.384087,362.773073 L808.454087,369.143073 C808.454087,369.143073 735.964087,334.343073 732.044087,330.423073 C728.124087,326.503073 700.674087,299.543073 700.674087,299.543073 C700.674087,299.543073 686.464087,270.653073 683.524087,273.073073 C680.584087,275.493073 680.094087,284.843073 680.094087,284.843073 C680.094087,284.843073 660.974087,271.313073 658.524087,272.933073 C656.074087,274.553073 661.954087,289.743073 661.954087,289.743073 C661.954087,289.743073 644.804087,290.743073 644.314087,293.173073 C643.824087,295.603073 656.074087,300.523073 666.854087,299.543073 C677.634087,298.563073 690.384087,308.413073 687.444087,317.703073 C684.504087,326.993073 684.254087,331.403073 671.514087,335.813073 C658.774087,340.223073 652.394087,341.453073 653.374087,348.553073 C654.314087,355.303073 672.244087,351.983073 679.604087,352.473073 C686.964087,352.963073 717.504087,361.303073 719.604087,359.833073 C721.704087,358.363073 796.724087,448.053073 811.424087,444.133073 C826.124087,440.213073 857.984087,382.863073 857.984087,382.863073" id="Path" fill="#FFAD94" fill-rule="nonzero"></path>
            <path d="M886.904087,417.253073 L813.204087,417.253073 C810.18241,417.104937 807.632244,414.955921 806.974087,412.003073 L779.434087,313.003073 C778.084087,308.133073 781.234087,303.143073 785.664087,303.143073 L851.264087,303.143073 C856.924087,303.143073 861.984087,307.243073 863.894087,313.403073 L893.034087,407.143073 C894.554087,412.073073 891.404087,417.253073 886.904087,417.253073 Z" id="Path" fill-opacity="0.30200206" fill="#BDBFC1" fill-rule="nonzero"></path>
            <path d="M879.634087,417.253073 L805.974087,417.253073 C802.95241,417.104937 800.402244,414.955921 799.744087,412.003073 L772.204087,313.003073 C770.844087,308.133073 773.994087,303.143073 778.434087,303.143073 L844.034087,303.143073 C849.694087,303.143073 854.744087,307.243073 856.664087,313.403073 L885.794087,407.143073 C887.324087,412.073073 884.164087,417.253073 879.634087,417.253073 Z" id="Path" fill="#1E051B" fill-rule="nonzero"></path>
            <path d="M1020.57409,418.153073 C1020.57409,418.153073 1024.50409,474.033073 1014.69409,482.853073 C1004.88409,491.673073 993.134087,497.063073 974.994087,488.243073 C956.854087,479.423073 893.144087,435.803073 893.144087,435.803073 C893.144087,435.803073 874.524087,444.623073 859.324087,440.213073 C844.124087,435.803073 823.064087,417.213073 822.074087,411.783073 L821.074087,406.393073 C821.074087,406.393073 819.634087,401.153073 821.474087,399.773073 C822.481583,398.97395 823.688459,398.46561 824.964087,398.303073 C824.964087,398.303073 823.864087,390.033073 827.634087,389.573073 C831.404087,389.113073 835.724087,391.043073 835.724087,391.043073 C835.724087,391.043073 836.644087,385.443073 841.514087,386.173073 C846.384087,386.903073 851.714087,390.033073 851.714087,390.033073 C851.714087,390.033073 868.254087,410.033073 877.074087,408.593073 C885.894087,407.153073 888.654087,400.513073 888.654087,400.513073 L887.184087,388.563073 C887.184087,388.563073 892.184087,387.463073 898.024087,393.153073 C903.864087,398.843073 916.654087,409.573073 927.194087,415.463073 C937.734087,421.353073 964.444087,428.933073 964.444087,428.933073 L963.704087,412.273073 C963.704087,412.273073 997.544087,389.723073 1020.57409,418.153073 Z" id="Path" fill="#FFAD94" fill-rule="nonzero"></path>
            <ellipse id="Oval" fill="#14417D" fill-rule="nonzero" transform="translate(270.688915, 418.037642) rotate(-37.230000) translate(-270.688915, -418.037642) " cx="270.688915" cy="418.037642" rx="58.65" ry="81.14"></ellipse>
            <ellipse id="Oval" fill="#14417D" fill-rule="nonzero" transform="translate(272.681342, 418.037610) rotate(-37.230000) translate(-272.681342, -418.037610) " cx="272.681342" cy="418.03761" rx="34.56" ry="47.81"></ellipse>
            <path d="M325.414087,385.913073 L318.414087,387.053073 L299.174087,402.283073 C302.324937,407.078746 304.754204,412.311273 306.384087,417.813073 C310.384087,431.493073 308.024087,443.693073 301.204087,451.273073 L334.524087,476.713073 C344.314087,461.903073 347.004087,440.713073 340.184087,417.263073 C336.895134,406.118402 331.913708,395.545096 325.414087,385.913073 Z" id="Path" fill="#0A55A7" fill-rule="nonzero"></path>
            <path d="M248.334087,338.653073 L259.614087,377.413073 C274.264087,377.563073 289.614087,387.703073 299.144087,402.193073 L325.904087,386.653073 C307.194087,358.293073 276.964087,338.653073 248.334087,338.653073 Z" id="Path" fill="#154AFD" fill-rule="nonzero"></path>
            <polyline id="Path" stroke="#BCE0FD" stroke-width="2" stroke-linecap="round" stroke-linejoin="round" points="272.684087 357.743073 254.344087 330.223073 213.554087 330.223073"></polyline>
            <rect id="Rectangle" fill="#5FBFFD" fill-rule="nonzero" transform="translate(170.749087, 320.838073) rotate(-180.000000) translate(-170.749087, -320.838073) " x="138.584087" y="318.913073" width="64.33" height="3.85" rx="1.92"></rect>
            <rect id="Rectangle" fill="#5FBFFD" fill-rule="nonzero" transform="translate(170.749087, 330.038073) rotate(-180.000000) translate(-170.749087, -330.038073) " x="138.584087" y="328.113073" width="64.33" height="3.85" rx="1.92"></rect>
            <rect id="Rectangle" fill="#5FBFFD" fill-rule="nonzero" transform="translate(186.829087, 339.228073) rotate(180.000000) translate(-186.829087, -339.228073) " x="170.744087" y="337.303073" width="32.17" height="3.85" rx="1.92"></rect>
            <path d="M80.0140874,490.973073 C80.0140874,490.973073 130.374087,307.553073 181.614087,348.023073 C211.314087,371.473073 91.0140874,485.113073 91.0140874,485.113073" id="Path" fill="#BCE0FD" fill-rule="nonzero"></path>
            <path d="M59.9040874,470.893073 C59.9040874,470.893073 -8.59591259,423.653073 0.904087409,388.193073 C10.4040874,352.733073 60.8040874,407.303073 69.8440874,466.263073" id="Path" fill="#BCE0FD" fill-rule="nonzero"></path>
            <path d="M80.7640874,476.793073 C80.7640874,476.793073 167.044087,192.073073 101.514087,212.153073 C35.9840874,232.233073 69.8440874,472.073073 69.8440874,472.073073" id="Path" fill="#BCE0FD" fill-rule="nonzero"></path>
            <path d="M108.954087,211.563073 C108.954087,211.563073 68.7840874,367.563073 77.0540874,485.663073" id="Path" stroke="#82CEF9" stroke-linecap="round"></path>
            <path d="M177.484087,346.253073 C177.484087,346.253073 102.744087,422.013073 98.7640874,479.833073" id="Path" stroke="#82CEF9" stroke-linecap="round"></path>
            <path d="M4.99408741,380.513073 C4.99408741,380.513073 56.9940874,440.763073 66.4240874,479.753073" id="Path" stroke="#82CEF9" stroke-linecap="round"></path>
            <line x1="176.114087" y1="387.603073" x2="134.764087" y2="399.413073" id="Path" stroke="#82CEF9" stroke-linecap="round"></line>
            <line x1="119.594087" y1="388.783073" x2="118.174087" y2="423.733073" id="Path" stroke="#82CEF9" stroke-linecap="round"></line>
            <line x1="105.414087" y1="451.393073" x2="134.954087" y2="438.403073" id="Path" stroke="#82CEF9" stroke-linecap="round"></line>
            <line x1="77.0540874" y1="417.133073" x2="105.004087" y2="385.133073" id="Path" stroke="#82CEF9" stroke-linecap="round"></line>
            <line x1="3.83408741" y1="410.793073" x2="32.1640874" y2="415.953073" id="Path" stroke="#82CEF9" stroke-linecap="round"></line>
            <line x1="51.9140874" y1="414.803073" x2="52.2440874" y2="446.673073" id="Path" stroke="#82CEF9" stroke-linecap="round"></line>
            <path d="M101.824087,546.503073 L60.5640874,546.503073 C52.75655,546.500983 46.1480702,540.737774 45.0840874,533.003073 L35.0840874,460.253073 L127.244087,460.253073 L117.244087,533.003073 C116.183271,540.715239 109.608804,546.471096 101.824087,546.503073 Z" id="Path" fill="#8CBDF2" fill-rule="nonzero"></path>
            <polygon id="Path" fill="#BCE0FD" fill-rule="nonzero" points="630.174087 209.583073 662.674087 200.823073 651.194087 225.433073"></polygon>
            <polygon id="Path" fill="#BCE0FD" fill-rule="nonzero" points="618.594087 323.983073 572.404087 317.403073 600.474087 292.323073"></polygon>
            <path d="M514.364087,0.0130734595 C513.121872,0.0737132408 511.904477,0.383162596 510.784087,0.92307346 L461.964087,24.2430735 C459.413066,25.4616626 457.552174,27.7712277 456.904087,30.5230735 L444.904087,82.9230735 C444.345745,85.3640061 444.804205,87.9270487 446.174087,90.0230735 C446.336026,90.2767666 446.513009,90.5205362 446.704087,90.7530735 L480.494087,132.753073 C482.275818,134.957495 484.959652,136.236912 487.794087,136.233082 L541.984087,136.233082 C544.815019,136.233082 547.494558,134.954766 549.274087,132.753073 L583.054087,90.7530735 C584.824376,88.5578343 585.491348,85.6725354 584.864087,82.9230735 L572.794087,30.5230735 C572.158996,27.7679578 570.298732,25.4545996 567.744087,24.2430735 L518.904087,0.92307346 C517.491261,0.243074008 515.929844,-0.0698970798 514.364087,0.0130734595 Z" id="Path" fill="#0A55A7" fill-rule="nonzero"></path>
            <path d="M514.824087,17.8430735 C513.123009,17.9398743 511.818892,19.391374 511.904087,21.0930735 L511.904087,21.1730735 C511.904087,21.4130735 511.904087,21.7130735 511.904087,21.9230735 C511.983377,22.8567153 512.116936,23.7849513 512.304087,24.7030735 C512.581518,26.4552762 512.688685,28.23022 512.624087,30.0030735 C512.444162,30.592695 512.096736,31.1173082 511.624087,31.5130735 L511.554087,32.7530735 C502.26284,33.5109077 493.581331,37.6824495 487.184087,44.4630735 L486.124087,43.7230735 C485.547386,43.8949009 484.926311,43.8338705 484.394087,43.5530735 C482.968272,42.4971591 481.648707,41.304862 480.454087,39.9930735 C479.852751,39.2903376 479.211704,38.62258 478.534087,37.9930735 C478.354087,37.8330735 478.084087,37.6330735 477.884087,37.4730735 C477.315366,37.0118094 476.6153,36.742284 475.884087,36.7030735 C474.99291,36.648765 474.128658,37.0196882 473.554087,37.7030735 C472.574333,39.0947306 472.895193,41.0154366 474.274087,42.0130735 L474.274087,42.0130735 C474.474087,42.1730735 474.704087,42.3730735 474.884087,42.5030735 C475.661737,43.0211958 476.469865,43.4920469 477.304087,43.9130735 C478.850395,44.7887944 480.307332,45.8136745 481.654087,46.9730735 C482.000718,47.4678181 482.201659,48.0498544 482.234087,48.6530735 L483.174087,49.4930735 C477.994726,57.2404184 475.858112,66.6272756 477.174087,75.8530735 L475.944087,76.2130735 C475.624087,76.6230735 475.174087,77.2830735 474.694087,77.4730735 C472.98062,77.9344581 471.225142,78.2225709 469.454087,78.3330735 C468.517174,78.3570686 467.582358,78.4338571 466.654087,78.5630735 C466.424087,78.5630735 466.114087,78.6830735 465.874087,78.7430735 L465.904087,78.7430735 C464.804814,78.8926662 463.884306,79.6502907 463.526101,80.7002765 C463.167896,81.7502624 463.433436,82.9125095 464.212081,83.7027581 C464.990726,84.4930067 466.148918,84.7757085 467.204087,84.4330735 L467.204087,84.4330735 L467.264087,84.4330735 C467.504087,84.4330735 467.804087,84.3230735 468.014087,84.2630735 C468.906948,83.9833421 469.781907,83.6493881 470.634087,83.2630735 C472.281472,82.6014036 473.989596,82.1023637 475.734087,81.7730735 C476.338093,81.8095094 476.919932,82.0138457 477.414087,82.3630735 L478.684087,82.1430735 C481.549522,90.9649639 487.542672,98.4341724 495.534087,103.143073 L495.004087,104.423073 C495.259734,104.932813 495.350593,105.509419 495.264087,106.073073 C494.537889,107.737127 493.653846,109.327735 492.624087,110.823073 C492.052799,111.569807 491.528456,112.351313 491.054087,113.163073 C490.944087,113.383073 490.794087,113.713073 490.684087,113.943073 C490.121052,114.898059 490.145219,116.089039 490.746531,117.020398 C491.347843,117.951757 492.423315,118.463984 493.5254,118.34392 C494.627484,118.223856 495.56743,117.492064 495.954087,116.453073 L495.954087,116.453073 C496.064087,116.233073 496.224087,115.933073 496.314087,115.713073 C496.648752,114.837801 496.929281,113.942779 497.154087,113.033073 C497.934087,111.093073 498.354087,109.033073 499.424087,107.783073 C499.773439,107.458025 500.212433,107.245496 500.684087,107.173073 L501.344087,105.973073 C508.341851,108.66626 515.982744,109.216265 523.294087,107.553073 C524.994032,107.167351 526.664805,106.662777 528.294087,106.043073 L528.924087,107.163073 C529.519185,107.263809 530.05271,107.589653 530.414087,108.073073 C531.241221,109.639697 531.911158,111.284391 532.414087,112.983073 C532.651572,113.890306 532.935276,114.784806 533.264087,115.663073 C533.364087,115.883073 533.514087,116.183073 533.634087,116.413073 C533.998688,117.483145 534.944548,118.249384 536.06699,118.383963 C537.189432,118.518541 538.28962,117.997619 538.896849,117.044067 C539.504078,116.090516 539.51078,114.873253 538.914087,113.913073 L538.534087,113.133073 C538.056205,112.326729 537.531993,111.548758 536.964087,110.803073 C535.951542,109.344547 535.08408,107.790482 534.374087,106.163073 C534.219127,105.583067 534.29813,104.965404 534.594087,104.443073 C534.411889,104.059139 534.251631,103.665172 534.114087,103.263073 C542.135497,98.4985995 548.128095,90.9544736 550.954087,82.0630735 L552.204087,82.2830735 C552.651184,81.8761838 553.23997,81.6607741 553.844087,81.6830735 C555.586953,82.0103261 557.292285,82.5128795 558.934087,83.1830735 C559.788795,83.5632971 560.6634,83.8971159 561.554087,84.1830735 L562.314087,84.3430735 L562.314087,84.3430735 L562.314087,84.3430735 C563.369257,84.6857085 564.527449,84.4030067 565.306094,83.6127581 C566.084739,82.8225095 566.350279,81.6602624 565.992074,80.6102765 C565.633869,79.5602907 564.713361,78.8026662 563.614087,78.6530735 L562.764087,78.4530735 C561.83225,78.3274569 560.894121,78.254009 559.954087,78.2330735 C558.186501,78.114778 556.43478,77.8233828 554.724087,77.3630735 C554.104087,77.1330735 553.674087,76.3630735 553.454087,76.1030735 L552.274087,75.7530735 C553.531871,66.5410317 551.368714,57.1875133 546.194087,49.4630735 L547.194087,48.5330735 C547.156001,47.9294545 547.353114,47.334534 547.744087,46.8730735 C549.091284,45.7171486 550.548206,44.6956283 552.094087,43.8230735 C552.929611,43.3948357 553.740846,42.9207805 554.524087,42.4030735 C554.714087,42.2630735 554.964087,42.0430735 555.164087,41.8830735 C556.121684,41.2832896 556.650815,40.1877768 556.525286,39.0648454 C556.399758,37.9419141 555.641784,36.9902821 554.575384,36.6167538 C553.508984,36.2432255 552.322872,36.5139016 551.524087,37.3130735 L550.874087,37.8330735 C550.193276,38.4625282 549.548898,39.1302779 548.944087,39.8330735 C547.752053,41.1504489 546.432256,42.346306 545.004087,43.4030735 C544.44327,43.6299062 543.830272,43.6957082 543.234087,43.5930735 L542.124087,44.3830735 C535.7205,37.6716097 527.10183,33.5079325 517.864087,32.6630735 C517.864087,32.2730735 517.804087,31.5730735 517.794087,31.3630735 C517.280948,31.0276433 516.921431,30.5027475 516.794087,29.9030735 C516.728291,28.1298376 516.838834,26.3544515 517.124087,24.6030735 C517.306358,23.6841101 517.439878,22.7561463 517.524087,21.8230735 C517.524087,21.5830735 517.524087,21.2430735 517.524087,20.9930735 C517.609283,19.291374 516.305166,17.8398743 514.604087,17.7430735 L514.824087,17.8430735 Z M511.164087,40.5130735 L510.294087,55.8330735 L510.234087,55.8330735 C510.200553,56.7852588 509.644973,57.6414559 508.789051,58.0599997 C507.933129,58.4785435 506.916207,58.3912961 506.144087,57.8330735 L506.144087,57.8330735 L493.574087,48.9230735 C497.577133,44.99042 502.599206,42.254256 508.074087,41.0230735 C509.094869,40.8012874 510.126176,40.6310716 511.164087,40.5130735 L511.164087,40.5130735 Z M518.484087,40.5130735 C525.089894,41.3249289 531.243996,44.2912693 535.994087,48.9530735 L523.504087,57.8030735 L523.504087,57.8030735 C522.391964,58.6191316 520.833945,58.4116901 519.974087,57.3330735 C519.631973,56.909593 519.435583,56.3870548 519.414087,55.8430735 L519.414087,55.8430735 L518.484087,40.5130735 Z M488.994087,54.6530735 L500.474087,64.9130735 L500.474087,64.9730735 C501.515521,65.8778602 501.660904,67.4418296 500.804087,68.5230735 C500.459884,68.9487095 499.991449,69.2563385 499.464087,69.4030735 L499.464087,69.4030735 L484.754087,73.6530735 C484.016112,67.0245039 485.508031,60.3390171 488.994087,54.6530735 L488.994087,54.6530735 Z M540.574087,54.6530735 C544.064207,60.340924 545.608633,67.0100374 544.974087,73.6530735 L530.194087,69.3930735 L530.194087,69.3330735 C528.867355,68.962088 528.063202,67.6174384 528.364087,66.2730735 C528.48238,65.7398683 528.770043,65.2592594 529.184087,64.9030735 L529.184087,64.9030735 L540.574087,54.6530735 Z M512.474087,65.6530735 L517.174087,65.6530735 L520.094087,69.3130735 L519.044087,73.8630735 L514.824087,75.8630735 L510.594087,73.8630735 L509.544087,69.3030735 L512.474087,65.6530735 Z M527.544087,78.1530735 C527.742082,78.1444719 527.940364,78.1612754 528.134087,78.2030735 L528.134087,78.2030735 L543.344087,80.7730735 C541.094104,87.0832054 536.809195,92.4657267 531.164087,96.0730735 L525.254087,81.8030735 L525.254087,81.8030735 C524.710386,80.5346096 525.261178,79.0628956 526.504087,78.4630735 C526.817488,78.3126018 527.157085,78.2243066 527.504087,78.2030735 L527.544087,78.1530735 Z M501.984087,78.2230735 C503.172809,78.238746 504.196936,79.0646546 504.464087,80.2230735 C504.581453,80.7557272 504.528996,81.3117663 504.314087,81.8130735 L504.364087,81.8130735 L498.514087,95.9430735 C492.907276,92.3478775 488.640779,87.0059707 486.374087,80.7430735 L501.454087,78.1830735 L501.454087,78.1830735 C501.620187,78.1636277 501.787988,78.1636277 501.954087,78.1830735 L501.984087,78.2230735 Z M514.734087,84.4030735 C515.713101,84.3797263 516.623409,84.9043107 517.094087,85.7630735 L517.094087,85.7630735 L524.534087,99.1930735 C523.549326,99.5221291 522.547943,99.7991782 521.534087,100.023073 C516.066016,101.27923 510.356208,100.988372 505.044087,99.1830735 L512.454087,85.7630735 L512.454087,85.7630735 C512.924577,84.9520902 513.796619,84.4586978 514.734087,84.4730735 L514.734087,84.4030735 Z" id="Shape" stroke="#FFFFFF" stroke-width="0.25" fill="#FFFFFF" fill-rule="nonzero"></path>
            <path d="M163.589854,40.4207763 C133.550159,44.5672224 110.244243,68.7232279 107.176191,98.8921418 C104.10814,129.061056 122.074094,157.414236 150.664087,167.523073 C164.536396,172.569055 175.557911,183.353666 180.904087,197.113073 L184.064087,205.113073 L234.064087,185.443073 L230.114087,175.653073 C224.891698,162.159256 225.540557,147.097762 231.904087,134.103073 C239.852573,117.571251 240.51623,98.4666087 233.734087,81.4230735 C222.607913,53.2134201 193.629549,36.2743303 163.589854,40.4207763 Z" id="Path" fill="#FFFFF0" fill-rule="nonzero"></path>
            <path d="M152.904087,155.913073 C127.537493,142.560966 116.740803,111.920112 128.133784,85.6153048 C139.526765,59.3104979 169.262109,46.2246372 196.354087,55.5930735 C178.128433,45.8909927 155.998122,47.2479487 139.094343,59.1040478 C122.190564,70.9601468 113.378618,91.3057018 116.294404,111.745933 C119.21019,132.186163 133.359461,149.256316 152.904087,155.913073 L152.904087,155.913073 Z" id="Path" fill="#FFFFFF" fill-rule="nonzero" opacity="0.5"></path>
            <path d="M242.304087,184.913073 L242.304087,184.913073 C241.530314,182.929549 239.997784,181.336291 238.045812,180.486057 C236.09384,179.635822 233.883467,179.598759 231.904087,180.383073 L181.004087,200.453073 C179.010713,201.226437 177.409868,202.765572 176.55878,204.72702 C175.707692,206.688469 175.677192,208.908989 176.474087,210.893073 L176.474087,210.893073 C177.739604,214.127445 180.947469,216.175792 184.414087,215.963073 C181.73386,218.175131 180.788275,221.864528 182.074087,225.093073 L182.074087,225.093073 C183.351532,228.318834 186.549913,230.365153 190.014087,230.173073 C187.33743,232.387678 186.395994,236.076654 187.684087,239.303073 L187.684087,239.303073 C188.457451,241.296447 189.996586,242.897293 191.958034,243.748381 C193.919483,244.599469 196.140003,244.629969 198.124087,243.833073 L248.984087,223.763073 C250.977461,222.98971 252.578307,221.450575 253.429395,219.489126 C254.280483,217.527678 254.310983,215.307157 253.514087,213.323073 L253.514087,213.323073 C252.251919,210.084757 249.04326,208.031861 245.574087,208.243073 C248.254315,206.031015 249.1999,202.341619 247.914087,199.113073 L247.914087,199.113073 C246.648571,195.878702 243.440706,193.830355 239.974087,194.043073 C242.650744,191.828469 243.592181,188.139493 242.304087,184.913073 L242.304087,184.913073 Z" id="Path" fill="#0A55A7" fill-rule="nonzero"></path>
            <g id="Group" transform="translate(177.934087, 190.743073)" stroke="#51A3E5" stroke-width="3">
                <line x1="2.84217094e-14" y1="27.81" x2="70.46" y2="0" id="Path"></line>
                <line x1="6.85" y1="41.22" x2="75.64" y2="14.08" id="Path"></line>
            </g>
            <path d="M156.474087,118.303073 C154.245569,119.176732 152.456883,120.902147 151.503569,123.097772 C150.550255,125.293396 150.510857,127.778332 151.394087,130.003073 L151.774087,131.003073 C152.645705,133.235862 154.37196,135.028733 156.570161,135.984228 C158.768363,136.939723 161.256898,136.9789 163.484087,136.093073 L171.904087,132.753073 L168.204087,123.383073 C167.330719,121.147174 165.600347,119.35281 163.397622,118.39886 C161.194897,117.444909 158.70236,117.410425 156.474087,118.303073 L156.474087,118.303073 Z" id="Path" stroke="#EFB43F" stroke-width="4"></path>
            <path d="M194.104087,103.453073 L194.104087,103.453073 C191.873112,104.326638 190.082537,106.053706 189.129011,108.251695 C188.175485,110.449684 188.137722,112.937152 189.024087,115.163073 L192.724087,124.533073 L201.114087,121.223073 C203.345063,120.349508 205.135638,118.622441 206.089164,116.424452 C207.042689,114.226462 207.080452,111.738995 206.194087,109.513073 L205.804087,108.513073 C204.926545,106.28818 203.199508,104.50408 201.004306,103.554702 C198.809105,102.605324 196.326296,102.568756 194.104087,103.453073 L194.104087,103.453073 Z" id="Path" stroke="#EFB43F" stroke-width="4"></path>
            <polyline id="Path" stroke="#EFB43F" stroke-width="4" points="217.154087 186.443073 192.724087 124.533073 182.764087 128.463073 181.834087 128.833073 171.874087 132.753073 196.304087 194.663073"></polyline>
            <path d="M918.284087,211.533073 C917.978943,210.896359 917.603255,210.295929 917.164087,209.743073 C916.711907,209.172633 916.202593,208.649915 915.644087,208.183073 C914.540549,207.273244 913.289051,206.559552 911.944087,206.073073 C910.593943,205.60103 909.189422,205.301981 907.764087,205.183073 C907.044087,205.123073 906.304087,205.183073 905.594087,205.103073 L903.404087,205.243073 L903.214087,205.243073 C901.557233,205.345246 900.13126,204.084928 900.029087,202.428073 C899.926915,200.771219 901.187233,199.345246 902.844087,199.243073 C903.056943,199.222891 903.271231,199.222891 903.484087,199.243073 L906.134087,199.643073 C907.024087,199.863073 907.894087,200.033073 908.764087,200.303073 C910.519433,200.829063 912.199873,201.578539 913.764087,202.533073 C915.294311,203.510638 916.646964,204.741553 917.764087,206.173073 C918.904728,207.603456 919.71107,209.270807 920.124139,211.053073 C920.12844,211.485351 919.854525,211.871483 919.445097,212.010234 C919.03567,212.148985 918.583438,212.008935 918.324087,211.663073 L918.284087,211.533073 Z" id="Path" fill="#7C2B06" fill-rule="nonzero"></path>
            <path d="M872.124087,205.823073 C872.423917,204.925054 872.848036,204.07345 873.384087,203.293073 C874.511037,201.627411 876.109145,200.335693 877.974087,199.583073 C878.93635,199.199025 879.945038,198.943491 880.974087,198.823073 L880.974087,198.823073 C881.917334,198.582724 882.914978,198.902567 883.542649,199.64655 C884.17032,200.390533 884.317611,201.427789 883.921867,202.317096 C883.526123,203.206404 882.656956,203.791334 881.684087,203.823073 C881.399208,203.868342 881.108967,203.868342 880.824087,203.823073 C880.206419,203.66828 879.57067,203.597641 878.934087,203.613073 C878.272547,203.621983 877.617035,203.740246 876.994087,203.963073 C876.320836,204.200282 875.687083,204.537385 875.114087,204.963073 C874.518045,205.399667 873.983275,205.914258 873.524087,206.493073 L873.444087,206.583073 C873.194747,206.872597 872.77699,206.948503 872.441738,206.765199 C872.106486,206.581896 871.944922,206.189239 872.054087,205.823073 L872.124087,205.823073 Z" id="Path" fill="#7C2B06" fill-rule="nonzero"></path>
            <ellipse id="Oval" fill="#7C2B06" fill-rule="nonzero" transform="translate(900.152438, 216.298602) rotate(-87.660000) translate(-900.152438, -216.298602) " cx="900.152438" cy="216.298602" rx="3.67" ry="2.65"></ellipse>
            <ellipse id="Oval" fill="#7C2B06" fill-rule="nonzero" transform="translate(879.563704, 214.466315) rotate(-87.660000) translate(-879.563704, -214.466315) " cx="879.563704" cy="214.466315" rx="3.67" ry="2.65"></ellipse>
            <path d="M906.194087,237.253073 C906.194087,237.253073 898.914087,244.413073 889.384087,243.543073 C882.064087,242.873073 892.214087,253.793073 897.574087,252.343073 C907.074087,249.763073 908.344087,241.433073 906.194087,237.253073 Z" id="Path" fill="#FFFFFF" fill-rule="nonzero"></path>
            <path d="M889.904087,208.263073 C889.904087,208.263073 883.644087,220.263073 880.714087,226.913073 C878.024087,233.003073 876.774087,236.383073 886.714087,233.803073" id="Path" stroke="#7C2B06" stroke-linecap="round"></path>
            <path d="M974.174087,155.963073 C974.174087,155.963073 1013.39409,171.483073 991.104087,206.153073" id="Path" stroke="#7C2B06" stroke-linecap="round"></path>
            <path d="M870.904087,155.963073 C870.904087,155.963073 866.754087,185.183073 920.484087,187.613073 C974.214087,190.043073 974.204087,221.473073 974.204087,221.473073" id="Path" stroke="#662A12" stroke-linecap="round"></path>
            <path d="M914.374087,157.253073 C914.374087,157.253073 912.874087,178.013073 959.374087,183.383073" id="Path" stroke="#662A12" stroke-linecap="round"></path>
            <polygon id="Path" fill="#0A55A7" fill-rule="nonzero" points="464.754087 374.313073 552.414087 374.313073 497.624087 390.753073"></polygon>
            <polygon id="Path" fill="#0A55A7" fill-rule="nonzero" points="464.754087 368.833073 497.624087 363.353073 497.624087 303.093073"></polygon>
            <polygon id="Path" fill="#0A55A7" fill-rule="nonzero" points="503.104087 363.353073 552.414087 368.833073 503.104087 259.263073"></polygon>
        </g>
    </g>
</svg>