<?xml version="1.0" encoding="UTF-8"?>
<svg width="4000px" height="2000px" viewBox="0 0 4000 2000" version="1.1" xmlns="http://www.w3.org/2000/svg" xmlns:xlink="http://www.w3.org/1999/xlink">
    <title>logo</title>
    <g id="Logo-with-text" stroke="none" stroke-width="1" fill="none" fill-rule="evenodd">
        <g id="logo" fill="#FFFFFF">
            <text id="Cloud-Native-Communi" font-family="PingFangSC-Semibold, PingFang SC" font-size="184" font-weight="500">
                <tspan x="1523" y="1365">Cloud Native Community</tspan>
            </text>
            <text id="云原生社区" font-family="PingFangSC-Semibold, PingFang SC" font-size="448" font-weight="500">
                <tspan x="1496" y="1046">云原生社区</tspan>
            </text>
            <path d="M810.498749,619 C981.190529,619 1121.89855,762.620269 1141.44578,947.774451 C1259.9349,947.774451 1356,1055.27547 1356,1187.88723 C1356,1320.49898 1259.94741,1428 1141.45829,1428 L1141.45829,1428 L479.541711,1428 C361.052588,1428 265,1320.49898 265,1187.88723 C265,1055.27547 361.065096,947.774451 479.554219,947.774451 C499.098946,762.620269 639.806969,619 810.498749,619 Z M811.882648,863 C805.380642,863 797.949778,863.931547 791.447772,870.452375 L791.447772,870.452375 L553.297869,1078.22266 C546.790289,1084.73047 544,1092.16797 544,1100.53516 C544,1117.26953 557.022589,1130.37812 573.769899,1130.37812 L573.769899,1130.37812 L603.530509,1130.37812 L603.530509,1279.5 C603.530509,1312.31797 630.15158,1339 662.98671,1339 L662.98671,1339 L960.592815,1339 C993.474388,1339 1020.13261,1312.225 1020.03973,1279.22109 L1020.03973,1279.22109 L1019.38953,1130.37812 L1049.11298,1130.37812 C1064.90357,1130.37812 1078.83644,1117.26953 1078.83644,1100.53516 C1079.85818,1092.16797 1076.04986,1084.73047 1068.619,1078.22266 L1068.619,1078.22266 L831.481552,869.520828 C825.815518,864.863094 818.384654,863 811.882648,863 Z M840.714286,1160.75 C881.757143,1160.75 915,1194.03281 915,1235.125 C915,1243.30625 908.314286,1250 900.142857,1250 L900.142857,1250 L721.857143,1250 C713.685714,1250 707,1243.30625 707,1235.125 C707,1194.03281 740.242857,1160.75 781.285714,1160.75 L781.285714,1160.75 Z M811,1012 C843.778571,1012 870.428571,1038.68203 870.428571,1071.5 C870.428571,1104.31797 843.778571,1131 811,1131 C778.221429,1131 751.571429,1104.31797 751.571429,1071.5 C751.571429,1038.68203 778.221429,1012 811,1012 Z" id="Path-2" fill-rule="nonzero"></path>
        </g>
    </g>
</svg>