<svg xmlns="http://www.w3.org/2000/svg" fill="none" viewBox="0 0 1200 900"><path fill="#D2D2D2" fill-rule="evenodd" d="M553 166.6V733c0 7.511-6.094 13.6-13.61 13.6H60.61C53.095 746.6 47 740.511 47 733V166.6c0-7.511 6.094-13.6 13.61-13.6h478.78c7.515 0 13.61 6.089 13.61 13.6z" clip-rule="evenodd"/><path fill="#A3A3A3" fill-rule="evenodd" d="M133.8 719.4h399.6v10.44H133.8V719.4zm0-16.8h399.6v10.44H133.8V702.6zm0-16h399.6v10.44H133.8V686.6zM66.2 171.4h467.2v10.4H66.2v-10.4z" clip-rule="evenodd"/><path fill="#FDDFE1" fill-rule="evenodd" d="M71.66 200.232h456.68a5.45 5.45 0 013.85 1.594 5.447 5.447 0 011.595 3.849v456.628a5.443 5.443 0 01-5.444 5.444H71.659a5.444 5.444 0 01-5.444-5.444V205.675a5.445 5.445 0 015.444-5.443z" clip-rule="evenodd"/><path fill="#4A4A4A" d="M91.675 683.719a3.42 3.42 0 00-1.318.35l-17.846 8.509a3.38 3.38 0 00-1.84 2.293l-4.37 19.104a3.3 3.3 0 00.48 2.605c.062.093.126.182.193.269l12.33 15.328c.65.8 1.63 1.26 2.66 1.256h19.777a3.471 3.471 0 002.664-1.27l12.324-15.332c.646-.8.888-1.857.64-2.86l-4.397-19.118a3.384 3.384 0 00-1.84-2.293l-17.82-8.49a3.43 3.43 0 00-1.653-.35l.016-.001z"/><path fill="#fff" stroke="#fff" stroke-width=".5" d="M91.838 690.229c-.614.043-1.08.57-1.048 1.185v.3c.028.342.08.68.147 1.014.098.64.134 1.29.106 1.938a1.164 1.164 0 01-.35.552l-.023.452c-.649.054-1.293.153-1.927.297a13.712 13.712 0 00-6.972 3.979l-.384-.272a.82.82 0 01-.633-.064c-.52-.385-1-.819-1.436-1.297a8.88 8.88 0 00-.7-.745l-.237-.188a1.282 1.282 0 00-.74-.28 1.022 1.022 0 00-.85.377 1.13 1.13 0 00.261 1.574l.221.176c.285.19.58.362.884.517.57.316 1.107.691 1.598 1.12.127.182.201.395.213.616l.35.32a13.797 13.797 0 00-2.175 9.616l-.449.128a1.458 1.458 0 01-.457.46 9.907 9.907 0 01-1.912.317 9.012 9.012 0 00-1.025.08l-.284.064h-.03a1.072 1.072 0 00-.62 1.812c.285.288.71.39 1.095.264h.02l.29-.032c.326-.098.645-.214.957-.35a9.953 9.953 0 011.86-.543c.221.013.433.088.612.216l.48-.08a13.87 13.87 0 006.15 7.69l-.196.408c.09.188.123.396.096.602a10.317 10.317 0 01-.966 1.749 8.92 8.92 0 00-.573.853l-.136.288a1.07 1.07 0 00.467 1.504c.178.085.376.119.573.099.403-.045.745-.313.886-.692l.133-.272c.122-.32.224-.647.308-.976.283-.7.437-1.451.824-1.915a.865.865 0 01.458-.225l.24-.437a13.801 13.801 0 009.842.024l.213.409a.832.832 0 01.544.328c.301.573.545 1.173.73 1.793.085.332.19.659.311.978l.133.273a1.071 1.071 0 001.46.591c.179-.084.331-.216.44-.381.22-.34.23-.774.026-1.123l-.14-.288a8.83 8.83 0 00-.572-.85 11.326 11.326 0 01-.96-1.693.831.831 0 01.108-.64 3.62 3.62 0 01-.178-.43 13.89 13.89 0 006.122-7.718l.454.08a.851.851 0 01.598-.221c.635.122 1.258.32 1.86.544.313.144.633.266.958.369.077.02.19.038.275.059h.021a1.068 1.068 0 001.375-.779 1.074 1.074 0 00-.028-.584 1.071 1.071 0 00-.87-.714l-.31-.073a9.05 9.05 0 00-1.027-.08 9.824 9.824 0 01-1.912-.316 1.199 1.199 0 01-.46-.461l-.433-.128a13.845 13.845 0 00-2.22-9.595l.378-.35a.845.845 0 01.2-.605 10.035 10.035 0 011.584-1.114c.305-.155.6-.328.884-.517l.234-.19a1.075 1.075 0 00-.507-1.985 1.074 1.074 0 00-.821.319l-.237.19a8.95 8.95 0 00-.7.744c-.422.483-.89.924-1.397 1.317a1.183 1.183 0 01-.647.07l-.405.29a13.988 13.988 0 00-8.863-4.276c0-.16-.02-.4-.024-.475a.842.842 0 01-.35-.532 9.97 9.97 0 01.122-1.931c.07-.337.117-.673.148-1.014v-.32a1.13 1.13 0 00-1.05-1.185l-.014-.008-.001-.001zm-1.335 8.27l-.32 5.594h-.024a.967.967 0 01-.532.807.913.913 0 01-.96-.087l-4.588-3.25a10.982 10.982 0 015.29-2.88c.374-.08.751-.141 1.131-.183h.003v-.001zm2.67 0c2.41.3 4.654 1.383 6.39 3.08l-4.544 3.23a.937.937 0 01-.99.116.939.939 0 01-.538-.839l-.317-5.586-.001-.001zm-10.76 5.168l4.196 3.743v.024a.945.945 0 01.06 1.359.938.938 0 01-.43.257v.016l-5.384 1.548a10.981 10.981 0 011.56-6.95l-.002.003zm18.82 0a11.18 11.18 0 011.605 6.928l-5.392-1.553v-.021a.93.93 0 01-.668-.697.949.949 0 01.298-.92l4.163-3.724-.006-.013zm-10.254 4.035h1.716l1.05 1.332-.382 1.665-1.542.74-1.545-.74-.364-1.665 1.067-1.332zm5.498 4.544a.975.975 0 01.216 0l5.552.936a10.914 10.914 0 01-4.443 5.593l-2.146-5.194a.945.945 0 01.815-1.311l.006-.024zm-9.324.024a.946.946 0 01.775.429.936.936 0 01.075.88v.02l-2.132 5.153a11.017 11.017 0 01-4.417-5.535l5.504-.933a.963.963 0 01.186 0l.01-.014h-.001zm4.65 2.24c.357-.01.69.18.86.494h.02l2.713 4.895-1.084.32a11.038 11.038 0 01-6.017-.31l2.722-4.895a.947.947 0 01.8-.473l-.014-.03v-.001z"/><path fill="#EFFFBD" d="M66 225h468v438a5.004 5.004 0 01-1.464 3.536A5.004 5.004 0 01529 668H71a5.002 5.002 0 01-5-5V225z"/><path fill="#66E8FF" d="M66 508h468v155a5.004 5.004 0 01-1.464 3.536A5.004 5.004 0 01529 668H71a5.002 5.002 0 01-5-5V508z"/><path fill="#00A8C6" d="M66 618h468v42a8 8 0 01-8 8H74a8.001 8.001 0 01-8-8v-42z"/><path fill="#8FBE00" fill-rule="evenodd" d="M89 303h42v42H89v-42zm63 0h42v42h-42v-42zm63 0h42v42h-42v-42zm64 0h42v42h-42v-42zm63 0h42v42h-42v-42zM89 240h42v42H89v-42zm63 0h42v42h-42v-42zm63 0h42v42h-42v-42zm64 0h42v42h-42v-42zm63 0h42v42h-42v-42zm64 63h42v42h-42v-42zm0-63h42v42h-42v-42zm63 63h42v42h-42v-42zm0-63h42v42h-42v-42zM89 366h42v42H89v-42zm63 0h42v42h-42v-42zm63 0h42v42h-42v-42z" clip-rule="evenodd"/><path fill="#B5B5B5" fill-opacity=".85" d="M599 617.613c4.24 0 7.92-.4 11.043-1.203 3.122-.802 5.7-2.105 7.734-3.91 2.034-1.805 3.545-4.204 4.534-7.197.988-2.994 1.482-6.682 1.482-11.065v-11.375c0-4.583.96-7.877 2.879-9.883 1.92-2.005 5.3-3.007 10.14-3.007v-12.375c-4.84 0-8.22-.996-10.14-2.987-1.92-1.99-2.879-5.292-2.879-9.904v-13.332c0-4.383-.494-8.071-1.482-11.064-.989-2.994-2.5-5.393-4.534-7.198-2.034-1.804-4.612-3.108-7.734-3.91S603.24 508 599 508v10.184c3.323 0 5.915.487 7.777 1.46 1.862.974 3.159 2.486 3.889 4.534.73 2.048 1.096 4.662 1.096 7.842v16.64c0 2.206.33 4.247.988 6.123.659 1.877 1.876 3.502 3.652 4.877 1.776 1.375 4.312 2.45 7.606 3.223.286.067.58.131.881.193l.02.005v1.435l-.02.004c-.15.03-.3.06-.446.092l-.435.097c-3.294.76-5.83 1.833-7.606 3.223-1.776 1.389-2.993 3.022-3.652 4.898-.659 1.876-.988 3.917-.988 6.123v14.64c0 3.152-.366 5.751-1.096 7.8-.73 2.048-2.027 3.566-3.889 4.554-1.862.989-4.454 1.483-7.777 1.483v10.183zm0 110c4.24 0 7.92-.4 11.043-1.203 3.122-.802 5.7-2.105 7.734-3.91 2.034-1.805 3.545-4.204 4.534-7.197.988-2.994 1.482-6.682 1.482-11.065v-11.375c0-4.583.96-7.877 2.879-9.883 1.92-2.005 5.3-3.007 10.14-3.007v-12.375c-4.84 0-8.22-.996-10.14-2.987-1.92-1.99-2.879-5.292-2.879-9.904v-13.332c0-4.383-.494-8.071-1.482-11.064-.989-2.994-2.5-5.393-4.534-7.198-2.034-1.804-4.612-3.108-7.734-3.91S603.24 618 599 618v10.184c3.323 0 5.915.487 7.777 1.46 1.862.974 3.159 2.486 3.889 4.534.73 2.048 1.096 4.662 1.096 7.842v16.64c0 2.206.33 4.247.988 6.123.659 1.877 1.876 3.502 3.652 4.877 1.776 1.375 4.312 2.45 7.606 3.223.286.067.58.131.881.193l.02.005v1.435l-.02.004c-.15.03-.3.06-.446.092l-.435.097c-3.294.76-5.83 1.833-7.606 3.223-1.776 1.389-2.993 3.022-3.652 4.898-.659 1.876-.988 3.917-.988 6.123v14.64c0 3.152-.366 5.751-1.096 7.8-.73 2.048-2.027 3.566-3.889 4.554-1.862.989-4.454 1.483-7.777 1.483v10.183zm0-221c4.24 0 7.92-.4 11.043-1.203 3.122-.802 5.7-2.105 7.734-3.91 2.034-1.805 3.545-4.204 4.534-7.197.988-2.994 1.482-6.682 1.482-11.065V367.863c0-4.583.96-7.877 2.879-9.883 1.92-2.005 5.3-3.007 10.14-3.007v-12.375c-4.84 0-8.22-.996-10.14-2.987-1.92-1.99-2.879-5.292-2.879-9.904v-65.332c0-4.383-.494-8.071-1.482-11.064-.989-2.994-2.5-5.393-4.534-7.198-2.034-1.804-4.612-3.108-7.734-3.91S603.24 241 599 241v10.184c3.323 0 5.915.487 7.777 1.46 1.862.974 3.159 2.486 3.889 4.534.73 2.048 1.096 4.662 1.096 7.842v68.64c0 2.206.33 4.247.988 6.123.659 1.877 1.876 3.502 3.652 4.877 1.776 1.375 4.312 2.45 7.606 3.223.286.067.58.131.881.193l.02.005v1.435l-.02.004c-.15.03-.3.06-.446.092l-.435.097c-3.294.76-5.83 1.833-7.606 3.223-1.776 1.389-2.993 3.022-3.652 4.898-.659 1.876-.988 3.917-.988 6.123v118.64c0 3.152-.366 5.751-1.096 7.8-.73 2.048-2.027 3.566-3.889 4.554-1.862.989-4.454 1.483-7.777 1.483v10.183z"/><path stroke="#000" stroke-dasharray="30 30" stroke-width="11" d="M24 225l612.5.5"/><path fill="#688A00" fill-rule="evenodd" d="M735.17 226.585a32.595 32.595 0 01-20.115 30.105 32.599 32.599 0 01-24.94 0 32.595 32.595 0 01-17.635-17.635 32.599 32.599 0 010-24.94 32.595 32.595 0 0117.635-17.635 32.599 32.599 0 0124.94 0 32.595 32.595 0 0117.635 17.635 32.599 32.599 0 012.48 12.47z" clip-rule="evenodd"/><path fill="#fff" d="M700.802 212.42h6.728v26.91h-7.306v-20.182h-.157l-5.887 3.522v-6.201l6.622-4.047v-.002z"/><path fill="#688A00" fill-rule="evenodd" d="M735.17 348.585a32.595 32.595 0 01-20.115 30.105 32.599 32.599 0 01-24.94 0 32.595 32.595 0 01-17.635-17.635 32.599 32.599 0 010-24.94 32.595 32.595 0 0117.635-17.635 32.599 32.599 0 0124.94 0 32.595 32.595 0 0117.635 17.635 32.599 32.599 0 012.48 12.47z" clip-rule="evenodd"/><path fill="#fff" d="M713.079 361.33h-20.655v-5.256l10.038-8.304a22.389 22.389 0 001.715-1.557 6.004 6.004 0 001.104-1.504c.258-.517.387-1.09.387-1.721 0-.692-.147-1.283-.44-1.774a2.975 2.975 0 00-1.215-1.137c-.517-.267-1.113-.4-1.787-.4-.675 0-1.268.136-1.78.407-.513.271-.91.67-1.19 1.196-.28.525-.42 1.165-.42 1.918h-6.938c0-1.892.425-3.521 1.275-4.888.849-1.367 2.049-2.418 3.6-3.153 1.551-.736 3.368-1.104 5.453-1.104 2.155 0 4.023.344 5.604 1.031 1.581.688 2.802 1.654 3.665 2.898.863 1.243 1.295 2.702 1.295 4.375 0 1.033-.215 2.06-.644 3.081-.429 1.02-1.2 2.148-2.313 3.383-1.112 1.235-2.693 2.707-4.743 4.415l-2.523 2.103v.157h10.513v5.834h-.001z"/><path fill="#688A00" fill-rule="evenodd" d="M735.17 557.585a32.595 32.595 0 01-20.115 30.105 32.599 32.599 0 01-24.94 0 32.595 32.595 0 01-17.635-17.635 32.599 32.599 0 010-24.94 32.595 32.595 0 0117.635-17.635 32.599 32.599 0 0124.94 0 32.595 32.595 0 0117.635 17.635 32.599 32.599 0 012.48 12.47z" clip-rule="evenodd"/><path fill="#fff" d="M702.407 570.698c-2.12 0-4.001-.366-5.643-1.097-1.643-.731-2.933-1.741-3.87-3.029-.937-1.287-1.41-2.767-1.419-4.44h7.358c.009.516.169.978.48 1.385.311.407.738.725 1.281.953.543.228 1.165.342 1.866.342.675 0 1.27-.121 1.787-.362.517-.241.92-.576 1.209-1.005.289-.429.429-.92.42-1.472a2.187 2.187 0 00-.493-1.445c-.337-.42-.808-.748-1.412-.985-.605-.237-1.301-.355-2.09-.355h-2.731v-5.046h2.733c.727 0 1.368-.118 1.925-.354.556-.237.989-.565 1.3-.986.311-.42.463-.902.454-1.445a2.414 2.414 0 00-.381-1.393 2.674 2.674 0 00-1.097-.946c-.469-.227-1.01-.341-1.623-.341-.666 0-1.259.118-1.78.354-.521.237-.931.565-1.229.986a2.51 2.51 0 00-.46 1.445h-6.99c.009-1.647.462-3.101 1.36-4.362.898-1.261 2.131-2.251 3.699-2.97 1.568-.718 3.368-1.077 5.4-1.077 1.988 0 3.746.337 5.275 1.012 1.529.674 2.724 1.6 3.587 2.779.863 1.178 1.29 2.525 1.281 4.04.018 1.507-.497 2.742-1.544 3.705-1.047.964-2.371 1.533-3.974 1.708v.21c2.172.237 3.805.9 4.9 1.991 1.095 1.091 1.634 2.459 1.617 4.106.009 1.577-.462 2.974-1.413 4.192-.95 1.217-2.268 2.172-3.954 2.864-1.687.692-3.629 1.038-5.828 1.038h-.001z"/><path fill="#688A00" fill-rule="evenodd" d="M735.17 674.585a32.595 32.595 0 01-20.115 30.105 32.599 32.599 0 01-24.94 0 32.595 32.595 0 01-17.635-17.635 32.599 32.599 0 010-24.94 32.595 32.595 0 0117.635-17.635 32.599 32.599 0 0124.94 0 32.595 32.595 0 0117.635 17.635 32.599 32.599 0 012.48 12.47z" clip-rule="evenodd"/><path fill="#fff" d="M714.309 683.125H691.13v-5.675l10.827-17.028h5.15v7.568h-2.943l-5.834 9.25v.21h15.98v5.676l-.001-.001zm-3.101 4.205h-6.99v-5.939l.157-2.47v-18.5h6.833v26.909z"/><path fill="#000" d="M384.034 427h7.381v-11.318h6.204c8.029 0 12.699-4.79 12.699-11.762 0-6.937-4.585-11.829-12.511-11.829h-13.773V427zm7.381-17.233v-11.642h4.977c4.261 0 6.324 2.318 6.324 5.795 0 3.461-2.063 5.847-6.29 5.847h-5.011zm33.529 17.744c7.943 0 12.886-5.437 12.886-13.5 0-8.113-4.943-13.534-12.886-13.534-7.944 0-12.887 5.421-12.887 13.534 0 8.063 4.943 13.5 12.887 13.5zm.034-5.625c-3.665 0-5.54-3.358-5.54-7.926s1.875-7.943 5.54-7.943c3.596 0 5.471 3.375 5.471 7.943s-1.875 7.926-5.471 7.926zm25.781 5.54c4.227 0 6.426-2.437 7.432-4.619h.307V427h7.159v-34.909h-7.244v13.125h-.222c-.972-2.131-3.068-4.739-7.449-4.739-5.744 0-10.602 4.466-10.602 13.466 0 8.762 4.653 13.483 10.619 13.483zm2.301-5.778c-3.562 0-5.505-3.171-5.505-7.739 0-4.534 1.909-7.653 5.505-7.653 3.529 0 5.506 2.983 5.506 7.653 0 4.671-2.011 7.739-5.506 7.739zm38.911-13.364c-.648-4.824-4.534-7.807-11.148-7.807-6.698 0-11.113 3.103-11.096 8.148-.017 3.92 2.454 6.46 7.568 7.483l4.534.903c2.284.461 3.324 1.296 3.358 2.608-.034 1.551-1.721 2.659-4.261 2.659-2.591 0-4.313-1.108-4.756-3.238l-7.142.375c.682 5.011 4.943 8.096 11.881 8.096 6.784 0 11.642-3.46 11.659-8.625-.017-3.784-2.489-6.051-7.568-7.091l-4.739-.954c-2.438-.529-3.341-1.364-3.324-2.625-.017-1.568 1.756-2.591 4.006-2.591 2.523 0 4.023 1.381 4.38 3.068l6.648-.409zM213.034 578h7.381v-9.92l3.63-4.432L233.608 578h8.83l-13.108-19.278 12.954-15.631h-8.846l-12.563 15.392h-.46v-15.392h-7.381V578zm46.667-11.148c.017 3.512-2.387 5.353-4.995 5.353-2.744 0-4.517-1.927-4.534-5.012v-15.375h-7.261v16.671c.017 6.119 3.596 9.852 8.863 9.852 3.938 0 6.768-2.029 7.944-5.097h.272V578h6.972v-26.182h-7.261v15.034zM271.467 578h7.159v-4.193h.324c1.005 2.182 3.204 4.619 7.431 4.619 5.966 0 10.62-4.721 10.62-13.483 0-9-4.858-13.466-10.603-13.466-4.38 0-6.477 2.608-7.448 4.739h-.222v-13.125h-7.261V578zm7.108-13.091c0-4.67 1.977-7.653 5.505-7.653 3.597 0 5.506 3.119 5.506 7.653 0 4.568-1.943 7.739-5.506 7.739-3.494 0-5.505-3.068-5.505-7.739zm33.763 13.602c6.477 0 10.841-3.153 11.863-8.011l-6.716-.443c-.733 1.994-2.608 3.034-5.028 3.034-3.631 0-5.932-2.403-5.932-6.307v-.017h17.83v-1.994c0-8.898-5.387-13.296-12.307-13.296-7.705 0-12.699 5.472-12.699 13.551 0 8.302 4.926 13.483 12.989 13.483zm-5.813-16.244c.154-2.983 2.421-5.369 5.642-5.369 3.154 0 5.335 2.25 5.352 5.369h-10.994zm28.39-19.176h-7.262V578h7.262v-34.909zm16.308 35.42c6.478 0 10.841-3.153 11.864-8.011l-6.716-.443c-.733 1.994-2.608 3.034-5.028 3.034-3.631 0-5.932-2.403-5.932-6.307v-.017h17.829v-1.994c0-8.898-5.386-13.296-12.306-13.296-7.705 0-12.699 5.472-12.699 13.551 0 8.302 4.926 13.483 12.988 13.483zm-5.812-16.244c.153-2.983 2.42-5.369 5.642-5.369 3.153 0 5.335 2.25 5.352 5.369h-10.994zm35.054-10.449h-4.926v-6.273h-7.261v6.273h-3.58v5.455h3.58v13.636c-.034 5.131 3.46 7.671 8.727 7.449 1.875-.068 3.204-.443 3.937-.682l-1.142-5.403c-.358.068-1.125.238-1.806.238-1.449 0-2.455-.545-2.455-2.556v-12.682h4.926v-5.455z"/><path fill="#fff" d="M201.483 646.818c0-6.662-4.136-10.46-9.536-10.46-5.429 0-9.535 3.798-9.535 10.46 0 6.632 4.106 10.46 9.535 10.46 5.4 0 9.536-3.798 9.536-10.46zm-4.365 0c0 4.316-2.048 6.652-5.171 6.652-3.132 0-5.17-2.336-5.17-6.652 0-4.315 2.038-6.652 5.17-6.652 3.123 0 5.171 2.337 5.171 6.652zm6.915 15.909h4.235v-8.173h.13c.586 1.273 1.869 2.695 4.335 2.695 3.48 0 6.195-2.755 6.195-7.865 0-5.25-2.834-7.856-6.185-7.856-2.555 0-3.778 1.522-4.345 2.765h-.189v-2.566h-4.176v21zm4.146-13.363c0-2.725 1.153-4.465 3.212-4.465 2.098 0 3.211 1.82 3.211 4.465 0 2.664-1.133 4.514-3.211 4.514-2.039 0-3.212-1.79-3.212-4.514zm19.973 7.934c3.778 0 6.324-1.839 6.92-4.673l-3.917-.259c-.428 1.164-1.522 1.77-2.934 1.77-2.118 0-3.46-1.402-3.46-3.679v-.01h10.401v-1.163c0-5.19-3.142-7.756-7.179-7.756-4.495 0-7.408 3.192-7.408 7.905 0 4.843 2.874 7.865 7.577 7.865zm-3.391-9.476c.09-1.74 1.412-3.132 3.291-3.132 1.84 0 3.112 1.313 3.122 3.132h-6.413zM237.366 657h4.236v-8.641c0-1.879 1.372-3.171 3.241-3.171.587 0 1.392.099 1.79.228v-3.758a6.327 6.327 0 00-1.333-.149c-1.71 0-3.112.994-3.669 2.883h-.159v-2.665h-4.106V657zm14.814.288c2.258 0 3.719-.984 4.465-2.406h.119V657h4.017v-10.301c0-3.639-3.082-5.171-6.483-5.171-3.659 0-6.065 1.75-6.652 4.534l3.918.319c.288-1.015 1.193-1.76 2.714-1.76 1.442 0 2.268.726 2.268 1.978v.06c0 .984-1.045 1.114-3.699 1.372-3.023.279-5.738 1.293-5.738 4.703 0 3.023 2.158 4.554 5.071 4.554zm1.214-2.923c-1.303 0-2.238-.606-2.238-1.77 0-1.193.985-1.78 2.476-1.988.925-.13 2.436-.348 2.943-.687v1.621c0 1.601-1.322 2.824-3.181 2.824zm18.237-12.638h-2.873v-3.659h-4.236v3.659h-2.088v3.182h2.088v7.955c-.02 2.993 2.018 4.474 5.091 4.345a8.263 8.263 0 002.297-.398l-.667-3.152c-.208.04-.656.139-1.054.139-.845 0-1.431-.318-1.431-1.491v-7.398h2.873v-3.182zM273.83 657h4.236v-15.273h-4.236V657zm2.128-17.241c1.263 0 2.297-.965 2.297-2.148 0-1.173-1.034-2.138-2.297-2.138-1.253 0-2.287.965-2.287 2.138 0 1.183 1.034 2.148 2.287 2.148zm9.177 8.411c.01-1.968 1.183-3.122 2.894-3.122 1.7 0 2.724 1.114 2.714 2.983V657h4.236v-9.724c0-3.56-2.088-5.748-5.27-5.748-2.267 0-3.908 1.114-4.594 2.894h-.179v-2.695h-4.037V657h4.236v-8.83zm19.503 14.875c4.365 0 7.467-1.988 7.467-5.896v-15.422h-4.206v2.566h-.159c-.567-1.243-1.809-2.765-4.365-2.765-3.351 0-6.185 2.606-6.185 7.806 0 5.081 2.755 7.447 6.195 7.447 2.436 0 3.798-1.223 4.355-2.486h.179v2.794c0 2.099-1.342 2.914-3.182 2.914-1.869 0-2.814-.815-3.162-1.74l-3.917.527c.507 2.406 2.863 4.255 6.98 4.255zm.089-9.446c-2.078 0-3.211-1.65-3.211-4.285 0-2.595 1.113-4.415 3.211-4.415 2.059 0 3.212 1.74 3.212 4.415 0 2.695-1.173 4.285-3.212 4.285zm27.236-11.106h4.126c-.059-3.629-3.042-6.135-7.576-6.135-4.465 0-7.736 2.466-7.716 6.165-.01 3.003 2.108 4.723 5.548 5.548l2.217.557c2.218.537 3.451 1.173 3.461 2.545-.01 1.492-1.422 2.506-3.61 2.506-2.237 0-3.848-1.034-3.987-3.072h-4.166c.109 4.404 3.261 6.681 8.203 6.681 4.971 0 7.895-2.376 7.905-6.105-.01-3.39-2.566-5.19-6.105-5.986l-1.83-.437c-1.77-.408-3.251-1.064-3.222-2.526 0-1.312 1.164-2.277 3.272-2.277 2.058 0 3.321.935 3.48 2.536zm9.276 20.234c3.152 0 4.823-1.611 5.688-4.076l5.936-16.904-4.485-.02-3.191 11.216h-.16l-3.161-11.216h-4.455l5.479 15.711-.249.646c-.557 1.432-1.621 1.501-3.112 1.044l-.955 3.162c.607.258 1.591.437 2.665.437zm25.939-16.645c-.378-2.814-2.645-4.554-6.503-4.554-3.908 0-6.483 1.81-6.473 4.753-.01 2.287 1.432 3.769 4.415 4.365l2.645.527c1.332.269 1.938.756 1.958 1.522-.02.904-1.004 1.551-2.485 1.551-1.512 0-2.516-.647-2.775-1.889l-4.166.218c.398 2.924 2.884 4.723 6.931 4.723 3.957 0 6.791-2.018 6.801-5.031-.01-2.207-1.452-3.53-4.415-4.136l-2.764-.557c-1.422-.308-1.949-.796-1.939-1.531-.01-.915 1.024-1.512 2.336-1.512 1.472 0 2.347.806 2.556 1.79l3.878-.239zm10.579-4.355h-2.874v-3.659h-4.236v3.659h-2.088v3.182h2.088v7.955c-.02 2.993 2.019 4.474 5.091 4.345a8.256 8.256 0 002.297-.398l-.666-3.152c-.209.04-.656.139-1.054.139-.845 0-1.432-.318-1.432-1.491v-7.398h2.874v-3.182zm8.995 15.571c3.778 0 6.324-1.839 6.92-4.673l-3.917-.259c-.428 1.164-1.521 1.77-2.933 1.77-2.118 0-3.461-1.402-3.461-3.679v-.01h10.401v-1.163c0-5.19-3.142-7.756-7.179-7.756-4.494 0-7.408 3.192-7.408 7.905 0 4.843 2.874 7.865 7.577 7.865zm-3.391-9.476c.09-1.74 1.412-3.132 3.292-3.132 1.839 0 3.112 1.313 3.122 3.132h-6.414zM395.966 657h4.236v-9.168c0-1.69 1.074-2.814 2.486-2.814 1.392 0 2.326.955 2.326 2.456V657h4.107v-9.327c0-1.581.905-2.655 2.446-2.655 1.352 0 2.366.846 2.366 2.546V657h4.226v-10.271c0-3.311-1.968-5.201-4.812-5.201-2.237 0-3.977 1.144-4.604 2.894h-.159c-.487-1.77-2.048-2.894-4.146-2.894-2.059 0-3.62 1.094-4.256 2.894h-.179v-2.695h-4.037V657z"/><path fill="#000" d="M762.781 311v32h6.563v-20.906h.265l8.282 20.75h4.468l8.282-20.672h.265V343h6.563v-32h-8.344l-8.812 21.5h-.375l-8.813-21.5h-8.344zm49.754 32.469c5.938 0 9.938-2.891 10.875-7.344l-6.156-.406c-.672 1.828-2.39 2.781-4.609 2.781-3.328 0-5.438-2.203-5.438-5.781v-.016h16.344v-1.828c0-8.156-4.937-12.187-11.281-12.187-7.063 0-11.641 5.015-11.641 12.421 0 7.61 4.516 12.36 11.906 12.36zm-5.328-14.891c.141-2.734 2.219-4.922 5.172-4.922 2.891 0 4.891 2.063 4.906 4.922h-10.078zM826.575 343h6.656v-14.406c0-2.657 1.688-4.422 3.906-4.422 2.188 0 3.657 1.5 3.657 3.859V343h6.453v-14.656c0-2.485 1.422-4.172 3.843-4.172 2.125 0 3.719 1.328 3.719 4V343h6.641v-16.141c0-5.203-3.094-8.171-7.563-8.171-3.515 0-6.25 1.796-7.234 4.546h-.25c-.766-2.781-3.219-4.546-6.516-4.546-3.234 0-5.687 1.718-6.687 4.546h-.281V319h-6.344v24zm49.656.469c7.282 0 11.813-4.985 11.813-12.375 0-7.438-4.531-12.406-11.813-12.406-7.281 0-11.812 4.968-11.812 12.406 0 7.39 4.531 12.375 11.812 12.375zm.032-5.157c-3.36 0-5.078-3.078-5.078-7.265 0-4.188 1.718-7.281 5.078-7.281 3.297 0 5.015 3.093 5.015 7.281 0 4.187-1.718 7.265-5.015 7.265zM891.052 343h6.656v-13.578c0-2.953 2.157-4.984 5.094-4.984.922 0 2.188.156 2.813.359v-5.906a9.968 9.968 0 00-2.094-.235c-2.688 0-4.891 1.563-5.766 4.531h-.25V319h-6.453v24zm21.524 9c4.953 0 7.578-2.531 8.937-6.406l9.328-26.563-7.046-.031-5.016 17.625h-.25L913.56 319h-7l8.61 24.688-.391 1.015c-.875 2.25-2.547 2.36-4.891 1.641l-1.5 4.968c.953.407 2.5.688 4.188.688zm36.059-8.547c3.547 0 5.844-1.547 7.016-3.781h.187V343h6.313v-16.188c0-5.718-4.844-8.124-10.188-8.124-5.75 0-9.531 2.749-10.453 7.124l6.156.5c.453-1.593 1.875-2.765 4.266-2.765 2.265 0 3.562 1.14 3.562 3.109v.094c0 1.547-1.64 1.75-5.812 2.156-4.75.438-9.016 2.031-9.016 7.391 0 4.75 3.391 7.156 7.969 7.156zm1.906-4.594c-2.047 0-3.515-.953-3.515-2.781 0-1.875 1.546-2.797 3.89-3.125 1.453-.203 3.828-.547 4.625-1.078v2.547c0 2.515-2.078 4.437-5 4.437zm22.11-9.734c.016-3.094 1.859-4.906 4.547-4.906 2.672 0 4.281 1.75 4.265 4.687V343h6.657v-15.281c0-5.594-3.282-9.031-8.282-9.031-3.562 0-6.14 1.749-7.218 4.546h-.282V319h-6.343v24h6.656v-13.875zm28.239 14.266c3.87 0 5.89-2.235 6.81-4.235h.28V343h6.57v-32h-6.64v12.031h-.21c-.89-1.953-2.81-4.343-6.83-4.343-5.262 0-9.715 4.093-9.715 12.343 0 8.031 4.266 12.36 9.735 12.36zm2.11-5.297c-3.267 0-5.048-2.907-5.048-7.094 0-4.156 1.75-7.016 5.048-7.016 3.23 0 5.05 2.735 5.05 7.016 0 4.281-1.85 7.094-5.05 7.094zm52.92-15.891c-.89-7.391-6.48-11.641-13.89-11.641-8.45 0-14.91 5.969-14.91 16.438 0 10.438 6.35 16.437 14.91 16.437 8.2 0 13.16-5.453 13.89-11.343l-6.84-.032c-.64 3.422-3.33 5.391-6.94 5.391-4.86 0-8.16-3.609-8.16-10.453 0-6.656 3.25-10.453 8.21-10.453 3.7 0 6.37 2.141 6.89 5.656h6.84zm3.53 20.797h6.77v-10.375h5.69c7.36 0 11.64-4.391 11.64-10.781 0-6.36-4.21-10.844-11.47-10.844h-12.63v32zm6.77-15.797v-10.672h4.56c3.91 0 5.8 2.125 5.8 5.313 0 3.172-1.89 5.359-5.77 5.359h-4.59zM1106.39 311v20.203c0 3.656-2.57 6.297-6.5 6.297s-6.5-2.641-6.5-6.297V311h-6.77v20.781c0 7 5.28 11.672 13.27 11.672 7.95 0 13.26-4.672 13.26-11.672V311h-6.76zm-337.077 45h-6.657v32h6.657v-32zm14.949 32.469c5.938 0 9.938-2.891 10.875-7.344l-6.156-.406c-.672 1.828-2.391 2.781-4.61 2.781-3.328 0-5.437-2.203-5.437-5.781v-.016h16.344v-1.828c0-8.156-4.938-12.187-11.282-12.187-7.062 0-11.64 5.015-11.64 12.421 0 7.61 4.515 12.36 11.906 12.36zm-5.328-14.891c.141-2.734 2.219-4.922 5.172-4.922 2.89 0 4.89 2.063 4.906 4.922h-10.078zM811.208 364h-4.766v-1.609c0-1.625.656-2.579 2.609-2.579.797 0 1.61.172 2.141.344l1.172-5c-.828-.25-2.656-.656-4.703-.656-4.516 0-7.875 2.547-7.875 7.766V364h-3.391v5h3.391v19h6.656v-19h4.766v-5zm15.512 0h-4.516v-5.75h-6.656V364h-3.281v5h3.281v12.5c-.031 4.703 3.172 7.031 8 6.828 1.719-.062 2.937-.406 3.609-.625l-1.047-4.953c-.328.062-1.031.219-1.656.219-1.328 0-2.25-.5-2.25-2.344V369h4.516v-5zm24.645 0h-4.516v-5.75h-6.656V364h-3.281v5h3.281v12.5c-.031 4.703 3.172 7.031 8 6.828 1.719-.062 2.937-.406 3.609-.625l-1.047-4.953c-.328.062-1.031.219-1.656.219-1.328 0-2.25-.5-2.25-2.344V369h4.516v-5zm13.602 24.469c7.281 0 11.812-4.985 11.812-12.375 0-7.438-4.531-12.406-11.812-12.406-7.282 0-11.813 4.968-11.813 12.406 0 7.39 4.531 12.375 11.813 12.375zm.031-5.157c-3.359 0-5.078-3.078-5.078-7.265 0-4.188 1.719-7.281 5.078-7.281 3.297 0 5.016 3.093 5.016 7.281 0 4.187-1.719 7.265-5.016 7.265zM888.776 388h6.766v-10.375h5.687c7.359 0 11.641-4.391 11.641-10.781 0-6.36-4.203-10.844-11.469-10.844h-12.625v32zm6.766-15.797v-10.672h4.562c3.906 0 5.797 2.125 5.797 5.313 0 3.172-1.891 5.359-5.766 5.359h-4.593zm30.734 16.266c7.281 0 11.813-4.985 11.813-12.375 0-7.438-4.532-12.406-11.813-12.406-7.281 0-11.812 4.968-11.812 12.406 0 7.39 4.531 12.375 11.812 12.375zm.031-5.157c-3.359 0-5.078-3.078-5.078-7.265 0-4.188 1.719-7.281 5.078-7.281 3.297 0 5.016 3.093 5.016 7.281 0 4.187-1.719 7.265-5.016 7.265zm23.634 5.079c3.875 0 5.89-2.235 6.812-4.235h.281V388h6.563v-32h-6.641v12.031h-.203c-.89-1.953-2.812-4.343-6.828-4.343-5.266 0-9.719 4.093-9.719 12.343 0 8.031 4.266 12.36 9.735 12.36zm2.109-5.297c-3.266 0-5.047-2.907-5.047-7.094 0-4.156 1.75-7.016 5.047-7.016 3.234 0 5.047 2.735 5.047 7.016 0 4.281-1.844 7.094-5.047 7.094zm35.668-12.25c-.593-4.422-4.156-7.156-10.218-7.156-6.141 0-10.188 2.843-10.172 7.468-.016 3.594 2.25 5.922 6.937 6.86l4.156.828c2.094.422 3.047 1.187 3.079 2.39-.032 1.422-1.579 2.438-3.907 2.438-2.375 0-3.953-1.016-4.359-2.969l-6.547.344c.625 4.594 4.531 7.422 10.891 7.422 6.218 0 10.672-3.172 10.687-7.907-.015-3.468-2.281-5.546-6.937-6.5l-4.344-.875c-2.234-.484-3.063-1.25-3.047-2.406-.016-1.437 1.609-2.375 3.672-2.375 2.312 0 3.687 1.266 4.016 2.813l6.093-.375zM762.781 243h21.625v-5.578h-14.859v-7.641h13.687v-5.578h-13.687v-7.625h14.797V211h-21.563v32zm47.872-24h-7.047l-4.969 17.172h-.25L793.403 219h-7.032l8.391 24h7.5l8.391-24zm2.086 24h6.656v-24h-6.656v24zm3.344-27.094c1.984 0 3.609-1.515 3.609-3.375 0-1.843-1.625-3.359-3.609-3.359-1.969 0-3.594 1.516-3.594 3.359 0 1.86 1.625 3.375 3.594 3.375zm18.168 27.563c6.391 0 10.406-3.75 10.719-9.266h-6.282c-.39 2.563-2.078 4-4.359 4-3.109 0-5.125-2.609-5.125-7.203 0-4.531 2.031-7.125 5.125-7.125 2.438 0 4 1.609 4.359 4h6.282c-.282-5.547-4.485-9.187-10.75-9.187-7.282 0-11.782 5.046-11.782 12.406 0 7.297 4.422 12.375 11.813 12.375zM860.677 219h-4.516v-5.75h-6.656V219h-3.281v5h3.281v12.5c-.031 4.703 3.172 7.031 8 6.828 1.719-.062 2.938-.406 3.61-.625l-1.047-4.953c-.328.062-1.032.219-1.657.219-1.328 0-2.25-.5-2.25-2.344V224h4.516v-5zm3.016 24h6.656v-24h-6.656v24zm3.344-27.094c1.984 0 3.609-1.515 3.609-3.375 0-1.843-1.625-3.359-3.609-3.359-1.969 0-3.594 1.516-3.594 3.359 0 1.86 1.625 3.375 3.594 3.375zm18.168 27.563c7.281 0 11.813-4.985 11.813-12.375 0-7.438-4.532-12.406-11.813-12.406-7.281 0-11.812 4.968-11.812 12.406 0 7.39 4.531 12.375 11.812 12.375zm.031-5.157c-3.359 0-5.078-3.078-5.078-7.265 0-4.188 1.719-7.281 5.078-7.281 3.297 0 5.016 3.093 5.016 7.281 0 4.187-1.719 7.265-5.016 7.265zm21.446-9.187c.015-3.094 1.859-4.906 4.547-4.906 2.672 0 4.281 1.75 4.265 4.687V243h6.657v-15.281c0-5.594-3.282-9.031-8.282-9.031-3.562 0-6.14 1.749-7.218 4.546h-.282V219h-6.343v24h6.656v-13.875zM947.706 219h-4.516v-5.75h-6.656V219h-3.281v5h3.281v12.5c-.031 4.703 3.172 7.031 8 6.828 1.719-.062 2.938-.406 3.609-.625l-1.046-4.953c-.329.062-1.032.219-1.657.219-1.328 0-2.25-.5-2.25-2.344V224h4.516v-5zm10.188 10.125c.015-3.094 1.906-4.906 4.625-4.906 2.703 0 4.297 1.734 4.281 4.687V243h6.656v-15.281c.016-5.625-3.297-9.031-8.297-9.031-3.64 0-6.078 1.718-7.171 4.546h-.282V211h-6.468v32h6.656v-13.875zM977.375 243h6.656v-13.578c0-2.953 2.156-4.984 5.094-4.984.921 0 2.187.156 2.812.359v-5.906a9.968 9.968 0 00-2.094-.235c-2.687 0-4.89 1.563-5.765 4.531h-.25V219h-6.453v24zm26.505.469c5.94 0 9.94-2.891 10.87-7.344l-6.15-.406c-.67 1.828-2.39 2.781-4.61 2.781-3.33 0-5.439-2.203-5.439-5.781v-.016h16.339v-1.828c0-8.156-4.93-12.187-11.28-12.187-7.059 0-11.637 5.015-11.637 12.421 0 7.61 4.515 12.36 11.907 12.36zm-5.329-14.891c.14-2.734 2.219-4.922 5.169-4.922 2.89 0 4.89 2.063 4.91 4.922h-10.079zm39.339-2.734c-.6-4.422-4.16-7.156-10.22-7.156-6.14 0-10.19 2.843-10.17 7.468-.02 3.594 2.25 5.922 6.93 6.86l4.16.828c2.09.422 3.05 1.187 3.08 2.39-.03 1.422-1.58 2.438-3.91 2.438-2.37 0-3.95-1.016-4.36-2.969l-6.54.344c.62 4.594 4.53 7.422 10.89 7.422 6.21 0 10.67-3.172 10.68-7.907-.01-3.468-2.28-5.546-6.93-6.5l-4.35-.875c-2.23-.484-3.06-1.25-3.04-2.406-.02-1.437 1.6-2.375 3.67-2.375 2.31 0 3.68 1.266 4.01 2.813l6.1-.375zm10.07 3.281c.02-3.094 1.91-4.906 4.63-4.906 2.7 0 4.29 1.734 4.28 4.687V243h6.65v-15.281c.02-5.625-3.29-9.031-8.29-9.031-3.64 0-6.08 1.718-7.17 4.546h-.29V211h-6.46v32h6.65v-13.875zm30.33 14.344c7.28 0 11.81-4.985 11.81-12.375 0-7.438-4.53-12.406-11.81-12.406-7.29 0-11.82 4.968-11.82 12.406 0 7.39 4.53 12.375 11.82 12.375zm.03-5.157c-3.36 0-5.08-3.078-5.08-7.265 0-4.188 1.72-7.281 5.08-7.281 3.29 0 5.01 3.093 5.01 7.281 0 4.187-1.72 7.265-5.01 7.265zM1099.76 211h-6.65v32h6.65v-32zm12.86 32.391c3.87 0 5.89-2.235 6.81-4.235h.28V243h6.56v-32h-6.64v12.031h-.2c-.89-1.953-2.81-4.343-6.83-4.343-5.26 0-9.72 4.093-9.72 12.343 0 8.031 4.27 12.36 9.74 12.36zm2.11-5.297c-3.27 0-5.05-2.907-5.05-7.094 0-4.156 1.75-7.016 5.05-7.016 3.23 0 5.04 2.735 5.04 7.016 0 4.281-1.84 7.094-5.04 7.094zM762.781 497v32h6.563v-20.906h.265l8.282 20.75h4.468l8.282-20.672h.265V529h6.563v-32h-8.344l-8.812 21.5h-.375l-8.813-21.5h-8.344zm49.754 32.469c5.938 0 9.938-2.891 10.875-7.344l-6.156-.406c-.672 1.828-2.39 2.781-4.609 2.781-3.328 0-5.438-2.203-5.438-5.781v-.016h16.344v-1.828c0-8.156-4.937-12.187-11.281-12.187-7.063 0-11.641 5.015-11.641 12.421 0 7.61 4.516 12.36 11.906 12.36zm-5.328-14.891c.141-2.734 2.219-4.922 5.172-4.922 2.891 0 4.891 2.063 4.906 4.922h-10.078zM826.575 529h6.656v-14.406c0-2.657 1.688-4.422 3.906-4.422 2.188 0 3.657 1.5 3.657 3.859V529h6.453v-14.656c0-2.485 1.422-4.172 3.843-4.172 2.125 0 3.719 1.328 3.719 4V529h6.641v-16.141c0-5.203-3.094-8.171-7.563-8.171-3.515 0-6.25 1.796-7.234 4.546h-.25c-.766-2.781-3.219-4.546-6.516-4.546-3.234 0-5.687 1.718-6.687 4.546h-.281V505h-6.344v24zm49.656.469c7.282 0 11.813-4.985 11.813-12.375 0-7.438-4.531-12.406-11.813-12.406-7.281 0-11.812 4.968-11.812 12.406 0 7.39 4.531 12.375 11.812 12.375zm.032-5.157c-3.36 0-5.078-3.078-5.078-7.265 0-4.188 1.718-7.281 5.078-7.281 3.297 0 5.015 3.093 5.015 7.281 0 4.187-1.718 7.265-5.015 7.265zM891.052 529h6.656v-13.578c0-2.953 2.157-4.984 5.094-4.984.922 0 2.188.156 2.813.359v-5.906a9.968 9.968 0 00-2.094-.235c-2.688 0-4.891 1.563-5.766 4.531h-.25V505h-6.453v24zm21.524 9c4.953 0 7.578-2.531 8.937-6.406l9.328-26.563-7.046-.031-5.016 17.625h-.25L913.56 505h-7l8.61 24.688-.391 1.015c-.875 2.25-2.547 2.36-4.891 1.641l-1.5 4.968c.953.407 2.5.688 4.188.688zm36.059-8.547c3.547 0 5.844-1.547 7.016-3.781h.187V529h6.313v-16.188c0-5.718-4.844-8.124-10.188-8.124-5.75 0-9.531 2.749-10.453 7.124l6.156.5c.453-1.593 1.875-2.765 4.266-2.765 2.265 0 3.562 1.14 3.562 3.109v.094c0 1.547-1.64 1.75-5.812 2.156-4.75.438-9.016 2.031-9.016 7.391 0 4.75 3.391 7.156 7.969 7.156zm1.906-4.594c-2.047 0-3.515-.953-3.515-2.781 0-1.875 1.546-2.797 3.89-3.125 1.453-.203 3.828-.547 4.625-1.078v2.547c0 2.515-2.078 4.437-5 4.437zm22.11-9.734c.016-3.094 1.859-4.906 4.547-4.906 2.672 0 4.281 1.75 4.265 4.687V529h6.657v-15.281c0-5.594-3.282-9.031-8.282-9.031-3.562 0-6.14 1.749-7.218 4.546h-.282V505h-6.343v24h6.656v-13.875zm28.239 14.266c3.87 0 5.89-2.235 6.81-4.235h.28V529h6.57v-32h-6.64v12.031h-.21c-.89-1.953-2.81-4.343-6.83-4.343-5.262 0-9.715 4.093-9.715 12.343 0 8.031 4.266 12.36 9.735 12.36zm2.11-5.297c-3.267 0-5.048-2.907-5.048-7.094 0-4.156 1.75-7.016 5.048-7.016 3.23 0 5.05 2.735 5.05 7.016 0 4.281-1.85 7.094-5.05 7.094zm52.92-15.891c-.89-7.391-6.48-11.641-13.89-11.641-8.45 0-14.91 5.969-14.91 16.438 0 10.438 6.35 16.437 14.91 16.437 8.2 0 13.16-5.453 13.89-11.343l-6.84-.032c-.64 3.422-3.33 5.391-6.94 5.391-4.86 0-8.16-3.609-8.16-10.453 0-6.656 3.25-10.453 8.21-10.453 3.7 0 6.37 2.141 6.89 5.656h6.84zm3.53 20.797h6.77v-10.375h5.69c7.36 0 11.64-4.391 11.64-10.781 0-6.36-4.21-10.844-11.47-10.844h-12.63v32zm6.77-15.797v-10.672h4.56c3.91 0 5.8 2.125 5.8 5.313 0 3.172-1.89 5.359-5.77 5.359h-4.59zM1106.39 497v20.203c0 3.656-2.57 6.297-6.5 6.297s-6.5-2.641-6.5-6.297V497h-6.77v20.781c0 7 5.28 11.672 13.27 11.672 7.95 0 13.26-4.672 13.26-11.672V497h-6.76zm-343.734 77h6.657v-13.578c0-2.953 2.156-4.984 5.093-4.984.922 0 2.188.156 2.813.359v-5.906a9.968 9.968 0 00-2.094-.235c-2.687 0-4.891 1.563-5.766 4.531h-.25V550h-6.453v24zm26.504.469c5.938 0 9.938-2.891 10.875-7.344l-6.156-.406c-.672 1.828-2.39 2.781-4.609 2.781-3.328 0-5.438-2.203-5.438-5.781v-.016h16.344v-1.828c0-8.156-4.937-12.187-11.281-12.187-7.063 0-11.641 5.015-11.641 12.421 0 7.61 4.516 12.36 11.906 12.36zm-5.328-14.891c.141-2.734 2.219-4.922 5.172-4.922 2.891 0 4.891 2.063 4.906 4.922h-10.078zm39.337-2.734c-.594-4.422-4.157-7.156-10.219-7.156-6.141 0-10.188 2.843-10.172 7.468-.016 3.594 2.25 5.922 6.937 6.86l4.157.828c2.093.422 3.047 1.187 3.078 2.39-.031 1.422-1.578 2.438-3.906 2.438-2.375 0-3.954-1.016-4.36-2.969l-6.547.344c.625 4.594 4.532 7.422 10.891 7.422 6.219 0 10.672-3.172 10.687-7.907-.015-3.468-2.281-5.546-6.937-6.5l-4.344-.875c-2.234-.484-3.062-1.25-3.047-2.406-.015-1.437 1.61-2.375 3.672-2.375 2.313 0 3.688 1.266 4.016 2.813l6.094-.375zm14.355 17.625c5.938 0 9.938-2.891 10.875-7.344l-6.156-.406c-.672 1.828-2.39 2.781-4.609 2.781-3.328 0-5.438-2.203-5.438-5.781v-.016h16.344v-1.828c0-8.156-4.937-12.187-11.281-12.187-7.063 0-11.641 5.015-11.641 12.421 0 7.61 4.516 12.36 11.906 12.36zm-5.328-14.891c.141-2.734 2.219-4.922 5.172-4.922 2.891 0 4.891 2.063 4.906 4.922h-10.078zM851.564 574h6.656v-13.578c0-2.953 2.156-4.984 5.094-4.984.922 0 2.187.156 2.812.359v-5.906a9.959 9.959 0 00-2.093-.235c-2.688 0-4.891 1.563-5.766 4.531h-.25V550h-6.453v24zm39.789-24h-7.047l-4.968 17.172h-.25L874.103 550h-7.031l8.391 24h7.5l8.39-24zm12.207 24.469c5.938 0 9.938-2.891 10.875-7.344l-6.156-.406c-.672 1.828-2.39 2.781-4.609 2.781-3.328 0-5.438-2.203-5.438-5.781v-.016h16.344v-1.828c0-8.156-4.937-12.187-11.281-12.187-7.063 0-11.641 5.015-11.641 12.421 0 7.61 4.516 12.36 11.906 12.36zm-5.328-14.891c.141-2.734 2.219-4.922 5.172-4.922 2.891 0 4.891 2.063 4.906 4.922h-10.078zm28.212 14.813c3.875 0 5.89-2.235 6.812-4.235h.281V574h6.563v-32h-6.641v12.031h-.203c-.891-1.953-2.812-4.343-6.828-4.343-5.266 0-9.719 4.093-9.719 12.343 0 8.031 4.266 12.36 9.735 12.36zm2.109-5.297c-3.266 0-5.047-2.907-5.047-7.094 0-4.156 1.75-7.016 5.047-7.016 3.234 0 5.047 2.735 5.047 7.016 0 4.281-1.844 7.094-5.047 7.094zM965.882 550h-4.516v-5.75h-6.656V550h-3.281v5h3.281v12.5c-.031 4.703 3.172 7.031 8 6.828 1.719-.062 2.937-.406 3.609-.625l-1.047-4.953c-.328.062-1.031.219-1.656.219-1.328 0-2.25-.5-2.25-2.344V555h4.516v-5zm13.602 24.469c7.281 0 11.812-4.985 11.812-12.375 0-7.438-4.531-12.406-11.812-12.406-7.282 0-11.813 4.968-11.813 12.406 0 7.39 4.531 12.375 11.813 12.375zm.031-5.157c-3.36 0-5.078-3.078-5.078-7.265 0-4.188 1.718-7.281 5.078-7.281 3.297 0 5.015 3.093 5.015 7.281 0 4.187-1.718 7.265-5.015 7.265zM1015.93 550h-4.51v-5.75h-6.66V550h-3.28v5h3.28v12.5c-.03 4.703 3.17 7.031 8 6.828 1.72-.062 2.94-.406 3.61-.625l-1.05-4.953c-.32.062-1.03.219-1.65.219-1.33 0-2.25-.5-2.25-2.344V555h4.51v-5zm10.19 10.125c.02-3.094 1.91-4.906 4.63-4.906 2.7 0 4.29 1.734 4.28 4.687V574h6.65v-15.281c.02-5.625-3.29-9.031-8.29-9.031-3.64 0-6.08 1.718-7.18 4.546h-.28V542h-6.47v32h6.66v-13.875zm30.42 14.344c5.94 0 9.94-2.891 10.87-7.344l-6.15-.406c-.67 1.828-2.39 2.781-4.61 2.781-3.33 0-5.44-2.203-5.44-5.781v-.016h16.35v-1.828c0-8.156-4.94-12.187-11.29-12.187-7.06 0-11.64 5.015-11.64 12.421 0 7.61 4.52 12.36 11.91 12.36zm-5.33-14.891c.14-2.734 2.22-4.922 5.17-4.922 2.89 0 4.89 2.063 4.91 4.922h-10.08zM762.656 619h6.657v-7.625l1.796-2.047 6.547 9.672h7.797l-9.359-13.609L785 595h-7.641l-7.687 9.109h-.359V587h-6.657v32zm39.68-10.219c.016 3.219-2.187 4.906-4.578 4.906-2.515 0-4.14-1.765-4.156-4.593V595h-6.656v15.281c.015 5.61 3.297 9.032 8.125 9.032 3.609 0 6.203-1.86 7.281-4.672h.25V619h6.391v-24h-6.657v13.781zM813.122 619h6.562v-3.844h.297c.922 2 2.938 4.235 6.813 4.235 5.468 0 9.734-4.329 9.734-12.36 0-8.25-4.453-12.343-9.719-12.343-4.015 0-5.937 2.39-6.828 4.343h-.203V587h-6.656v32zm6.515-12c0-4.281 1.813-7.016 5.047-7.016 3.297 0 5.047 2.86 5.047 7.016 0 4.187-1.781 7.094-5.047 7.094-3.203 0-5.047-2.813-5.047-7.094zm30.95 12.469c5.937 0 9.937-2.891 10.875-7.344l-6.156-.406c-.672 1.828-2.391 2.781-4.61 2.781-3.328 0-5.437-2.203-5.437-5.781v-.016h16.344v-1.828c0-8.156-4.938-12.187-11.282-12.187-7.062 0-11.64 5.015-11.64 12.421 0 7.61 4.515 12.36 11.906 12.36zm-5.328-14.891c.14-2.734 2.219-4.922 5.172-4.922 2.89 0 4.89 2.063 4.906 4.922h-10.078zM871.283 587h-6.657v32h6.657v-32zm14.949 32.469c5.938 0 9.938-2.891 10.875-7.344l-6.156-.406c-.672 1.828-2.391 2.781-4.61 2.781-3.328 0-5.437-2.203-5.437-5.781v-.016h16.344v-1.828c0-8.156-4.938-12.187-11.282-12.187-7.062 0-11.64 5.015-11.64 12.421 0 7.61 4.515 12.36 11.906 12.36zm-5.328-14.891c.141-2.734 2.219-4.922 5.172-4.922 2.89 0 4.89 2.063 4.906 4.922h-10.078zM913.037 595h-4.516v-5.75h-6.656V595h-3.281v5h3.281v12.5c-.031 4.703 3.172 7.031 8 6.828 1.719-.062 2.938-.406 3.61-.625l-1.047-4.953c-.328.062-1.032.219-1.657.219-1.328 0-2.25-.5-2.25-2.344V600h4.516v-5zm-150.256 42v32h6.563v-20.906h.265l8.282 20.75h4.468l8.282-20.672h.265V669h6.563v-32h-8.344l-8.812 21.5h-.375l-8.813-21.5h-8.344zm49.754 32.469c5.938 0 9.938-2.891 10.875-7.344l-6.156-.406c-.672 1.828-2.39 2.781-4.609 2.781-3.328 0-5.438-2.203-5.438-5.781v-.016h16.344v-1.828c0-8.156-4.937-12.187-11.281-12.187-7.063 0-11.641 5.015-11.641 12.421 0 7.61 4.516 12.36 11.906 12.36zm-5.328-14.891c.141-2.734 2.219-4.922 5.172-4.922 2.891 0 4.891 2.063 4.906 4.922h-10.078zM826.575 669h6.656v-14.406c0-2.657 1.688-4.422 3.906-4.422 2.188 0 3.657 1.5 3.657 3.859V669h6.453v-14.656c0-2.485 1.422-4.172 3.843-4.172 2.125 0 3.719 1.328 3.719 4V669h6.641v-16.141c0-5.203-3.094-8.171-7.563-8.171-3.515 0-6.25 1.796-7.234 4.546h-.25c-.766-2.781-3.219-4.546-6.516-4.546-3.234 0-5.687 1.718-6.687 4.546h-.281V645h-6.344v24zm49.656.469c7.282 0 11.813-4.985 11.813-12.375 0-7.438-4.531-12.406-11.813-12.406-7.281 0-11.812 4.968-11.812 12.406 0 7.39 4.531 12.375 11.812 12.375zm.032-5.157c-3.36 0-5.078-3.078-5.078-7.265 0-4.188 1.718-7.281 5.078-7.281 3.297 0 5.015 3.093 5.015 7.281 0 4.187-1.718 7.265-5.015 7.265zM891.052 669h6.656v-13.578c0-2.953 2.157-4.984 5.094-4.984.922 0 2.188.156 2.813.359v-5.906a9.968 9.968 0 00-2.094-.235c-2.688 0-4.891 1.563-5.766 4.531h-.25V645h-6.453v24zm21.524 9c4.953 0 7.578-2.531 8.937-6.406l9.328-26.563-7.046-.031-5.016 17.625h-.25L913.56 645h-7l8.61 24.688-.391 1.015c-.875 2.25-2.547 2.36-4.891 1.641l-1.5 4.968c.953.407 2.5.688 4.188.688zm36.059-8.547c3.547 0 5.844-1.547 7.016-3.781h.187V669h6.313v-16.188c0-5.718-4.844-8.124-10.188-8.124-5.75 0-9.531 2.749-10.453 7.124l6.156.5c.453-1.593 1.875-2.765 4.266-2.765 2.265 0 3.562 1.14 3.562 3.109v.094c0 1.547-1.64 1.75-5.812 2.156-4.75.438-9.016 2.031-9.016 7.391 0 4.75 3.391 7.156 7.969 7.156zm1.906-4.594c-2.047 0-3.515-.953-3.515-2.781 0-1.875 1.546-2.797 3.89-3.125 1.453-.203 3.828-.547 4.625-1.078v2.547c0 2.515-2.078 4.437-5 4.437zm22.11-9.734c.016-3.094 1.859-4.906 4.547-4.906 2.672 0 4.281 1.75 4.265 4.687V669h6.657v-15.281c0-5.594-3.282-9.031-8.282-9.031-3.562 0-6.14 1.749-7.218 4.546h-.282V645h-6.343v24h6.656v-13.875zm28.239 14.266c3.87 0 5.89-2.235 6.81-4.235h.28V669h6.57v-32h-6.64v12.031h-.21c-.89-1.953-2.81-4.343-6.83-4.343-5.262 0-9.715 4.093-9.715 12.343 0 8.031 4.266 12.36 9.735 12.36zm2.11-5.297c-3.267 0-5.048-2.907-5.048-7.094 0-4.156 1.75-7.016 5.048-7.016 3.23 0 5.05 2.735 5.05 7.016 0 4.281-1.85 7.094-5.05 7.094zm52.92-15.891c-.89-7.391-6.48-11.641-13.89-11.641-8.45 0-14.91 5.969-14.91 16.438 0 10.438 6.35 16.437 14.91 16.437 8.2 0 13.16-5.453 13.89-11.343l-6.84-.032c-.64 3.422-3.33 5.391-6.94 5.391-4.86 0-8.16-3.609-8.16-10.453 0-6.656 3.25-10.453 8.21-10.453 3.7 0 6.37 2.141 6.89 5.656h6.84zm3.53 20.797h6.77v-10.375h5.69c7.36 0 11.64-4.391 11.64-10.781 0-6.36-4.21-10.844-11.47-10.844h-12.63v32zm6.77-15.797v-10.672h4.56c3.91 0 5.8 2.125 5.8 5.313 0 3.172-1.89 5.359-5.77 5.359h-4.59zM1106.39 637v20.203c0 3.656-2.57 6.297-6.5 6.297s-6.5-2.641-6.5-6.297V637h-6.77v20.781c0 7 5.28 11.672 13.27 11.672 7.95 0 13.26-4.672 13.26-11.672V637h-6.76zm-343.734 77h6.657v-13.578c0-2.953 2.156-4.984 5.093-4.984.922 0 2.188.156 2.813.359v-5.906a9.968 9.968 0 00-2.094-.235c-2.687 0-4.891 1.563-5.766 4.531h-.25V690h-6.453v24zm26.504.469c5.938 0 9.938-2.891 10.875-7.344l-6.156-.406c-.672 1.828-2.39 2.781-4.609 2.781-3.328 0-5.438-2.203-5.438-5.781v-.016h16.344v-1.828c0-8.156-4.937-12.187-11.281-12.187-7.063 0-11.641 5.015-11.641 12.421 0 7.61 4.516 12.36 11.906 12.36zm-5.328-14.891c.141-2.734 2.219-4.922 5.172-4.922 2.891 0 4.891 2.063 4.906 4.922h-10.078zm39.337-2.734c-.594-4.422-4.157-7.156-10.219-7.156-6.141 0-10.188 2.843-10.172 7.468-.016 3.594 2.25 5.922 6.937 6.86l4.157.828c2.093.422 3.047 1.187 3.078 2.39-.031 1.422-1.578 2.438-3.906 2.438-2.375 0-3.954-1.016-4.36-2.969l-6.547.344c.625 4.594 4.532 7.422 10.891 7.422 6.219 0 10.672-3.172 10.687-7.907-.015-3.468-2.281-5.546-6.937-6.5l-4.344-.875c-2.234-.484-3.062-1.25-3.047-2.406-.015-1.437 1.61-2.375 3.672-2.375 2.313 0 3.688 1.266 4.016 2.813l6.094-.375zm14.355 17.625c5.938 0 9.938-2.891 10.875-7.344l-6.156-.406c-.672 1.828-2.39 2.781-4.609 2.781-3.328 0-5.438-2.203-5.438-5.781v-.016h16.344v-1.828c0-8.156-4.937-12.187-11.281-12.187-7.063 0-11.641 5.015-11.641 12.421 0 7.61 4.516 12.36 11.906 12.36zm-5.328-14.891c.141-2.734 2.219-4.922 5.172-4.922 2.891 0 4.891 2.063 4.906 4.922h-10.078zM851.564 714h6.656v-13.578c0-2.953 2.156-4.984 5.094-4.984.922 0 2.187.156 2.812.359v-5.906a9.959 9.959 0 00-2.093-.235c-2.688 0-4.891 1.563-5.766 4.531h-.25V690h-6.453v24zm39.789-24h-7.047l-4.968 17.172h-.25L874.103 690h-7.031l8.391 24h7.5l8.39-24zm12.207 24.469c5.938 0 9.938-2.891 10.875-7.344l-6.156-.406c-.672 1.828-2.39 2.781-4.609 2.781-3.328 0-5.438-2.203-5.438-5.781v-.016h16.344v-1.828c0-8.156-4.937-12.187-11.281-12.187-7.063 0-11.641 5.015-11.641 12.421 0 7.61 4.516 12.36 11.906 12.36zm-5.328-14.891c.141-2.734 2.219-4.922 5.172-4.922 2.891 0 4.891 2.063 4.906 4.922h-10.078zm28.212 14.813c3.875 0 5.89-2.235 6.812-4.235h.281V714h6.563v-32h-6.641v12.031h-.203c-.891-1.953-2.812-4.343-6.828-4.343-5.266 0-9.719 4.093-9.719 12.343 0 8.031 4.266 12.36 9.735 12.36zm2.109-5.297c-3.266 0-5.047-2.907-5.047-7.094 0-4.156 1.75-7.016 5.047-7.016 3.234 0 5.047 2.735 5.047 7.016 0 4.281-1.844 7.094-5.047 7.094zM965.882 690h-4.516v-5.75h-6.656V690h-3.281v5h3.281v12.5c-.031 4.703 3.172 7.031 8 6.828 1.719-.062 2.937-.406 3.609-.625l-1.047-4.953c-.328.062-1.031.219-1.656.219-1.328 0-2.25-.5-2.25-2.344V695h4.516v-5zm13.602 24.469c7.281 0 11.812-4.985 11.812-12.375 0-7.438-4.531-12.406-11.812-12.406-7.282 0-11.813 4.968-11.813 12.406 0 7.39 4.531 12.375 11.813 12.375zm.031-5.157c-3.36 0-5.078-3.078-5.078-7.265 0-4.188 1.718-7.281 5.078-7.281 3.297 0 5.015 3.093 5.015 7.281 0 4.187-1.718 7.265-5.015 7.265zM1015.93 690h-4.51v-5.75h-6.66V690h-3.28v5h3.28v12.5c-.03 4.703 3.17 7.031 8 6.828 1.72-.062 2.94-.406 3.61-.625l-1.05-4.953c-.32.062-1.03.219-1.65.219-1.33 0-2.25-.5-2.25-2.344V695h4.51v-5zm10.19 10.125c.02-3.094 1.91-4.906 4.63-4.906 2.7 0 4.29 1.734 4.28 4.687V714h6.65v-15.281c.02-5.625-3.29-9.031-8.29-9.031-3.64 0-6.08 1.718-7.18 4.546h-.28V682h-6.47v32h6.66v-13.875zm30.42 14.344c5.94 0 9.94-2.891 10.87-7.344l-6.15-.406c-.67 1.828-2.39 2.781-4.61 2.781-3.33 0-5.44-2.203-5.44-5.781v-.016h16.35v-1.828c0-8.156-4.94-12.187-11.29-12.187-7.06 0-11.64 5.015-11.64 12.421 0 7.61 4.52 12.36 11.91 12.36zm-5.33-14.891c.14-2.734 2.22-4.922 5.17-4.922 2.89 0 4.89 2.063 4.91 4.922h-10.08zm57.76-1.578c0-10.469-6.5-16.438-14.98-16.438-8.53 0-14.98 5.969-14.98 16.438 0 10.422 6.45 16.437 14.98 16.437 8.48 0 14.98-5.968 14.98-16.437zm-6.86 0c0 6.781-3.21 10.453-8.12 10.453-4.92 0-8.13-3.672-8.13-10.453 0-6.781 3.21-10.453 8.13-10.453 4.91 0 8.12 3.672 8.12 10.453zm27.91-6.797h6.49c-.09-5.703-4.78-9.641-11.91-9.641-7.01 0-12.15 3.875-12.12 9.688-.02 4.719 3.31 7.422 8.72 8.719l3.48.875c3.49.843 5.42 1.843 5.44 4-.02 2.343-2.24 3.937-5.67 3.937-3.52 0-6.05-1.625-6.27-4.828h-6.55c.18 6.922 5.13 10.5 12.89 10.5 7.82 0 12.41-3.734 12.43-9.594-.02-5.328-4.03-8.156-9.6-9.406l-2.87-.687c-2.78-.641-5.11-1.672-5.06-3.969 0-2.063 1.82-3.578 5.14-3.578 3.23 0 5.21 1.468 5.46 3.984z"/></svg>