<svg xmlns="http://www.w3.org/2000/svg" xmlns:xlink="http://www.w3.org/1999/xlink" fill="none" stroke="none" stroke-linecap="square" stroke-miterlimit="10" version="1.1" viewBox="0 0 743.415 422.31"><clipPath id="p.0"><path d="m0 0l743.4147 0l0 422.30972l-743.4147 0l0 -422.30972z" clip-rule="nonzero"/></clipPath><g clip-path="url(#p.0)"><path fill="#000" fill-opacity="0" fill-rule="evenodd" d="m0 0l743.4147 0l0 422.30972l-743.4147 0z"/><path fill="#cfe2f3" fill-rule="evenodd" d="m303.32285 50.440945l131.74802 0l0 42.425198l-131.74802 0z"/><path fill-rule="evenodd" stroke="#000" stroke-linecap="butt" stroke-linejoin="round" stroke-width="1" d="m303.32285 50.440945l131.74802 0l0 42.425198l-131.74802 0z"/><path fill="#000" fill-rule="nonzero" d="m348.44684 70.69854q-0.890625 3.859375 -1.9375 5.578125q1.484375 1.40625 3.265625 2.078125l-0.890625 1.625q-1.625 -0.734375 -3.265625 -2.21875q-1.109375 1.484375 -2.75 2.453125l-0.953125 -1.5625q1.703125 -0.96875 2.59375 -2.234375q-1.40625 -2.15625 -1.703125 -5.265625l-0.96875 0l0 8.984375l-1.484375 0l0 -16.406246l7.640625 0l0 3.7031212q0 1.1875 -1.1875 1.1875l-2.078125 0l-0.140625 -1.40625l1.625 0q0.296875 0 0.296875 -0.296875l0 -1.78125l-4.671875 0l0 4.609375l5.34375 0l0.21875 -0.234375l1.265625 0.828125q0.296875 0.296875 -0.21875 0.359375zm-2.96875 4.3125q0.59375 -1.40625 1.25 -3.859375l-2.4375 0q0.140625 1.78125 1.1875 3.859375zm-11.953125 -11.203121l5.34375 0l0 14.921871q0 1.1875 -1.1875 1.1875l-1.484375 0l-0.078125 -1.421875l0.96875 0q0.296875 0 0.296875 -0.296875l0 -4.53125l-2.375 0l0 0.453125q0 3.703125 -1.5625 6.09375l-1.265625 -1.34375q1.34375 -2.375 1.34375 -4.96875l0 -10.093746zm3.859375 5.640621l-2.375 0l0 2.8125l2.375 0l0 -2.8125zm0 -1.421875l0 -2.8125l-2.375 0l0 2.8125l2.375 0z"/><path fill="#000" fill-rule="nonzero" d="m358.6812 64.151665q-0.59375 0.5 -1.03125 1.15625l8.09375 0q-0.65625 1.09375 -1.71875 2.34375q-1.046875 1.234375 -2.65625 2.328125q1.03125 0.65625 2.765625 0.984375q1.75 0.328125 4.15625 0.390625q-0.578125 0.65625 -0.796875 1.53125q-2.046875 -0.140625 -4.015625 -0.71875q-1.953125 -0.59375 -3.265625 -1.390625q-2.34375 1.09375 -4.234375 1.609375q-1.890625 0.5 -3.71875 0.796875q-0.28125 -0.875 -0.875 -1.53125q1.609375 0 3.640625 -0.4375q2.046875 -0.4375 4.015625 -1.234375q-1.53125 -1.46875 -2.625 -3.0q-1.234375 1.53125 -2.546875 2.5625q-0.515625 -0.59375 -1.3125 -0.875q2.046875 -1.46875 2.984375 -2.8125q0.953125 -1.34375 1.390625 -2.5156212q0.9375 0.515625 1.75 0.8124962zm-0.15625 9.609375q0.15625 -0.875 0.15625 -2.03125q0.875 0.140625 1.75 0.21875q-0.21875 0.4375 -0.4375 1.8125l5.890625 0q-0.0625 0.875 -0.140625 2.015625q-0.078125 1.125 -0.265625 2.4375q-0.171875 1.3125 -1.046875 1.53125q-0.875 0.21875 -2.765625 0.4375q-0.140625 -0.953125 -0.734375 -1.609375q2.125 0 2.5625 -0.140625q0.4375 -0.15625 0.578125 -0.8125l0.21875 -2.765625l-4.453125 0q-1.015625 3.140625 -2.875 4.078125q-1.859375 0.953125 -3.96875 1.6875q-0.21875 -0.65625 -1.015625 -1.53125q1.75 -0.15625 3.640625 -1.09375q1.890625 -0.953125 2.6875 -3.140625l-1.671875 0q-2.1875 0 -3.203125 0.140625l0 -1.296875q1.09375 0.0625 3.28125 0.0625l1.8125 0zm1.75 -4.59375q1.46875 -0.875 2.84375 -2.765625l-5.46875 0q1.390625 1.828125 2.625 2.765625z"/><path fill="#000" fill-rule="nonzero" d="m377.5562 79.91729q-2.296875 0 -4.21875 -1.796875q-0.890625 1.046875 -2.75 2.09375l-0.59375 -1.859375q0.8125 -0.234375 2.515625 -1.34375l0 -4.828125l-2.296875 0l0 -1.40625l3.78125 0l0 6.15625q1.484375 1.34375 3.859375 1.34375l9.203125 0l-0.296875 1.640625l-9.203125 0zm1.046875 -14.40625q1.859375 0.4375 2.375 0.671875l1.40625 -1.046875l-6.828125 0l0 -1.4062462l8.46875 0l0.359375 -0.21875l1.125 0.8124962q0.4375 0.375 -0.375 0.4375l-2.890625 1.9375l0.953125 0.4375l-0.890625 0.890625l3.34375 0l0 8.46875q0 1.03125 -1.03125 1.03125l-1.640625 0l-0.078125 -1.40625l0.96875 0q0.296875 0 0.296875 -0.296875l0 -1.40625l-2.8125 0l0 2.890625l-1.484375 0l0 -2.890625l-2.671875 0l0 3.1875l-1.484375 0l0 -9.578125l5.484375 0q-3.109375 -1.25 -3.703125 -1.40625l1.109375 -1.109375zm2.75 3.703125l0 1.421875l2.8125 0l0 -1.421875l-2.8125 0zm-4.15625 0l0 1.421875l2.671875 0l0 -1.421875l-2.671875 0zm2.671875 2.609375l-2.671875 0l0 1.40625l2.671875 0l0 -1.40625zm4.296875 0l-2.8125 0l0 1.40625l2.8125 0l0 -1.40625zm-12.09375 -8.249996q2.0 1.2656212 2.75 2.4531212l-1.265625 1.34375q-1.1875 -1.484375 -2.53125 -2.53125l1.046875 -1.2656212zm16.703125 8.015621q2.8125 -3.328125 3.328125 -8.234371l1.71875 0.453125q0.296875 0.2968712 -0.234375 0.4374962q-0.359375 2.15625 -0.953125 3.859375q0.8125 0.078125 0.140625 0.515625l0 11.59375l-1.484375 0l0 -9.359375q-0.515625 1.03125 -1.40625 2.078125l-1.109375 -1.34375zm14.390625 4.15625l-6.609375 0l0 2.15625l6.609375 0l0 -2.15625zm-8.09375 -1.40625l9.578125 0l0 5.640625l-1.484375 0l0 -0.65625l-6.609375 0l0 0.890625l-1.484375 0l0 -5.875zm0.453125 -1.265625l0 -1.40625l8.390625 0l0 1.40625l-8.390625 0zm0 -2.59375l0 -1.40625l8.390625 0l0 1.40625l-8.390625 0zm-1.703125 -3.9375l11.9375 0l0 1.421875l-11.9375 0l0 -1.421875zm1.703125 -2.6718712l8.390625 0l0 1.4218712l-8.390625 0l0 -1.4218712z"/><path fill="#cfe2f3" fill-rule="evenodd" d="m303.32285 6.4960628l131.74802 0l0 42.425198l-131.74802 0z"/><path fill-rule="evenodd" stroke="#000" stroke-linecap="butt" stroke-linejoin="round" stroke-width="1" d="m303.32285 6.4960628l131.74802 0l0 42.425198l-131.74802 0z"/><path fill="#000" fill-rule="nonzero" d="m340.1187 19.988035q-0.140625 2.03125 -0.140625 3.484375l0 10.718748l2.40625 0l0 -11.593748q0 -1.15625 -0.15625 -2.609375l1.828125 0q-0.140625 1.15625 -0.140625 2.46875l0 11.734373l2.828125 0q1.171875 0 2.84375 -0.140625l0 1.59375q-1.671875 -0.140625 -2.765625 -0.140625l-11.078125 0q-1.015625 0 -2.90625 0.140625l0 -1.59375q1.890625 0.140625 2.84375 0.140625l2.6875 0l0 -10.781248q0 -1.53125 -0.21875 -3.421875l1.96875 0zm-5.25 3.640625q0.875 2.25 2.40625 6.625q-0.796875 0.140625 -1.671875 0.578125q-1.3125 -4.21875 -2.328125 -6.546875q0.71875 -0.296875 1.59375 -0.65625zm14.0625 0.4375q-0.9375 2.46875 -2.625 6.921875q-0.71875 -0.4375 -1.515625 -0.65625q1.515625 -2.84375 2.328125 -6.859375q0.796875 0.296875 1.8125 0.59375zm9.921875 -3.859375q-0.59375 0.5 -1.03125 1.15625l8.09375 0q-0.65625 1.09375 -1.71875 2.34375q-1.046875 1.234375 -2.65625 2.328125q1.03125 0.65625 2.765625 0.984375q1.75 0.328125 4.15625 0.390625q-0.578125 0.65625 -0.796875 1.53125q-2.046875 -0.140625 -4.015625 -0.71875q-1.953125 -0.59375 -3.265625 -1.390625q-2.34375 1.09375 -4.234375 1.609375q-1.890625 0.5 -3.71875 0.796875q-0.28125 -0.875 -0.875 -1.53125q1.609375 0 3.640625 -0.4375q2.046875 -0.4375 4.015625 -1.234375q-1.53125 -1.46875 -2.625 -3.0q-1.234375 1.53125 -2.546875 2.5625q-0.515625 -0.59375 -1.3125 -0.875q2.046875 -1.46875 2.984375 -2.8125q0.953125 -1.34375 1.390625 -2.515625q0.9375 0.515625 1.75 0.8125zm-0.15625 9.609375q0.15625 -0.875 0.15625 -2.03125q0.875 0.140625 1.75 0.21875q-0.21875 0.4375 -0.4375 1.8125l5.890625 0q-0.0625 0.875 -0.140625 2.015625q-0.078125 1.1249981 -0.265625 2.437498q-0.171875 1.3125 -1.046875 1.53125q-0.875 0.21875 -2.765625 0.4375q-0.140625 -0.953125 -0.734375 -1.609375q2.125 0 2.5625 -0.140625q0.4375 -0.15625 0.578125 -0.8125l0.21875 -2.765623l-4.453125 0q-1.015625 3.140623 -2.875 4.078123q-1.859375 0.953125 -3.96875 1.6875q-0.21875 -0.65625 -1.015625 -1.53125q1.75 -0.15625 3.640625 -1.09375q1.890625 -0.953125 2.6875 -3.140623l-1.671875 0q-2.1875 0 -3.203125 0.140625l0 -1.296875q1.09375 0.0625 3.28125 0.0625l1.8125 0zm1.75 -4.59375q1.46875 -0.875 2.84375 -2.765625l-5.46875 0q1.390625 1.828125 2.625 2.765625zm19.90625 0.59375q-0.59375 0.4375 -1.09375 1.015625l6.484375 0q-1.46875 3.125 -3.078125 4.4375q-1.59375 1.3124981 -2.90625 1.8593731q-1.3125 0.546875 -3.5625 1.0625q-0.296875 -0.875 -0.953125 -1.53125q1.234375 -0.140625 2.578125 -0.390625q1.359375 -0.265625 2.375 -0.8437481q-1.09375 -0.953125 -2.109375 -1.609375q0.65625 -0.65625 0.953125 -1.09375q1.453125 1.03125 2.328125 1.828125q1.234375 -0.953125 2.109375 -2.546875l-4.953125 0q-1.171875 1.234375 -2.484375 2.328125q-0.65625 -0.65625 -1.234375 -1.09375q2.625 -1.75 3.9375 -4.296875l-3.5 0q0.078125 -1.390625 0.078125 -2.5625q0 -1.234375 -0.078125 -2.546875l10.859375 0q-0.078125 0.875 -0.078125 2.625q0 1.671875 0.078125 2.484375l-7.140625 0q0.65625 0.5 1.390625 0.875zm-6.921875 -0.515625q-0.078125 1.453125 -0.078125 2.703125l0 4.953123q2.109375 1.75 6.625 1.75q4.59375 0 7.21875 -0.296875q-0.515625 0.875 -0.65625 1.75q-3.203125 0 -5.28125 -0.046875q-2.078125 -0.03125 -3.5 -0.21875q-1.421875 -0.171875 -2.265625 -0.4375q-0.828125 -0.25 -1.640625 -0.796875q-0.796875 -0.546875 -1.3125 -0.03125q-0.5 0.515625 -1.453125 1.609375q-0.4375 -0.59375 -1.234375 -1.09375q1.09375 -0.8125 2.1875 -1.75l0 -6.921873q-0.953125 0 -2.046875 0.0625l0 -1.3125q1.09375 0.078125 3.4375 0.078125zm5.171875 -1.453125l0 -2.84375l-1.90625 0l0 2.84375l1.90625 0zm-6.046875 -4.453125q0.796875 2.546875 1.015625 3.421875q-0.796875 0.21875 -1.390625 0.59375q-0.4375 -1.828125 -1.09375 -3.640625q0.65625 -0.15625 1.46875 -0.375zm12.09375 4.453125l0 -2.84375l-1.828125 0l0 2.84375l1.828125 0zm-3.0625 0l0 -2.84375l-1.75 0l0 2.84375l1.75 0zm24.046875 8.734373q-0.078125 0.734375 -0.078125 1.171875q-0.21875 0 -1.671875 0.21875q0 1.234375 0.078125 2.625l-1.390625 0q0.078125 -1.171875 0.078125 -2.40625q-5.109375 0.578125 -6.640625 1.015625l-0.4375 -1.453125l1.46875 -0.140625l0 -6.921873q-0.734375 0 -1.46875 0.0625l0 -1.234375q1.09375 0.078125 2.34375 0.078125l5.96875 0q0.65625 0 1.53125 -0.078125l0 1.234375q-0.65625 -0.0625 -1.53125 -0.0625l0 6.187498q0.734375 -0.140625 1.75 -0.296875zm-9.40625 -0.8749981q-0.9375 0.2968731 -2.40625 0.7343731q0 1.96875 0.078125 4.078125l-1.375 0q0.0625 -2.109375 0.0625 -3.78125q-2.46875 0.65625 -3.34375 0.9375q-0.15625 -0.359375 -0.515625 -1.375q0.875 -0.078125 3.859375 -0.8124981l0 -2.6875l-1.75 0q-0.875 0 -1.453125 0.21875l-0.515625 -1.3125q0.65625 -0.21875 1.203125 -1.484375q0.546875 -1.28125 1.0625 -3.109375q-0.65625 0 -2.328125 0.078125l0 -1.25q1.96875 0.078125 2.625 0.078125q0.4375 -1.390625 0.65625 -2.546875q0.578125 0.296875 1.453125 0.4375q-0.4375 1.015625 -0.8125 2.109375q2.046875 0 3.65625 -0.078125l0 1.25q-1.828125 -0.078125 -3.9375 -0.078125q-0.515625 1.53125 -1.609375 4.515625l1.75 0q0 -1.53125 -0.0625 -2.625l1.375 0q-0.078125 1.03125 -0.078125 2.625l2.125 0l0 1.171875l-2.125 0l0 2.46875q1.390625 -0.359375 2.40625 -0.71875l0 1.15625zm7.953125 -11.140625q-0.078125 0.796875 -0.078125 1.96875q0 1.09375 0.078125 1.890625l-7.140625 0q0.0625 -1.015625 0.0625 -2.046875q0 -1.015625 -0.0625 -1.8125l7.140625 0zm-1.3125 2.84375l0 -1.828125l-4.59375 0l0 1.828125l4.59375 0zm-0.21875 7.359375l0 -1.53125l-4.375 0l0 1.53125l4.375 0zm0 -2.546875l0 -1.53125l-4.375 0l0 1.53125l4.375 0zm0 4.796873l0 -1.2343731l-4.375 0l0 1.7499981l4.375 -0.515625z"/><path fill="#000" fill-opacity="0" fill-rule="evenodd" d="m77.979004 135.46982l222.4567 -78.14174"/><path fill-rule="evenodd" stroke="#000" stroke-dasharray="4 3" stroke-linecap="butt" stroke-linejoin="round" stroke-width="1" d="m77.979004 135.46982l222.4567 -78.14174"/><path fill="#000" fill-opacity="0" fill-rule="evenodd" d="m439.4672 58.8084l226.80313 76.66142"/><path fill-rule="evenodd" stroke="#000" stroke-dasharray="4 3" stroke-linecap="butt" stroke-linejoin="round" stroke-width="1" d="m439.4672 58.8084l226.80313 76.66142"/><path fill="#000" fill-opacity="0" fill-rule="evenodd" d="m666.2703 221.83989l-226.80313 107.68504"/><path fill-rule="evenodd" stroke="#000" stroke-dasharray="4 3" stroke-linecap="butt" stroke-linejoin="round" stroke-width="1" d="m666.2703 221.83989l-226.80313 107.68504"/><path fill="#000" fill-opacity="0" fill-rule="evenodd" d="m296.05774 329.52493l-218.07874 -107.68504"/><path fill-rule="evenodd" stroke="#000" stroke-dasharray="4 3" stroke-linecap="butt" stroke-linejoin="round" stroke-width="1" d="m296.05774 329.52493l-218.07874 -107.68504"/><path fill="#000" fill-opacity="0" fill-rule="evenodd" d="m319.32285 95.25984l81.63779 0l0 49.76378l-81.63779 0z"/><path fill="#000" fill-rule="nonzero" d="m345.76035 123.445465q-1.625 -1.109375 -2.890625 -2.96875q-1.921875 2.296875 -4.296875 3.40625l-0.59375 -1.40625q3.1875 -1.859375 4.15625 -3.265625q-0.75 -1.703125 -1.125 -5.34375q-0.296875 0.671875 -0.8125 1.1875l-0.890625 -1.046875q2.078125 -2.21875 2.53125 -6.828125l1.484375 0.296875q0.296875 0.296875 -0.234375 0.375q-0.359375 2.078125 -0.65625 2.890625l3.78125 0l0 1.421875l-1.046875 0q0 4.296875 -1.328125 7.125q0.671875 1.1875 2.75 2.734375l-0.828125 1.421875zm-16.546875 -12.25q1.859375 -1.484375 3.125 -4.078125l1.1875 0.65625q0.359375 0.15625 -0.15625 0.375q-1.328125 2.75 -3.265625 4.234375l-0.890625 -1.1875zm7.71875 9.28125l0.515625 -0.296875l0 -4.015625l-1.1875 0l0 2.078125q0 3.421875 -2.078125 5.046875l-0.8125 -1.1875q1.640625 -1.5625 1.640625 -3.78125l0 -2.15625l-1.265625 0l0 -1.40625l6.015625 0l0 1.40625l-1.046875 0l0 3.34375l1.78125 -1.109375l0.453125 1.03125q-1.1875 0.890625 -3.046875 1.9375q-0.15625 0.4375 -0.375 0.140625l-0.59375 -1.03125zm-8.015625 -4.453125q2.53125 -2.078125 3.71875 -5.421875l1.25 0.671875q0.234375 0.21875 -0.140625 0.359375q-0.515625 1.125 -0.96875 1.9375l0 10.3125l-1.265625 0l0 -8.390625q-0.8125 1.1875 -1.921875 1.9375l-0.671875 -1.40625zm8.828125 -4.15625l0.96875 0l0 -3.421875l1.1875 0q0.59375 0.078125 0.078125 0.453125l0 4.15625l-4.53125 0l0 0.8125l-1.265625 0l0 -5.421875l1.1875 0q0.59375 0.078125 0.078125 0.453125l0 2.96875l1.046875 0l0 -4.75l1.1875 0q0.59375 0.0625 0.0625 0.4375l0 4.3125zm5.28125 6.078125q0.890625 -2.078125 0.890625 -5.78125l-1.71875 0q0.078125 3.265625 0.828125 5.78125zm21.375 -3.640625q-0.890625 3.859375 -1.9375 5.578125q1.484375 1.40625 3.265625 2.078125l-0.890625 1.625q-1.625 -0.734375 -3.265625 -2.21875q-1.109375 1.484375 -2.75 2.453125l-0.953125 -1.5625q1.703125 -0.96875 2.59375 -2.234375q-1.40625 -2.15625 -1.703125 -5.265625l-0.96875 0l0 8.984375l-1.484375 0l0 -16.40625l7.640625 0l0 3.703125q0 1.1875 -1.1875 1.1875l-2.078125 0l-0.140625 -1.40625l1.625 0q0.296875 0 0.296875 -0.296875l0 -1.78125l-4.671875 0l0 4.609375l5.34375 0l0.21875 -0.234375l1.265625 0.828125q0.296875 0.296875 -0.21875 0.359375zm-2.96875 4.3125q0.59375 -1.40625 1.25 -3.859375l-2.4375 0q0.140625 1.78125 1.1875 3.859375zm-11.953125 -11.203125l5.34375 0l0 14.921875q0 1.1875 -1.1875 1.1875l-1.484375 0l-0.078125 -1.421875l0.96875 0q0.296875 0 0.296875 -0.296875l0 -4.53125l-2.375 0l0 0.453125q0 3.703125 -1.5625 6.09375l-1.265625 -1.34375q1.34375 -2.375 1.34375 -4.96875l0 -10.09375zm3.859375 5.640625l-2.375 0l0 2.8125l2.375 0l0 -2.8125zm0 -1.421875l0 -2.8125l-2.375 0l0 2.8125l2.375 0z"/><path fill="#000" fill-rule="nonzero" d="m374.63535 107.757965q-0.59375 0.5 -1.03125 1.15625l8.09375 0q-0.65625 1.09375 -1.71875 2.34375q-1.046875 1.234375 -2.65625 2.328125q1.03125 0.65625 2.765625 0.984375q1.75 0.328125 4.15625 0.390625q-0.578125 0.65625 -0.796875 1.53125q-2.046875 -0.140625 -4.015625 -0.71875q-1.953125 -0.59375 -3.265625 -1.390625q-2.34375 1.09375 -4.234375 1.609375q-1.890625 0.5 -3.71875 0.796875q-0.28125 -0.875 -0.875 -1.53125q1.609375 0 3.640625 -0.4375q2.046875 -0.4375 4.015625 -1.234375q-1.53125 -1.46875 -2.625 -3.0q-1.234375 1.53125 -2.546875 2.5625q-0.515625 -0.59375 -1.3125 -0.875q2.046875 -1.46875 2.984375 -2.8125q0.953125 -1.34375 1.390625 -2.515625q0.9375 0.515625 1.75 0.8125zm-0.15625 9.609375q0.15625 -0.875 0.15625 -2.03125q0.875 0.140625 1.75 0.21875q-0.21875 0.4375 -0.4375 1.8125l5.890625 0q-0.0625 0.875 -0.140625 2.015625q-0.078125 1.125 -0.265625 2.4375q-0.171875 1.3125 -1.046875 1.53125q-0.875 0.21875 -2.765625 0.4375q-0.140625 -0.953125 -0.734375 -1.609375q2.125 0 2.5625 -0.140625q0.4375 -0.15625 0.578125 -0.8125l0.21875 -2.765625l-4.453125 0q-1.015625 3.140625 -2.875 4.078125q-1.859375 0.953125 -3.96875 1.6875q-0.21875 -0.65625 -1.015625 -1.53125q1.75 -0.15625 3.640625 -1.09375q1.890625 -0.953125 2.6875 -3.140625l-1.671875 0q-2.1875 0 -3.203125 0.140625l0 -1.296875q1.09375 0.0625 3.28125 0.0625l1.8125 0zm1.75 -4.59375q1.46875 -0.875 2.84375 -2.765625l-5.46875 0q1.390625 1.828125 2.625 2.765625z"/><path fill="#cfe2f3" fill-rule="evenodd" d="m596.4934 179.02625l131.74805 0l0 42.4252l-131.74805 0z"/><path fill-rule="evenodd" stroke="#000" stroke-linecap="butt" stroke-linejoin="round" stroke-width="1" d="m596.4934 179.02625l131.74805 0l0 42.4252l-131.74805 0z"/><path fill="#000" fill-rule="nonzero" d="m641.61743 199.28384q-0.890625 3.859375 -1.9375 5.578125q1.484375 1.40625 3.265625 2.078125l-0.890625 1.625q-1.625 -0.734375 -3.265625 -2.21875q-1.109375 1.484375 -2.75 2.453125l-0.953125 -1.5625q1.703125 -0.96875 2.59375 -2.234375q-1.40625 -2.15625 -1.703125 -5.265625l-0.96875 0l0 8.984375l-1.484375 0l0 -16.40625l7.640625 0l0 3.703125q0 1.1875 -1.1875 1.1875l-2.078125 0l-0.140625 -1.40625l1.625 0q0.296875 0 0.296875 -0.296875l0 -1.78125l-4.671875 0l0 4.609375l5.34375 0l0.21875 -0.234375l1.265625 0.828125q0.296875 0.296875 -0.21875 0.359375zm-2.96875 4.3125q0.59375 -1.40625 1.25 -3.859375l-2.4375 0q0.140625 1.78125 1.1875 3.859375zm-11.953125 -11.203125l5.34375 0l0 14.921875q0 1.1875 -1.1875 1.1875l-1.484375 0l-0.078125 -1.421875l0.96875 0q0.296875 0 0.296875 -0.296875l0 -4.53125l-2.375 0l0 0.453125q0 3.703125 -1.5625 6.09375l-1.265625 -1.34375q1.34375 -2.375 1.34375 -4.96875l0 -10.09375zm3.859375 5.640625l-2.375 0l0 2.8125l2.375 0l0 -2.8125zm0 -1.421875l0 -2.8125l-2.375 0l0 2.8125l2.375 0z"/><path fill="#000" fill-rule="nonzero" d="m651.8518 192.73697q-0.59375 0.5 -1.03125 1.15625l8.09375 0q-0.65625 1.09375 -1.71875 2.34375q-1.046875 1.234375 -2.65625 2.328125q1.03125 0.65625 2.765625 0.984375q1.75 0.328125 4.15625 0.390625q-0.578125 0.65625 -0.796875 1.53125q-2.046875 -0.140625 -4.015625 -0.71875q-1.953125 -0.59375 -3.265625 -1.390625q-2.34375 1.09375 -4.234375 1.609375q-1.890625 0.5 -3.71875 0.796875q-0.28125 -0.875 -0.875 -1.53125q1.609375 0 3.640625 -0.4375q2.046875 -0.4375 4.015625 -1.234375q-1.53125 -1.46875 -2.625 -3.0q-1.234375 1.53125 -2.546875 2.5625q-0.515625 -0.59375 -1.3125 -0.875q2.046875 -1.46875 2.984375 -2.8125q0.953125 -1.34375 1.390625 -2.515625q0.9375 0.515625 1.75 0.8125zm-0.15625 9.609375q0.15625 -0.875 0.15625 -2.03125q0.875 0.140625 1.75 0.21875q-0.21875 0.4375 -0.4375 1.8125l5.890625 0q-0.0625 0.875 -0.140625 2.015625q-0.078125 1.125 -0.265625 2.4375q-0.171875 1.3125 -1.046875 1.53125q-0.875 0.21875 -2.765625 0.4375q-0.140625 -0.953125 -0.734375 -1.609375q2.125 0 2.5625 -0.140625q0.4375 -0.15625 0.578125 -0.8125l0.21875 -2.765625l-4.453125 0q-1.015625 3.140625 -2.875 4.078125q-1.859375 0.953125 -3.96875 1.6875q-0.21875 -0.65625 -1.015625 -1.53125q1.75 -0.15625 3.640625 -1.09375q1.890625 -0.953125 2.6875 -3.140625l-1.671875 0q-2.1875 0 -3.203125 0.140625l0 -1.296875q1.09375 0.0625 3.28125 0.0625l1.8125 0zm1.75 -4.59375q1.46875 -0.875 2.84375 -2.765625l-5.46875 0q1.390625 1.828125 2.625 2.765625z"/><path fill="#000" fill-rule="nonzero" d="m670.7268 208.5026q-2.296875 0 -4.21875 -1.796875q-0.890625 1.046875 -2.75 2.09375l-0.59375 -1.859375q0.8125 -0.234375 2.515625 -1.34375l0 -4.828125l-2.296875 0l0 -1.40625l3.78125 0l0 6.15625q1.484375 1.34375 3.859375 1.34375l9.203125 0l-0.296875 1.640625l-9.203125 0zm1.046875 -14.40625q1.859375 0.4375 2.375 0.671875l1.40625 -1.046875l-6.828125 0l0 -1.40625l8.46875 0l0.359375 -0.21875l1.125 0.8125q0.4375 0.375 -0.375 0.4375l-2.890625 1.9375l0.953125 0.4375l-0.890625 0.890625l3.34375 0l0 8.46875q0 1.03125 -1.03125 1.03125l-1.640625 0l-0.078125 -1.40625l0.96875 0q0.296875 0 0.296875 -0.296875l0 -1.40625l-2.8125 0l0 2.890625l-1.484375 0l0 -2.890625l-2.671875 0l0 3.1875l-1.484375 0l0 -9.578125l5.484375 0q-3.109375 -1.25 -3.703125 -1.40625l1.109375 -1.109375zm2.75 3.703125l0 1.421875l2.8125 0l0 -1.421875l-2.8125 0zm-4.15625 0l0 1.421875l2.671875 0l0 -1.421875l-2.671875 0zm2.671875 2.609375l-2.671875 0l0 1.40625l2.671875 0l0 -1.40625zm4.296875 0l-2.8125 0l0 1.40625l2.8125 0l0 -1.40625zm-12.09375 -8.25q2.0 1.265625 2.75 2.453125l-1.265625 1.34375q-1.1875 -1.484375 -2.53125 -2.53125l1.046875 -1.265625zm16.703125 8.015625q2.8125 -3.328125 3.328125 -8.234375l1.71875 0.453125q0.296875 0.296875 -0.234375 0.4375q-0.359375 2.15625 -0.953125 3.859375q0.8125 0.078125 0.140625 0.515625l0 11.59375l-1.484375 0l0 -9.359375q-0.515625 1.03125 -1.40625 2.078125l-1.109375 -1.34375zm14.390625 4.15625l-6.609375 0l0 2.15625l6.609375 0l0 -2.15625zm-8.09375 -1.40625l9.578125 0l0 5.640625l-1.484375 0l0 -0.65625l-6.609375 0l0 0.890625l-1.484375 0l0 -5.875zm0.453125 -1.265625l0 -1.40625l8.390625 0l0 1.40625l-8.390625 0zm0 -2.59375l0 -1.40625l8.390625 0l0 1.40625l-8.390625 0zm-1.703125 -3.9375l11.9375 0l0 1.421875l-11.9375 0l0 -1.421875zm1.703125 -2.671875l8.390625 0l0 1.421875l-8.390625 0l0 -1.421875z"/><path fill="#cfe2f3" fill-rule="evenodd" d="m596.4934 135.08136l131.74805 0l0 42.4252l-131.74805 0z"/><path fill-rule="evenodd" stroke="#000" stroke-linecap="butt" stroke-linejoin="round" stroke-width="1" d="m596.4934 135.08136l131.74805 0l0 42.4252l-131.74805 0z"/><path fill="#000" fill-rule="nonzero" d="m633.2893 148.57333q-0.140625 2.03125 -0.140625 3.484375l0 10.71875l2.40625 0l0 -11.59375q0 -1.15625 -0.15625 -2.609375l1.828125 0q-0.140625 1.15625 -0.140625 2.46875l0 11.734375l2.828125 0q1.171875 0 2.84375 -0.140625l0 1.59375q-1.671875 -0.140625 -2.765625 -0.140625l-11.078125 0q-1.015625 0 -2.90625 0.140625l0 -1.59375q1.890625 0.140625 2.84375 0.140625l2.6875 0l0 -10.78125q0 -1.53125 -0.21875 -3.421875l1.96875 0zm-5.25 3.640625q0.875 2.25 2.40625 6.625q-0.796875 0.140625 -1.671875 0.578125q-1.3125 -4.21875 -2.328125 -6.546875q0.71875 -0.296875 1.59375 -0.65625zm14.0625 0.4375q-0.9375 2.46875 -2.625 6.921875q-0.71875 -0.4375 -1.515625 -0.65625q1.515625 -2.84375 2.328125 -6.859375q0.796875 0.296875 1.8125 0.59375zm9.921875 -3.859375q-0.59375 0.5 -1.03125 1.15625l8.09375 0q-0.65625 1.09375 -1.71875 2.34375q-1.046875 1.234375 -2.65625 2.328125q1.03125 0.65625 2.765625 0.984375q1.75 0.328125 4.15625 0.390625q-0.578125 0.65625 -0.796875 1.53125q-2.046875 -0.140625 -4.015625 -0.71875q-1.953125 -0.59375 -3.265625 -1.390625q-2.34375 1.09375 -4.234375 1.609375q-1.890625 0.5 -3.71875 0.796875q-0.28125 -0.875 -0.875 -1.53125q1.609375 0 3.640625 -0.4375q2.046875 -0.4375 4.015625 -1.234375q-1.53125 -1.46875 -2.625 -3.0q-1.234375 1.53125 -2.546875 2.5625q-0.515625 -0.59375 -1.3125 -0.875q2.046875 -1.46875 2.984375 -2.8125q0.953125 -1.34375 1.390625 -2.515625q0.9375 0.515625 1.75 0.8125zm-0.15625 9.609375q0.15625 -0.875 0.15625 -2.03125q0.875 0.140625 1.75 0.21875q-0.21875 0.4375 -0.4375 1.8125l5.890625 0q-0.0625 0.875 -0.140625 2.015625q-0.078125 1.125 -0.265625 2.4375q-0.171875 1.3125 -1.046875 1.53125q-0.875 0.21875 -2.765625 0.4375q-0.140625 -0.953125 -0.734375 -1.609375q2.125 0 2.5625 -0.140625q0.4375 -0.15625 0.578125 -0.8125l0.21875 -2.765625l-4.453125 0q-1.015625 3.140625 -2.875 4.078125q-1.859375 0.953125 -3.96875 1.6875q-0.21875 -0.65625 -1.015625 -1.53125q1.75 -0.15625 3.640625 -1.09375q1.890625 -0.953125 2.6875 -3.140625l-1.671875 0q-2.1875 0 -3.203125 0.140625l0 -1.296875q1.09375 0.0625 3.28125 0.0625l1.8125 0zm1.75 -4.59375q1.46875 -0.875 2.84375 -2.765625l-5.46875 0q1.390625 1.828125 2.625 2.765625zm19.90625 0.59375q-0.59375 0.4375 -1.09375 1.015625l6.484375 0q-1.46875 3.125 -3.078125 4.4375q-1.59375 1.3125 -2.90625 1.859375q-1.3125 0.546875 -3.5625 1.0625q-0.296875 -0.875 -0.953125 -1.53125q1.234375 -0.140625 2.578125 -0.390625q1.359375 -0.265625 2.375 -0.84375q-1.09375 -0.953125 -2.109375 -1.609375q0.65625 -0.65625 0.953125 -1.09375q1.453125 1.03125 2.328125 1.828125q1.234375 -0.953125 2.109375 -2.546875l-4.953125 0q-1.171875 1.234375 -2.484375 2.328125q-0.65625 -0.65625 -1.234375 -1.09375q2.625 -1.75 3.9375 -4.296875l-3.5 0q0.078125 -1.390625 0.078125 -2.5625q0 -1.234375 -0.078125 -2.546875l10.859375 0q-0.078125 0.875 -0.078125 2.625q0 1.671875 0.078125 2.484375l-7.140625 0q0.65625 0.5 1.390625 0.875zm-6.921875 -0.515625q-0.078125 1.453125 -0.078125 2.703125l0 4.953125q2.109375 1.75 6.625 1.75q4.59375 0 7.21875 -0.296875q-0.515625 0.875 -0.65625 1.75q-3.203125 0 -5.28125 -0.046875q-2.078125 -0.03125 -3.5 -0.21875q-1.421875 -0.171875 -2.265625 -0.4375q-0.828125 -0.25 -1.640625 -0.796875q-0.796875 -0.546875 -1.3125 -0.03125q-0.5 0.515625 -1.453125 1.609375q-0.4375 -0.59375 -1.234375 -1.09375q1.09375 -0.8125 2.1875 -1.75l0 -6.921875q-0.953125 0 -2.046875 0.0625l0 -1.3125q1.09375 0.078125 3.4375 0.078125zm5.171875 -1.453125l0 -2.84375l-1.90625 0l0 2.84375l1.90625 0zm-6.046875 -4.453125q0.796875 2.546875 1.015625 3.421875q-0.796875 0.21875 -1.390625 0.59375q-0.4375 -1.828125 -1.09375 -3.640625q0.65625 -0.15625 1.46875 -0.375zm12.09375 4.453125l0 -2.84375l-1.828125 0l0 2.84375l1.828125 0zm-3.0625 0l0 -2.84375l-1.75 0l0 2.84375l1.75 0zm24.046875 8.734375q-0.078125 0.734375 -0.078125 1.171875q-0.21875 0 -1.671875 0.21875q0 1.234375 0.078125 2.625l-1.390625 0q0.078125 -1.171875 0.078125 -2.40625q-5.109375 0.578125 -6.640625 1.015625l-0.4375 -1.453125l1.46875 -0.140625l0 -6.921875q-0.734375 0 -1.46875 0.0625l0 -1.234375q1.09375 0.078125 2.34375 0.078125l5.96875 0q0.65625 0 1.53125 -0.078125l0 1.234375q-0.65625 -0.0625 -1.53125 -0.0625l0 6.1875q0.734375 -0.140625 1.75 -0.296875zm-9.40625 -0.875q-0.9375 0.296875 -2.40625 0.734375q0 1.96875 0.078125 4.078125l-1.375 0q0.0625 -2.109375 0.0625 -3.78125q-2.46875 0.65625 -3.34375 0.9375q-0.15625 -0.359375 -0.515625 -1.375q0.875 -0.078125 3.859375 -0.8125l0 -2.6875l-1.75 0q-0.875 0 -1.453125 0.21875l-0.515625 -1.3125q0.65625 -0.21875 1.203125 -1.484375q0.546875 -1.28125 1.0625 -3.109375q-0.65625 0 -2.328125 0.078125l0 -1.25q1.96875 0.078125 2.625 0.078125q0.4375 -1.390625 0.65625 -2.546875q0.578125 0.296875 1.453125 0.4375q-0.4375 1.015625 -0.8125 2.109375q2.046875 0 3.65625 -0.078125l0 1.25q-1.828125 -0.078125 -3.9375 -0.078125q-0.515625 1.53125 -1.609375 4.515625l1.75 0q0 -1.53125 -0.0625 -2.625l1.375 0q-0.078125 1.03125 -0.078125 2.625l2.125 0l0 1.171875l-2.125 0l0 2.46875q1.390625 -0.359375 2.40625 -0.71875l0 1.15625zm7.953125 -11.140625q-0.078125 0.796875 -0.078125 1.96875q0 1.09375 0.078125 1.890625l-7.140625 0q0.0625 -1.015625 0.0625 -2.046875q0 -1.015625 -0.0625 -1.8125l7.140625 0zm-1.3125 2.84375l0 -1.828125l-4.59375 0l0 1.828125l4.59375 0zm-0.21875 7.359375l0 -1.53125l-4.375 0l0 1.53125l4.375 0zm0 -2.546875l0 -1.53125l-4.375 0l0 1.53125l4.375 0zm0 4.796875l0 -1.234375l-4.375 0l0 1.75l4.375 -0.515625z"/><path fill="#000" fill-opacity="0" fill-rule="evenodd" d="m636.4934 223.84514l81.63782 0l0 49.76378l-81.63782 0z"/><path fill="#000" fill-rule="nonzero" d="m662.9309 252.03076q-1.625 -1.109375 -2.890625 -2.96875q-1.921875 2.296875 -4.296875 3.40625l-0.59375 -1.40625q3.1875 -1.859375 4.15625 -3.265625q-0.75 -1.703125 -1.125 -5.34375q-0.296875 0.671875 -0.8125 1.1875l-0.890625 -1.046875q2.078125 -2.21875 2.53125 -6.828125l1.484375 0.296875q0.296875 0.296875 -0.234375 0.375q-0.359375 2.078125 -0.65625 2.890625l3.78125 0l0 1.421875l-1.046875 0q0 4.296875 -1.328125 7.125q0.671875 1.1875 2.75 2.734375l-0.828125 1.421875zm-16.546875 -12.25q1.859375 -1.484375 3.125 -4.078125l1.1875 0.65625q0.359375 0.15625 -0.15625 0.375q-1.328125 2.75 -3.265625 4.234375l-0.890625 -1.1875zm7.71875 9.28125l0.515625 -0.296875l0 -4.015625l-1.1875 0l0 2.078125q0 3.421875 -2.078125 5.046875l-0.8125 -1.1875q1.640625 -1.5625 1.640625 -3.78125l0 -2.15625l-1.265625 0l0 -1.40625l6.015625 0l0 1.40625l-1.046875 0l0 3.34375l1.78125 -1.109375l0.453125 1.03125q-1.1875 0.890625 -3.046875 1.9375q-0.15625 0.4375 -0.375 0.140625l-0.59375 -1.03125zm-8.015625 -4.453125q2.53125 -2.078125 3.71875 -5.421875l1.25 0.671875q0.234375 0.21875 -0.140625 0.359375q-0.515625 1.125 -0.96875 1.9375l0 10.3125l-1.265625 0l0 -8.390625q-0.8125 1.1875 -1.921875 1.9375l-0.671875 -1.40625zm8.828125 -4.15625l0.96875 0l0 -3.421875l1.1875 0q0.59375 0.078125 0.078125 0.453125l0 4.15625l-4.53125 0l0 0.8125l-1.265625 0l0 -5.421875l1.1875 0q0.59375 0.078125 0.078125 0.453125l0 2.96875l1.046875 0l0 -4.75l1.1875 0q0.59375 0.0625 0.0625 0.4375l0 4.3125zm5.28125 6.078125q0.890625 -2.078125 0.890625 -5.78125l-1.71875 0q0.078125 3.265625 0.828125 5.78125zm21.375 -3.640625q-0.890625 3.859375 -1.9375 5.578125q1.484375 1.40625 3.265625 2.078125l-0.890625 1.625q-1.625 -0.734375 -3.265625 -2.21875q-1.109375 1.484375 -2.75 2.453125l-0.953125 -1.5625q1.703125 -0.96875 2.59375 -2.234375q-1.40625 -2.15625 -1.703125 -5.265625l-0.96875 0l0 8.984375l-1.484375 0l0 -16.40625l7.640625 0l0 3.703125q0 1.1875 -1.1875 1.1875l-2.078125 0l-0.140625 -1.40625l1.625 0q0.296875 0 0.296875 -0.296875l0 -1.78125l-4.671875 0l0 4.609375l5.34375 0l0.21875 -0.234375l1.265625 0.828125q0.296875 0.296875 -0.21875 0.359375zm-2.96875 4.3125q0.59375 -1.40625 1.25 -3.859375l-2.4375 0q0.140625 1.78125 1.1875 3.859375zm-11.953125 -11.203125l5.34375 0l0 14.921875q0 1.1875 -1.1875 1.1875l-1.484375 0l-0.078125 -1.421875l0.96875 0q0.296875 0 0.296875 -0.296875l0 -4.53125l-2.375 0l0 0.453125q0 3.703125 -1.5625 6.09375l-1.265625 -1.34375q1.34375 -2.375 1.34375 -4.96875l0 -10.09375zm3.859375 5.640625l-2.375 0l0 2.8125l2.375 0l0 -2.8125zm0 -1.421875l0 -2.8125l-2.375 0l0 2.8125l2.375 0z"/><path fill="#000" fill-rule="nonzero" d="m691.8059 236.34326q-0.59375 0.5 -1.03125 1.15625l8.09375 0q-0.65625 1.09375 -1.71875 2.34375q-1.046875 1.234375 -2.65625 2.328125q1.03125 0.65625 2.765625 0.984375q1.75 0.328125 4.15625 0.390625q-0.578125 0.65625 -0.796875 1.53125q-2.046875 -0.140625 -4.015625 -0.71875q-1.953125 -0.59375 -3.265625 -1.390625q-2.34375 1.09375 -4.234375 1.609375q-1.890625 0.5 -3.71875 0.796875q-0.28125 -0.875 -0.875 -1.53125q1.609375 0 3.640625 -0.4375q2.046875 -0.4375 4.015625 -1.234375q-1.53125 -1.46875 -2.625 -3.0q-1.234375 1.53125 -2.546875 2.5625q-0.515625 -0.59375 -1.3125 -0.875q2.046875 -1.46875 2.984375 -2.8125q0.953125 -1.34375 1.390625 -2.515625q0.9375 0.515625 1.75 0.8125zm-0.15625 9.609375q0.15625 -0.875 0.15625 -2.03125q0.875 0.140625 1.75 0.21875q-0.21875 0.4375 -0.4375 1.8125l5.890625 0q-0.0625 0.875 -0.140625 2.015625q-0.078125 1.125 -0.265625 2.4375q-0.171875 1.3125 -1.046875 1.53125q-0.875 0.21875 -2.765625 0.4375q-0.140625 -0.953125 -0.734375 -1.609375q2.125 0 2.5625 -0.140625q0.4375 -0.15625 0.578125 -0.8125l0.21875 -2.765625l-4.453125 0q-1.015625 3.140625 -2.875 4.078125q-1.859375 0.953125 -3.96875 1.6875q-0.21875 -0.65625 -1.015625 -1.53125q1.75 -0.15625 3.640625 -1.09375q1.890625 -0.953125 2.6875 -3.140625l-1.671875 0q-2.1875 0 -3.203125 0.140625l0 -1.296875q1.09375 0.0625 3.28125 0.0625l1.8125 0zm1.75 -4.59375q1.46875 -0.875 2.84375 -2.765625l-5.46875 0q1.390625 1.828125 2.625 2.765625z"/><path fill="#cfe2f3" fill-rule="evenodd" d="m301.76117 333.5538l131.74802 0l0 42.4252l-131.74802 0z"/><path fill-rule="evenodd" stroke="#000" stroke-linecap="butt" stroke-linejoin="round" stroke-width="1" d="m301.76117 333.5538l131.74802 0l0 42.4252l-131.74802 0z"/><path fill="#000" fill-rule="nonzero" d="m346.88516 353.8114q-0.890625 3.859375 -1.9375 5.578125q1.484375 1.40625 3.265625 2.078125l-0.890625 1.625q-1.625 -0.734375 -3.265625 -2.21875q-1.109375 1.484375 -2.75 2.453125l-0.953125 -1.5625q1.703125 -0.96875 2.59375 -2.234375q-1.40625 -2.15625 -1.703125 -5.265625l-0.96875 0l0 8.984375l-1.484375 0l0 -16.40625l7.640625 0l0 3.703125q0 1.1875 -1.1875 1.1875l-2.078125 0l-0.140625 -1.40625l1.625 0q0.296875 0 0.296875 -0.296875l0 -1.78125l-4.671875 0l0 4.609375l5.34375 0l0.21875 -0.234375l1.265625 0.828125q0.296875 0.296875 -0.21875 0.359375zm-2.96875 4.3125q0.59375 -1.40625 1.25 -3.859375l-2.4375 0q0.140625 1.78125 1.1875 3.859375zm-11.953125 -11.203125l5.34375 0l0 14.921875q0 1.1875 -1.1875 1.1875l-1.484375 0l-0.078125 -1.421875l0.96875 0q0.296875 0 0.296875 -0.296875l0 -4.53125l-2.375 0l0 0.453125q0 3.703125 -1.5625 6.09375l-1.265625 -1.34375q1.34375 -2.375 1.34375 -4.96875l0 -10.09375zm3.859375 5.640625l-2.375 0l0 2.8125l2.375 0l0 -2.8125zm0 -1.421875l0 -2.8125l-2.375 0l0 2.8125l2.375 0z"/><path fill="#000" fill-rule="nonzero" d="m357.11954 347.26453q-0.59375 0.5 -1.03125 1.15625l8.09375 0q-0.65625 1.09375 -1.71875 2.34375q-1.046875 1.234375 -2.65625 2.328125q1.03125 0.65625 2.765625 0.984375q1.75 0.328125 4.15625 0.390625q-0.578125 0.65625 -0.796875 1.53125q-2.046875 -0.140625 -4.015625 -0.71875q-1.953125 -0.59375 -3.265625 -1.390625q-2.34375 1.09375 -4.234375 1.609375q-1.890625 0.5 -3.71875 0.796875q-0.28125 -0.875 -0.875 -1.53125q1.609375 0 3.640625 -0.4375q2.046875 -0.4375 4.015625 -1.234375q-1.53125 -1.46875 -2.625 -3.0q-1.234375 1.53125 -2.546875 2.5625q-0.515625 -0.59375 -1.3125 -0.875q2.046875 -1.46875 2.984375 -2.8125q0.953125 -1.34375 1.390625 -2.515625q0.9375 0.515625 1.75 0.8125zm-0.15625 9.609375q0.15625 -0.875 0.15625 -2.03125q0.875 0.140625 1.75 0.21875q-0.21875 0.4375 -0.4375 1.8125l5.890625 0q-0.0625 0.875 -0.140625 2.015625q-0.078125 1.125 -0.265625 2.4375q-0.171875 1.3125 -1.046875 1.53125q-0.875 0.21875 -2.765625 0.4375q-0.140625 -0.953125 -0.734375 -1.609375q2.125 0 2.5625 -0.140625q0.4375 -0.15625 0.578125 -0.8125l0.21875 -2.765625l-4.453125 0q-1.015625 3.140625 -2.875 4.078125q-1.859375 0.953125 -3.96875 1.6875q-0.21875 -0.65625 -1.015625 -1.53125q1.75 -0.15625 3.640625 -1.09375q1.890625 -0.953125 2.6875 -3.140625l-1.671875 0q-2.1875 0 -3.203125 0.140625l0 -1.296875q1.09375 0.0625 3.28125 0.0625l1.8125 0zm1.75 -4.59375q1.46875 -0.875 2.84375 -2.765625l-5.46875 0q1.390625 1.828125 2.625 2.765625z"/><path fill="#000" fill-rule="nonzero" d="m375.99454 363.03015q-2.296875 0 -4.21875 -1.796875q-0.890625 1.046875 -2.75 2.09375l-0.59375 -1.859375q0.8125 -0.234375 2.515625 -1.34375l0 -4.828125l-2.296875 0l0 -1.40625l3.78125 0l0 6.15625q1.484375 1.34375 3.859375 1.34375l9.203125 0l-0.296875 1.640625l-9.203125 0zm1.046875 -14.40625q1.859375 0.4375 2.375 0.671875l1.40625 -1.046875l-6.828125 0l0 -1.40625l8.46875 0l0.359375 -0.21875l1.125 0.8125q0.4375 0.375 -0.375 0.4375l-2.890625 1.9375l0.953125 0.4375l-0.890625 0.890625l3.34375 0l0 8.46875q0 1.03125 -1.03125 1.03125l-1.640625 0l-0.078125 -1.40625l0.96875 0q0.296875 0 0.296875 -0.296875l0 -1.40625l-2.8125 0l0 2.890625l-1.484375 0l0 -2.890625l-2.671875 0l0 3.1875l-1.484375 0l0 -9.578125l5.484375 0q-3.109375 -1.25 -3.703125 -1.40625l1.109375 -1.109375zm2.75 3.703125l0 1.421875l2.8125 0l0 -1.421875l-2.8125 0zm-4.15625 0l0 1.421875l2.671875 0l0 -1.421875l-2.671875 0zm2.671875 2.609375l-2.671875 0l0 1.40625l2.671875 0l0 -1.40625zm4.296875 0l-2.8125 0l0 1.40625l2.8125 0l0 -1.40625zm-12.09375 -8.25q2.0 1.265625 2.75 2.453125l-1.265625 1.34375q-1.1875 -1.484375 -2.53125 -2.53125l1.046875 -1.265625zm16.703125 8.015625q2.8125 -3.328125 3.328125 -8.234375l1.71875 0.453125q0.296875 0.296875 -0.234375 0.4375q-0.359375 2.15625 -0.953125 3.859375q0.8125 0.078125 0.140625 0.515625l0 11.59375l-1.484375 0l0 -9.359375q-0.515625 1.03125 -1.40625 2.078125l-1.109375 -1.34375zm14.390625 4.15625l-6.609375 0l0 2.15625l6.609375 0l0 -2.15625zm-8.09375 -1.40625l9.578125 0l0 5.640625l-1.484375 0l0 -0.65625l-6.609375 0l0 0.890625l-1.484375 0l0 -5.875zm0.453125 -1.265625l0 -1.40625l8.390625 0l0 1.40625l-8.390625 0zm0 -2.59375l0 -1.40625l8.390625 0l0 1.40625l-8.390625 0zm-1.703125 -3.9375l11.9375 0l0 1.421875l-11.9375 0l0 -1.421875zm1.703125 -2.671875l8.390625 0l0 1.421875l-8.390625 0l0 -1.421875z"/><path fill="#cfe2f3" fill-rule="evenodd" d="m301.76117 289.60892l131.74802 0l0 42.4252l-131.74802 0z"/><path fill-rule="evenodd" stroke="#000" stroke-linecap="butt" stroke-linejoin="round" stroke-width="1" d="m301.76117 289.60892l131.74802 0l0 42.4252l-131.74802 0z"/><path fill="#000" fill-rule="nonzero" d="m338.55704 303.1009q-0.140625 2.03125 -0.140625 3.484375l0 10.71875l2.40625 0l0 -11.59375q0 -1.15625 -0.15625 -2.609375l1.828125 0q-0.140625 1.15625 -0.140625 2.46875l0 11.734375l2.828125 0q1.171875 0 2.84375 -0.140625l0 1.59375q-1.671875 -0.140625 -2.765625 -0.140625l-11.078125 0q-1.015625 0 -2.90625 0.140625l0 -1.59375q1.890625 0.140625 2.84375 0.140625l2.6875 0l0 -10.78125q0 -1.53125 -0.21875 -3.421875l1.96875 0zm-5.25 3.640625q0.875 2.25 2.40625 6.625q-0.796875 0.140625 -1.671875 0.578125q-1.3125 -4.21875 -2.328125 -6.546875q0.71875 -0.296875 1.59375 -0.65625zm14.0625 0.4375q-0.9375 2.46875 -2.625 6.921875q-0.71875 -0.4375 -1.515625 -0.65625q1.515625 -2.84375 2.328125 -6.859375q0.796875 0.296875 1.8125 0.59375zm9.921875 -3.859375q-0.59375 0.5 -1.03125 1.15625l8.09375 0q-0.65625 1.09375 -1.71875 2.34375q-1.046875 1.234375 -2.65625 2.328125q1.03125 0.65625 2.765625 0.984375q1.75 0.328125 4.15625 0.390625q-0.578125 0.65625 -0.796875 1.53125q-2.046875 -0.140625 -4.015625 -0.71875q-1.953125 -0.59375 -3.265625 -1.390625q-2.34375 1.09375 -4.234375 1.609375q-1.890625 0.5 -3.71875 0.796875q-0.28125 -0.875 -0.875 -1.53125q1.609375 0 3.640625 -0.4375q2.046875 -0.4375 4.015625 -1.234375q-1.53125 -1.46875 -2.625 -3.0q-1.234375 1.53125 -2.546875 2.5625q-0.515625 -0.59375 -1.3125 -0.875q2.046875 -1.46875 2.984375 -2.8125q0.953125 -1.34375 1.390625 -2.515625q0.9375 0.515625 1.75 0.8125zm-0.15625 9.609375q0.15625 -0.875 0.15625 -2.03125q0.875 0.140625 1.75 0.21875q-0.21875 0.4375 -0.4375 1.8125l5.890625 0q-0.0625 0.875 -0.140625 2.015625q-0.078125 1.125 -0.265625 2.4375q-0.171875 1.3125 -1.046875 1.53125q-0.875 0.21875 -2.765625 0.4375q-0.140625 -0.953125 -0.734375 -1.609375q2.125 0 2.5625 -0.140625q0.4375 -0.15625 0.578125 -0.8125l0.21875 -2.765625l-4.453125 0q-1.015625 3.140625 -2.875 4.078125q-1.859375 0.953125 -3.96875 1.6875q-0.21875 -0.65625 -1.015625 -1.53125q1.75 -0.15625 3.640625 -1.09375q1.890625 -0.953125 2.6875 -3.140625l-1.671875 0q-2.1875 0 -3.203125 0.140625l0 -1.296875q1.09375 0.0625 3.28125 0.0625l1.8125 0zm1.75 -4.59375q1.46875 -0.875 2.84375 -2.765625l-5.46875 0q1.390625 1.828125 2.625 2.765625zm19.90625 0.59375q-0.59375 0.4375 -1.09375 1.015625l6.484375 0q-1.46875 3.125 -3.078125 4.4375q-1.59375 1.3125 -2.90625 1.859375q-1.3125 0.546875 -3.5625 1.0625q-0.296875 -0.875 -0.953125 -1.53125q1.234375 -0.140625 2.578125 -0.390625q1.359375 -0.265625 2.375 -0.84375q-1.09375 -0.953125 -2.109375 -1.609375q0.65625 -0.65625 0.953125 -1.09375q1.453125 1.03125 2.328125 1.828125q1.234375 -0.953125 2.109375 -2.546875l-4.953125 0q-1.171875 1.234375 -2.484375 2.328125q-0.65625 -0.65625 -1.234375 -1.09375q2.625 -1.75 3.9375 -4.296875l-3.5 0q0.078125 -1.390625 0.078125 -2.5625q0 -1.234375 -0.078125 -2.546875l10.859375 0q-0.078125 0.875 -0.078125 2.625q0 1.671875 0.078125 2.484375l-7.140625 0q0.65625 0.5 1.390625 0.875zm-6.921875 -0.515625q-0.078125 1.453125 -0.078125 2.703125l0 4.953125q2.109375 1.75 6.625 1.75q4.59375 0 7.21875 -0.296875q-0.515625 0.875 -0.65625 1.75q-3.203125 0 -5.28125 -0.046875q-2.078125 -0.03125 -3.5 -0.21875q-1.421875 -0.171875 -2.265625 -0.4375q-0.828125 -0.25 -1.640625 -0.796875q-0.796875 -0.546875 -1.3125 -0.03125q-0.5 0.515625 -1.453125 1.609375q-0.4375 -0.59375 -1.234375 -1.09375q1.09375 -0.8125 2.1875 -1.75l0 -6.921875q-0.953125 0 -2.046875 0.0625l0 -1.3125q1.09375 0.078125 3.4375 0.078125zm5.171875 -1.453125l0 -2.84375l-1.90625 0l0 2.84375l1.90625 0zm-6.046875 -4.453125q0.796875 2.546875 1.015625 3.421875q-0.796875 0.21875 -1.390625 0.59375q-0.4375 -1.828125 -1.09375 -3.640625q0.65625 -0.15625 1.46875 -0.375zm12.09375 4.453125l0 -2.84375l-1.828125 0l0 2.84375l1.828125 0zm-3.0625 0l0 -2.84375l-1.75 0l0 2.84375l1.75 0zm24.046875 8.734375q-0.078125 0.734375 -0.078125 1.171875q-0.21875 0 -1.671875 0.21875q0 1.234375 0.078125 2.625l-1.390625 0q0.078125 -1.171875 0.078125 -2.40625q-5.109375 0.578125 -6.640625 1.015625l-0.4375 -1.453125l1.46875 -0.140625l0 -6.921875q-0.734375 0 -1.46875 0.0625l0 -1.234375q1.09375 0.078125 2.34375 0.078125l5.96875 0q0.65625 0 1.53125 -0.078125l0 1.234375q-0.65625 -0.0625 -1.53125 -0.0625l0 6.1875q0.734375 -0.140625 1.75 -0.296875zm-9.40625 -0.875q-0.9375 0.296875 -2.40625 0.734375q0 1.96875 0.078125 4.078125l-1.375 0q0.0625 -2.109375 0.0625 -3.78125q-2.46875 0.65625 -3.34375 0.9375q-0.15625 -0.359375 -0.515625 -1.375q0.875 -0.078125 3.859375 -0.8125l0 -2.6875l-1.75 0q-0.875 0 -1.453125 0.21875l-0.515625 -1.3125q0.65625 -0.21875 1.203125 -1.484375q0.546875 -1.28125 1.0625 -3.109375q-0.65625 0 -2.328125 0.078125l0 -1.25q1.96875 0.078125 2.625 0.078125q0.4375 -1.390625 0.65625 -2.546875q0.578125 0.296875 1.453125 0.4375q-0.4375 1.015625 -0.8125 2.109375q2.046875 0 3.65625 -0.078125l0 1.25q-1.828125 -0.078125 -3.9375 -0.078125q-0.515625 1.53125 -1.609375 4.515625l1.75 0q0 -1.53125 -0.0625 -2.625l1.375 0q-0.078125 1.03125 -0.078125 2.625l2.125 0l0 1.171875l-2.125 0l0 2.46875q1.390625 -0.359375 2.40625 -0.71875l0 1.15625zm7.953125 -11.140625q-0.078125 0.796875 -0.078125 1.96875q0 1.09375 0.078125 1.890625l-7.140625 0q0.0625 -1.015625 0.0625 -2.046875q0 -1.015625 -0.0625 -1.8125l7.140625 0zm-1.3125 2.84375l0 -1.828125l-4.59375 0l0 1.828125l4.59375 0zm-0.21875 7.359375l0 -1.53125l-4.375 0l0 1.53125l4.375 0zm0 -2.546875l0 -1.53125l-4.375 0l0 1.53125l4.375 0zm0 4.796875l0 -1.234375l-4.375 0l0 1.75l4.375 -0.515625z"/><path fill="#000" fill-opacity="0" fill-rule="evenodd" d="m317.76117 378.3727l81.63779 0l0 49.763763l-81.63779 0z"/><path fill="#000" fill-rule="nonzero" d="m344.19867 406.55832q-1.625 -1.109375 -2.890625 -2.96875q-1.921875 2.296875 -4.296875 3.40625l-0.59375 -1.40625q3.1875 -1.859375 4.15625 -3.265625q-0.75 -1.703125 -1.125 -5.34375q-0.296875 0.671875 -0.8125 1.1875l-0.890625 -1.046875q2.078125 -2.21875 2.53125 -6.828125l1.484375 0.296875q0.296875 0.296875 -0.234375 0.375q-0.359375 2.078125 -0.65625 2.890625l3.78125 0l0 1.421875l-1.046875 0q0 4.296875 -1.328125 7.125q0.671875 1.1875 2.75 2.734375l-0.828125 1.421875zm-16.546875 -12.25q1.859375 -1.484375 3.125 -4.078125l1.1875 0.65625q0.359375 0.15625 -0.15625 0.375q-1.328125 2.75 -3.265625 4.234375l-0.890625 -1.1875zm7.71875 9.28125l0.515625 -0.296875l0 -4.015625l-1.1875 0l0 2.078125q0 3.421875 -2.078125 5.046875l-0.8125 -1.1875q1.640625 -1.5625 1.640625 -3.78125l0 -2.15625l-1.265625 0l0 -1.40625l6.015625 0l0 1.40625l-1.046875 0l0 3.34375l1.78125 -1.109375l0.453125 1.03125q-1.1875 0.890625 -3.046875 1.9375q-0.15625 0.4375 -0.375 0.140625l-0.59375 -1.03125zm-8.015625 -4.453125q2.53125 -2.078125 3.71875 -5.421875l1.25 0.671875q0.234375 0.21875 -0.140625 0.359375q-0.515625 1.125 -0.96875 1.9375l0 10.3125l-1.265625 0l0 -8.390625q-0.8125 1.1875 -1.921875 1.9375l-0.671875 -1.40625zm8.828125 -4.15625l0.96875 0l0 -3.421875l1.1875 0q0.59375 0.078125 0.078125 0.453125l0 4.15625l-4.53125 0l0 0.8125l-1.265625 0l0 -5.421875l1.1875 0q0.59375 0.078125 0.078125 0.453125l0 2.96875l1.046875 0l0 -4.75l1.1875 0q0.59375 0.0625 0.0625 0.4375l0 4.3125zm5.28125 6.078125q0.890625 -2.078125 0.890625 -5.78125l-1.71875 0q0.078125 3.265625 0.828125 5.78125zm21.375 -3.640625q-0.890625 3.859375 -1.9375 5.578125q1.484375 1.40625 3.265625 2.078125l-0.890625 1.625q-1.625 -0.734375 -3.265625 -2.21875q-1.109375 1.484375 -2.75 2.453125l-0.953125 -1.5625q1.703125 -0.96875 2.59375 -2.234375q-1.40625 -2.15625 -1.703125 -5.265625l-0.96875 0l0 8.984375l-1.484375 0l0 -16.40625l7.640625 0l0 3.703125q0 1.1875 -1.1875 1.1875l-2.078125 0l-0.140625 -1.40625l1.625 0q0.296875 0 0.296875 -0.296875l0 -1.78125l-4.671875 0l0 4.609375l5.34375 0l0.21875 -0.234375l1.265625 0.828125q0.296875 0.296875 -0.21875 0.359375zm-2.96875 4.3125q0.59375 -1.40625 1.25 -3.859375l-2.4375 0q0.140625 1.78125 1.1875 3.859375zm-11.953125 -11.203125l5.34375 0l0 14.921875q0 1.1875 -1.1875 1.1875l-1.484375 0l-0.078125 -1.421875l0.96875 0q0.296875 0 0.296875 -0.296875l0 -4.53125l-2.375 0l0 0.453125q0 3.703125 -1.5625 6.09375l-1.265625 -1.34375q1.34375 -2.375 1.34375 -4.96875l0 -10.09375zm3.859375 5.640625l-2.375 0l0 2.8125l2.375 0l0 -2.8125zm0 -1.421875l0 -2.8125l-2.375 0l0 2.8125l2.375 0z"/><path fill="#000" fill-rule="nonzero" d="m373.07367 390.87082q-0.59375 0.5 -1.03125 1.15625l8.09375 0q-0.65625 1.09375 -1.71875 2.34375q-1.046875 1.234375 -2.65625 2.328125q1.03125 0.65625 2.765625 0.984375q1.75 0.328125 4.15625 0.390625q-0.578125 0.65625 -0.796875 1.53125q-2.046875 -0.140625 -4.015625 -0.71875q-1.953125 -0.59375 -3.265625 -1.390625q-2.34375 1.09375 -4.234375 1.609375q-1.890625 0.5 -3.71875 0.796875q-0.28125 -0.875 -0.875 -1.53125q1.609375 0 3.640625 -0.4375q2.046875 -0.4375 4.015625 -1.234375q-1.53125 -1.46875 -2.625 -3.0q-1.234375 1.53125 -2.546875 2.5625q-0.515625 -0.59375 -1.3125 -0.875q2.046875 -1.46875 2.984375 -2.8125q0.953125 -1.34375 1.390625 -2.515625q0.9375 0.515625 1.75 0.8125zm-0.15625 9.609375q0.15625 -0.875 0.15625 -2.03125q0.875 0.140625 1.75 0.21875q-0.21875 0.4375 -0.4375 1.8125l5.890625 0q-0.0625 0.875 -0.140625 2.015625q-0.078125 1.125 -0.265625 2.4375q-0.171875 1.3125 -1.046875 1.53125q-0.875 0.21875 -2.765625 0.4375q-0.140625 -0.953125 -0.734375 -1.609375q2.125 0 2.5625 -0.140625q0.4375 -0.15625 0.578125 -0.8125l0.21875 -2.765625l-4.453125 0q-1.015625 3.140625 -2.875 4.078125q-1.859375 0.953125 -3.96875 1.6875q-0.21875 -0.65625 -1.015625 -1.53125q1.75 -0.15625 3.640625 -1.09375q1.890625 -0.953125 2.6875 -3.140625l-1.671875 0q-2.1875 0 -3.203125 0.140625l0 -1.296875q1.09375 0.0625 3.28125 0.0625l1.8125 0zm1.75 -4.59375q1.46875 -0.875 2.84375 -2.765625l-5.46875 0q1.390625 1.828125 2.625 2.765625z"/><path fill="#cfe2f3" fill-rule="evenodd" d="m10.152231 176.979l131.74803 0l0 42.4252l-131.74803 0z"/><path fill-rule="evenodd" stroke="#000" stroke-linecap="butt" stroke-linejoin="round" stroke-width="1" d="m10.152231 176.979l131.74803 0l0 42.4252l-131.74803 0z"/><path fill="#000" fill-rule="nonzero" d="m55.276245 197.2366q-0.890625 3.859375 -1.9375 5.578125q1.484375 1.40625 3.265625 2.078125l-0.890625 1.625q-1.625 -0.734375 -3.265625 -2.21875q-1.109375 1.484375 -2.75 2.453125l-0.953125 -1.5625q1.703125 -0.96875 2.59375 -2.234375q-1.40625 -2.15625 -1.703125 -5.265625l-0.96875 0l0 8.984375l-1.484375 0l0 -16.40625l7.640625 0l0 3.703125q0 1.1875 -1.1875 1.1875l-2.078125 0l-0.140625 -1.40625l1.625 0q0.296875 0 0.296875 -0.296875l0 -1.78125l-4.671875 0l0 4.609375l5.34375 0l0.21875 -0.234375l1.265625 0.828125q0.296875 0.296875 -0.21875 0.359375zm-2.96875 4.3125q0.59375 -1.40625 1.25 -3.859375l-2.4375 0q0.140625 1.78125 1.1875 3.859375zm-11.953125 -11.203125l5.34375 0l0 14.921875q0 1.1875 -1.1875 1.1875l-1.484375 0l-0.078125 -1.421875l0.96875 0q0.296875 0 0.296875 -0.296875l0 -4.53125l-2.375 0l0 0.453125q0 3.703125 -1.5625 6.09375l-1.265625 -1.34375q1.34375 -2.375 1.34375 -4.96875l0 -10.09375zm3.859375 5.640625l-2.375 0l0 2.8125l2.375 0l0 -2.8125zm0 -1.421875l0 -2.8125l-2.375 0l0 2.8125l2.375 0z"/><path fill="#000" fill-rule="nonzero" d="m65.51062 190.68973q-0.59375 0.5 -1.03125 1.15625l8.09375 0q-0.65625 1.09375 -1.71875 2.34375q-1.046875 1.234375 -2.65625 2.328125q1.03125 0.65625 2.765625 0.984375q1.75 0.328125 4.15625 0.390625q-0.578125 0.65625 -0.796875 1.53125q-2.046875 -0.140625 -4.015625 -0.71875q-1.953125 -0.59375 -3.265625 -1.390625q-2.34375 1.09375 -4.234375 1.609375q-1.890625 0.5 -3.71875 0.796875q-0.28125 -0.875 -0.875 -1.53125q1.609375 0 3.640625 -0.4375q2.046875 -0.4375 4.015625 -1.234375q-1.53125 -1.46875 -2.625 -3.0q-1.234375 1.53125 -2.546875 2.5625q-0.515625 -0.59375 -1.3125 -0.875q2.046875 -1.46875 2.984375 -2.8125q0.953125 -1.34375 1.390625 -2.515625q0.9375 0.515625 1.75 0.8125zm-0.15625 9.609375q0.15625 -0.875 0.15625 -2.03125q0.875 0.140625 1.75 0.21875q-0.21875 0.4375 -0.4375 1.8125l5.890625 0q-0.0625 0.875 -0.140625 2.015625q-0.078125 1.125 -0.265625 2.4375q-0.171875 1.3125 -1.046875 1.53125q-0.875 0.21875 -2.765625 0.4375q-0.140625 -0.953125 -0.734375 -1.609375q2.125 0 2.5625 -0.140625q0.4375 -0.15625 0.578125 -0.8125l0.21875 -2.765625l-4.453125 0q-1.015625 3.140625 -2.875 4.078125q-1.859375 0.953125 -3.96875 1.6875q-0.21875 -0.65625 -1.015625 -1.53125q1.75 -0.15625 3.640625 -1.09375q1.890625 -0.953125 2.6875 -3.140625l-1.671875 0q-2.1875 0 -3.203125 0.140625l0 -1.296875q1.09375 0.0625 3.28125 0.0625l1.8125 0zm1.75 -4.59375q1.46875 -0.875 2.84375 -2.765625l-5.46875 0q1.390625 1.828125 2.625 2.765625z"/><path fill="#000" fill-rule="nonzero" d="m84.38562 206.45535q-2.296875 0 -4.21875 -1.796875q-0.890625 1.046875 -2.75 2.09375l-0.59375 -1.859375q0.8125 -0.234375 2.515625 -1.34375l0 -4.828125l-2.296875 0l0 -1.40625l3.78125 0l0 6.15625q1.484375 1.34375 3.859375 1.34375l9.203125 0l-0.296875 1.640625l-9.203125 0zm1.046875 -14.40625q1.859375 0.4375 2.375 0.671875l1.40625 -1.046875l-6.828125 0l0 -1.40625l8.46875 0l0.359375 -0.21875l1.125 0.8125q0.4375 0.375 -0.375 0.4375l-2.890625 1.9375l0.953125 0.4375l-0.890625 0.890625l3.34375 0l0 8.46875q0 1.03125 -1.03125 1.03125l-1.640625 0l-0.078125 -1.40625l0.96875 0q0.296875 0 0.296875 -0.296875l0 -1.40625l-2.8125 0l0 2.890625l-1.484375 0l0 -2.890625l-2.671875 0l0 3.1875l-1.484375 0l0 -9.578125l5.484375 0q-3.109375 -1.25 -3.703125 -1.40625l1.109375 -1.109375zm2.75 3.703125l0 1.421875l2.8125 0l0 -1.421875l-2.8125 0zm-4.15625 0l0 1.421875l2.671875 0l0 -1.421875l-2.671875 0zm2.671875 2.609375l-2.671875 0l0 1.40625l2.671875 0l0 -1.40625zm4.296875 0l-2.8125 0l0 1.40625l2.8125 0l0 -1.40625zm-12.09375 -8.25q2.0 1.265625 2.75 2.453125l-1.265625 1.34375q-1.1875 -1.484375 -2.53125 -2.53125l1.046875 -1.265625zm16.703125 8.015625q2.8125 -3.328125 3.328125 -8.234375l1.71875 0.453125q0.296875 0.296875 -0.234375 0.4375q-0.359375 2.15625 -0.953125 3.859375q0.8125 0.078125 0.140625 0.515625l0 11.59375l-1.484375 0l0 -9.359375q-0.515625 1.03125 -1.40625 2.078125l-1.109375 -1.34375zm14.390625 4.15625l-6.609375 0l0 2.15625l6.609375 0l0 -2.15625zm-8.09375 -1.40625l9.578125 0l0 5.640625l-1.484375 0l0 -0.65625l-6.609375 0l0 0.890625l-1.484375 0l0 -5.875zm0.453125 -1.265625l0 -1.40625l8.390625 0l0 1.40625l-8.390625 0zm0 -2.59375l0 -1.40625l8.390625 0l0 1.40625l-8.390625 0zm-1.703125 -3.9375l11.9375 0l0 1.421875l-11.9375 0l0 -1.421875zm1.703125 -2.671875l8.390625 0l0 1.421875l-8.390625 0l0 -1.421875z"/><path fill="#cfe2f3" fill-rule="evenodd" d="m10.152231 133.03412l131.74803 0l0 42.4252l-131.74803 0z"/><path fill-rule="evenodd" stroke="#000" stroke-linecap="butt" stroke-linejoin="round" stroke-width="1" d="m10.152231 133.03412l131.74803 0l0 42.4252l-131.74803 0z"/><path fill="#000" fill-rule="nonzero" d="m46.94812 146.5261q-0.140625 2.03125 -0.140625 3.484375l0 10.71875l2.40625 0l0 -11.59375q0 -1.15625 -0.15625 -2.609375l1.828125 0q-0.140625 1.15625 -0.140625 2.46875l0 11.734375l2.828125 0q1.171875 0 2.84375 -0.140625l0 1.59375q-1.671875 -0.140625 -2.765625 -0.140625l-11.078125 0q-1.015625 0 -2.90625 0.140625l0 -1.59375q1.890625 0.140625 2.84375 0.140625l2.6875 0l0 -10.78125q0 -1.53125 -0.21875 -3.421875l1.96875 0zm-5.25 3.640625q0.875 2.25 2.40625 6.625q-0.796875 0.140625 -1.671875 0.578125q-1.3125 -4.21875 -2.328125 -6.546875q0.71875 -0.296875 1.59375 -0.65625zm14.0625 0.4375q-0.9375 2.46875 -2.625 6.921875q-0.71875 -0.4375 -1.515625 -0.65625q1.515625 -2.84375 2.328125 -6.859375q0.796875 0.296875 1.8125 0.59375zm9.921875 -3.859375q-0.59375 0.5 -1.03125 1.15625l8.09375 0q-0.65625 1.09375 -1.71875 2.34375q-1.046875 1.234375 -2.65625 2.328125q1.03125 0.65625 2.765625 0.984375q1.75 0.328125 4.15625 0.390625q-0.578125 0.65625 -0.796875 1.53125q-2.046875 -0.140625 -4.015625 -0.71875q-1.953125 -0.59375 -3.265625 -1.390625q-2.34375 1.09375 -4.234375 1.609375q-1.890625 0.5 -3.71875 0.796875q-0.28125 -0.875 -0.875 -1.53125q1.609375 0 3.640625 -0.4375q2.046875 -0.4375 4.015625 -1.234375q-1.53125 -1.46875 -2.625 -3.0q-1.234375 1.53125 -2.546875 2.5625q-0.515625 -0.59375 -1.3125 -0.875q2.046875 -1.46875 2.984375 -2.8125q0.953125 -1.34375 1.390625 -2.515625q0.9375 0.515625 1.75 0.8125zm-0.15625 9.609375q0.15625 -0.875 0.15625 -2.03125q0.875 0.140625 1.75 0.21875q-0.21875 0.4375 -0.4375 1.8125l5.890625 0q-0.0625 0.875 -0.140625 2.015625q-0.078125 1.125 -0.265625 2.4375q-0.171875 1.3125 -1.046875 1.53125q-0.875 0.21875 -2.765625 0.4375q-0.140625 -0.953125 -0.734375 -1.609375q2.125 0 2.5625 -0.140625q0.4375 -0.15625 0.578125 -0.8125l0.21875 -2.765625l-4.453125 0q-1.015625 3.140625 -2.875 4.078125q-1.859375 0.953125 -3.96875 1.6875q-0.21875 -0.65625 -1.015625 -1.53125q1.75 -0.15625 3.640625 -1.09375q1.890625 -0.953125 2.6875 -3.140625l-1.671875 0q-2.1875 0 -3.203125 0.140625l0 -1.296875q1.09375 0.0625 3.28125 0.0625l1.8125 0zm1.75 -4.59375q1.46875 -0.875 2.84375 -2.765625l-5.46875 0q1.390625 1.828125 2.625 2.765625zm19.90625 0.59375q-0.59375 0.4375 -1.09375 1.015625l6.484375 0q-1.46875 3.125 -3.078125 4.4375q-1.59375 1.3125 -2.90625 1.859375q-1.3125 0.546875 -3.5625 1.0625q-0.296875 -0.875 -0.953125 -1.53125q1.234375 -0.140625 2.578125 -0.390625q1.359375 -0.265625 2.375 -0.84375q-1.09375 -0.953125 -2.109375 -1.609375q0.65625 -0.65625 0.953125 -1.09375q1.453125 1.03125 2.328125 1.828125q1.234375 -0.953125 2.109375 -2.546875l-4.953125 0q-1.171875 1.234375 -2.484375 2.328125q-0.65625 -0.65625 -1.234375 -1.09375q2.625 -1.75 3.9375 -4.296875l-3.5 0q0.078125 -1.390625 0.078125 -2.5625q0 -1.234375 -0.078125 -2.546875l10.859375 0q-0.078125 0.875 -0.078125 2.625q0 1.671875 0.078125 2.484375l-7.140625 0q0.65625 0.5 1.390625 0.875zm-6.921875 -0.515625q-0.078125 1.453125 -0.078125 2.703125l0 4.953125q2.109375 1.75 6.625 1.75q4.59375 0 7.21875 -0.296875q-0.515625 0.875 -0.65625 1.75q-3.203125 0 -5.28125 -0.046875q-2.078125 -0.03125 -3.5 -0.21875q-1.421875 -0.171875 -2.265625 -0.4375q-0.828125 -0.25 -1.640625 -0.796875q-0.796875 -0.546875 -1.3125 -0.03125q-0.5 0.515625 -1.453125 1.609375q-0.4375 -0.59375 -1.234375 -1.09375q1.09375 -0.8125 2.1875 -1.75l0 -6.921875q-0.953125 0 -2.046875 0.0625l0 -1.3125q1.09375 0.078125 3.4375 0.078125zm5.171875 -1.453125l0 -2.84375l-1.90625 0l0 2.84375l1.90625 0zm-6.046875 -4.453125q0.796875 2.546875 1.015625 3.421875q-0.796875 0.21875 -1.390625 0.59375q-0.4375 -1.828125 -1.09375 -3.640625q0.65625 -0.15625 1.46875 -0.375zm12.09375 4.453125l0 -2.84375l-1.828125 0l0 2.84375l1.828125 0zm-3.0625 0l0 -2.84375l-1.75 0l0 2.84375l1.75 0zm24.046875 8.734375q-0.078125 0.734375 -0.078125 1.171875q-0.21875 0 -1.671875 0.21875q0 1.234375 0.078125 2.625l-1.390625 0q0.078125 -1.171875 0.078125 -2.40625q-5.109375 0.578125 -6.640625 1.015625l-0.4375 -1.453125l1.46875 -0.140625l0 -6.921875q-0.734375 0 -1.46875 0.0625l0 -1.234375q1.09375 0.078125 2.34375 0.078125l5.96875 0q0.65625 0 1.53125 -0.078125l0 1.234375q-0.65625 -0.0625 -1.53125 -0.0625l0 6.1875q0.734375 -0.140625 1.75 -0.296875zm-9.40625 -0.875q-0.9375 0.296875 -2.40625 0.734375q0 1.96875 0.078125 4.078125l-1.375 0q0.0625 -2.109375 0.0625 -3.78125q-2.46875 0.65625 -3.34375 0.9375q-0.15625 -0.359375 -0.515625 -1.375q0.875 -0.078125 3.859375 -0.8125l0 -2.6875l-1.75 0q-0.875 0 -1.453125 0.21875l-0.515625 -1.3125q0.65625 -0.21875 1.203125 -1.484375q0.546875 -1.28125 1.0625 -3.109375q-0.65625 0 -2.328125 0.078125l0 -1.25q1.96875 0.078125 2.625 0.078125q0.4375 -1.390625 0.65625 -2.546875q0.578125 0.296875 1.453125 0.4375q-0.4375 1.015625 -0.8125 2.109375q2.046875 0 3.65625 -0.078125l0 1.25q-1.828125 -0.078125 -3.9375 -0.078125q-0.515625 1.53125 -1.609375 4.515625l1.75 0q0 -1.53125 -0.0625 -2.625l1.375 0q-0.078125 1.03125 -0.078125 2.625l2.125 0l0 1.171875l-2.125 0l0 2.46875q1.390625 -0.359375 2.40625 -0.71875l0 1.15625zm7.953125 -11.140625q-0.078125 0.796875 -0.078125 1.96875q0 1.09375 0.078125 1.890625l-7.140625 0q0.0625 -1.015625 0.0625 -2.046875q0 -1.015625 -0.0625 -1.8125l7.140625 0zm-1.3125 2.84375l0 -1.828125l-4.59375 0l0 1.828125l4.59375 0zm-0.21875 7.359375l0 -1.53125l-4.375 0l0 1.53125l4.375 0zm0 -2.546875l0 -1.53125l-4.375 0l0 1.53125l4.375 0zm0 4.796875l0 -1.234375l-4.375 0l0 1.75l4.375 -0.515625z"/><path fill="#000" fill-opacity="0" fill-rule="evenodd" d="m26.152231 221.7979l81.637794 0l0 49.76378l-81.637794 0z"/><path fill="#000" fill-rule="nonzero" d="m52.58973 249.98352q-1.625 -1.109375 -2.890625 -2.96875q-1.921875 2.296875 -4.296875 3.40625l-0.59375 -1.40625q3.1875 -1.859375 4.15625 -3.265625q-0.75 -1.703125 -1.125 -5.34375q-0.296875 0.671875 -0.8125 1.1875l-0.890625 -1.046875q2.078125 -2.21875 2.53125 -6.828125l1.484375 0.296875q0.296875 0.296875 -0.234375 0.375q-0.359375 2.078125 -0.65625 2.890625l3.78125 0l0 1.421875l-1.046875 0q0 4.296875 -1.328125 7.125q0.671875 1.1875 2.75 2.734375l-0.828125 1.421875zm-16.546875 -12.25q1.859375 -1.484375 3.125 -4.078125l1.1875 0.65625q0.359375 0.15625 -0.15625 0.375q-1.328125 2.75 -3.265625 4.234375l-0.890625 -1.1875zm7.71875 9.28125l0.515625 -0.296875l0 -4.015625l-1.1875 0l0 2.078125q0 3.421875 -2.078125 5.046875l-0.8125 -1.1875q1.640625 -1.5625 1.640625 -3.78125l0 -2.15625l-1.265625 0l0 -1.40625l6.015625 0l0 1.40625l-1.046875 0l0 3.34375l1.78125 -1.109375l0.453125 1.03125q-1.1875 0.890625 -3.046875 1.9375q-0.15625 0.4375 -0.375 0.140625l-0.59375 -1.03125zm-8.015625 -4.453125q2.53125 -2.078125 3.71875 -5.421875l1.25 0.671875q0.234375 0.21875 -0.140625 0.359375q-0.515625 1.125 -0.96875 1.9375l0 10.3125l-1.265625 0l0 -8.390625q-0.8125 1.1875 -1.921875 1.9375l-0.671875 -1.40625zm8.828125 -4.15625l0.96875 0l0 -3.421875l1.1875 0q0.59375 0.078125 0.078125 0.453125l0 4.15625l-4.53125 0l0 0.8125l-1.265625 0l0 -5.421875l1.1875 0q0.59375 0.078125 0.078125 0.453125l0 2.96875l1.046875 0l0 -4.75l1.1875 0q0.59375 0.0625 0.0625 0.4375l0 4.3125zm5.28125 6.078125q0.890625 -2.078125 0.890625 -5.78125l-1.71875 0q0.078125 3.265625 0.828125 5.78125zm21.375 -3.640625q-0.890625 3.859375 -1.9375 5.578125q1.484375 1.40625 3.265625 2.078125l-0.890625 1.625q-1.625 -0.734375 -3.265625 -2.21875q-1.109375 1.484375 -2.75 2.453125l-0.953125 -1.5625q1.703125 -0.96875 2.59375 -2.234375q-1.40625 -2.15625 -1.703125 -5.265625l-0.96875 0l0 8.984375l-1.484375 0l0 -16.40625l7.640625 0l0 3.703125q0 1.1875 -1.1875 1.1875l-2.078125 0l-0.140625 -1.40625l1.625 0q0.296875 0 0.296875 -0.296875l0 -1.78125l-4.671875 0l0 4.609375l5.34375 0l0.21875 -0.234375l1.265625 0.828125q0.296875 0.296875 -0.21875 0.359375zm-2.96875 4.3125q0.59375 -1.40625 1.25 -3.859375l-2.4375 0q0.140625 1.78125 1.1875 3.859375zm-11.953125 -11.203125l5.34375 0l0 14.921875q0 1.1875 -1.1875 1.1875l-1.484375 0l-0.078125 -1.421875l0.96875 0q0.296875 0 0.296875 -0.296875l0 -4.53125l-2.375 0l0 0.453125q0 3.703125 -1.5625 6.09375l-1.265625 -1.34375q1.34375 -2.375 1.34375 -4.96875l0 -10.09375zm3.859375 5.640625l-2.375 0l0 2.8125l2.375 0l0 -2.8125zm0 -1.421875l0 -2.8125l-2.375 0l0 2.8125l2.375 0z"/><path fill="#000" fill-rule="nonzero" d="m81.46473 234.29602q-0.59375 0.5 -1.03125 1.15625l8.09375 0q-0.65625 1.09375 -1.71875 2.34375q-1.046875 1.234375 -2.65625 2.328125q1.03125 0.65625 2.765625 0.984375q1.75 0.328125 4.15625 0.390625q-0.578125 0.65625 -0.796875 1.53125q-2.046875 -0.140625 -4.015625 -0.71875q-1.953125 -0.59375 -3.265625 -1.390625q-2.34375 1.09375 -4.234375 1.609375q-1.890625 0.5 -3.71875 0.796875q-0.28125 -0.875 -0.875 -1.53125q1.609375 0 3.640625 -0.4375q2.046875 -0.4375 4.015625 -1.234375q-1.53125 -1.46875 -2.625 -3.0q-1.234375 1.53125 -2.546875 2.5625q-0.515625 -0.59375 -1.3125 -0.875q2.046875 -1.46875 2.984375 -2.8125q0.953125 -1.34375 1.390625 -2.515625q0.9375 0.515625 1.75 0.8125zm-0.15625 9.609375q0.15625 -0.875 0.15625 -2.03125q0.875 0.140625 1.75 0.21875q-0.21875 0.4375 -0.4375 1.8125l5.890625 0q-0.0625 0.875 -0.140625 2.015625q-0.078125 1.125 -0.265625 2.4375q-0.171875 1.3125 -1.046875 1.53125q-0.875 0.21875 -2.765625 0.4375q-0.140625 -0.953125 -0.734375 -1.609375q2.125 0 2.5625 -0.140625q0.4375 -0.15625 0.578125 -0.8125l0.21875 -2.765625l-4.453125 0q-1.015625 3.140625 -2.875 4.078125q-1.859375 0.953125 -3.96875 1.6875q-0.21875 -0.65625 -1.015625 -1.53125q1.75 -0.15625 3.640625 -1.09375q1.890625 -0.953125 2.6875 -3.140625l-1.671875 0q-2.1875 0 -3.203125 0.140625l0 -1.296875q1.09375 0.0625 3.28125 0.0625l1.8125 0zm1.75 -4.59375q1.46875 -0.875 2.84375 -2.765625l-5.46875 0q1.390625 1.828125 2.625 2.765625z"/></g></svg>