<svg version="1.1" viewBox="0.0 0.0 855.6745406824147 405.48293963254594" fill="none" stroke="none" stroke-linecap="square" stroke-miterlimit="10" xmlns:xlink="http://www.w3.org/1999/xlink" xmlns="http://www.w3.org/2000/svg"><clipPath id="p.0"><path d="m0 0l855.67456 0l0 405.48294l-855.67456 0l0 -405.48294z" clip-rule="nonzero"/></clipPath><g clip-path="url(#p.0)"><path fill="#000000" fill-opacity="0.0" d="m0 0l855.67456 0l0 405.48294l-855.67456 0z" fill-rule="evenodd"/><path fill="#ffffff" d="m18.648294 14.887139l820.4409 0l0 374.64566l-820.4409 0z" fill-rule="evenodd"/><path stroke="#000000" stroke-width="1.0" stroke-linejoin="round" stroke-linecap="butt" stroke-dasharray="8.0,3.0" d="m18.648294 14.887139l820.4409 0l0 374.64566l-820.4409 0z" fill-rule="evenodd"/><path fill="#000000" d="m410.29083 37.119637l1.765625 0.453125q-0.5625 2.171875 -2.0 3.328125q-1.4375 1.140625 -3.53125 1.140625q-2.15625 0 -3.515625 -0.875q-1.34375 -0.890625 -2.0625 -2.546875q-0.703125 -1.671875 -0.703125 -3.59375q0 -2.078125 0.796875 -3.625q0.796875 -1.5625 2.265625 -2.359375q1.484375 -0.8125 3.25 -0.8125q2.0 0 3.359375 1.015625q1.375 1.015625 1.90625 2.875l-1.734375 0.40625q-0.46875 -1.453125 -1.359375 -2.109375q-0.875 -0.671875 -2.203125 -0.671875q-1.546875 0 -2.578125 0.734375q-1.03125 0.734375 -1.453125 1.984375q-0.421875 1.234375 -0.421875 2.5625q0 1.703125 0.5 2.96875q0.5 1.265625 1.546875 1.90625q1.046875 0.625 2.265625 0.625q1.484375 0 2.515625 -0.859375q1.03125 -0.859375 1.390625 -2.546875zm3.691681 4.6875l0 -13.359375l1.640625 0l0 13.359375l-1.640625 0zm10.519836 0l0 -1.421875q-1.125 1.640625 -3.0625 1.640625q-0.859375 0 -1.609375 -0.328125q-0.734375 -0.328125 -1.09375 -0.828125q-0.359375 -0.5 -0.5 -1.21875q-0.109375 -0.46875 -0.109375 -1.53125l0 -5.984375l1.640625 0l0 5.359375q0 1.28125 0.109375 1.734375q0.15625 0.640625 0.65625 1.015625q0.5 0.375 1.234375 0.375q0.734375 0 1.375 -0.375q0.65625 -0.390625 0.921875 -1.03125q0.265625 -0.65625 0.265625 -1.890625l0 -5.1875l1.640625 0l0 9.671875l-1.46875 0zm3.3913574 -2.890625l1.625 -0.25q0.125 0.96875 0.75 1.5q0.625 0.515625 1.75 0.515625q1.125 0 1.671875 -0.453125q0.546875 -0.46875 0.546875 -1.09375q0 -0.546875 -0.484375 -0.875q-0.328125 -0.21875 -1.671875 -0.546875q-1.8125 -0.46875 -2.515625 -0.796875q-0.6875 -0.328125 -1.046875 -0.90625q-0.359375 -0.59375 -0.359375 -1.3125q0 -0.640625 0.296875 -1.1875q0.296875 -0.5625 0.8125 -0.921875q0.375 -0.28125 1.03125 -0.46875q0.671875 -0.203125 1.421875 -0.203125q1.140625 0 2.0 0.328125q0.859375 0.328125 1.265625 0.890625q0.421875 0.5625 0.578125 1.5l-1.609375 0.21875q-0.109375 -0.75 -0.640625 -1.171875q-0.515625 -0.421875 -1.46875 -0.421875q-1.140625 0 -1.625 0.375q-0.46875 0.375 -0.46875 0.875q0 0.3125 0.1875 0.578125q0.203125 0.265625 0.640625 0.4375q0.234375 0.09375 1.4375 0.421875q1.75 0.453125 2.4375 0.75q0.6875 0.296875 1.078125 0.859375q0.390625 0.5625 0.390625 1.40625q0 0.828125 -0.484375 1.546875q-0.46875 0.71875 -1.375 1.125q-0.90625 0.390625 -2.046875 0.390625q-1.875 0 -2.875 -0.78125q-0.984375 -0.78125 -1.25 -2.328125zm13.5625 1.421875l0.234375 1.453125q-0.6875 0.140625 -1.234375 0.140625q-0.890625 0 -1.390625 -0.28125q-0.484375 -0.28125 -0.6875 -0.734375q-0.203125 -0.46875 -0.203125 -1.9375l0 -5.578125l-1.203125 0l0 -1.265625l1.203125 0l0 -2.390625l1.625 -0.984375l0 3.375l1.65625 0l0 1.265625l-1.65625 0l0 5.671875q0 0.6875 0.078125 0.890625q0.09375 0.203125 0.28125 0.328125q0.203125 0.109375 0.578125 0.109375q0.265625 0 0.71875 -0.0625zm8.230164 -1.640625l1.6875 0.203125q-0.40625 1.484375 -1.484375 2.3125q-1.078125 0.8125 -2.765625 0.8125q-2.125 0 -3.375 -1.296875q-1.234375 -1.3125 -1.234375 -3.671875q0 -2.453125 1.25 -3.796875q1.265625 -1.34375 3.265625 -1.34375q1.9375 0 3.15625 1.328125q1.234375 1.3125 1.234375 3.703125q0 0.15625 0 0.4375l-7.21875 0q0.09375 1.59375 0.90625 2.453125q0.8125 0.84375 2.015625 0.84375q0.90625 0 1.546875 -0.46875q0.640625 -0.484375 1.015625 -1.515625zm-5.390625 -2.65625l5.40625 0q-0.109375 -1.21875 -0.625 -1.828125q-0.78125 -0.953125 -2.03125 -0.953125q-1.125 0 -1.90625 0.765625q-0.765625 0.75 -0.84375 2.015625zm9.125732 5.765625l0 -9.671875l1.46875 0l0 1.46875q0.5625 -1.03125 1.03125 -1.359375q0.484375 -0.328125 1.0625 -0.328125q0.828125 0 1.6875 0.53125l-0.5625 1.515625q-0.609375 -0.359375 -1.203125 -0.359375q-0.546875 0 -0.96875 0.328125q-0.421875 0.328125 -0.609375 0.890625q-0.28125 0.875 -0.28125 1.921875l0 5.0625l-1.625 0z" fill-rule="nonzero"/><path fill="#ffffff" d="m43.54331 65.76378l371.55905 0l0 309.88977l-371.55905 0z" fill-rule="evenodd"/><path stroke="#000000" stroke-width="1.0" stroke-linejoin="round" stroke-linecap="butt" stroke-dasharray="8.0,3.0" d="m43.54331 65.76378l371.55905 0l0 309.88977l-371.55905 0z" fill-rule="evenodd"/><path fill="#000000" d="m208.44466 92.68378l0 -13.359375l1.8125 0l7.015625 10.484375l0 -10.484375l1.6875 0l0 13.359375l-1.8125 0l-7.015625 -10.5l0 10.5l-1.6875 0zm12.676071 -4.84375q0 -2.6875 1.484375 -3.96875q1.25 -1.078125 3.046875 -1.078125q2.0 0 3.265625 1.3125q1.265625 1.296875 1.265625 3.609375q0 1.859375 -0.5625 2.9375q-0.5625 1.0625 -1.640625 1.65625q-1.0625 0.59375 -2.328125 0.59375q-2.03125 0 -3.28125 -1.296875q-1.25 -1.3125 -1.25 -3.765625zm1.6875 0q0 1.859375 0.796875 2.796875q0.8125 0.921875 2.046875 0.921875q1.21875 0 2.03125 -0.921875q0.8125 -0.9375 0.8125 -2.84375q0 -1.796875 -0.8125 -2.71875q-0.8125 -0.921875 -2.03125 -0.921875q-1.234375 0 -2.046875 0.921875q-0.796875 0.90625 -0.796875 2.765625zm15.563217 4.84375l0 -1.21875q-0.90625 1.4375 -2.703125 1.4375q-1.15625 0 -2.125 -0.640625q-0.96875 -0.640625 -1.5 -1.78125q-0.53125 -1.140625 -0.53125 -2.625q0 -1.453125 0.484375 -2.625q0.484375 -1.1875 1.4375 -1.8125q0.96875 -0.625 2.171875 -0.625q0.875 0 1.546875 0.375q0.6875 0.359375 1.109375 0.953125l0 -4.796875l1.640625 0l0 13.359375l-1.53125 0zm-5.171875 -4.828125q0 1.859375 0.78125 2.78125q0.78125 0.921875 1.84375 0.921875q1.078125 0 1.828125 -0.875q0.75 -0.890625 0.75 -2.6875q0 -1.984375 -0.765625 -2.90625q-0.765625 -0.9375 -1.890625 -0.9375q-1.078125 0 -1.8125 0.890625q-0.734375 0.890625 -0.734375 2.8125zm15.906967 1.71875l1.6875 0.203125q-0.40625 1.484375 -1.484375 2.3125q-1.078125 0.8125 -2.765625 0.8125q-2.125 0 -3.375 -1.296875q-1.234375 -1.3125 -1.234375 -3.671875q0 -2.453125 1.25 -3.796875q1.265625 -1.34375 3.265625 -1.34375q1.9375 0 3.15625 1.328125q1.234375 1.3125 1.234375 3.703125q0 0.15625 0 0.4375l-7.21875 0q0.09375 1.59375 0.90625 2.453125q0.8125 0.84375 2.015625 0.84375q0.90625 0 1.546875 -0.46875q0.640625 -0.484375 1.015625 -1.515625zm-5.390625 -2.65625l5.40625 0q-0.109375 -1.21875 -0.625 -1.828125q-0.78125 -0.953125 -2.03125 -0.953125q-1.125 0 -1.90625 0.765625q-0.765625 0.75 -0.84375 2.015625z" fill-rule="nonzero"/><path fill="#cfe2f3" d="m61.236828 118.77285l0 0c0 -4.7430725 3.8450203 -8.588097 8.588093 -8.588097l49.43798 0c2.2777023 0 4.46212 0.9048157 6.0727005 2.515396c1.6105804 1.6105804 2.515396 3.7949982 2.515396 6.0727005l0 34.351357c0 4.743088 -3.845024 8.588104 -8.588097 8.588104l-49.43798 0l0 0c-4.7430725 0 -8.588093 -3.8450165 -8.588093 -8.588104z" fill-rule="evenodd"/><path stroke="#000000" stroke-width="1.0" stroke-linejoin="round" stroke-linecap="butt" d="m61.236828 118.77285l0 0c0 -4.7430725 3.8450203 -8.588097 8.588093 -8.588097l49.43798 0c2.2777023 0 4.46212 0.9048157 6.0727005 2.515396c1.6105804 1.6105804 2.515396 3.7949982 2.515396 6.0727005l0 34.351357c0 4.743088 -3.845024 8.588104 -8.588097 8.588104l-49.43798 0l0 0c-4.7430725 0 -8.588093 -3.8450165 -8.588093 -8.588104z" fill-rule="evenodd"/><path fill="#000000" d="m79.38391 142.86853l0 -13.359375l5.046875 0q1.328125 0 2.03125 0.125q0.96875 0.171875 1.640625 0.640625q0.671875 0.453125 1.078125 1.28125q0.40625 0.828125 0.40625 1.828125q0 1.703125 -1.09375 2.890625q-1.078125 1.171875 -3.921875 1.171875l-3.421875 0l0 5.421875l-1.765625 0zm1.765625 -7.0l3.453125 0q1.71875 0 2.4375 -0.640625q0.71875 -0.640625 0.71875 -1.796875q0 -0.84375 -0.421875 -1.4375q-0.421875 -0.59375 -1.125 -0.78125q-0.4375 -0.125 -1.640625 -0.125l-3.421875 0l0 4.78125zm9.865448 2.15625q0 -2.6875 1.484375 -3.96875q1.25 -1.078125 3.046875 -1.078125q2.0 0 3.265625 1.3125q1.265625 1.296875 1.265625 3.609375q0 1.859375 -0.5625 2.9375q-0.5625 1.0625 -1.640625 1.65625q-1.0625 0.59375 -2.328125 0.59375q-2.03125 0 -3.28125 -1.296875q-1.25 -1.3125 -1.25 -3.765625zm1.6875 0q0 1.859375 0.796875 2.796875q0.8125 0.921875 2.046875 0.921875q1.21875 0 2.03125 -0.921875q0.8125 -0.9375 0.8125 -2.84375q0 -1.796875 -0.8125 -2.71875q-0.8125 -0.921875 -2.03125 -0.921875q-1.234375 0 -2.046875 0.921875q-0.796875 0.90625 -0.796875 2.765625zm15.563217 4.84375l0 -1.21875q-0.90625 1.4375 -2.703125 1.4375q-1.15625 0 -2.125 -0.640625q-0.96875 -0.640625 -1.5 -1.78125q-0.53125 -1.140625 -0.53125 -2.625q0 -1.453125 0.484375 -2.625q0.484375 -1.1875 1.4375 -1.8125q0.96875 -0.625 2.171875 -0.625q0.875 0 1.546875 0.375q0.6875 0.359375 1.109375 0.953125l0 -4.796875l1.640625 0l0 13.359375l-1.53125 0zm-5.171875 -4.828125q0 1.859375 0.78125 2.78125q0.78125 0.921875 1.84375 0.921875q1.078125 0 1.828125 -0.875q0.75 -0.890625 0.75 -2.6875q0 -1.984375 -0.765625 -2.90625q-0.765625 -0.9375 -1.890625 -0.9375q-1.078125 0 -1.8125 0.890625q-0.734375 0.890625 -0.734375 2.8125z" fill-rule="nonzero"/><path fill="#cfe2f3" d="m61.236828 315.14432l0 0c0 -4.7430725 3.8450203 -8.588104 8.588093 -8.588104l49.43798 0c2.2777023 0 4.46212 0.9048157 6.0727005 2.5154114c1.6105804 1.6105652 2.515396 3.794983 2.515396 6.072693l0 34.35135c0 4.743103 -3.845024 8.588104 -8.588097 8.588104l-49.43798 0l0 0c-4.7430725 0 -8.588093 -3.8450012 -8.588093 -8.588104z" fill-rule="evenodd"/><path stroke="#000000" stroke-width="1.0" stroke-linejoin="round" stroke-linecap="butt" d="m61.236828 315.14432l0 0c0 -4.7430725 3.8450203 -8.588104 8.588093 -8.588104l49.43798 0c2.2777023 0 4.46212 0.9048157 6.0727005 2.5154114c1.6105804 1.6105652 2.515396 3.794983 2.515396 6.072693l0 34.35135c0 4.743103 -3.845024 8.588104 -8.588097 8.588104l-49.43798 0l0 0c-4.7430725 0 -8.588093 -3.8450012 -8.588093 -8.588104z" fill-rule="evenodd"/><path fill="#000000" d="m79.38391 339.24l0 -13.359375l5.046875 0q1.328125 0 2.03125 0.125q0.96875 0.171875 1.640625 0.640625q0.671875 0.453125 1.078125 1.28125q0.40625 0.828125 0.40625 1.828125q0 1.703125 -1.09375 2.890625q-1.078125 1.171875 -3.921875 1.171875l-3.421875 0l0 5.421875l-1.765625 0zm1.765625 -7.0l3.453125 0q1.71875 0 2.4375 -0.640625q0.71875 -0.640625 0.71875 -1.796875q0 -0.84375 -0.421875 -1.4375q-0.421875 -0.59375 -1.125 -0.78125q-0.4375 -0.125 -1.640625 -0.125l-3.421875 0l0 4.78125zm9.865448 2.15625q0 -2.6875 1.484375 -3.96875q1.25 -1.078125 3.046875 -1.078125q2.0 0 3.265625 1.3125q1.265625 1.296875 1.265625 3.609375q0 1.859375 -0.5625 2.9375q-0.5625 1.0625 -1.640625 1.65625q-1.0625 0.59375 -2.328125 0.59375q-2.03125 0 -3.28125 -1.296875q-1.25 -1.3125 -1.25 -3.765625zm1.6875 0q0 1.859375 0.796875 2.796875q0.8125 0.921875 2.046875 0.921875q1.21875 0 2.03125 -0.921875q0.8125 -0.9375 0.8125 -2.84375q0 -1.796875 -0.8125 -2.71875q-0.8125 -0.921875 -2.03125 -0.921875q-1.234375 0 -2.046875 0.921875q-0.796875 0.90625 -0.796875 2.765625zm15.563217 4.84375l0 -1.21875q-0.90625 1.4375 -2.703125 1.4375q-1.15625 0 -2.125 -0.640625q-0.96875 -0.640625 -1.5 -1.78125q-0.53125 -1.140625 -0.53125 -2.625q0 -1.453125 0.484375 -2.625q0.484375 -1.1875 1.4375 -1.8125q0.96875 -0.625 2.171875 -0.625q0.875 0 1.546875 0.375q0.6875 0.359375 1.109375 0.953125l0 -4.796875l1.640625 0l0 13.359375l-1.53125 0zm-5.171875 -4.828125q0 1.859375 0.78125 2.78125q0.78125 0.921875 1.84375 0.921875q1.078125 0 1.828125 -0.875q0.75 -0.890625 0.75 -2.6875q0 -1.984375 -0.765625 -2.90625q-0.765625 -0.9375 -1.890625 -0.9375q-1.078125 0 -1.8125 0.890625q-0.734375 0.890625 -0.734375 2.8125z" fill-rule="nonzero"/><path fill="#cfe2f3" d="m196.54565 315.14432l0 0c0 -4.7430725 3.8450165 -8.588104 8.588089 -8.588104l49.437973 0c2.27771 0 4.4621277 0.9048157 6.0727234 2.5154114c1.6105652 1.6105652 2.5153809 3.794983 2.5153809 6.072693l0 34.35135c0 4.743103 -3.8450317 8.588104 -8.588104 8.588104l-49.437973 0l0 0c-4.7430725 0 -8.588089 -3.8450012 -8.588089 -8.588104z" fill-rule="evenodd"/><path stroke="#000000" stroke-width="1.0" stroke-linejoin="round" stroke-linecap="butt" d="m196.54565 315.14432l0 0c0 -4.7430725 3.8450165 -8.588104 8.588089 -8.588104l49.437973 0c2.27771 0 4.4621277 0.9048157 6.0727234 2.5154114c1.6105652 1.6105652 2.5153809 3.794983 2.5153809 6.072693l0 34.35135c0 4.743103 -3.8450317 8.588104 -8.588104 8.588104l-49.437973 0l0 0c-4.7430725 0 -8.588089 -3.8450012 -8.588089 -8.588104z" fill-rule="evenodd"/><path fill="#000000" d="m214.69273 339.24l0 -13.359375l5.046875 0q1.328125 0 2.03125 0.125q0.96875 0.171875 1.640625 0.640625q0.671875 0.453125 1.078125 1.28125q0.40625 0.828125 0.40625 1.828125q0 1.703125 -1.09375 2.890625q-1.078125 1.171875 -3.921875 1.171875l-3.421875 0l0 5.421875l-1.765625 0zm1.765625 -7.0l3.453125 0q1.71875 0 2.4375 -0.640625q0.71875 -0.640625 0.71875 -1.796875q0 -0.84375 -0.421875 -1.4375q-0.421875 -0.59375 -1.125 -0.78125q-0.4375 -0.125 -1.640625 -0.125l-3.421875 0l0 4.78125zm9.865448 2.15625q0 -2.6875 1.484375 -3.96875q1.25 -1.078125 3.046875 -1.078125q2.0 0 3.265625 1.3125q1.265625 1.296875 1.265625 3.609375q0 1.859375 -0.5625 2.9375q-0.5625 1.0625 -1.640625 1.65625q-1.0625 0.59375 -2.328125 0.59375q-2.03125 0 -3.28125 -1.296875q-1.25 -1.3125 -1.25 -3.765625zm1.6875 0q0 1.859375 0.796875 2.796875q0.8125 0.921875 2.046875 0.921875q1.21875 0 2.03125 -0.921875q0.8125 -0.9375 0.8125 -2.84375q0 -1.796875 -0.8125 -2.71875q-0.8125 -0.921875 -2.03125 -0.921875q-1.234375 0 -2.046875 0.921875q-0.796875 0.90625 -0.796875 2.765625zm15.563217 4.84375l0 -1.21875q-0.90625 1.4375 -2.703125 1.4375q-1.15625 0 -2.125 -0.640625q-0.96875 -0.640625 -1.5 -1.78125q-0.53125 -1.140625 -0.53125 -2.625q0 -1.453125 0.484375 -2.625q0.484375 -1.1875 1.4375 -1.8125q0.96875 -0.625 2.171875 -0.625q0.875 0 1.546875 0.375q0.6875 0.359375 1.109375 0.953125l0 -4.796875l1.640625 0l0 13.359375l-1.53125 0zm-5.171875 -4.828125q0 1.859375 0.78125 2.78125q0.78125 0.921875 1.84375 0.921875q1.078125 0 1.828125 -0.875q0.75 -0.890625 0.75 -2.6875q0 -1.984375 -0.765625 -2.90625q-0.765625 -0.9375 -1.890625 -0.9375q-1.078125 0 -1.8125 0.890625q-0.734375 0.890625 -0.734375 2.8125z" fill-rule="nonzero"/><path fill="#cfe2f3" d="m196.54565 118.77285l0 0c0 -4.7430725 3.8450165 -8.588097 8.588089 -8.588097l49.437973 0c2.27771 0 4.4621277 0.9048157 6.0727234 2.515396c1.6105652 1.6105804 2.5153809 3.7949982 2.5153809 6.0727005l0 34.351357c0 4.743088 -3.8450317 8.588104 -8.588104 8.588104l-49.437973 0l0 0c-4.7430725 0 -8.588089 -3.8450165 -8.588089 -8.588104z" fill-rule="evenodd"/><path stroke="#000000" stroke-width="1.0" stroke-linejoin="round" stroke-linecap="butt" d="m196.54565 118.77285l0 0c0 -4.7430725 3.8450165 -8.588097 8.588089 -8.588097l49.437973 0c2.27771 0 4.4621277 0.9048157 6.0727234 2.515396c1.6105652 1.6105804 2.5153809 3.7949982 2.5153809 6.0727005l0 34.351357c0 4.743088 -3.8450317 8.588104 -8.588104 8.588104l-49.437973 0l0 0c-4.7430725 0 -8.588089 -3.8450165 -8.588089 -8.588104z" fill-rule="evenodd"/><path fill="#000000" d="m214.69273 142.86853l0 -13.359375l5.046875 0q1.328125 0 2.03125 0.125q0.96875 0.171875 1.640625 0.640625q0.671875 0.453125 1.078125 1.28125q0.40625 0.828125 0.40625 1.828125q0 1.703125 -1.09375 2.890625q-1.078125 1.171875 -3.921875 1.171875l-3.421875 0l0 5.421875l-1.765625 0zm1.765625 -7.0l3.453125 0q1.71875 0 2.4375 -0.640625q0.71875 -0.640625 0.71875 -1.796875q0 -0.84375 -0.421875 -1.4375q-0.421875 -0.59375 -1.125 -0.78125q-0.4375 -0.125 -1.640625 -0.125l-3.421875 0l0 4.78125zm9.865448 2.15625q0 -2.6875 1.484375 -3.96875q1.25 -1.078125 3.046875 -1.078125q2.0 0 3.265625 1.3125q1.265625 1.296875 1.265625 3.609375q0 1.859375 -0.5625 2.9375q-0.5625 1.0625 -1.640625 1.65625q-1.0625 0.59375 -2.328125 0.59375q-2.03125 0 -3.28125 -1.296875q-1.25 -1.3125 -1.25 -3.765625zm1.6875 0q0 1.859375 0.796875 2.796875q0.8125 0.921875 2.046875 0.921875q1.21875 0 2.03125 -0.921875q0.8125 -0.9375 0.8125 -2.84375q0 -1.796875 -0.8125 -2.71875q-0.8125 -0.921875 -2.03125 -0.921875q-1.234375 0 -2.046875 0.921875q-0.796875 0.90625 -0.796875 2.765625zm15.563217 4.84375l0 -1.21875q-0.90625 1.4375 -2.703125 1.4375q-1.15625 0 -2.125 -0.640625q-0.96875 -0.640625 -1.5 -1.78125q-0.53125 -1.140625 -0.53125 -2.625q0 -1.453125 0.484375 -2.625q0.484375 -1.1875 1.4375 -1.8125q0.96875 -0.625 2.171875 -0.625q0.875 0 1.546875 0.375q0.6875 0.359375 1.109375 0.953125l0 -4.796875l1.640625 0l0 13.359375l-1.53125 0zm-5.171875 -4.828125q0 1.859375 0.78125 2.78125q0.78125 0.921875 1.84375 0.921875q1.078125 0 1.828125 -0.875q0.75 -0.890625 0.75 -2.6875q0 -1.984375 -0.765625 -2.90625q-0.765625 -0.9375 -1.890625 -0.9375q-1.078125 0 -1.8125 0.890625q-0.734375 0.890625 -0.734375 2.8125z" fill-rule="nonzero"/><path fill="#cfe2f3" d="m331.85446 118.77285l0 0c0 -4.7430725 3.8450317 -8.588097 8.588104 -8.588097l49.43799 0c2.27771 0 4.4621277 0.9048157 6.072693 2.515396c1.6105957 1.6105804 2.5154114 3.7949982 2.5154114 6.0727005l0 34.351357c0 4.743088 -3.8450317 8.588104 -8.588104 8.588104l-49.43799 0l0 0c-4.7430725 0 -8.588104 -3.8450165 -8.588104 -8.588104z" fill-rule="evenodd"/><path stroke="#000000" stroke-width="1.0" stroke-linejoin="round" stroke-linecap="butt" d="m331.85446 118.77285l0 0c0 -4.7430725 3.8450317 -8.588097 8.588104 -8.588097l49.43799 0c2.27771 0 4.4621277 0.9048157 6.072693 2.515396c1.6105957 1.6105804 2.5154114 3.7949982 2.5154114 6.0727005l0 34.351357c0 4.743088 -3.8450317 8.588104 -8.588104 8.588104l-49.43799 0l0 0c-4.7430725 0 -8.588104 -3.8450165 -8.588104 -8.588104z" fill-rule="evenodd"/><path fill="#000000" d="m350.00156 142.86853l0 -13.359375l5.046875 0q1.328125 0 2.03125 0.125q0.96875 0.171875 1.640625 0.640625q0.671875 0.453125 1.078125 1.28125q0.40625 0.828125 0.40625 1.828125q0 1.703125 -1.09375 2.890625q-1.078125 1.171875 -3.921875 1.171875l-3.421875 0l0 5.421875l-1.765625 0zm1.765625 -7.0l3.453125 0q1.71875 0 2.4375 -0.640625q0.71875 -0.640625 0.71875 -1.796875q0 -0.84375 -0.421875 -1.4375q-0.421875 -0.59375 -1.125 -0.78125q-0.4375 -0.125 -1.640625 -0.125l-3.421875 0l0 4.78125zm9.865448 2.15625q0 -2.6875 1.484375 -3.96875q1.25 -1.078125 3.046875 -1.078125q2.0 0 3.265625 1.3125q1.265625 1.296875 1.265625 3.609375q0 1.859375 -0.5625 2.9375q-0.5625 1.0625 -1.640625 1.65625q-1.0625 0.59375 -2.328125 0.59375q-2.03125 0 -3.28125 -1.296875q-1.25 -1.3125 -1.25 -3.765625zm1.6875 0q0 1.859375 0.796875 2.796875q0.8125 0.921875 2.046875 0.921875q1.21875 0 2.03125 -0.921875q0.8125 -0.9375 0.8125 -2.84375q0 -1.796875 -0.8125 -2.71875q-0.8125 -0.921875 -2.03125 -0.921875q-1.234375 0 -2.046875 0.921875q-0.796875 0.90625 -0.796875 2.765625zm15.563202 4.84375l0 -1.21875q-0.90625 1.4375 -2.703125 1.4375q-1.15625 0 -2.125 -0.640625q-0.96875 -0.640625 -1.5 -1.78125q-0.53125 -1.140625 -0.53125 -2.625q0 -1.453125 0.484375 -2.625q0.484375 -1.1875 1.4375 -1.8125q0.96875 -0.625 2.171875 -0.625q0.875 0 1.546875 0.375q0.6875 0.359375 1.109375 0.953125l0 -4.796875l1.640625 0l0 13.359375l-1.53125 0zm-5.171875 -4.828125q0 1.859375 0.78125 2.78125q0.78125 0.921875 1.84375 0.921875q1.078125 0 1.828125 -0.875q0.75 -0.890625 0.75 -2.6875q0 -1.984375 -0.765625 -2.90625q-0.765625 -0.9375 -1.890625 -0.9375q-1.078125 0 -1.8125 0.890625q-0.734375 0.890625 -0.734375 2.8125z" fill-rule="nonzero"/><path fill="#cfe2f3" d="m337.06036 315.14432l0 0c0 -4.7430725 3.8450317 -8.588104 8.588104 -8.588104l49.437958 0c2.27771 0 4.4621277 0.9048157 6.0727234 2.5154114c1.6105652 1.6105652 2.5153809 3.794983 2.5153809 6.072693l0 34.35135c0 4.743103 -3.8450317 8.588104 -8.588104 8.588104l-49.437958 0l0 0c-4.7430725 0 -8.588104 -3.8450012 -8.588104 -8.588104z" fill-rule="evenodd"/><path stroke="#000000" stroke-width="1.0" stroke-linejoin="round" stroke-linecap="butt" d="m337.06036 315.14432l0 0c0 -4.7430725 3.8450317 -8.588104 8.588104 -8.588104l49.437958 0c2.27771 0 4.4621277 0.9048157 6.0727234 2.5154114c1.6105652 1.6105652 2.5153809 3.794983 2.5153809 6.072693l0 34.35135c0 4.743103 -3.8450317 8.588104 -8.588104 8.588104l-49.437958 0l0 0c-4.7430725 0 -8.588104 -3.8450012 -8.588104 -8.588104z" fill-rule="evenodd"/><path fill="#000000" d="m355.20746 339.24l0 -13.359375l5.046875 0q1.328125 0 2.03125 0.125q0.96875 0.171875 1.640625 0.640625q0.671875 0.453125 1.078125 1.28125q0.40625 0.828125 0.40625 1.828125q0 1.703125 -1.09375 2.890625q-1.078125 1.171875 -3.921875 1.171875l-3.421875 0l0 5.421875l-1.765625 0zm1.765625 -7.0l3.453125 0q1.71875 0 2.4375 -0.640625q0.71875 -0.640625 0.71875 -1.796875q0 -0.84375 -0.421875 -1.4375q-0.421875 -0.59375 -1.125 -0.78125q-0.4375 -0.125 -1.640625 -0.125l-3.421875 0l0 4.78125zm9.865448 2.15625q0 -2.6875 1.484375 -3.96875q1.25 -1.078125 3.046875 -1.078125q1.9999695 0 3.2655945 1.3125q1.265625 1.296875 1.265625 3.609375q0 1.859375 -0.5625 2.9375q-0.5625 1.0625 -1.640625 1.65625q-1.0625 0.59375 -2.3280945 0.59375q-2.03125 0 -3.28125 -1.296875q-1.25 -1.3125 -1.25 -3.765625zm1.6875 0q0 1.859375 0.796875 2.796875q0.8125 0.921875 2.046875 0.921875q1.2187195 0 2.0312195 -0.921875q0.8125 -0.9375 0.8125 -2.84375q0 -1.796875 -0.8125 -2.71875q-0.8125 -0.921875 -2.0312195 -0.921875q-1.234375 0 -2.046875 0.921875q-0.796875 0.90625 -0.796875 2.765625zm15.563202 4.84375l0 -1.21875q-0.90625 1.4375 -2.703125 1.4375q-1.15625 0 -2.125 -0.640625q-0.96875 -0.640625 -1.5 -1.78125q-0.53125 -1.140625 -0.53125 -2.625q0 -1.453125 0.484375 -2.625q0.484375 -1.1875 1.4375 -1.8125q0.96875 -0.625 2.171875 -0.625q0.875 0 1.546875 0.375q0.6875 0.359375 1.109375 0.953125l0 -4.796875l1.640625 0l0 13.359375l-1.53125 0zm-5.171875 -4.828125q0 1.859375 0.78125 2.78125q0.78125 0.921875 1.84375 0.921875q1.078125 0 1.828125 -0.875q0.75 -0.890625 0.75 -2.6875q0 -1.984375 -0.765625 -2.90625q-0.765625 -0.9375 -1.890625 -0.9375q-1.078125 0 -1.8125 0.890625q-0.734375 0.890625 -0.734375 2.8125z" fill-rule="nonzero"/><path fill="#000000" fill-opacity="0.0" d="m94.543915 161.71231l232.6929 48.97638" fill-rule="evenodd"/><path stroke="#000000" stroke-width="1.0" stroke-linejoin="round" stroke-linecap="butt" d="m94.543915 161.71231l232.6929 48.97638" fill-rule="evenodd"/><path fill="#000000" fill-opacity="0.0" d="m229.85274 161.71231l109.70079 45.88977" fill-rule="evenodd"/><path stroke="#000000" stroke-width="1.0" stroke-linejoin="round" stroke-linecap="butt" d="m229.85274 161.71231l109.70079 45.88977" fill-rule="evenodd"/><path fill="#000000" fill-opacity="0.0" d="m365.16156 161.71231l14.48819 41.259842" fill-rule="evenodd"/><path stroke="#000000" stroke-width="1.0" stroke-linejoin="round" stroke-linecap="butt" d="m365.16156 161.71231l14.48819 41.259842" fill-rule="evenodd"/><path fill="#000000" fill-opacity="0.0" d="m370.36743 306.5562l24.692932 -43.433075" fill-rule="evenodd"/><path stroke="#000000" stroke-width="1.0" stroke-linejoin="round" stroke-linecap="butt" d="m370.36743 306.5562l24.692932 -43.433075" fill-rule="evenodd"/><path fill="#000000" fill-opacity="0.0" d="m229.85274 306.5562l159.05513 -54.236206" fill-rule="evenodd"/><path stroke="#000000" stroke-width="1.0" stroke-linejoin="round" stroke-linecap="butt" d="m229.85274 306.5562l159.05513 -54.236206" fill-rule="evenodd"/><path fill="#000000" fill-opacity="0.0" d="m94.543915 306.5562l208.0315 -54.236206" fill-rule="evenodd"/><path stroke="#000000" stroke-width="1.0" stroke-linejoin="round" stroke-linecap="butt" d="m94.543915 306.5562l208.0315 -54.236206" fill-rule="evenodd"/><path fill="#ffffff" d="m455.1916 65.76378l371.55908 0l0 309.88977l-371.55908 0z" fill-rule="evenodd"/><path stroke="#000000" stroke-width="1.0" stroke-linejoin="round" stroke-linecap="butt" stroke-dasharray="8.0,3.0" d="m455.1916 65.76378l371.55908 0l0 309.88977l-371.55908 0z" fill-rule="evenodd"/><path fill="#000000" d="m620.09296 92.68378l0 -13.359375l1.8125 0l7.015625 10.484375l0 -10.484375l1.6875 0l0 13.359375l-1.8125 0l-7.015625 -10.5l0 10.5l-1.6875 0zm12.676086 -4.84375q0 -2.6875 1.484375 -3.96875q1.25 -1.078125 3.046875 -1.078125q2.0 0 3.265625 1.3125q1.265625 1.296875 1.265625 3.609375q0 1.859375 -0.5625 2.9375q-0.5625 1.0625 -1.640625 1.65625q-1.0625 0.59375 -2.328125 0.59375q-2.03125 0 -3.28125 -1.296875q-1.25 -1.3125 -1.25 -3.765625zm1.6875 0q0 1.859375 0.796875 2.796875q0.8125 0.921875 2.046875 0.921875q1.21875 0 2.03125 -0.921875q0.8125 -0.9375 0.8125 -2.84375q0 -1.796875 -0.8125 -2.71875q-0.8125 -0.921875 -2.03125 -0.921875q-1.234375 0 -2.046875 0.921875q-0.796875 0.90625 -0.796875 2.765625zm15.563171 4.84375l0 -1.21875q-0.90625 1.4375 -2.703125 1.4375q-1.15625 0 -2.125 -0.640625q-0.96875 -0.640625 -1.5 -1.78125q-0.53125 -1.140625 -0.53125 -2.625q0 -1.453125 0.484375 -2.625q0.484375 -1.1875 1.4375 -1.8125q0.96875 -0.625 2.171875 -0.625q0.875 0 1.546875 0.375q0.6875 0.359375 1.109375 0.953125l0 -4.796875l1.640625 0l0 13.359375l-1.53125 0zm-5.171875 -4.828125q0 1.859375 0.78125 2.78125q0.78125 0.921875 1.84375 0.921875q1.078125 0 1.828125 -0.875q0.75 -0.890625 0.75 -2.6875q0 -1.984375 -0.765625 -2.90625q-0.765625 -0.9375 -1.890625 -0.9375q-1.078125 0 -1.8125 0.890625q-0.734375 0.890625 -0.734375 2.8125zm15.906982 1.71875l1.6875 0.203125q-0.40625 1.484375 -1.484375 2.3125q-1.078125 0.8125 -2.765625 0.8125q-2.125 0 -3.375 -1.296875q-1.234375 -1.3125 -1.234375 -3.671875q0 -2.453125 1.25 -3.796875q1.265625 -1.34375 3.265625 -1.34375q1.9375 0 3.15625 1.328125q1.234375 1.3125 1.234375 3.703125q0 0.15625 0 0.4375l-7.21875 0q0.09375 1.59375 0.90625 2.453125q0.8125 0.84375 2.015625 0.84375q0.90625 0 1.546875 -0.46875q0.640625 -0.484375 1.015625 -1.515625zm-5.390625 -2.65625l5.40625 0q-0.109375 -1.21875 -0.625 -1.828125q-0.78125 -0.953125 -2.03125 -0.953125q-1.125 0 -1.90625 0.765625q-0.765625 0.75 -0.84375 2.015625z" fill-rule="nonzero"/><path fill="#cfe2f3" d="m472.88513 118.77285l0 0c0 -4.7430725 3.8450012 -8.588097 8.588074 -8.588097l49.43799 0c2.27771 0 4.462097 0.9048157 6.072693 2.515396c1.6105957 1.6105804 2.5153809 3.7949982 2.5153809 6.0727005l0 34.351357c0 4.743088 -3.8449707 8.588104 -8.588074 8.588104l-49.43799 0l0 0c-4.7430725 0 -8.588074 -3.8450165 -8.588074 -8.588104z" fill-rule="evenodd"/><path stroke="#000000" stroke-width="1.0" stroke-linejoin="round" stroke-linecap="butt" d="m472.88513 118.77285l0 0c0 -4.7430725 3.8450012 -8.588097 8.588074 -8.588097l49.43799 0c2.27771 0 4.462097 0.9048157 6.072693 2.515396c1.6105957 1.6105804 2.5153809 3.7949982 2.5153809 6.0727005l0 34.351357c0 4.743088 -3.8449707 8.588104 -8.588074 8.588104l-49.43799 0l0 0c-4.7430725 0 -8.588074 -3.8450165 -8.588074 -8.588104z" fill-rule="evenodd"/><path fill="#000000" d="m491.0322 142.86853l0 -13.359375l5.046875 0q1.328125 0 2.03125 0.125q0.96875 0.171875 1.640625 0.640625q0.671875 0.453125 1.078125 1.28125q0.40625 0.828125 0.40625 1.828125q0 1.703125 -1.09375 2.890625q-1.078125 1.171875 -3.921875 1.171875l-3.421875 0l0 5.421875l-1.765625 0zm1.765625 -7.0l3.453125 0q1.71875 0 2.4375 -0.640625q0.71875 -0.640625 0.71875 -1.796875q0 -0.84375 -0.421875 -1.4375q-0.421875 -0.59375 -1.125 -0.78125q-0.4375 -0.125 -1.640625 -0.125l-3.421875 0l0 4.78125zm9.865448 2.15625q0 -2.6875 1.484375 -3.96875q1.25 -1.078125 3.046875 -1.078125q2.0 0 3.265625 1.3125q1.265625 1.296875 1.265625 3.609375q0 1.859375 -0.5625 2.9375q-0.5625 1.0625 -1.640625 1.65625q-1.0625 0.59375 -2.328125 0.59375q-2.03125 0 -3.28125 -1.296875q-1.25 -1.3125 -1.25 -3.765625zm1.6875 0q0 1.859375 0.796875 2.796875q0.8125 0.921875 2.046875 0.921875q1.21875 0 2.03125 -0.921875q0.8125 -0.9375 0.8125 -2.84375q0 -1.796875 -0.8125 -2.71875q-0.8125 -0.921875 -2.03125 -0.921875q-1.234375 0 -2.046875 0.921875q-0.796875 0.90625 -0.796875 2.765625zm15.563232 4.84375l0 -1.21875q-0.90625 1.4375 -2.703125 1.4375q-1.15625 0 -2.125 -0.640625q-0.96875 -0.640625 -1.5 -1.78125q-0.53125 -1.140625 -0.53125 -2.625q0 -1.453125 0.484375 -2.625q0.484375 -1.1875 1.4375 -1.8125q0.96875 -0.625 2.171875 -0.625q0.875 0 1.546875 0.375q0.6875 0.359375 1.109375 0.953125l0 -4.796875l1.640625 0l0 13.359375l-1.53125 0zm-5.171875 -4.828125q0 1.859375 0.78125 2.78125q0.78125 0.921875 1.84375 0.921875q1.078125 0 1.828125 -0.875q0.75 -0.890625 0.75 -2.6875q0 -1.984375 -0.765625 -2.90625q-0.765625 -0.9375 -1.890625 -0.9375q-1.078125 0 -1.8125 0.890625q-0.734375 0.890625 -0.734375 2.8125z" fill-rule="nonzero"/><path fill="#cfe2f3" d="m472.88513 315.14432l0 0c0 -4.7430725 3.8450012 -8.588104 8.588074 -8.588104l49.43799 0c2.27771 0 4.462097 0.9048157 6.072693 2.5154114c1.6105957 1.6105652 2.5153809 3.794983 2.5153809 6.072693l0 34.35135c0 4.743103 -3.8449707 8.588104 -8.588074 8.588104l-49.43799 0l0 0c-4.7430725 0 -8.588074 -3.8450012 -8.588074 -8.588104z" fill-rule="evenodd"/><path stroke="#000000" stroke-width="1.0" stroke-linejoin="round" stroke-linecap="butt" d="m472.88513 315.14432l0 0c0 -4.7430725 3.8450012 -8.588104 8.588074 -8.588104l49.43799 0c2.27771 0 4.462097 0.9048157 6.072693 2.5154114c1.6105957 1.6105652 2.5153809 3.794983 2.5153809 6.072693l0 34.35135c0 4.743103 -3.8449707 8.588104 -8.588074 8.588104l-49.43799 0l0 0c-4.7430725 0 -8.588074 -3.8450012 -8.588074 -8.588104z" fill-rule="evenodd"/><path fill="#000000" d="m491.0322 339.24l0 -13.359375l5.046875 0q1.328125 0 2.03125 0.125q0.96875 0.171875 1.640625 0.640625q0.671875 0.453125 1.078125 1.28125q0.40625 0.828125 0.40625 1.828125q0 1.703125 -1.09375 2.890625q-1.078125 1.171875 -3.921875 1.171875l-3.421875 0l0 5.421875l-1.765625 0zm1.765625 -7.0l3.453125 0q1.71875 0 2.4375 -0.640625q0.71875 -0.640625 0.71875 -1.796875q0 -0.84375 -0.421875 -1.4375q-0.421875 -0.59375 -1.125 -0.78125q-0.4375 -0.125 -1.640625 -0.125l-3.421875 0l0 4.78125zm9.865448 2.15625q0 -2.6875 1.484375 -3.96875q1.25 -1.078125 3.046875 -1.078125q2.0 0 3.265625 1.3125q1.265625 1.296875 1.265625 3.609375q0 1.859375 -0.5625 2.9375q-0.5625 1.0625 -1.640625 1.65625q-1.0625 0.59375 -2.328125 0.59375q-2.03125 0 -3.28125 -1.296875q-1.25 -1.3125 -1.25 -3.765625zm1.6875 0q0 1.859375 0.796875 2.796875q0.8125 0.921875 2.046875 0.921875q1.21875 0 2.03125 -0.921875q0.8125 -0.9375 0.8125 -2.84375q0 -1.796875 -0.8125 -2.71875q-0.8125 -0.921875 -2.03125 -0.921875q-1.234375 0 -2.046875 0.921875q-0.796875 0.90625 -0.796875 2.765625zm15.563232 4.84375l0 -1.21875q-0.90625 1.4375 -2.703125 1.4375q-1.15625 0 -2.125 -0.640625q-0.96875 -0.640625 -1.5 -1.78125q-0.53125 -1.140625 -0.53125 -2.625q0 -1.453125 0.484375 -2.625q0.484375 -1.1875 1.4375 -1.8125q0.96875 -0.625 2.171875 -0.625q0.875 0 1.546875 0.375q0.6875 0.359375 1.109375 0.953125l0 -4.796875l1.640625 0l0 13.359375l-1.53125 0zm-5.171875 -4.828125q0 1.859375 0.78125 2.78125q0.78125 0.921875 1.84375 0.921875q1.078125 0 1.828125 -0.875q0.75 -0.890625 0.75 -2.6875q0 -1.984375 -0.765625 -2.90625q-0.765625 -0.9375 -1.890625 -0.9375q-1.078125 0 -1.8125 0.890625q-0.734375 0.890625 -0.734375 2.8125z" fill-rule="nonzero"/><path fill="#cfe2f3" d="m608.194 315.14432l0 0c0 -4.7430725 3.8449707 -8.588104 8.588074 -8.588104l49.43799 0c2.27771 0 4.462097 0.9048157 6.072693 2.5154114c1.6105957 1.6105652 2.5153809 3.794983 2.5153809 6.072693l0 34.35135c0 4.743103 -3.8450317 8.588104 -8.588074 8.588104l-49.43799 0l0 0c-4.743103 0 -8.588074 -3.8450012 -8.588074 -8.588104z" fill-rule="evenodd"/><path stroke="#000000" stroke-width="1.0" stroke-linejoin="round" stroke-linecap="butt" d="m608.194 315.14432l0 0c0 -4.7430725 3.8449707 -8.588104 8.588074 -8.588104l49.43799 0c2.27771 0 4.462097 0.9048157 6.072693 2.5154114c1.6105957 1.6105652 2.5153809 3.794983 2.5153809 6.072693l0 34.35135c0 4.743103 -3.8450317 8.588104 -8.588074 8.588104l-49.43799 0l0 0c-4.743103 0 -8.588074 -3.8450012 -8.588074 -8.588104z" fill-rule="evenodd"/><path fill="#000000" d="m626.341 339.24l0 -13.359375l5.046875 0q1.328125 0 2.03125 0.125q0.96875 0.171875 1.640625 0.640625q0.671875 0.453125 1.078125 1.28125q0.40625 0.828125 0.40625 1.828125q0 1.703125 -1.09375 2.890625q-1.078125 1.171875 -3.921875 1.171875l-3.421875 0l0 5.421875l-1.765625 0zm1.765625 -7.0l3.453125 0q1.71875 0 2.4375 -0.640625q0.71875 -0.640625 0.71875 -1.796875q0 -0.84375 -0.421875 -1.4375q-0.421875 -0.59375 -1.125 -0.78125q-0.4375 -0.125 -1.640625 -0.125l-3.421875 0l0 4.78125zm9.8654785 2.15625q0 -2.6875 1.484375 -3.96875q1.25 -1.078125 3.046875 -1.078125q2.0 0 3.265625 1.3125q1.265625 1.296875 1.265625 3.609375q0 1.859375 -0.5625 2.9375q-0.5625 1.0625 -1.640625 1.65625q-1.0625 0.59375 -2.328125 0.59375q-2.03125 0 -3.28125 -1.296875q-1.25 -1.3125 -1.25 -3.765625zm1.6875 0q0 1.859375 0.796875 2.796875q0.8125 0.921875 2.046875 0.921875q1.21875 0 2.03125 -0.921875q0.8125 -0.9375 0.8125 -2.84375q0 -1.796875 -0.8125 -2.71875q-0.8125 -0.921875 -2.03125 -0.921875q-1.234375 0 -2.046875 0.921875q-0.796875 0.90625 -0.796875 2.765625zm15.563232 4.84375l0 -1.21875q-0.90625 1.4375 -2.703125 1.4375q-1.15625 0 -2.125 -0.640625q-0.96875 -0.640625 -1.5 -1.78125q-0.53125 -1.140625 -0.53125 -2.625q0 -1.453125 0.484375 -2.625q0.484375 -1.1875 1.4375 -1.8125q0.96875 -0.625 2.171875 -0.625q0.875 0 1.546875 0.375q0.6875 0.359375 1.109375 0.953125l0 -4.796875l1.640625 0l0 13.359375l-1.53125 0zm-5.171875 -4.828125q0 1.859375 0.78125 2.78125q0.78125 0.921875 1.84375 0.921875q1.078125 0 1.828125 -0.875q0.75 -0.890625 0.75 -2.6875q0 -1.984375 -0.765625 -2.90625q-0.765625 -0.9375 -1.890625 -0.9375q-1.078125 0 -1.8125 0.890625q-0.734375 0.890625 -0.734375 2.8125z" fill-rule="nonzero"/><path fill="#cfe2f3" d="m608.194 118.77285l0 0c0 -4.7430725 3.8449707 -8.588097 8.588074 -8.588097l49.43799 0c2.27771 0 4.462097 0.9048157 6.072693 2.515396c1.6105957 1.6105804 2.5153809 3.7949982 2.5153809 6.0727005l0 34.351357c0 4.743088 -3.8450317 8.588104 -8.588074 8.588104l-49.43799 0l0 0c-4.743103 0 -8.588074 -3.8450165 -8.588074 -8.588104z" fill-rule="evenodd"/><path stroke="#000000" stroke-width="1.0" stroke-linejoin="round" stroke-linecap="butt" d="m608.194 118.77285l0 0c0 -4.7430725 3.8449707 -8.588097 8.588074 -8.588097l49.43799 0c2.27771 0 4.462097 0.9048157 6.072693 2.515396c1.6105957 1.6105804 2.5153809 3.7949982 2.5153809 6.0727005l0 34.351357c0 4.743088 -3.8450317 8.588104 -8.588074 8.588104l-49.43799 0l0 0c-4.743103 0 -8.588074 -3.8450165 -8.588074 -8.588104z" fill-rule="evenodd"/><path fill="#000000" d="m626.341 142.86853l0 -13.359375l5.046875 0q1.328125 0 2.03125 0.125q0.96875 0.171875 1.640625 0.640625q0.671875 0.453125 1.078125 1.28125q0.40625 0.828125 0.40625 1.828125q0 1.703125 -1.09375 2.890625q-1.078125 1.171875 -3.921875 1.171875l-3.421875 0l0 5.421875l-1.765625 0zm1.765625 -7.0l3.453125 0q1.71875 0 2.4375 -0.640625q0.71875 -0.640625 0.71875 -1.796875q0 -0.84375 -0.421875 -1.4375q-0.421875 -0.59375 -1.125 -0.78125q-0.4375 -0.125 -1.640625 -0.125l-3.421875 0l0 4.78125zm9.8654785 2.15625q0 -2.6875 1.484375 -3.96875q1.25 -1.078125 3.046875 -1.078125q2.0 0 3.265625 1.3125q1.265625 1.296875 1.265625 3.609375q0 1.859375 -0.5625 2.9375q-0.5625 1.0625 -1.640625 1.65625q-1.0625 0.59375 -2.328125 0.59375q-2.03125 0 -3.28125 -1.296875q-1.25 -1.3125 -1.25 -3.765625zm1.6875 0q0 1.859375 0.796875 2.796875q0.8125 0.921875 2.046875 0.921875q1.21875 0 2.03125 -0.921875q0.8125 -0.9375 0.8125 -2.84375q0 -1.796875 -0.8125 -2.71875q-0.8125 -0.921875 -2.03125 -0.921875q-1.234375 0 -2.046875 0.921875q-0.796875 0.90625 -0.796875 2.765625zm15.563232 4.84375l0 -1.21875q-0.90625 1.4375 -2.703125 1.4375q-1.15625 0 -2.125 -0.640625q-0.96875 -0.640625 -1.5 -1.78125q-0.53125 -1.140625 -0.53125 -2.625q0 -1.453125 0.484375 -2.625q0.484375 -1.1875 1.4375 -1.8125q0.96875 -0.625 2.171875 -0.625q0.875 0 1.546875 0.375q0.6875 0.359375 1.109375 0.953125l0 -4.796875l1.640625 0l0 13.359375l-1.53125 0zm-5.171875 -4.828125q0 1.859375 0.78125 2.78125q0.78125 0.921875 1.84375 0.921875q1.078125 0 1.828125 -0.875q0.75 -0.890625 0.75 -2.6875q0 -1.984375 -0.765625 -2.90625q-0.765625 -0.9375 -1.890625 -0.9375q-1.078125 0 -1.8125 0.890625q-0.734375 0.890625 -0.734375 2.8125z" fill-rule="nonzero"/><path fill="#cfe2f3" d="m743.50275 118.77285l0 0c0 -4.7430725 3.8450317 -8.588097 8.588135 -8.588097l49.43799 0c2.277649 0 4.462097 0.9048157 6.072693 2.515396c1.6105347 1.6105804 2.5153809 3.7949982 2.5153809 6.0727005l0 34.351357c0 4.743088 -3.8450317 8.588104 -8.588074 8.588104l-49.43799 0l0 0c-4.743103 0 -8.588135 -3.8450165 -8.588135 -8.588104z" fill-rule="evenodd"/><path stroke="#000000" stroke-width="1.0" stroke-linejoin="round" stroke-linecap="butt" d="m743.50275 118.77285l0 0c0 -4.7430725 3.8450317 -8.588097 8.588135 -8.588097l49.43799 0c2.277649 0 4.462097 0.9048157 6.072693 2.515396c1.6105347 1.6105804 2.5153809 3.7949982 2.5153809 6.0727005l0 34.351357c0 4.743088 -3.8450317 8.588104 -8.588074 8.588104l-49.43799 0l0 0c-4.743103 0 -8.588135 -3.8450165 -8.588135 -8.588104z" fill-rule="evenodd"/><path fill="#000000" d="m761.64984 142.86853l0 -13.359375l5.046875 0q1.328125 0 2.03125 0.125q0.96875 0.171875 1.640625 0.640625q0.671875 0.453125 1.078125 1.28125q0.40625 0.828125 0.40625 1.828125q0 1.703125 -1.09375 2.890625q-1.078125 1.171875 -3.921875 1.171875l-3.421875 0l0 5.421875l-1.765625 0zm1.765625 -7.0l3.453125 0q1.71875 0 2.4375 -0.640625q0.71875 -0.640625 0.71875 -1.796875q0 -0.84375 -0.421875 -1.4375q-0.421875 -0.59375 -1.125 -0.78125q-0.4375 -0.125 -1.640625 -0.125l-3.421875 0l0 4.78125zm9.8654785 2.15625q0 -2.6875 1.484375 -3.96875q1.25 -1.078125 3.046875 -1.078125q2.0 0 3.265625 1.3125q1.265625 1.296875 1.265625 3.609375q0 1.859375 -0.5625 2.9375q-0.5625 1.0625 -1.640625 1.65625q-1.0625 0.59375 -2.328125 0.59375q-2.03125 0 -3.28125 -1.296875q-1.25 -1.3125 -1.25 -3.765625zm1.6875 0q0 1.859375 0.796875 2.796875q0.8125 0.921875 2.046875 0.921875q1.21875 0 2.03125 -0.921875q0.8125 -0.9375 0.8125 -2.84375q0 -1.796875 -0.8125 -2.71875q-0.8125 -0.921875 -2.03125 -0.921875q-1.234375 0 -2.046875 0.921875q-0.796875 0.90625 -0.796875 2.765625zm15.563171 4.84375l0 -1.21875q-0.90625 1.4375 -2.703125 1.4375q-1.15625 0 -2.125 -0.640625q-0.96875 -0.640625 -1.5 -1.78125q-0.53125 -1.140625 -0.53125 -2.625q0 -1.453125 0.484375 -2.625q0.484375 -1.1875 1.4375 -1.8125q0.96875 -0.625 2.171875 -0.625q0.875 0 1.546875 0.375q0.6875 0.359375 1.109375 0.953125l0 -4.796875l1.640625 0l0 13.359375l-1.53125 0zm-5.171875 -4.828125q0 1.859375 0.78125 2.78125q0.78125 0.921875 1.84375 0.921875q1.078125 0 1.828125 -0.875q0.75 -0.890625 0.75 -2.6875q0 -1.984375 -0.765625 -2.90625q-0.765625 -0.9375 -1.890625 -0.9375q-1.078125 0 -1.8125 0.890625q-0.734375 0.890625 -0.734375 2.8125z" fill-rule="nonzero"/><path fill="#cfe2f3" d="m748.7087 315.14432l0 0c0 -4.7430725 3.8449707 -8.588104 8.588074 -8.588104l49.43799 0c2.27771 0 4.462097 0.9048157 6.072693 2.5154114c1.6105957 1.6105652 2.5153809 3.794983 2.5153809 6.072693l0 34.35135c0 4.743103 -3.8450317 8.588104 -8.588074 8.588104l-49.43799 0l0 0c-4.743103 0 -8.588074 -3.8450012 -8.588074 -8.588104z" fill-rule="evenodd"/><path stroke="#000000" stroke-width="1.0" stroke-linejoin="round" stroke-linecap="butt" d="m748.7087 315.14432l0 0c0 -4.7430725 3.8449707 -8.588104 8.588074 -8.588104l49.43799 0c2.27771 0 4.462097 0.9048157 6.072693 2.5154114c1.6105957 1.6105652 2.5153809 3.794983 2.5153809 6.072693l0 34.35135c0 4.743103 -3.8450317 8.588104 -8.588074 8.588104l-49.43799 0l0 0c-4.743103 0 -8.588074 -3.8450012 -8.588074 -8.588104z" fill-rule="evenodd"/><path fill="#000000" d="m766.8557 339.24l0 -13.359375l5.046875 0q1.328125 0 2.03125 0.125q0.96875 0.171875 1.640625 0.640625q0.671875 0.453125 1.078125 1.28125q0.40625 0.828125 0.40625 1.828125q0 1.703125 -1.09375 2.890625q-1.078125 1.171875 -3.921875 1.171875l-3.421875 0l0 5.421875l-1.765625 0zm1.765625 -7.0l3.453125 0q1.71875 0 2.4375 -0.640625q0.71875 -0.640625 0.71875 -1.796875q0 -0.84375 -0.421875 -1.4375q-0.421875 -0.59375 -1.125 -0.78125q-0.4375 -0.125 -1.640625 -0.125l-3.421875 0l0 4.78125zm9.8654785 2.15625q0 -2.6875 1.484375 -3.96875q1.25 -1.078125 3.046875 -1.078125q2.0 0 3.265625 1.3125q1.265625 1.296875 1.265625 3.609375q0 1.859375 -0.5625 2.9375q-0.5625 1.0625 -1.640625 1.65625q-1.0625 0.59375 -2.328125 0.59375q-2.03125 0 -3.28125 -1.296875q-1.25 -1.3125 -1.25 -3.765625zm1.6875 0q0 1.859375 0.796875 2.796875q0.8125 0.921875 2.046875 0.921875q1.21875 0 2.03125 -0.921875q0.8125 -0.9375 0.8125 -2.84375q0 -1.796875 -0.8125 -2.71875q-0.8125 -0.921875 -2.03125 -0.921875q-1.234375 0 -2.046875 0.921875q-0.796875 0.90625 -0.796875 2.765625zm15.563232 4.84375l0 -1.21875q-0.90625 1.4375 -2.703125 1.4375q-1.15625 0 -2.125 -0.640625q-0.96875 -0.640625 -1.5 -1.78125q-0.53125 -1.140625 -0.53125 -2.625q0 -1.453125 0.484375 -2.625q0.484375 -1.1875 1.4375 -1.8125q0.96875 -0.625 2.171875 -0.625q0.875 0 1.546875 0.375q0.6875 0.359375 1.109375 0.953125l0 -4.796875l1.640625 0l0 13.359375l-1.53125 0zm-5.171875 -4.828125q0 1.859375 0.78125 2.78125q0.78125 0.921875 1.84375 0.921875q1.078125 0 1.828125 -0.875q0.75 -0.890625 0.75 -2.6875q0 -1.984375 -0.765625 -2.90625q-0.765625 -0.9375 -1.890625 -0.9375q-1.078125 0 -1.8125 0.890625q-0.734375 0.890625 -0.734375 2.8125z" fill-rule="nonzero"/><path fill="#000000" fill-opacity="0.0" d="m506.1922 161.71231l-23.24408 22.771652" fill-rule="evenodd"/><path stroke="#000000" stroke-width="1.0" stroke-linejoin="round" stroke-linecap="butt" d="m506.1922 161.71231l-23.24408 22.771652" fill-rule="evenodd"/><path fill="#000000" fill-opacity="0.0" d="m641.50104 161.71231l-73.763794 35.08661" fill-rule="evenodd"/><path stroke="#000000" stroke-width="1.0" stroke-linejoin="round" stroke-linecap="butt" d="m641.50104 161.71231l-73.763794 35.08661" fill-rule="evenodd"/><path fill="#000000" fill-opacity="0.0" d="m776.8099 161.71231l-186.51971 64.7874" fill-rule="evenodd"/><path stroke="#000000" stroke-width="1.0" stroke-linejoin="round" stroke-linecap="butt" d="m776.8099 161.71231l-186.51971 64.7874" fill-rule="evenodd"/><path fill="#000000" fill-opacity="0.0" d="m782.01575 306.5562l-249.7323 -55.779526" fill-rule="evenodd"/><path stroke="#000000" stroke-width="1.0" stroke-linejoin="round" stroke-linecap="butt" d="m782.01575 306.5562l-249.7323 -55.779526" fill-rule="evenodd"/><path fill="#000000" fill-opacity="0.0" d="m641.50104 306.5562l-147.74805 -54.236206" fill-rule="evenodd"/><path stroke="#000000" stroke-width="1.0" stroke-linejoin="round" stroke-linecap="butt" d="m641.50104 306.5562l-147.74805 -54.236206" fill-rule="evenodd"/><path fill="#000000" fill-opacity="0.0" d="m506.1922 306.5562l-37.13385 -46.519684" fill-rule="evenodd"/><path stroke="#000000" stroke-width="1.0" stroke-linejoin="round" stroke-linecap="butt" d="m506.1922 306.5562l-37.13385 -46.519684" fill-rule="evenodd"/><path fill="#cfe2f3" d="m311.72888 212.43193l0 0c-2.4710999 -6.778305 5.6419983 -13.488419 20.896606 -17.282974c15.254608 -3.794571 34.975403 -4.0081177 50.794098 -0.5500183l0 0c5.603485 -3.9411926 15.859467 -6.6623077 27.665741 -7.340271c11.806274 -0.67796326 23.776123 0.76686096 32.28891 3.8974304l0 0c4.7734375 -3.5733337 14.146179 -5.9741516 24.792267 -6.350525c10.646057 -0.3763733 21.058838 1.3249512 27.543274 4.50029l0 0c8.623932 -3.787735 22.344788 -5.3825226 35.225525 -4.0942993c12.880676 1.2882233 22.607788 5.228073 24.972229 10.114761l0 0c10.565796 1.0757294 19.366821 3.810379 24.129272 7.4973907c4.762451 3.687027 5.019043 7.9647217 0.7036133 11.72789l0 0c10.404175 5.0543365 12.837952 11.789185 6.3931274 17.691223c-6.444824 5.9020233 -20.800049 10.084534 -37.708496 10.986664c-0.11920166 5.539261 -8.258057 10.622025 -21.27948 13.289185c-13.021484 2.6671143 -28.892212 2.5021667 -41.494934 -0.43130493c-5.368103 6.6342163 -20.477478 11.515625 -38.800323 12.535248c-18.322845 1.0196228 -36.574463 -2.00531 -46.869446 -7.767914c-12.619476 2.8404236 -27.76184 3.6586304 -42.01123 2.270111c-14.249359 -1.3885193 -26.405487 -4.8668213 -33.726196 -9.650299l0 0c-12.895538 0.56326294 -25.363739 -1.9305573 -31.216675 -6.243805c-5.8529663 -4.3132324 -3.844696 -9.52771 5.0281067 -13.055481l0 0c-11.503174 -2.5271301 -17.372772 -7.541794 -14.548065 -12.429047c2.8247375 -4.887253 13.703674 -8.539612 26.963898 -9.052536z" fill-rule="evenodd"/><path fill="#000000" fill-opacity="0.0" d="m299.0581 234.17474l0 0c5.4283752 1.1925659 11.699432 1.7335358 17.97116 1.550293m8.2146 17.749435c2.6970825 -0.11781311 5.3407288 -0.36727905 7.8627625 -0.7419739m67.87091 8.121841c-1.8969421 -1.0617981 -3.4851685 -2.1964417 -4.73761 -3.3845825m90.410645 -1.3829651l0 0c0.9786682 -1.2095184 1.612793 -2.4543762 1.8917236 -3.713791m60.88031 -9.1436c0.12689209 -5.897415 -8.847046 -11.297134 -23.067139 -13.879837m54.382202 -14.79744c-2.3029175 2.0081787 -5.8185425 3.7896118 -10.27124 5.204605m-14.559448 -24.430405l0 0c0.39239502 0.8109436 0.5739746 1.634079 0.5422363 2.4579926m-60.738983 -8.47821l0 0c-2.151245 0.9448395 -3.923584 2.000702 -5.261841 3.1346893m-47.07419 -1.2848663l0 0c-1.1464233 0.8582001 -2.0025024 1.7663269 -2.548523 2.7034454m-57.407013 0.73947144l0 0c3.347229 0.73172 6.443878 1.612442 9.221893 2.6228027m-80.91168 15.210281l0 0c0.34057617 0.93421936 0.8786926 1.8569336 1.6093445 2.7594757" fill-rule="evenodd"/><path stroke="#000000" stroke-width="1.0" stroke-linejoin="round" stroke-linecap="butt" d="m311.72888 212.43193l0 0c-2.4710999 -6.778305 5.6419983 -13.488419 20.896606 -17.282974c15.254608 -3.794571 34.975403 -4.0081177 50.794098 -0.5500183l0 0c5.603485 -3.9411926 15.859467 -6.6623077 27.665741 -7.340271c11.806274 -0.67796326 23.776123 0.76686096 32.28891 3.8974304l0 0c4.7734375 -3.5733337 14.146179 -5.9741516 24.792267 -6.350525c10.646057 -0.3763733 21.058838 1.3249512 27.543274 4.50029l0 0c8.623932 -3.787735 22.344788 -5.3825226 35.225525 -4.0942993c12.880676 1.2882233 22.607788 5.228073 24.972229 10.114761l0 0c10.565796 1.0757294 19.366821 3.810379 24.129272 7.4973907c4.762451 3.687027 5.019043 7.9647217 0.7036133 11.72789l0 0c10.404175 5.0543365 12.837952 11.789185 6.3931274 17.691223c-6.444824 5.9020233 -20.800049 10.084534 -37.708496 10.986664c-0.11920166 5.539261 -8.258057 10.622025 -21.27948 13.289185c-13.021484 2.6671143 -28.892212 2.5021667 -41.494934 -0.43130493c-5.368103 6.6342163 -20.477478 11.515625 -38.800323 12.535248c-18.322845 1.0196228 -36.574463 -2.00531 -46.869446 -7.767914c-12.619476 2.8404236 -27.76184 3.6586304 -42.01123 2.270111c-14.249359 -1.3885193 -26.405487 -4.8668213 -33.726196 -9.650299l0 0c-12.895538 0.56326294 -25.363739 -1.9305573 -31.216675 -6.243805c-5.8529663 -4.3132324 -3.844696 -9.52771 5.0281067 -13.055481l0 0c-11.503174 -2.5271301 -17.372772 -7.541794 -14.548065 -12.429047c2.8247375 -4.887253 13.703674 -8.539612 26.963898 -9.052536z" fill-rule="evenodd"/><path stroke="#000000" stroke-width="1.0" stroke-linejoin="round" stroke-linecap="butt" d="m299.0581 234.17474l0 0c5.4283752 1.1925659 11.699432 1.7335358 17.97116 1.550293m8.2146 17.749435c2.6970825 -0.11781311 5.3407288 -0.36727905 7.8627625 -0.7419739m67.87091 8.121841c-1.8969421 -1.0617981 -3.4851685 -2.1964417 -4.73761 -3.3845825m90.410645 -1.3829651l0 0c0.9786682 -1.2095184 1.612793 -2.4543762 1.8917236 -3.713791m60.88031 -9.1436c0.12689209 -5.897415 -8.847046 -11.297134 -23.067139 -13.879837m54.382202 -14.79744c-2.3029175 2.0081787 -5.8185425 3.7896118 -10.27124 5.204605m-14.559448 -24.430405l0 0c0.39239502 0.8109436 0.5739746 1.634079 0.5422363 2.4579926m-60.738983 -8.47821l0 0c-2.151245 0.9448395 -3.923584 2.000702 -5.261841 3.1346893m-47.07419 -1.2848663l0 0c-1.1464233 0.8582001 -2.0025024 1.7663269 -2.548523 2.7034454m-57.407013 0.73947144l0 0c3.347229 0.73172 6.443878 1.612442 9.221893 2.6228027m-80.91168 15.210281l0 0c0.34057617 0.93421936 0.8786926 1.8569336 1.6093445 2.7594757" fill-rule="evenodd"/><path fill="#000000" d="m390.82214 233.08823l0 -17.1875l2.265625 0l0 15.15625l8.46875 0l0 2.03125l-10.734375 0zm12.597656 -4.53125l2.109375 -0.28125q0.359375 1.78125 1.234375 2.578125q0.875 0.796875 2.125 0.796875q1.484375 0 2.5 -1.03125q1.03125 -1.03125 1.03125 -2.5625q0 -1.453125 -0.953125 -2.390625q-0.9375 -0.953125 -2.40625 -0.953125q-0.59375 0 -1.484375 0.234375l0.234375 -1.84375q0.203125 0.015625 0.34375 0.015625q1.34375 0 2.421875 -0.703125q1.078125 -0.703125 1.078125 -2.15625q0 -1.171875 -0.796875 -1.921875q-0.78125 -0.765625 -2.015625 -0.765625q-1.234375 0 -2.0625 0.78125q-0.8125 0.765625 -1.046875 2.3125l-2.109375 -0.375q0.390625 -2.125 1.75 -3.28125q1.375 -1.171875 3.421875 -1.171875q1.40625 0 2.578125 0.609375q1.1875 0.59375 1.8125 1.640625q0.640625 1.046875 0.640625 2.21875q0 1.109375 -0.609375 2.03125q-0.59375 0.90625 -1.765625 1.4375q1.53125 0.359375 2.375 1.46875q0.84375 1.109375 0.84375 2.765625q0 2.25 -1.640625 3.828125q-1.640625 1.5625 -4.15625 1.5625q-2.265625 0 -3.765625 -1.34375q-1.484375 -1.359375 -1.6875 -3.5z" fill-rule="nonzero"/><path fill="#000000" d="m424.65808 226.61948q-1.125 2.90625 -3.375 5.4375l-1.03125 -1.40625q2.15625 -2.625 3.28125 -5.53125q-1.40625 -2.0625 -2.90625 -4.03125l0.9375 -0.9375q1.3125 1.5 2.34375 2.90625q0.375 -2.25 0.5625 -4.59375l1.59375 0.375q0.75 0.28125 -0.09375 0.5625q-0.28125 2.25 -0.75 5.15625q1.3125 1.78125 2.4375 3.46875l-0.9375 1.59375q-1.03125 -1.5 -2.0625 -3.0zm-4.875 -9.5625l0 17.34375l-1.875 0l0 -19.125l19.40625 0l0 17.4375q0 1.5 -1.40625 1.5l-2.34375 0l-0.375 -1.78125l1.96875 0q0.28125 0 0.28125 -0.28125l0 -15.09375l-15.65625 0zm11.0625 6.5625q0.5625 -2.8125 0.75 -5.25l1.5 0.1875q0.9375 0.28125 0 0.65625q-0.28125 2.625 -1.03125 5.8125q1.40625 1.96875 2.4375 3.75l-0.9375 1.5q-1.125 -1.875 -2.15625 -3.46875q-1.40625 3.65625 -3.28125 5.625l-1.03125 -1.5q1.875 -1.96875 3.09375 -5.53125q-1.40625 -2.25 -2.8125 -3.9375l0.9375 -1.03125q1.125 1.3125 2.53125 3.1875z" fill-rule="nonzero"/><path fill="#000000" d="m448.75183 221.46323q1.03125 -1.125 1.6875 -2.25q0.65625 -1.125 1.265625 -2.484375q0.609375 -1.359375 0.984375 -3.140625q1.03125 0.46875 2.25 0.65625q-0.5625 0.84375 -1.21875 2.15625l7.59375 0q-1.40625 2.8125 -2.34375 4.21875q-0.9375 1.40625 -1.96875 2.53125q1.21875 0.84375 2.90625 1.40625q1.6875 0.5625 3.09375 0.84375q-0.46875 0.75 -0.9375 1.96875q-0.9375 -0.28125 -1.6875 -0.5625q-0.1875 1.3125 -0.1875 2.4375l0 3.375q0 1.40625 0.09375 2.90625l-1.78125 0l0 -1.78125l-5.625 0l0 1.96875l-1.78125 0q0.09375 -1.40625 0.09375 -2.625l0 -3.75q0 -0.75 -0.09375 -2.53125q-0.5625 0.28125 -1.59375 0.65625q-0.375 -1.03125 -1.03125 -1.78125q1.40625 -0.375 3.140625 -1.078125q1.734375 -0.703125 2.765625 -1.546875q-1.21875 -1.59375 -2.0625 -3.5625q-1.03125 1.59375 -2.0625 3.0q-0.5625 -0.5625 -1.5 -1.03125zm-2.15625 -6.09375q-0.65625 0.84375 -1.5 2.578125q-0.84375 1.734375 -1.96875 3.703125l2.625 0q1.03125 -1.96875 1.5 -3.46875q0.9375 0.75 1.875 1.21875q-0.5625 0.65625 -1.6875 2.671875q-1.125 2.015625 -3.09375 5.296875q2.8125 -0.46875 4.03125 -0.65625q-0.09375 1.21875 0 1.78125q-2.25 0.28125 -3.46875 0.515625q-1.21875 0.234375 -2.8125 0.609375q-0.28125 -1.03125 -0.65625 -1.78125q0.9375 -0.375 1.828125 -1.6875q0.890625 -1.3125 1.828125 -3.1875q-2.53125 0.09375 -3.84375 0.65625q-0.28125 -0.84375 -0.65625 -1.875q1.125 -0.5625 2.25 -2.859375q1.125 -2.296875 1.6875 -4.546875q1.03125 0.65625 2.0625 1.03125zm11.90625 16.875l0 -4.03125l-5.625 0l0 4.03125l5.625 0zm-9.84375 -1.78125q0.1875 0.9375 0.1875 1.6875q-1.03125 0.1875 -2.953125 0.84375q-1.921875 0.65625 -3.703125 1.40625q-0.375 -1.125 -0.84375 -2.0625q2.34375 -0.46875 3.890625 -0.84375q1.546875 -0.375 3.421875 -1.03125zm7.125 -8.53125q0.5625 -0.5625 1.359375 -1.6875q0.796875 -1.125 1.359375 -2.34375l-5.0625 0q0.9375 2.34375 2.34375 4.03125zm4.5 4.78125q-1.3125 -0.5625 -2.484375 -1.125q-1.171875 -0.5625 -2.203125 -1.3125q-1.125 0.75 -2.109375 1.3125q-0.984375 0.5625 -2.203125 1.125l9.0 0z" fill-rule="nonzero"/></g></svg>